<?xml version="1.0" encoding="UTF-8" standalone="no"?>
<svg xmlns:svg="http://www.w3.org/2000/svg"
xmlns="http://www.w3.org/2000/svg" version="1.1"
width="360.0" height="215.9">
<!-- Created with the Wikimedia westminster parliament diagram creator (http://parliamentdiagram.toolforge.org/westminsterinputform.html) -->
<g id="diagram">
  <g id="headbench">
  <g style="fill:#F8F9FA" id="Speaker">
    <rect x="6.0294" y="98.6765" rx="9.26" ry="9.26" width="18.53" height="18.53"/>
    <rect x="26.6176" y="98.6765" rx="9.26" ry="9.26" width="18.53" height="18.53"/>
  </g>
  </g>
  <g id="leftbench">
  <g style="fill:#9D2235" id="Labour">
    <rect x="26.6176" y="67.7941" rx="9.26" ry="9.26" width="18.53" height="18.53"/>
    <rect x="26.6176" y="47.2059" rx="9.26" ry="9.26" width="18.53" height="18.53"/>
    <rect x="26.6176" y="26.6176" rx="9.26" ry="9.26" width="18.53" height="18.53"/>
    <rect x="26.6176" y="6.0294" rx="9.26" ry="9.26" width="18.53" height="18.53"/>
    <rect x="47.2059" y="67.7941" rx="9.26" ry="9.26" width="18.53" height="18.53"/>
    <rect x="47.2059" y="47.2059" rx="9.26" ry="9.26" width="18.53" height="18.53"/>
    <rect x="47.2059" y="26.6176" rx="9.26" ry="9.26" width="18.53" height="18.53"/>
    <rect x="47.2059" y="6.0294" rx="9.26" ry="9.26" width="18.53" height="18.53"/>
    <rect x="67.7941" y="67.7941" rx="9.26" ry="9.26" width="18.53" height="18.53"/>
    <rect x="67.7941" y="47.2059" rx="9.26" ry="9.26" width="18.53" height="18.53"/>
    <rect x="67.7941" y="26.6176" rx="9.26" ry="9.26" width="18.53" height="18.53"/>
    <rect x="67.7941" y="6.0294" rx="9.26" ry="9.26" width="18.53" height="18.53"/>
    <rect x="88.3824" y="67.7941" rx="9.26" ry="9.26" width="18.53" height="18.53"/>
    <rect x="88.3824" y="47.2059" rx="9.26" ry="9.26" width="18.53" height="18.53"/>
    <rect x="88.3824" y="26.6176" rx="9.26" ry="9.26" width="18.53" height="18.53"/>
    <rect x="88.3824" y="6.0294" rx="9.26" ry="9.26" width="18.53" height="18.53"/>
    <rect x="108.9706" y="67.7941" rx="9.26" ry="9.26" width="18.53" height="18.53"/>
    <rect x="108.9706" y="47.2059" rx="9.26" ry="9.26" width="18.53" height="18.53"/>
    <rect x="108.9706" y="26.6176" rx="9.26" ry="9.26" width="18.53" height="18.53"/>
    <rect x="108.9706" y="6.0294" rx="9.26" ry="9.26" width="18.53" height="18.53"/>
    <rect x="129.5588" y="67.7941" rx="9.26" ry="9.26" width="18.53" height="18.53"/>
    <rect x="129.5588" y="47.2059" rx="9.26" ry="9.26" width="18.53" height="18.53"/>
    <rect x="129.5588" y="26.6176" rx="9.26" ry="9.26" width="18.53" height="18.53"/>
    <rect x="129.5588" y="6.0294" rx="9.26" ry="9.26" width="18.53" height="18.53"/>
    <rect x="150.1471" y="67.7941" rx="9.26" ry="9.26" width="18.53" height="18.53"/>
    <rect x="150.1471" y="47.2059" rx="9.26" ry="9.26" width="18.53" height="18.53"/>
  </g>
  <g style="fill:#066913" id="Justice">
    <rect x="150.1471" y="26.6176" rx="9.26" ry="9.26" width="18.53" height="18.53"/>
    <rect x="150.1471" y="6.0294" rx="9.26" ry="9.26" width="18.53" height="18.53"/>
    <rect x="170.7353" y="67.7941" rx="9.26" ry="9.26" width="18.53" height="18.53"/>
    <rect x="170.7353" y="47.2059" rx="9.26" ry="9.26" width="18.53" height="18.53"/>
    <rect x="170.7353" y="26.6176" rx="9.26" ry="9.26" width="18.53" height="18.53"/>
    <rect x="170.7353" y="6.0294" rx="9.26" ry="9.26" width="18.53" height="18.53"/>
    <rect x="191.3235" y="67.7941" rx="9.26" ry="9.26" width="18.53" height="18.53"/>
    <rect x="191.3235" y="47.2059" rx="9.26" ry="9.26" width="18.53" height="18.53"/>
    <rect x="191.3235" y="26.6176" rx="9.26" ry="9.26" width="18.53" height="18.53"/>
    <rect x="191.3235" y="6.0294" rx="9.26" ry="9.26" width="18.53" height="18.53"/>
    <rect x="211.9118" y="67.7941" rx="9.26" ry="9.26" width="18.53" height="18.53"/>
  </g>
  <g style="fill:#3333FF" id="Democratic">
    <rect x="211.9118" y="47.2059" rx="9.26" ry="9.26" width="18.53" height="18.53"/>
    <rect x="211.9118" y="26.6176" rx="9.26" ry="9.26" width="18.53" height="18.53"/>
    <rect x="211.9118" y="6.0294" rx="9.26" ry="9.26" width="18.53" height="18.53"/>
    <rect x="232.5000" y="67.7941" rx="9.26" ry="9.26" width="18.53" height="18.53"/>
    <rect x="232.5000" y="47.2059" rx="9.26" ry="9.26" width="18.53" height="18.53"/>
    <rect x="232.5000" y="26.6176" rx="9.26" ry="9.26" width="18.53" height="18.53"/>
    <rect x="232.5000" y="6.0294" rx="9.26" ry="9.26" width="18.53" height="18.53"/>
    <rect x="253.0882" y="67.7941" rx="9.26" ry="9.26" width="18.53" height="18.53"/>
    <rect x="253.0882" y="47.2059" rx="9.26" ry="9.26" width="18.53" height="18.53"/>
    <rect x="253.0882" y="26.6176" rx="9.26" ry="9.26" width="18.53" height="18.53"/>
    <rect x="253.0882" y="6.0294" rx="9.26" ry="9.26" width="18.53" height="18.53"/>
    <rect x="273.6765" y="67.7941" rx="9.26" ry="9.26" width="18.53" height="18.53"/>
    <rect x="273.6765" y="47.2059" rx="9.26" ry="9.26" width="18.53" height="18.53"/>
    <rect x="273.6765" y="26.6176" rx="9.26" ry="9.26" width="18.53" height="18.53"/>
    <rect x="273.6765" y="6.0294" rx="9.26" ry="9.26" width="18.53" height="18.53"/>
    <rect x="294.2647" y="67.7941" rx="9.26" ry="9.26" width="18.53" height="18.53"/>
    <rect x="294.2647" y="47.2059" rx="9.26" ry="9.26" width="18.53" height="18.53"/>
    <rect x="294.2647" y="26.6176" rx="9.26" ry="9.26" width="18.53" height="18.53"/>
    <rect x="294.2647" y="6.0294" rx="9.26" ry="9.26" width="18.53" height="18.53"/>
  </g>
  </g>
  <g id="rightbench">
  <g style="fill:#F0FF13" id="Liberal">
    <rect x="26.6176" y="129.5588" rx="9.26" ry="9.26" width="18.53" height="18.53"/>
    <rect x="26.6176" y="150.1471" rx="9.26" ry="9.26" width="18.53" height="18.53"/>
    <rect x="26.6176" y="170.7353" rx="9.26" ry="9.26" width="18.53" height="18.53"/>
    <rect x="26.6176" y="191.3235" rx="9.26" ry="9.26" width="18.53" height="18.53"/>
    <rect x="47.2059" y="129.5588" rx="9.26" ry="9.26" width="18.53" height="18.53"/>
    <rect x="47.2059" y="150.1471" rx="9.26" ry="9.26" width="18.53" height="18.53"/>
    <rect x="47.2059" y="170.7353" rx="9.26" ry="9.26" width="18.53" height="18.53"/>
    <rect x="47.2059" y="191.3235" rx="9.26" ry="9.26" width="18.53" height="18.53"/>
    <rect x="67.7941" y="129.5588" rx="9.26" ry="9.26" width="18.53" height="18.53"/>
    <rect x="67.7941" y="150.1471" rx="9.26" ry="9.26" width="18.53" height="18.53"/>
    <rect x="67.7941" y="170.7353" rx="9.26" ry="9.26" width="18.53" height="18.53"/>
    <rect x="67.7941" y="191.3235" rx="9.26" ry="9.26" width="18.53" height="18.53"/>
    <rect x="88.3824" y="129.5588" rx="9.26" ry="9.26" width="18.53" height="18.53"/>
    <rect x="88.3824" y="150.1471" rx="9.26" ry="9.26" width="18.53" height="18.53"/>
  </g>
  <g style="fill:#3C87FF" id="Alliance">
    <rect x="88.3824" y="170.7353" rx="9.26" ry="9.26" width="18.53" height="18.53"/>
    <rect x="88.3824" y="191.3235" rx="9.26" ry="9.26" width="18.53" height="18.53"/>
    <rect x="108.9706" y="129.5588" rx="9.26" ry="9.26" width="18.53" height="18.53"/>
    <rect x="108.9706" y="150.1471" rx="9.26" ry="9.26" width="18.53" height="18.53"/>
    <rect x="108.9706" y="170.7353" rx="9.26" ry="9.26" width="18.53" height="18.53"/>
  </g>
  <g style="fill:#E81B23" id="Republican">
    <rect x="108.9706" y="191.3235" rx="9.26" ry="9.26" width="18.53" height="18.53"/>
    <rect x="129.5588" y="129.5588" rx="9.26" ry="9.26" width="18.53" height="18.53"/>
    <rect x="129.5588" y="150.1471" rx="9.26" ry="9.26" width="18.53" height="18.53"/>
    <rect x="129.5588" y="170.7353" rx="9.26" ry="9.26" width="18.53" height="18.53"/>
    <rect x="129.5588" y="191.3235" rx="9.26" ry="9.26" width="18.53" height="18.53"/>
    <rect x="150.1471" y="129.5588" rx="9.26" ry="9.26" width="18.53" height="18.53"/>
    <rect x="150.1471" y="150.1471" rx="9.26" ry="9.26" width="18.53" height="18.53"/>
    <rect x="150.1471" y="170.7353" rx="9.26" ry="9.26" width="18.53" height="18.53"/>
    <rect x="150.1471" y="191.3235" rx="9.26" ry="9.26" width="18.53" height="18.53"/>
    <rect x="170.7353" y="129.5588" rx="9.26" ry="9.26" width="18.53" height="18.53"/>
    <rect x="170.7353" y="150.1471" rx="9.26" ry="9.26" width="18.53" height="18.53"/>
    <rect x="170.7353" y="170.7353" rx="9.26" ry="9.26" width="18.53" height="18.53"/>
    <rect x="170.7353" y="191.3235" rx="9.26" ry="9.26" width="18.53" height="18.53"/>
    <rect x="191.3235" y="129.5588" rx="9.26" ry="9.26" width="18.53" height="18.53"/>
    <rect x="191.3235" y="150.1471" rx="9.26" ry="9.26" width="18.53" height="18.53"/>
  </g>
  <g style="fill:#D44013" id="Conservative">
    <rect x="191.3235" y="170.7353" rx="9.26" ry="9.26" width="18.53" height="18.53"/>
    <rect x="211.9118" y="129.5588" rx="9.26" ry="9.26" width="18.53" height="18.53"/>
    <rect x="211.9118" y="150.1471" rx="9.26" ry="9.26" width="18.53" height="18.53"/>
    <rect x="211.9118" y="170.7353" rx="9.26" ry="9.26" width="18.53" height="18.53"/>
    <rect x="232.5000" y="129.5588" rx="9.26" ry="9.26" width="18.53" height="18.53"/>
    <rect x="232.5000" y="150.1471" rx="9.26" ry="9.26" width="18.53" height="18.53"/>
    <rect x="232.5000" y="170.7353" rx="9.26" ry="9.26" width="18.53" height="18.53"/>
    <rect x="253.0882" y="129.5588" rx="9.26" ry="9.26" width="18.53" height="18.53"/>
    <rect x="253.0882" y="150.1471" rx="9.26" ry="9.26" width="18.53" height="18.53"/>
    <rect x="253.0882" y="170.7353" rx="9.26" ry="9.26" width="18.53" height="18.53"/>
    <rect x="273.6765" y="129.5588" rx="9.26" ry="9.26" width="18.53" height="18.53"/>
    <rect x="273.6765" y="150.1471" rx="9.26" ry="9.26" width="18.53" height="18.53"/>
    <rect x="273.6765" y="170.7353" rx="9.26" ry="9.26" width="18.53" height="18.53"/>
    <rect x="294.2647" y="129.5588" rx="9.26" ry="9.26" width="18.53" height="18.53"/>
  </g>
  <g style="fill:#EE0000" id="American Freedom Party">
    <rect x="294.2647" y="150.1471" rx="9.26" ry="9.26" width="18.53" height="18.53"/>
    <rect x="294.2647" y="170.7353" rx="9.26" ry="9.26" width="18.53" height="18.53"/>
  </g>
  </g>
  <g id="centerbench">
  <g style="fill:#DDDDCC" id="Independent">
    <rect x="335.4412" y="67.7941" rx="9.26" ry="9.26" width="18.53" height="18.53"/>
    <rect x="335.4412" y="88.3824" rx="9.26" ry="9.26" width="18.53" height="18.53"/>
    <rect x="335.4412" y="108.9706" rx="9.26" ry="9.26" width="18.53" height="18.53"/>
    <rect x="335.4412" y="129.5588" rx="9.26" ry="9.26" width="18.53" height="18.53"/>
  </g>
  </g>
</g>
</svg>
