<?xml version="1.0" encoding="UTF-8" standalone="no"?>
<svg xmlns:svg="http://www.w3.org/2000/svg"
     xmlns="http://www.w3.org/2000/svg" version="1.1"
     width="360" height="185">
    <!-- Created with the Wikimedia parliament diagram creator (http://parliamentdiagram.toolforge.org/parliamentinputform.html) -->
    <g>
        <text x="175" y="175" 
              style="font-size:36px;font-weight:bold;text-align:center;text-anchor:middle;font-family:sans-serif">
            440
        </text>
        <g style="fill:#9D2235; stroke-width:0.00; stroke:#000000" 
           id="0_Labour"> 
            <title>Labour</title>            <circle cx="9.58" cy="176.36" r="3.64"/> 
            <circle cx="18.68" cy="176.36" r="3.64"/> 
            <circle cx="27.77" cy="176.36" r="3.64"/> 
            <circle cx="36.86" cy="176.36" r="3.64"/> 
            <circle cx="45.96" cy="176.36" r="3.64"/> 
            <circle cx="55.05" cy="176.36" r="3.64"/> 
            <circle cx="64.15" cy="176.36" r="3.64"/> 
            <circle cx="73.24" cy="176.37" r="3.64"/> 
            <circle cx="82.34" cy="176.37" r="3.64"/> 
            <circle cx="91.44" cy="176.37" r="3.64"/> 
            <circle cx="100.54" cy="176.37" r="3.64"/> 
            <circle cx="10.07" cy="166.60" r="3.64"/> 
            <circle cx="19.20" cy="166.58" r="3.64"/> 
            <circle cx="28.32" cy="166.57" r="3.64"/> 
            <circle cx="37.45" cy="166.55" r="3.64"/> 
            <circle cx="46.59" cy="166.53" r="3.64"/> 
            <circle cx="55.73" cy="166.51" r="3.64"/> 
            <circle cx="64.88" cy="166.48" r="3.64"/> 
            <circle cx="74.04" cy="166.45" r="3.64"/> 
            <circle cx="11.12" cy="156.87" r="3.64"/> 
            <circle cx="83.22" cy="166.42" r="3.64"/> 
            <circle cx="20.31" cy="156.85" r="3.64"/> 
            <circle cx="29.50" cy="156.82" r="3.64"/> 
            <circle cx="92.42" cy="166.37" r="3.64"/> 
            <circle cx="38.71" cy="156.80" r="3.64"/> 
            <circle cx="101.64" cy="166.32" r="3.64"/> 
            <circle cx="47.94" cy="156.77" r="3.64"/> 
            <circle cx="57.18" cy="156.74" r="3.64"/> 
            <circle cx="12.73" cy="147.22" r="3.64"/> 
            <circle cx="66.46" cy="156.70" r="3.64"/> 
            <circle cx="22.00" cy="147.20" r="3.64"/> 
            <circle cx="31.31" cy="147.18" r="3.64"/> 
            <circle cx="75.76" cy="156.66" r="3.64"/> 
            <circle cx="40.64" cy="147.16" r="3.64"/> 
            <circle cx="85.11" cy="156.61" r="3.64"/> 
            <circle cx="50.00" cy="147.13" r="3.64"/> 
            <circle cx="14.88" cy="137.68" r="3.64"/> 
            <circle cx="24.29" cy="137.68" r="3.64"/> 
            <circle cx="59.41" cy="147.11" r="3.64"/> 
            <circle cx="94.52" cy="156.56" r="3.64"/> 
            <circle cx="33.73" cy="137.67" r="3.64"/> 
            <circle cx="68.86" cy="147.08" r="3.64"/> 
            <circle cx="104.00" cy="156.50" r="3.64"/> 
            <circle cx="43.22" cy="137.67" r="3.64"/> 
            <circle cx="17.58" cy="128.28" r="3.64"/> 
            <circle cx="78.39" cy="147.06" r="3.64"/> 
            <circle cx="52.76" cy="137.67" r="3.64"/> 
            <circle cx="27.14" cy="128.30" r="3.64"/> 
            <circle cx="88.00" cy="147.05" r="3.64"/> 
            <circle cx="62.38" cy="137.69" r="3.64"/> 
            <circle cx="36.76" cy="128.34" r="3.64"/> 
            <circle cx="20.81" cy="119.05" r="3.64"/> 
            <circle cx="46.45" cy="128.38" r="3.64"/> 
            <circle cx="72.08" cy="137.71" r="3.64"/> 
            <circle cx="97.72" cy="147.04" r="3.64"/> 
            <circle cx="30.56" cy="119.12" r="3.64"/> 
            <circle cx="56.22" cy="128.44" r="3.64"/> 
            <circle cx="81.89" cy="137.76" r="3.64"/> 
            <circle cx="40.38" cy="119.22" r="3.64"/> 
            <circle cx="24.57" cy="110.02" r="3.64"/> 
            <circle cx="66.09" cy="128.53" r="3.64"/> 
            <circle cx="107.60" cy="147.06" r="3.64"/> 
            <circle cx="50.30" cy="119.34" r="3.64"/> 
            <circle cx="91.84" cy="137.83" r="3.64"/> 
            <circle cx="34.53" cy="110.17" r="3.64"/> 
            <circle cx="76.09" cy="128.65" r="3.64"/> 
            <circle cx="60.34" cy="119.49" r="3.64"/> 
            <circle cx="44.59" cy="110.35" r="3.64"/> 
            <circle cx="28.84" cy="101.22" r="3.64"/> 
            <circle cx="101.97" cy="137.95" r="3.64"/> 
            <circle cx="86.24" cy="128.81" r="3.64"/> 
            <circle cx="70.51" cy="119.69" r="3.64"/> 
            <circle cx="54.77" cy="110.58" r="3.64"/> 
            <circle cx="39.03" cy="101.47" r="3.64"/> 
            <circle cx="33.61" cy="92.68" r="3.64"/> 
            <circle cx="49.36" cy="101.77" r="3.64"/> 
            <circle cx="65.10" cy="110.87" r="3.64"/> 
            <circle cx="80.85" cy="119.96" r="3.64"/> 
            <circle cx="96.60" cy="129.05" r="3.64"/> 
            <circle cx="112.36" cy="138.15" r="3.64"/> 
            <circle cx="44.06" cy="93.06" r="3.64"/> 
            <circle cx="59.83" cy="102.15" r="3.64"/> 
            <circle cx="75.62" cy="111.23" r="3.64"/> 
            <circle cx="91.41" cy="120.32" r="3.64"/> 
            <circle cx="38.86" cy="84.43" r="3.64"/> 
            <circle cx="54.67" cy="93.52" r="3.64"/> 
            <circle cx="107.23" cy="129.40" r="3.64"/> 
            <circle cx="70.49" cy="102.61" r="3.64"/> 
            <circle cx="49.58" cy="84.97" r="3.64"/> 
            <circle cx="86.34" cy="111.71" r="3.64"/> 
            <circle cx="65.46" cy="94.08" r="3.64"/> 
            <circle cx="102.24" cy="120.81" r="3.64"/> 
            <circle cx="44.57" cy="76.49" r="3.64"/> 
            <circle cx="81.37" cy="103.20" r="3.64"/> 
            <circle cx="60.50" cy="85.63" r="3.64"/> 
            <circle cx="118.21" cy="129.91" r="3.64"/> 
            <circle cx="97.35" cy="112.34" r="3.64"/> 
            <circle cx="76.47" cy="94.78" r="3.64"/> 
            <circle cx="55.59" cy="77.23" r="3.64"/> 
            <circle cx="50.73" cy="68.89" r="3.64"/> 
            <circle cx="71.63" cy="86.43" r="3.64"/> 
            <circle cx="92.52" cy="103.96" r="3.64"/> 
            <circle cx="113.42" cy="121.49" r="3.64"/> 
            <circle cx="66.82" cy="78.13" r="3.64"/> 
            <circle cx="87.75" cy="95.65" r="3.64"/> 
            <circle cx="62.06" cy="69.88" r="3.64"/> 
            <circle cx="108.69" cy="113.18" r="3.64"/> 
            <circle cx="83.01" cy="87.41" r="3.64"/> 
            <circle cx="57.32" cy="61.66" r="3.64"/> 
            <circle cx="104.00" cy="104.94" r="3.64"/> 
            <circle cx="78.30" cy="79.21" r="3.64"/> 
            <circle cx="73.62" cy="71.05" r="3.64"/> 
            <circle cx="99.34" cy="96.76" r="3.64"/> 
            <circle cx="125.05" cy="122.48" r="3.64"/> 
            <circle cx="68.96" cy="62.92" r="3.64"/> 
            <circle cx="94.70" cy="88.63" r="3.64"/> 
            <circle cx="64.31" cy="54.82" r="3.64"/> 
            <circle cx="120.46" cy="114.34" r="3.64"/> 
            <circle cx="90.07" cy="80.53" r="3.64"/> 
            <circle cx="85.46" cy="72.47" r="3.64"/> 
            <circle cx="115.88" cy="106.25" r="3.64"/> 
            <circle cx="80.86" cy="64.42" r="3.64"/> 
            <circle cx="111.31" cy="98.20" r="3.64"/> 
            <circle cx="76.26" cy="56.40" r="3.64"/> 
            <circle cx="71.68" cy="48.39" r="3.64"/> 
            <circle cx="106.74" cy="90.18" r="3.64"/> 
            <circle cx="102.18" cy="82.18" r="3.64"/> 
            <circle cx="97.62" cy="74.20" r="3.64"/> 
            <circle cx="93.06" cy="66.23" r="3.64"/> 
            <circle cx="88.51" cy="58.28" r="3.64"/> 
            <circle cx="83.96" cy="50.33" r="3.64"/> 
            <circle cx="132.79" cy="115.98" r="3.64"/> 
            <circle cx="79.40" cy="42.40" r="3.64"/> 
            <circle cx="128.27" cy="108.03" r="3.64"/> 
        </g>
        <g style="fill:#3333FF; stroke-width:0.00; stroke:#000000" 
           id="1_Democrat"> 
            <title>Democrat</title>            <circle cx="123.74" cy="100.09" r="3.64"/> 
            <circle cx="119.21" cy="92.17" r="3.64"/> 
            <circle cx="114.68" cy="84.25" r="3.64"/> 
            <circle cx="110.15" cy="76.34" r="3.64"/> 
            <circle cx="105.61" cy="68.43" r="3.64"/> 
            <circle cx="101.08" cy="60.53" r="3.64"/> 
            <circle cx="96.54" cy="52.64" r="3.64"/> 
            <circle cx="92.00" cy="44.74" r="3.64"/> 
            <circle cx="87.46" cy="36.85" r="3.64"/> 
            <circle cx="95.82" cy="31.78" r="3.64"/> 
            <circle cx="100.37" cy="39.65" r="3.64"/> 
            <circle cx="104.92" cy="47.53" r="3.64"/> 
            <circle cx="109.46" cy="55.40" r="3.64"/> 
            <circle cx="114.01" cy="63.27" r="3.64"/> 
            <circle cx="118.55" cy="71.15" r="3.64"/> 
            <circle cx="123.10" cy="79.02" r="3.64"/> 
            <circle cx="127.64" cy="86.89" r="3.64"/> 
            <circle cx="132.19" cy="94.77" r="3.64"/> 
            <circle cx="136.74" cy="102.64" r="3.64"/> 
            <circle cx="141.28" cy="110.51" r="3.64"/> 
            <circle cx="104.46" cy="27.20" r="3.64"/> 
            <circle cx="109.03" cy="35.08" r="3.64"/> 
            <circle cx="113.60" cy="42.97" r="3.64"/> 
            <circle cx="118.18" cy="50.85" r="3.64"/> 
            <circle cx="122.76" cy="58.74" r="3.64"/> 
            <circle cx="127.34" cy="66.63" r="3.64"/> 
            <circle cx="131.93" cy="74.53" r="3.64"/> 
            <circle cx="136.53" cy="82.43" r="3.64"/> 
            <circle cx="141.14" cy="90.33" r="3.64"/> 
            <circle cx="113.35" cy="23.11" r="3.64"/> 
            <circle cx="145.76" cy="98.24" r="3.64"/> 
            <circle cx="117.96" cy="31.04" r="3.64"/> 
            <circle cx="122.57" cy="38.97" r="3.64"/> 
            <circle cx="150.40" cy="106.17" r="3.64"/> 
            <circle cx="127.19" cy="46.91" r="3.64"/> 
            <circle cx="131.82" cy="54.86" r="3.64"/> 
            <circle cx="136.46" cy="62.83" r="3.64"/> 
            <circle cx="122.46" cy="19.55" r="3.64"/> 
            <circle cx="141.12" cy="70.81" r="3.64"/> 
            <circle cx="127.11" cy="27.55" r="3.64"/> 
            <circle cx="145.79" cy="78.81" r="3.64"/> 
            <circle cx="131.77" cy="35.57" r="3.64"/> 
            <circle cx="136.45" cy="43.60" r="3.64"/> 
            <circle cx="150.49" cy="86.83" r="3.64"/> 
            <circle cx="141.14" cy="51.66" r="3.64"/> 
            <circle cx="131.76" cy="16.51" r="3.64"/> 
            <circle cx="155.22" cy="94.90" r="3.64"/> 
            <circle cx="145.85" cy="59.76" r="3.64"/> 
            <circle cx="136.46" cy="24.62" r="3.64"/> 
            <circle cx="141.17" cy="32.76" r="3.64"/> 
            <circle cx="150.59" cy="67.89" r="3.64"/> 
            <circle cx="160.00" cy="103.01" r="3.64"/> 
            <circle cx="145.91" cy="40.94" r="3.64"/> 
            <circle cx="155.35" cy="76.06" r="3.64"/> 
            <circle cx="141.21" cy="14.02" r="3.64"/> 
            <circle cx="150.67" cy="49.16" r="3.64"/> 
            <circle cx="145.97" cy="22.27" r="3.64"/> 
            <circle cx="160.16" cy="84.31" r="3.64"/> 
            <circle cx="155.45" cy="57.43" r="3.64"/> 
            <circle cx="150.74" cy="30.57" r="3.64"/> 
            <circle cx="150.80" cy="12.07" r="3.64"/> 
            <circle cx="155.53" cy="38.92" r="3.64"/> 
            <circle cx="160.27" cy="65.78" r="3.64"/> 
            <circle cx="165.01" cy="92.64" r="3.64"/> 
            <circle cx="155.60" cy="20.49" r="3.64"/> 
            <circle cx="160.36" cy="47.36" r="3.64"/> 
            <circle cx="165.13" cy="74.22" r="3.64"/> 
            <circle cx="160.42" cy="28.99" r="3.64"/> 
            <circle cx="169.92" cy="101.10" r="3.64"/> 
            <circle cx="165.21" cy="55.88" r="3.64"/> 
            <circle cx="160.48" cy="10.67" r="3.64"/> 
            <circle cx="165.27" cy="37.58" r="3.64"/> 
            <circle cx="170.03" cy="82.78" r="3.64"/> 
            <circle cx="165.32" cy="19.31" r="3.64"/> 
            <circle cx="170.10" cy="64.51" r="3.64"/> 
            <circle cx="170.15" cy="46.27" r="3.64"/> 
            <circle cx="170.19" cy="28.04" r="3.64"/> 
            <circle cx="170.22" cy="9.83" r="3.64"/> 
            <circle cx="174.98" cy="91.51" r="3.64"/> 
            <circle cx="175.03" cy="73.30" r="3.64"/> 
            <circle cx="175.06" cy="55.10" r="3.64"/> 
            <circle cx="175.08" cy="36.90" r="3.64"/> 
            <circle cx="175.10" cy="18.71" r="3.64"/> 
            <circle cx="180.00" cy="100.45" r="3.64"/> 
            <circle cx="180.00" cy="9.55" r="3.64"/> 
            <circle cx="180.00" cy="27.73" r="3.64"/> 
            <circle cx="180.00" cy="64.09" r="3.64"/> 
            <circle cx="180.00" cy="82.27" r="3.64"/> 
            <circle cx="180.00" cy="45.91" r="3.64"/> 
            <circle cx="184.90" cy="18.71" r="3.64"/> 
            <circle cx="184.92" cy="36.90" r="3.64"/> 
            <circle cx="184.94" cy="55.10" r="3.64"/> 
            <circle cx="184.97" cy="73.30" r="3.64"/> 
            <circle cx="185.02" cy="91.51" r="3.64"/> 
            <circle cx="189.78" cy="9.83" r="3.64"/> 
            <circle cx="189.81" cy="28.04" r="3.64"/> 
            <circle cx="189.85" cy="46.27" r="3.64"/> 
            <circle cx="189.90" cy="64.51" r="3.64"/> 
            <circle cx="194.68" cy="19.31" r="3.64"/> 
            <circle cx="189.97" cy="82.78" r="3.64"/> 
            <circle cx="194.73" cy="37.58" r="3.64"/> 
            <circle cx="199.52" cy="10.67" r="3.64"/> 
            <circle cx="194.79" cy="55.88" r="3.64"/> 
            <circle cx="190.08" cy="101.10" r="3.64"/> 
            <circle cx="199.58" cy="28.99" r="3.64"/> 
            <circle cx="194.87" cy="74.22" r="3.64"/> 
            <circle cx="199.64" cy="47.36" r="3.64"/> 
            <circle cx="204.40" cy="20.49" r="3.64"/> 
            <circle cx="194.99" cy="92.64" r="3.64"/> 
            <circle cx="199.73" cy="65.78" r="3.64"/> 
            <circle cx="204.47" cy="38.92" r="3.64"/> 
            <circle cx="209.20" cy="12.07" r="3.64"/> 
            <circle cx="209.26" cy="30.57" r="3.64"/> 
        </g>
        <g style="fill:#F0FF2A; stroke-width:0.00; stroke:#000000" 
           id="2_Liberal"> 
            <title>Liberal</title>            <circle cx="204.55" cy="57.43" r="3.64"/> 
            <circle cx="199.84" cy="84.31" r="3.64"/> 
            <circle cx="214.03" cy="22.27" r="3.64"/> 
            <circle cx="209.33" cy="49.16" r="3.64"/> 
            <circle cx="218.79" cy="14.02" r="3.64"/> 
            <circle cx="204.65" cy="76.06" r="3.64"/> 
            <circle cx="214.09" cy="40.94" r="3.64"/> 
            <circle cx="200.00" cy="103.01" r="3.64"/> 
            <circle cx="209.41" cy="67.89" r="3.64"/> 
            <circle cx="218.83" cy="32.76" r="3.64"/> 
            <circle cx="223.54" cy="24.62" r="3.64"/> 
            <circle cx="214.15" cy="59.76" r="3.64"/> 
            <circle cx="204.78" cy="94.90" r="3.64"/> 
            <circle cx="228.24" cy="16.51" r="3.64"/> 
            <circle cx="218.86" cy="51.66" r="3.64"/> 
            <circle cx="209.51" cy="86.83" r="3.64"/> 
            <circle cx="223.55" cy="43.60" r="3.64"/> 
            <circle cx="228.23" cy="35.57" r="3.64"/> 
            <circle cx="214.21" cy="78.81" r="3.64"/> 
            <circle cx="232.89" cy="27.55" r="3.64"/> 
            <circle cx="218.88" cy="70.81" r="3.64"/> 
            <circle cx="237.54" cy="19.55" r="3.64"/> 
            <circle cx="223.54" cy="62.83" r="3.64"/> 
            <circle cx="228.18" cy="54.86" r="3.64"/> 
            <circle cx="232.81" cy="46.91" r="3.64"/> 
            <circle cx="209.60" cy="106.17" r="3.64"/> 
        </g>
        <g style="fill:#E81B23; stroke-width:0.00; stroke:#000000" 
           id="3_Republican"> 
            <title>Republican</title>            <circle cx="237.43" cy="38.97" r="3.64"/> 
            <circle cx="242.04" cy="31.04" r="3.64"/> 
            <circle cx="214.24" cy="98.24" r="3.64"/> 
            <circle cx="246.65" cy="23.11" r="3.64"/> 
            <circle cx="218.86" cy="90.33" r="3.64"/> 
            <circle cx="223.47" cy="82.43" r="3.64"/> 
            <circle cx="228.07" cy="74.53" r="3.64"/> 
            <circle cx="232.66" cy="66.63" r="3.64"/> 
            <circle cx="237.24" cy="58.74" r="3.64"/> 
            <circle cx="241.82" cy="50.85" r="3.64"/> 
            <circle cx="246.40" cy="42.97" r="3.64"/> 
            <circle cx="250.97" cy="35.08" r="3.64"/> 
            <circle cx="255.54" cy="27.20" r="3.64"/> 
            <circle cx="218.72" cy="110.51" r="3.64"/> 
            <circle cx="223.26" cy="102.64" r="3.64"/> 
            <circle cx="227.81" cy="94.77" r="3.64"/> 
            <circle cx="232.36" cy="86.89" r="3.64"/> 
            <circle cx="236.90" cy="79.02" r="3.64"/> 
            <circle cx="241.45" cy="71.15" r="3.64"/> 
            <circle cx="245.99" cy="63.27" r="3.64"/> 
            <circle cx="250.54" cy="55.40" r="3.64"/> 
            <circle cx="255.08" cy="47.53" r="3.64"/> 
            <circle cx="259.63" cy="39.65" r="3.64"/> 
            <circle cx="264.18" cy="31.78" r="3.64"/> 
            <circle cx="272.54" cy="36.85" r="3.64"/> 
            <circle cx="268.00" cy="44.74" r="3.64"/> 
            <circle cx="263.46" cy="52.64" r="3.64"/> 
            <circle cx="258.92" cy="60.53" r="3.64"/> 
            <circle cx="254.39" cy="68.43" r="3.64"/> 
            <circle cx="249.85" cy="76.34" r="3.64"/> 
            <circle cx="245.32" cy="84.25" r="3.64"/> 
            <circle cx="240.79" cy="92.17" r="3.64"/> 
            <circle cx="236.26" cy="100.09" r="3.64"/> 
            <circle cx="231.73" cy="108.03" r="3.64"/> 
            <circle cx="280.60" cy="42.40" r="3.64"/> 
            <circle cx="227.21" cy="115.98" r="3.64"/> 
            <circle cx="276.04" cy="50.33" r="3.64"/> 
            <circle cx="271.49" cy="58.28" r="3.64"/> 
            <circle cx="266.94" cy="66.23" r="3.64"/> 
            <circle cx="262.38" cy="74.20" r="3.64"/> 
            <circle cx="257.82" cy="82.18" r="3.64"/> 
            <circle cx="253.26" cy="90.18" r="3.64"/> 
            <circle cx="288.32" cy="48.39" r="3.64"/> 
            <circle cx="283.74" cy="56.40" r="3.64"/> 
            <circle cx="248.69" cy="98.20" r="3.64"/> 
            <circle cx="279.14" cy="64.42" r="3.64"/> 
            <circle cx="244.12" cy="106.25" r="3.64"/> 
            <circle cx="274.54" cy="72.47" r="3.64"/> 
            <circle cx="269.93" cy="80.53" r="3.64"/> 
            <circle cx="239.54" cy="114.34" r="3.64"/> 
            <circle cx="295.69" cy="54.82" r="3.64"/> 
            <circle cx="265.30" cy="88.63" r="3.64"/> 
            <circle cx="291.04" cy="62.92" r="3.64"/> 
            <circle cx="234.95" cy="122.48" r="3.64"/> 
            <circle cx="260.66" cy="96.76" r="3.64"/> 
            <circle cx="286.38" cy="71.05" r="3.64"/> 
            <circle cx="281.70" cy="79.21" r="3.64"/> 
            <circle cx="256.00" cy="104.94" r="3.64"/> 
            <circle cx="302.68" cy="61.66" r="3.64"/> 
            <circle cx="276.99" cy="87.41" r="3.64"/> 
            <circle cx="251.31" cy="113.18" r="3.64"/> 
            <circle cx="297.94" cy="69.88" r="3.64"/> 
            <circle cx="272.25" cy="95.65" r="3.64"/> 
            <circle cx="293.18" cy="78.13" r="3.64"/> 
            <circle cx="246.58" cy="121.49" r="3.64"/> 
            <circle cx="267.48" cy="103.96" r="3.64"/> 
            <circle cx="288.37" cy="86.43" r="3.64"/> 
            <circle cx="309.27" cy="68.89" r="3.64"/> 
            <circle cx="304.41" cy="77.23" r="3.64"/> 
            <circle cx="283.53" cy="94.78" r="3.64"/> 
            <circle cx="262.65" cy="112.34" r="3.64"/> 
            <circle cx="241.79" cy="129.91" r="3.64"/> 
            <circle cx="299.50" cy="85.63" r="3.64"/> 
            <circle cx="278.63" cy="103.20" r="3.64"/> 
            <circle cx="315.43" cy="76.49" r="3.64"/> 
            <circle cx="257.76" cy="120.81" r="3.64"/> 
            <circle cx="294.54" cy="94.08" r="3.64"/> 
            <circle cx="273.66" cy="111.71" r="3.64"/> 
            <circle cx="310.42" cy="84.97" r="3.64"/> 
            <circle cx="289.51" cy="102.61" r="3.64"/> 
            <circle cx="252.77" cy="129.40" r="3.64"/> 
            <circle cx="305.33" cy="93.52" r="3.64"/> 
            <circle cx="321.14" cy="84.43" r="3.64"/> 
            <circle cx="268.59" cy="120.32" r="3.64"/> 
            <circle cx="284.38" cy="111.23" r="3.64"/> 
            <circle cx="300.17" cy="102.15" r="3.64"/> 
            <circle cx="315.94" cy="93.06" r="3.64"/> 
            <circle cx="247.64" cy="138.15" r="3.64"/> 
            <circle cx="263.40" cy="129.05" r="3.64"/> 
            <circle cx="279.15" cy="119.96" r="3.64"/> 
            <circle cx="294.90" cy="110.87" r="3.64"/> 
            <circle cx="310.64" cy="101.77" r="3.64"/> 
            <circle cx="326.39" cy="92.68" r="3.64"/> 
            <circle cx="320.97" cy="101.47" r="3.64"/> 
            <circle cx="305.23" cy="110.58" r="3.64"/> 
            <circle cx="289.49" cy="119.69" r="3.64"/> 
            <circle cx="273.76" cy="128.81" r="3.64"/> 
            <circle cx="258.03" cy="137.95" r="3.64"/> 
            <circle cx="331.16" cy="101.22" r="3.64"/> 
            <circle cx="315.41" cy="110.35" r="3.64"/> 
            <circle cx="299.66" cy="119.49" r="3.64"/> 
            <circle cx="283.91" cy="128.65" r="3.64"/> 
            <circle cx="325.47" cy="110.17" r="3.64"/> 
            <circle cx="268.16" cy="137.83" r="3.64"/> 
            <circle cx="309.70" cy="119.34" r="3.64"/> 
            <circle cx="252.40" cy="147.06" r="3.64"/> 
            <circle cx="293.91" cy="128.53" r="3.64"/> 
            <circle cx="335.43" cy="110.02" r="3.64"/> 
            <circle cx="319.62" cy="119.22" r="3.64"/> 
            <circle cx="278.11" cy="137.76" r="3.64"/> 
            <circle cx="303.78" cy="128.44" r="3.64"/> 
            <circle cx="329.44" cy="119.12" r="3.64"/> 
            <circle cx="262.28" cy="147.04" r="3.64"/> 
            <circle cx="287.92" cy="137.71" r="3.64"/> 
            <circle cx="313.55" cy="128.38" r="3.64"/> 
            <circle cx="339.19" cy="119.05" r="3.64"/> 
            <circle cx="323.24" cy="128.34" r="3.64"/> 
            <circle cx="297.62" cy="137.69" r="3.64"/> 
            <circle cx="272.00" cy="147.05" r="3.64"/> 
            <circle cx="332.86" cy="128.30" r="3.64"/> 
            <circle cx="307.24" cy="137.67" r="3.64"/> 
        </g>
        <g style="fill:#D44013; stroke-width:0.00; stroke:#000000" 
           id="4_Conservative"> 
            <title>Conservative</title>            <circle cx="281.61" cy="147.06" r="3.64"/> 
            <circle cx="342.42" cy="128.28" r="3.64"/> 
            <circle cx="316.78" cy="137.67" r="3.64"/> 
            <circle cx="256.00" cy="156.50" r="3.64"/> 
            <circle cx="291.14" cy="147.08" r="3.64"/> 
            <circle cx="326.27" cy="137.67" r="3.64"/> 
            <circle cx="265.48" cy="156.56" r="3.64"/> 
            <circle cx="300.59" cy="147.11" r="3.64"/> 
            <circle cx="335.71" cy="137.68" r="3.64"/> 
            <circle cx="345.12" cy="137.68" r="3.64"/> 
            <circle cx="310.00" cy="147.13" r="3.64"/> 
            <circle cx="274.89" cy="156.61" r="3.64"/> 
            <circle cx="319.36" cy="147.16" r="3.64"/> 
            <circle cx="284.24" cy="156.66" r="3.64"/> 
            <circle cx="328.69" cy="147.18" r="3.64"/> 
            <circle cx="338.00" cy="147.20" r="3.64"/> 
            <circle cx="293.54" cy="156.70" r="3.64"/> 
            <circle cx="347.27" cy="147.22" r="3.64"/> 
            <circle cx="302.82" cy="156.74" r="3.64"/> 
            <circle cx="312.06" cy="156.77" r="3.64"/> 
            <circle cx="258.36" cy="166.32" r="3.64"/> 
            <circle cx="321.29" cy="156.80" r="3.64"/> 
            <circle cx="267.58" cy="166.37" r="3.64"/> 
            <circle cx="330.50" cy="156.82" r="3.64"/> 
            <circle cx="339.69" cy="156.85" r="3.64"/> 
            <circle cx="276.78" cy="166.42" r="3.64"/> 
            <circle cx="348.88" cy="156.87" r="3.64"/> 
            <circle cx="285.96" cy="166.45" r="3.64"/> 
            <circle cx="295.12" cy="166.48" r="3.64"/> 
            <circle cx="304.27" cy="166.51" r="3.64"/> 
            <circle cx="313.41" cy="166.53" r="3.64"/> 
            <circle cx="322.55" cy="166.55" r="3.64"/> 
            <circle cx="331.68" cy="166.57" r="3.64"/> 
            <circle cx="340.80" cy="166.58" r="3.64"/> 
            <circle cx="349.93" cy="166.60" r="3.64"/> 
            <circle cx="259.46" cy="176.37" r="3.64"/> 
            <circle cx="268.56" cy="176.37" r="3.64"/> 
            <circle cx="277.66" cy="176.37" r="3.64"/> 
            <circle cx="286.76" cy="176.37" r="3.64"/> 
            <circle cx="295.85" cy="176.36" r="3.64"/> 
            <circle cx="304.95" cy="176.36" r="3.64"/> 
            <circle cx="314.04" cy="176.36" r="3.64"/> 
            <circle cx="323.14" cy="176.36" r="3.64"/> 
            <circle cx="332.23" cy="176.36" r="3.64"/> 
            <circle cx="341.32" cy="176.36" r="3.64"/> 
            <circle cx="350.42" cy="176.36" r="3.64"/> 
        </g>
    </g>
</svg>
