<?xml version="1.0" encoding="utf-8"?>
<!-- Generator: Adobe Illustrator 26.2.1, SVG Export Plug-In . SVG Version: 6.00 Build 0)  -->
<svg version="1.1" id="Layer_1" xmlns="http://www.w3.org/2000/svg" xmlns:xlink="http://www.w3.org/1999/xlink" x="0px" y="0px"
	 viewBox="0 0 500 83" style="enable-background:new 0 0 500 83;" xml:space="preserve">
<style type="text/css">
	.st0{fill:#FF7013;fill-opacity:0.4;}
	.st1{fill:#FF7013;}
</style>
<g>
	<g transform="translate(13.787069, 209.098066)">
		<g>
			<path class="st0" d="M44.2-185.1c1.7-0.7,1.7-3.3,0.1-4.2c-0.1-0.1-0.3-0.2-0.4-0.3c0.1-0.1,0.3-0.1,0.5-0.1
				c0.7-0.1,0.5-1.3-0.1-1.2c-1,0.1-2.1,0.2-3.1,0.3c-0.4-0.1-0.8,0-1.2,0c-0.7,0.1-1.4,0.1-2.2,0.3c-9.6,0.8-19.3,1-29,0.5
				c-0.2-0.1-0.3,0.3-0.1,0.3c3.7,0.6,7.5,1,11.2,1.2c0,0.1-0.1,0.1-0.1,0.2c-3.8,0-7.6-0.3-11.4-0.6c-1.5-0.1-2.9,1.2-3.3,2.6
				c-0.4,1.7,0.4,3.3,1.8,4.1c0.4,1.1,1.3,2.1,2.2,2.7c1.2,0.8,2.8,1,4.2,1.2c1.8,0.1,3.7,0.2,5.5,0.2c0.9,0,1.8,0,2.7,0v2.2
				l-0.1,3.1c-0.1,3.6-0.3,7.2-0.6,10.7c-0.1,3.5-0.2,7.1,0,10.7c0.1,2.7,0.8,5.9,3.7,6.8c1.5,0.4,3.2-0.4,3.7-1.9
				c0.5-1.4,0.6-3.3,0.8-4.6v2.6c-0.1,1-0.1,1.9-0.1,2.9v0.1c1.2-1,1.5-2.6,1.7-4.3c-0.1-2.4-0.2-4.8-0.3-7.3
				c0-4.2-0.1-8.5-0.1-12.7c0-3.1,0.1-6.1,0.1-9.2c3.5-0.5,7-1.1,10.5-1.8c0.2,0,0.3-0.1,0.5-0.3c0.3-0.1,0.8-0.2,1-0.4
				c1.1-0.8,1.4-2,1.5-3.3C44-184.6,44.1-184.9,44.2-185.1z M13.4-179.8c-1.7-0.1-3.5-0.6-4.6-1.6c2.7,0.8,5.5,1.3,8.2,1.6
				C15.8-179.7,14.6-179.7,13.4-179.8z"/>
		</g>
	</g>
</g>
<g>
	<g transform="translate(43.944778, 209.098066)">
		<g>
			<path class="st0" d="M40.9-174c-0.3-2.1-0.8-4.2-1.4-6.3c-0.7-2-1.7-4-2.6-5.8c-0.3-0.6-1-0.8-1.6-0.6c-0.5-0.9-1.2-2.1-2.1-2.6
				c-0.8-0.5-2-0.5-3-0.3c-0.9-0.1-1.8,0.2-2.7,0.6c-2.2,0.5-3.9,2.6-5.1,5.2c-0.1,0-0.3-0.1-0.6,0c0.3-0.8,0.6-1.5,0.9-2.3
				c0.3-0.7,0.7-1.4,1.1-2.1c0.1-0.1-0.1-0.2-0.1-0.1c-1.2,1.5-2.1,3.2-2.8,5c-0.1,0.1-0.1,0.1-0.1,0.1c-4.6,7.8-5.9,16.9-4.5,25.8
				c0.7,4.1,2.1,8.2,5.3,11c1.9,1.5,4.4,2.4,6.7,1.9c0.8,0.1,1.5,0.1,2.3,0c1.9-0.3,3.5-1.2,4.9-2.5c1-0.8,1.8-1.8,2.6-2.8
				c2.3-3.3,2.9-7.5,3.3-11.3C41.8-165.4,41.5-169.7,40.9-174z M32.2-153.9c-0.2,0.8-0.6,1.6-1,2.4c-0.4,0.8-1,1.4-1.9,1.7
				c-3,0.9-5.4-1.9-6.5-4.2c0.7,0.4,1.6,0.6,2.4,0.4c0.3-0.1,0.6-0.2,0.8-0.3c-1-4.5-1.6-9.2-1.4-13.9c0.1-1.6,0.3-3.2,0.6-4.8
				c0.1-0.1,0.1-0.1,0.1-0.3c0.6-2.8,1.5-5.7,2.8-8.3c0.3-0.5,0.6-1,1-1.3c-4,8.3-4.1,18.5-2.2,27.5c0.3-0.6,0.4-1.3,0.3-2.1
				c-0.8-5.1-0.9-10.5-0.3-15.6c0.3-2.6,1-5.2,1.7-7.7c0.2-0.7,0.5-1.6,0.9-2.4h0.3c0.1,0,0.2,0.1,0.3,0.1c0.3,0.5,0.5,1,0.7,1.5
				c0.5,1.2,0.9,2.4,1.3,3.7c0.2,1,0.3,2,0.6,3.1c0.6,3.4,0.8,6.9,1,10.4C33.8-160.6,33.4-157.1,32.2-153.9z"/>
		</g>
	</g>
</g>
<g>
	<g transform="translate(65.783114, 209.098066)">
		<g>
			<path class="st0" d="M61.4-170.7c0.2-1.5-0.2-2.8-1.3-3.6c-0.9-0.7-1.9-1.5-2.8-2.1c-0.1-0.6-0.4-1.1-1-1.5
				c-6.8-4.6-13.7-9.3-21.3-11.7c-0.1,0-0.1-0.1-0.2-0.1c-0.5-0.2-1-0.3-1.5-0.6c-0.1-0.1-0.3-0.3-0.6-0.3c-2.3-0.4-6.4-1.3-7.8,1.2
				c-0.8,1.6,0,3.5,1.3,4.6c-0.4,0.6-0.9,1.1-1.5,1.5c0.6,2.4,1,4.8,1.5,7.1c-0.4,0-0.8,0-1.2,0.1c-2.1,0-2.9,3.5-1,4.7
				c0.6,0.4,1.4,0.8,2.1,1.1l-1.6,0.2c0.8,0.3,1.5,0.6,2.3,0.8c0.3,0.1,0.4,0.3,0.4,0.5c0.1,0,0.3,0,0.4,0l0.4,2.4
				c0.6,3.3,1.1,6.5,1.7,9.8l0.6,4.6c0.1,1.5,0,3.2,0.3,4.6c0,0.8,0.7,1.2,1.2,1.1c0.1,0.4,0.2,0.8,0.4,1.1c0.8,1,2.2,0.9,3.1,0.1
				c0.7-0.6,1.2-1.2,1.6-2.1c0-0.3,0-0.8-0.1-1.2c0.2-3.4-0.1-6.9-0.3-10.3c-0.1-3.2-0.4-6.4-0.8-9.5c1.8,0.1,3.7,0.2,5.5,0.3
				c0.3,0.6,0.8,1.3,1.2,1.9v0.1c0.4,0.7,0.8,1.4,1.1,2.1c1.3,2.6,3.2,7.1,4,8.9c1.4,3.2,2.8,6.4,4,9.7c0.3,0.1,0.7,0,0.9-0.2
				c0,0.1,0.1,0.1,0.1,0.1c0.6,0.3,1.2,0.3,1.9,0.2c1.2,0.5,2.8,0.1,3-1.4c0.6-4.5-1.9-8.9-3.7-12.8c-1.5-3-3.1-5.8-5-8.6
				c3.3,0.3,6.5,0.6,9.8,0.8c1.1,0.1,2.4-1,2.6-2.4L61.4-170.7z M33.3-181.3l-0.2-1.1c6,1.4,11.5,4.4,16.8,8l-6.7-0.8
				c-1.6-1.3-3.9-3.2-6-1.9c-0.3,0.3-0.6,0.7-0.6,1c-0.3-0.1-0.8-0.1-1.1-0.1c-0.3-1.5-0.6-2.9-1-4.4c-0.1-0.6-0.8-0.6-1.1-0.3
				C33.4-181,33.4-181.2,33.3-181.3z M38.2-150.1c0.3-1.7,0.8-2.4,0.6-4.9c-0.3-4.2-0.7-8.3-1.4-12.3h-0.6
				C37.7-161.6,37.9-155.9,38.2-150.1z"/>
		</g>
	</g>
</g>
<g>
	<g transform="translate(96.460785, 209.098066)">
		<g>
			<path class="st0" d="M58.4-174c-0.3-2.1-0.8-4.2-1.4-6.3c-0.7-2-1.7-4-2.6-5.8c-0.3-0.6-1-0.8-1.6-0.6c-0.5-0.9-1.2-2.1-2.1-2.6
				c-0.8-0.5-2-0.5-3-0.3c-0.9-0.1-1.8,0.2-2.7,0.6c-2.2,0.5-3.9,2.6-5.1,5.2c-0.1,0-0.3-0.1-0.6,0c0.3-0.8,0.6-1.5,0.9-2.3
				c0.3-0.7,0.7-1.4,1.1-2.1c0.1-0.1-0.1-0.2-0.1-0.1c-1.2,1.5-2.1,3.2-2.8,5c-0.1,0.1-0.1,0.1-0.1,0.1c-4.6,7.8-5.9,16.9-4.5,25.8
				c0.7,4.1,2.1,8.2,5.3,11c1.9,1.5,4.4,2.4,6.7,1.9c0.8,0.1,1.5,0.1,2.3,0c1.9-0.3,3.5-1.2,4.9-2.5c1-0.8,1.8-1.8,2.6-2.8
				c2.3-3.3,2.9-7.5,3.3-11.3C59.3-165.4,59.1-169.7,58.4-174z M49.7-153.9c-0.2,0.8-0.6,1.6-1,2.4c-0.4,0.8-1,1.4-1.9,1.7
				c-3,0.9-5.4-1.9-6.5-4.2c0.7,0.4,1.6,0.6,2.4,0.4c0.3-0.1,0.6-0.2,0.8-0.3c-1-4.5-1.6-9.2-1.4-13.9c0.1-1.6,0.3-3.2,0.6-4.8
				c0.1-0.1,0.1-0.1,0.1-0.3c0.6-2.8,1.5-5.7,2.8-8.3c0.3-0.5,0.6-1,1-1.3c-4,8.3-4.1,18.5-2.2,27.5c0.3-0.6,0.4-1.3,0.3-2.1
				c-0.8-5.1-0.9-10.5-0.3-15.6c0.3-2.6,1-5.2,1.7-7.7c0.2-0.7,0.5-1.6,0.9-2.4h0.3c0.1,0,0.2,0.1,0.3,0.1c0.3,0.5,0.5,1,0.7,1.5
				c0.5,1.2,0.9,2.4,1.3,3.7c0.2,1,0.3,2,0.6,3.1c0.6,3.4,0.8,6.9,1,10.4C51.3-160.6,50.9-157.1,49.7-153.9z"/>
		</g>
	</g>
</g>
<g>
	<g transform="translate(118.29912, 209.098066)">
		<g>
			<path class="st0" d="M69.5-144.1c1.3,0,2.4-0.8,3.2-1.9c-0.6-8.5-1.3-17.1-2.7-25.6c-0.6-4.2-1.3-8.4-2.4-12.4
				c-0.3-1.3-0.8-2.6-1-4c-0.1-0.1-0.3-0.3-0.5-0.3c-1.2-0.8-3.3-1-4.1,0.6c0,0.1-0.1,0.1-0.1,0.1c-0.5,0.3-0.9,0.8-1.2,1.2
				c-0.8,1.4-0.1,2.7,0.2,4c0.7,2.5,1.1,5,1.6,7.5c0.6,3.5,1.4,7.2,1.7,10.7l-1.1-2.2c0-0.2,0-0.4-0.1-0.7c-1.4-2.8-2.8-5.6-4.4-8.3
				c-1.9-3.4-3.8-6.7-6.2-9.8c-1.3-1.7-5.3-5.8-7.4-3c-0.3,0.5-0.6,1-0.6,1.6c-0.5,0.1-1,0.3-1.3,0.6c-0.2,3-0.1,6,0,9.1
				c0.1,4.7,0.2,9.5,0.4,14.2c0.2,5.8,0.4,11.6,0.8,17.5c0.5,0.6,1.1,1.1,1.9,1.3c1.5,0.5,3.1-0.1,3.9-1.5c2.8-0.4,2.1-4.4,2-6.6
				c-0.1-2.8-0.1-5.5-0.3-8.3c0-4.7,0.1-9.4,0-14.1c0.3,0.5,0.7,1,1.1,1.5l12.1,21.6l0.4,2.4c0.3,1.8,0.8,4,2.6,4.8
				C68.6-143.9,69.1-143.8,69.5-144.1z M73.4-146.7c0.1-1,0-2.5-0.1-3c0.1-12.3-1.5-24.5-3.9-36.6c-0.1-0.7-1-0.7-1.3-0.3
				c-0.3,0.3-0.3,0.6-0.2,0.8c2.8,12.9,4.4,26.1,5.3,39.3C73.2-146.6,73.3-146.7,73.4-146.7z M43-151.7c0.3,3,0.6,2.8,0.6,2.8
				L43-164.5c-0.1-4.8-0.3-9.7-0.3-14.5c-0.1-2.2-0.1-4.4-0.1-6.7c-0.5,1.1-0.6,2.4-0.6,3.6c0.1,5,0.1,10,0.3,14.9
				C42.6-162.1,42.6-156.6,43-151.7z M50.8-155.1c0.1,0.8,0.1,1.6,0.1,2.4c0.1,1.4,0.2,2.8,0.3,4.1c0.1,0.6-0.1,1.7-0.6,2.4
				c0.4-1.7-0.3-3.3-0.3-4.4l0.1-4.2c0.1-0.1,0.1-0.1,0.1-0.1L50.8-155.1z"/>
		</g>
	</g>
</g>
<g>
	<g transform="translate(144.817105, 209.098066)">
		<g>
			<path class="st0" d="M87.9-185.1c1.7-0.7,1.7-3.3,0.1-4.2c-0.1-0.1-0.3-0.2-0.4-0.3c0.1-0.1,0.3-0.1,0.5-0.1
				c0.7-0.1,0.5-1.3-0.1-1.2c-1,0.1-2.1,0.2-3.1,0.3c-0.4-0.1-0.8,0-1.2,0c-0.7,0.1-1.4,0.1-2.2,0.3c-9.6,0.8-19.3,1-29,0.5
				c-0.2-0.1-0.3,0.3-0.1,0.3c3.7,0.6,7.5,1,11.2,1.2c0,0.1-0.1,0.1-0.1,0.2c-3.8,0-7.6-0.3-11.4-0.6c-1.5-0.1-2.9,1.2-3.3,2.6
				c-0.4,1.7,0.4,3.3,1.8,4.1c0.4,1.1,1.3,2.1,2.2,2.7c1.2,0.8,2.8,1,4.2,1.2c1.8,0.1,3.7,0.2,5.5,0.2c0.9,0,1.8,0,2.7,0v2.2
				l-0.1,3.1c-0.1,3.6-0.3,7.2-0.6,10.7c-0.1,3.5-0.2,7.1,0,10.7c0.1,2.7,0.8,5.9,3.7,6.8c1.5,0.4,3.2-0.4,3.7-1.9
				c0.5-1.4,0.6-3.3,0.8-4.6v2.6c-0.1,1-0.1,1.9-0.1,2.9v0.1c1.2-1,1.5-2.6,1.7-4.3c-0.1-2.4-0.2-4.8-0.3-7.3
				c0-4.2-0.1-8.5-0.1-12.7c0-3.1,0.1-6.1,0.1-9.2c3.5-0.5,7-1.1,10.5-1.8c0.2,0,0.3-0.1,0.5-0.3c0.3-0.1,0.8-0.2,1-0.4
				c1.1-0.8,1.4-2,1.5-3.3C87.7-184.6,87.8-184.9,87.9-185.1z M57.1-179.8c-1.7-0.1-3.5-0.6-4.6-1.6c2.7,0.8,5.5,1.3,8.2,1.6
				C59.5-179.7,58.3-179.7,57.1-179.8z"/>
		</g>
	</g>
</g>
<g>
	<g transform="translate(174.974814, 209.098066)">
		<g>
			<path class="st0" d="M84.5-174c-0.3-2.1-0.8-4.2-1.4-6.3c-0.7-2-1.7-4-2.6-5.8c-0.3-0.6-1-0.8-1.6-0.6c-0.5-0.9-1.2-2.1-2.1-2.6
				c-0.8-0.5-2-0.5-3-0.3c-0.9-0.1-1.8,0.2-2.7,0.6c-2.2,0.5-3.9,2.6-5.1,5.2c-0.1,0-0.3-0.1-0.6,0c0.3-0.8,0.6-1.5,0.9-2.3
				c0.3-0.7,0.7-1.4,1.1-2.1c0.1-0.1-0.1-0.2-0.1-0.1c-1.2,1.5-2.1,3.2-2.8,5c-0.1,0.1-0.1,0.1-0.1,0.1c-4.6,7.8-5.9,16.9-4.5,25.8
				c0.7,4.1,2.1,8.2,5.3,11c1.9,1.5,4.4,2.4,6.7,1.9c0.8,0.1,1.5,0.1,2.3,0c1.9-0.3,3.5-1.2,4.9-2.5c1-0.8,1.8-1.8,2.6-2.8
				c2.3-3.3,2.9-7.5,3.3-11.3C85.5-165.4,85.2-169.7,84.5-174z M75.9-153.9c-0.2,0.8-0.6,1.6-1,2.4c-0.4,0.8-1,1.4-1.9,1.7
				c-3,0.9-5.4-1.9-6.5-4.2c0.7,0.4,1.6,0.6,2.4,0.4c0.3-0.1,0.6-0.2,0.8-0.3c-1-4.5-1.6-9.2-1.4-13.9c0.1-1.6,0.3-3.2,0.6-4.8
				c0.1-0.1,0.1-0.1,0.1-0.3c0.6-2.8,1.5-5.7,2.8-8.3c0.3-0.5,0.6-1,1-1.3c-4,8.3-4.1,18.5-2.2,27.5c0.3-0.6,0.4-1.3,0.3-2.1
				c-0.8-5.1-0.9-10.5-0.3-15.6c0.3-2.6,1-5.2,1.7-7.7c0.2-0.7,0.5-1.6,0.9-2.4h0.3c0.1,0,0.2,0.1,0.3,0.1c0.3,0.5,0.5,1,0.7,1.5
				c0.5,1.2,0.9,2.4,1.3,3.7c0.2,1,0.3,2,0.6,3.1c0.6,3.4,0.8,6.9,1,10.4C77.5-160.6,77-157.1,75.9-153.9z"/>
		</g>
	</g>
</g>
<g>
	<g transform="translate(196.81315, 209.098066)">
	</g>
</g>
<g>
	<g transform="translate(207.212349, 209.098066)">
		<g>
			<path class="st0" d="M108.7-185.1c1.7-0.7,1.7-3.3,0.1-4.2c-0.1-0.1-0.3-0.2-0.4-0.3c0.1-0.1,0.3-0.1,0.5-0.1
				c0.7-0.1,0.5-1.3-0.1-1.2c-1,0.1-2.1,0.2-3.1,0.3c-0.4-0.1-0.8,0-1.2,0c-0.7,0.1-1.4,0.1-2.2,0.3c-9.6,0.8-19.3,1-29,0.5
				c-0.2-0.1-0.3,0.3-0.1,0.3c3.7,0.6,7.5,1,11.2,1.2c0,0.1-0.1,0.1-0.1,0.2c-3.8,0-7.6-0.3-11.4-0.6c-1.5-0.1-2.9,1.2-3.3,2.6
				c-0.4,1.7,0.4,3.3,1.8,4.1c0.4,1.1,1.3,2.1,2.2,2.7c1.2,0.8,2.8,1,4.2,1.2c1.8,0.1,3.7,0.2,5.5,0.2c0.9,0,1.8,0,2.7,0v2.2
				l-0.1,3.1c-0.1,3.6-0.3,7.2-0.6,10.7c-0.1,3.5-0.2,7.1,0,10.7c0.1,2.7,0.8,5.9,3.7,6.8c1.5,0.4,3.2-0.4,3.7-1.9
				c0.5-1.4,0.6-3.3,0.8-4.6v2.6c-0.1,1-0.1,1.9-0.1,2.9v0.1c1.2-1,1.5-2.6,1.7-4.3c-0.1-2.4-0.2-4.8-0.3-7.3
				c0-4.2-0.1-8.5-0.1-12.7c0-3.1,0.1-6.1,0.1-9.2c3.5-0.5,7-1.1,10.5-1.8c0.2,0,0.3-0.1,0.5-0.3c0.3-0.1,0.8-0.2,1-0.4
				c1.1-0.8,1.4-2,1.5-3.3C108.5-184.6,108.6-184.9,108.7-185.1z M77.9-179.8c-1.7-0.1-3.5-0.6-4.6-1.6c2.7,0.8,5.5,1.3,8.2,1.6
				C80.3-179.7,79.1-179.7,77.9-179.8z"/>
		</g>
	</g>
</g>
<g>
	<g transform="translate(237.370047, 209.098066)">
		<g>
			<path class="st0" d="M80.1-184.3c0.1,0.7,1.1,1.2,1.7,1.5c1,0.4,2.1,0.6,3.2,0.6c1.3,0,2.8-0.3,3.7-1.3c1.3-0.3,2.6-0.9,3.7-1.7
				c0.6-0.4,1-1.1,0.8-1.9c-0.7-1.8-2.1-2.8-4-3.3c-2.2-0.6-4.3,0.3-6.1,1.5c-0.1,0.1-0.3,0.2-0.4,0.3c-0.7,0.5-1.2,1-1.7,1.7
				S79.8-185.2,80.1-184.3z M84.7-182.6c-0.8-0.1-1.6-0.2-2.4-0.5c-0.5-0.1-0.9-0.4-1.3-0.8c-0.6-0.5-0.5-1-0.2-1.6
				c0.3-0.5,0.6-0.9,0.9-1.3c-0.7,1.6,0.1,3.2,2.1,3.6c1.6,0.3,2.5,0.1,3.3-0.1C87.2-183.3,86.7-182.6,84.7-182.6z M92-148
				c0.1,0.7,1.2,0.6,1.2-0.1c-1.3-9.8-1.9-19.7-1.6-29.6c0-0.1-0.5,0-0.5,0.1c-0.3,4.9-0.3,12.2-0.1,17.1c-0.1,0-0.3-2.4-0.5-2.4
				c-0.1-0.6-0.1-1.2-0.1-1.7c-0.1-2.6-0.2-5.1-0.2-7.6c0-2.6,0.1-5.1,0.1-7.6c-0.1-0.6-0.6-0.9-1.1-0.8c-1.1-2.8-4.6-0.2-6.1,0.8
				c-0.2,0.2-0.4,0.4-0.6,0.7c-0.8,0.8-1.2,2.1-1.5,3.5c-0.3,2.5-0.2,5.1-0.2,7.6c-0.1,5.2,0.3,10.3,0.9,15.5c0.3,1.9,0.3,4,1.8,5.4
				c0.3,0.3,0.7,0.5,1,0.6l0.1,0.2c1.3,1.3,3.4,1.7,5.1,0.9c0.6-0.3,0.8-0.8,0.7-1.3C91.1-147,91.6-147.4,92-148z M84.3-176.3
				c0-0.1,0.3-0.6,0.5-0.7h0.1c-0.8,2.2-0.9,4.8-0.9,7.1c-0.1,3.1,0,6.2,0,9.4h-0.2c-0.2-1.7-0.4-3.3-0.6-5c0-0.1,0-0.1,0-0.1v-0.7
				C83.3-169.5,83.2-173.1,84.3-176.3z"/>
		</g>
	</g>
</g>
<g>
	<g transform="translate(248.28922, 209.098066)">
		<g>
			<path class="st0" d="M121.3-172.4c0.4-1.1,0.6-2.4,0.3-3.6c-0.5-1.7-2.2-2.6-3.9-2.4c-3.3,0.4-6.4,1.3-9.6,2.1
				c-3.2,0.8-6.4,1.6-9.5,2.5c-0.1,0.1-0.3,0.1-0.3,0.1c-1.4,0.3-1.9,1.5-1.7,2.6l-0.4,0.2c-2.7,1.5-0.8,5.7,2.1,4.9
				c3.1-0.8,6.2-1.8,9.3-2.5c1.5-0.3,3.1-0.6,4.6-1h0.3c-0.6,1.1-1.2,2.2-1.9,3.3c-1.5,2.4-3.1,4.5-5.1,6.4
				c-1.7,1.7-3.9,3.1-6.1,4.1c-0.4,0.1-0.9,0.3-1.4,0.5c-1.7,0.4-3.3,0.6-5,0.3l-0.9-0.2c-1.7-1-2.3-3.3-2.2-5.3
				c0-2.5,0.8-5.1,1.9-7.3c2.1-4.4,5.6-8.2,9.9-10.5c2.5-1.3,5.3-2.2,8-2.6c1.4-0.2,2.8-0.3,4.2-0.3c1.6,0.1,3.1-0.1,4.6,0
				c0.5,0,0.8-0.5,0.6-0.9c0.8-0.1,1.5-0.3,1.7-1.1c0.8-2.5-2.4-3.3-4.1-3.6c-5.1-1-10.6-0.2-15.6,1.1c-0.6,0.1-0.8,0.5-0.9,0.9
				c-4.6,1.5-8.8,4.5-12,8.2c-3.5,4.1-6.2,9.4-5.3,15c0.3,2.7,1.5,5.1,3.3,7c0.9,1.7,2.2,3,3.7,3.9c1.2,0.8,2.6,1,4,1.1
				c0.1,0.6,1.1,0.8,1.7,0.9c1.9,0,3.7-0.2,5.5-0.6c3.7-0.9,7.1-2.8,10.1-5.1c3.3-2.6,6-5.9,8.3-9.5c0.1-0.3,0.3-0.6,0.4-0.8
				l0.2-0.6c0.3-1.1,0.6-2.2,0.8-3.3c-0.1-0.1-0.2-0.3-0.3-0.4c-4.6,10.1-13.6,16.1-16.4,17.4c-1.5,0.8-3,1.4-4.6,1.8
				c-0.6,0.1-4.6,1-5.3,0.3c1.5,0,3.2-0.3,4.6-0.7l0.8-0.2c2.9-0.8,5.7-2.2,8.2-4c1.5-1,2.9-2.4,4.2-3.7c2.4-2.2,4.5-4.8,6.2-7.6
				C119.4-167.7,120.4-170,121.3-172.4z"/>
		</g>
	</g>
</g>
<g>
	<g transform="translate(277.407016, 209.098066)">
		<g>
			<path class="st0" d="M94.1-180.9c-0.1,0.1-0.1,0.3,0,0.4c1.5-0.7,3.1-1.3,4.6-1.8c4.6-1.6,9.3-2.6,14-3.7c2.7-0.6,5.5-1.3,8.2-2
				c-0.6,0-1.2,0-1.9,0.1c-3,0.2-5.8,0.8-8.7,1.3l-1.6,0.4C103.8-184.9,98.6-183.3,94.1-180.9z M133-152.7c0.8-0.6,1.4-1.6,1.3-2.8
				c-0.3-4-1.6-10.1-6.9-8.9c-0.8,0.2-1.5,0.6-2.2,0.8l-2.7,0.8c-1.7,0.6-3.3,1.2-5,1.8c-1,0.3-2.1,0.8-3.1,1.2l-5.9,2.3
				c-1.5,0.6-3.1,1.2-4.6,1.9l-0.2,0.1c0-0.1,0-0.2,0-0.3l-0.4-4.5c1.9-1,3.8-1.9,5.8-2.8c3.3-1.4,6.5-2.4,9.8-3.3
				c1.7-0.4,3.4-0.8,5.1-1c1.6-0.3,3.1-0.3,4.6-1c1.2-0.6,2.1-2.2,1.8-3.5c-0.1-0.7-0.6-1.4-1.2-1.7c-0.1,0-0.1,0-0.1-0.1
				c-0.1-0.3-0.2-0.6-0.3-0.8c-0.1-0.1-0.1-0.3-0.3-0.6c-1-1.7-2.6-1.7-4.4-1.7c-0.8,0.1-1.6,0.1-2.4,0.3l-0.9,0.2
				c-2.2,0.6-4.5,1.2-6.7,1.8c-4,1.5-7.8,3.1-11.7,4.8c0-0.3-0.4-2.8-0.5-3.5l0.1-0.1c2.1-0.9,4.4-1.7,6.6-2.5
				c0.8-0.3,7.6-2.4,11.2-3.4c0.1,0,0.3-0.1,0.4-0.1c1.6-0.4,3.2-0.9,4.7-1.4l3.5-1c0.3-1.4,0.1-2.8-0.4-4.3
				c-0.3-0.3-0.8-0.6-1.1-0.9l-1.1-0.4c-0.4-0.1-0.9-0.2-1.4-0.3c-3.6,1-7.2,1.9-10.9,2.8c-4.7,1-9.4,2-14,3.6c-1.5,0.5-3,1-4.4,1.7
				c-0.1,0.2-0.2,0.4-0.3,0.6c-1,0.8-1.6,1.9-1.7,3.3c-0.1,1.2,0.3,2.5,1.1,3.4l0.8,7.9l0.8,8.3c0.2,2.4,0.3,4.9,0.8,7.3
				c-0.6,1.8,0.6,3.9,2.3,4.6c-0.1,0.3-0.1,0.6,0.1,1c0.6,1.2,1.8,1.2,2.9,1c0.3,0,0.7-0.1,0.7-0.1c-0.1,0.1,3.9-1.1,4.7-1.7
				l0.1-0.1c0.8-0.3,1.5-0.6,2.3-1c0.1-0.1,0.3-0.1,0.5-0.2h0.1c2.3-1,4.6-1.8,7-2.6c4.9-1.7,10.1-3,15.2-4
				C132.7-152.1,132.9-152.3,133-152.7z M116.2-167.4l0.1,0.2c-0.4,0.1-0.8,0.3-1.2,0.5c-3.5,1.4-7.1,2.7-10.5,4.4
				c0.6-0.5,1-1.2,1.1-1.9c1.3-0.3,2.6-0.8,4-1.2C111.9-166.1,114-166.7,116.2-167.4z M100.9-143.4c1.4-0.3,2.7-0.9,4-1.4
				c1.3-0.4,2.6-0.9,3.8-1.4v0.1c-1,0.6-2.1,1.1-3.2,1.7c-0.5,0.3-1,0.6-1.6,0.8c-0.1,0.1-0.1,0.1-0.2,0.1
				C103.5-143.4,101.9-143.3,100.9-143.4z"/>
		</g>
	</g>
</g>
<g>
	<g transform="translate(308.604661, 209.098066)">
		<g>
			<path class="st0" d="M142.4-170.7c0.2-1.5-0.2-2.8-1.3-3.6c-0.9-0.7-1.9-1.5-2.8-2.1c-0.1-0.6-0.4-1.1-1-1.5
				c-6.8-4.6-13.7-9.3-21.3-11.7c-0.1,0-0.1-0.1-0.2-0.1c-0.5-0.2-1-0.3-1.5-0.6c-0.1-0.1-0.3-0.3-0.6-0.3c-2.3-0.4-6.4-1.3-7.8,1.2
				c-0.8,1.6,0,3.5,1.3,4.6c-0.4,0.6-0.9,1.1-1.5,1.5c0.6,2.4,1,4.8,1.5,7.1c-0.4,0-0.8,0-1.2,0.1c-2.1,0-2.9,3.5-1,4.7
				c0.6,0.4,1.4,0.8,2.1,1.1l-1.6,0.2c0.8,0.3,1.5,0.6,2.3,0.8c0.3,0.1,0.4,0.3,0.4,0.5c0.1,0,0.3,0,0.4,0l0.4,2.4
				c0.6,3.3,1.1,6.5,1.7,9.8l0.6,4.6c0.1,1.5,0,3.2,0.3,4.6c0,0.8,0.7,1.2,1.2,1.1c0.1,0.4,0.2,0.8,0.4,1.1c0.8,1,2.2,0.9,3.1,0.1
				c0.7-0.6,1.2-1.2,1.6-2.1c0-0.3,0-0.8-0.1-1.2c0.2-3.4-0.1-6.9-0.3-10.3c-0.1-3.2-0.4-6.4-0.8-9.5c1.8,0.1,3.7,0.2,5.5,0.3
				c0.3,0.6,0.8,1.3,1.2,1.9v0.1c0.4,0.7,0.8,1.4,1.1,2.1c1.3,2.6,3.2,7.1,4,8.9c1.4,3.2,2.8,6.4,4,9.7c0.3,0.1,0.7,0,0.9-0.2
				c0,0.1,0.1,0.1,0.1,0.1c0.6,0.3,1.2,0.3,1.9,0.2c1.2,0.5,2.8,0.1,3-1.4c0.6-4.5-1.9-8.9-3.7-12.8c-1.5-3-3.1-5.8-5-8.6
				c3.3,0.3,6.5,0.6,9.8,0.8c1.1,0.1,2.4-1,2.6-2.4L142.4-170.7z M114.2-181.3l-0.2-1.1c6,1.4,11.5,4.4,16.8,8l-6.7-0.8
				c-1.6-1.3-3.9-3.2-6-1.9c-0.3,0.3-0.6,0.7-0.6,1c-0.3-0.1-0.8-0.1-1.1-0.1c-0.3-1.5-0.6-2.9-1-4.4c-0.1-0.6-0.8-0.6-1.1-0.3
				C114.3-181,114.3-181.2,114.2-181.3z M119.2-150.1c0.3-1.7,0.8-2.4,0.6-4.9c-0.3-4.2-0.7-8.3-1.4-12.3h-0.6
				C118.7-161.6,118.9-155.9,119.2-150.1z"/>
		</g>
	</g>
</g>
<g>
	<g transform="translate(339.282332, 209.098066)">
		<g>
			<path class="st0" d="M146.3-169.5c-0.1-1.7-0.1-3.3,0-5.1c0.3-3.3,1-6.7,0.6-9.9c-0.2-1.9-1.4-3.4-3.4-3.4
				c-1.8,0-3.4,1.5-3.4,3.4c0.1,1.2,0.1,2.4,0.1,3.5l-0.3-0.3c-1.4-1.2-2.9-2.3-4.4-3.3c-3.3-2.1-6.7-3.7-10.4-4.8
				c-0.4-0.1-0.8-0.1-1-0.1c-1.5-0.5-3-0.9-4.5-1c-2.4-0.2-4.4,1.2-4.9,3.5c-0.6,2.3,0.7,4.3,1.9,6c2.6,3.3,5.5,6.2,8.8,8.9l1,0.8
				c1,1,1.9,1.9,2.8,3c2.4,2.4,4.6,4.9,6.7,7.5c0.7,0.8,1.4,1.7,2,2.5c0.1,0.4,0.3,0.8,0.5,1.1c0.3,0.6,0.9,1.9,0.6,2.6
				c0,0.2,0,0.4-0.2,0.6c-0.6,0.8-1.9,1-2.8,1c-1.5,0.1-3,0.1-4.4,0c-0.8-0.1-1.7-0.2-2.5-0.5c-0.8-0.6-1.6-1.4-2.3-2.1
				c-1.2-1.3-2.1-3-2.7-4.7c-1.6-4.6-1.8-9.5-3.3-14.1c-0.6-1.7-1.9-2.3-3.6-2.1c-1.4,0.2-2.4,1.5-2.7,2.8c-0.4,2,0,4.2,0.3,6.1
				c0.3,2.2,0.6,4.4,1.1,6.6c1,3.8,1.8,7.7,2.2,11.6c0.1,0.7,0.3,1.3,0.8,1.8c0.2,1.2,0.9,2.4,1.7,3.2c0.7,0.7,1.8,0.7,2.5,0
				c0.9-0.8,1.4-1.9,1.7-3.1c1.3,0.8,2.8,1.5,4.3,1.8c2.2,0.6,4.8,0.9,7.2,0.6h0.2c4.4-0.2,9.1-3.5,9.2-8c0.3-1.8-0.1-3.7-0.9-5.4
				c-0.4-1.9-1.4-3.6-2.6-5.2c-1.8-2.3-3.9-4.4-5.9-6.6c-2.1-2.3-4.3-4.5-6.5-6.7l-2.8-2.7c1.8,0.4,3.7,1,5.4,1.8
				c3.3,1.5,6.4,3.7,8.4,6.7c0.1,0,0.1,0.1,0.1,0.1c0.4,3.3,1.6,7.8,5,7c1-0.3,1.5-1.3,1.2-2.2C146.7-167.2,146.4-168.3,146.3-169.5
				z"/>
		</g>
	</g>
</g>
<g>
	<g transform="translate(11.48898, 206.799978)">
		<g>
			<path class="st1" d="M43.4-185.9c1.7-0.7,1.7-3.3,0.1-4.2c-0.1-0.1-0.3-0.2-0.4-0.3c0.1-0.1,0.3-0.1,0.5-0.1
				c0.7-0.1,0.5-1.3-0.1-1.2c-1,0.1-2.1,0.2-3.1,0.3c-0.4-0.1-0.8,0-1.2,0c-0.7,0.1-1.4,0.1-2.2,0.3c-9.6,0.8-19.3,1-29,0.5
				c-0.2-0.1-0.3,0.3-0.1,0.3c3.7,0.6,7.5,1,11.2,1.2c0,0.1-0.1,0.1-0.1,0.2c-3.8,0-7.6-0.3-11.4-0.6c-1.5-0.1-2.9,1.2-3.3,2.6
				c-0.4,1.7,0.4,3.3,1.8,4.1c0.4,1.1,1.3,2.1,2.2,2.7c1.2,0.8,2.8,1,4.2,1.2c1.8,0.1,3.7,0.2,5.5,0.2c0.9,0,1.8,0,2.7,0v2.2
				l-0.1,3.1c-0.1,3.6-0.3,7.2-0.6,10.7c-0.1,3.5-0.2,7.1,0,10.7c0.1,2.7,0.8,5.9,3.7,6.8c1.5,0.4,3.2-0.4,3.7-1.9
				c0.5-1.4,0.6-3.3,0.8-4.6v2.6c-0.1,1-0.1,1.9-0.1,2.9v0.1c1.2-1,1.5-2.6,1.7-4.3c-0.1-2.4-0.2-4.8-0.3-7.3
				c0-4.2-0.1-8.5-0.1-12.7c0-3.1,0.1-6.1,0.1-9.2c3.5-0.5,7-1.1,10.5-1.8c0.2,0,0.3-0.1,0.5-0.3c0.3-0.1,0.8-0.2,1-0.4
				c1.1-0.8,1.4-2,1.5-3.3C43.3-185.4,43.3-185.6,43.4-185.9z M12.6-180.6c-1.7-0.1-3.5-0.6-4.6-1.6c2.7,0.8,5.5,1.3,8.3,1.6
				C15.1-180.5,13.8-180.5,12.6-180.6z"/>
		</g>
	</g>
</g>
<g>
	<g transform="translate(41.646689, 206.799978)">
		<g>
			<path class="st1" d="M40.1-174.8c-0.3-2.1-0.8-4.2-1.4-6.3c-0.7-2-1.7-4-2.6-5.8c-0.3-0.6-1-0.8-1.6-0.6
				c-0.5-0.9-1.2-2.1-2.1-2.6c-0.8-0.5-2-0.5-3-0.3c-0.9-0.1-1.8,0.2-2.7,0.6c-2.2,0.5-3.9,2.6-5.1,5.2c-0.1,0-0.3-0.1-0.6,0
				c0.3-0.8,0.6-1.5,0.9-2.3c0.3-0.7,0.7-1.4,1.1-2.1c0.1-0.1-0.1-0.2-0.1-0.1c-1.2,1.5-2.1,3.2-2.8,5c-0.1,0.1-0.1,0.1-0.1,0.1
				c-4.6,7.8-5.9,16.9-4.5,25.8c0.7,4.1,2.1,8.2,5.3,11c1.9,1.5,4.4,2.4,6.7,1.9c0.8,0.1,1.5,0.1,2.3,0c1.9-0.3,3.5-1.2,4.9-2.5
				c1-0.8,1.8-1.8,2.6-2.8c2.3-3.3,2.9-7.5,3.3-11.3C41.1-166.2,40.8-170.5,40.1-174.8z M31.4-154.6c-0.2,0.8-0.6,1.6-1,2.4
				c-0.4,0.8-1,1.4-1.9,1.7c-3,0.9-5.4-1.9-6.5-4.2c0.7,0.4,1.6,0.6,2.4,0.4c0.3-0.1,0.6-0.2,0.8-0.3c-1-4.5-1.6-9.2-1.4-13.9
				c0.1-1.6,0.3-3.2,0.6-4.8c0.1-0.1,0.1-0.1,0.1-0.3c0.6-2.8,1.5-5.7,2.8-8.2c0.3-0.5,0.6-1,1-1.3c-4,8.3-4.1,18.5-2.2,27.5
				c0.3-0.6,0.4-1.3,0.3-2.1c-0.8-5.1-0.9-10.5-0.3-15.6c0.3-2.6,1-5.2,1.7-7.7c0.2-0.7,0.5-1.6,0.9-2.4h0.3c0.1,0,0.2,0.1,0.3,0.1
				c0.3,0.5,0.5,1,0.7,1.5c0.5,1.2,0.9,2.4,1.3,3.7c0.2,1,0.3,2,0.6,3.1c0.6,3.4,0.8,6.9,1,10.4C33-161.4,32.6-157.9,31.4-154.6z"/>
		</g>
	</g>
</g>
<g>
	<g transform="translate(63.485025, 206.799978)">
		<g>
			<path class="st1" d="M60.7-171.5c0.2-1.5-0.2-2.8-1.3-3.6c-0.9-0.7-1.9-1.5-2.8-2.1c-0.1-0.6-0.4-1.1-1-1.5
				c-6.8-4.6-13.7-9.3-21.3-11.7c-0.1,0-0.1-0.1-0.2-0.1c-0.5-0.2-1-0.3-1.5-0.6c-0.1-0.1-0.3-0.3-0.6-0.3c-2.3-0.4-6.4-1.3-7.8,1.2
				c-0.8,1.6,0,3.5,1.3,4.6c-0.4,0.6-0.9,1.1-1.5,1.5c0.6,2.4,1,4.8,1.5,7.1c-0.4,0-0.8,0-1.2,0.1c-2.1,0-2.9,3.5-1,4.7
				c0.6,0.4,1.4,0.8,2.1,1.1l-1.6,0.2c0.8,0.3,1.5,0.6,2.3,0.8c0.3,0.1,0.4,0.3,0.4,0.5c0.1,0,0.3,0,0.4,0l0.4,2.4
				c0.6,3.3,1.1,6.5,1.7,9.8l0.6,4.6c0.1,1.5,0,3.2,0.3,4.6c0,0.8,0.7,1.2,1.2,1.1c0.1,0.4,0.2,0.8,0.4,1.1c0.8,1,2.2,0.9,3.1,0.1
				c0.7-0.6,1.2-1.2,1.6-2.1c0-0.3,0-0.8-0.1-1.2c0.2-3.4-0.1-6.9-0.3-10.3c-0.1-3.2-0.4-6.4-0.8-9.5c1.8,0.1,3.7,0.2,5.5,0.3
				c0.3,0.6,0.8,1.3,1.2,1.9v0.1c0.4,0.7,0.8,1.4,1.1,2.1c1.3,2.6,3.2,7.1,4,8.9c1.4,3.2,2.8,6.4,4,9.7c0.3,0.1,0.7,0,0.9-0.2
				c0,0.1,0.1,0.1,0.1,0.1c0.6,0.3,1.2,0.3,1.9,0.2c1.2,0.5,2.8,0.1,3-1.4c0.6-4.5-1.9-8.9-3.7-12.8c-1.5-3-3.1-5.8-5-8.6
				c3.3,0.3,6.5,0.6,9.8,0.8c1.1,0.1,2.4-1,2.6-2.4L60.7-171.5z M32.5-182.1l-0.2-1.1c6,1.4,11.5,4.4,16.8,8l-6.7-0.8
				c-1.6-1.3-3.9-3.2-6-1.9c-0.3,0.3-0.6,0.7-0.6,1c-0.3-0.1-0.8-0.1-1.1-0.1c-0.3-1.5-0.6-2.9-1-4.4c-0.1-0.6-0.8-0.6-1.1-0.3
				C32.6-181.7,32.6-182,32.5-182.1z M37.5-150.9c0.3-1.7,0.8-2.4,0.6-4.9c-0.3-4.2-0.7-8.3-1.4-12.3h-0.6
				C37-162.4,37.2-156.6,37.5-150.9z"/>
		</g>
	</g>
</g>
<g>
	<g transform="translate(94.162696, 206.799978)">
		<g>
			<path class="st1" d="M57.6-174.8c-0.3-2.1-0.8-4.2-1.4-6.3c-0.7-2-1.7-4-2.6-5.8c-0.3-0.6-1-0.8-1.6-0.6
				c-0.5-0.9-1.2-2.1-2.1-2.6c-0.8-0.5-2-0.5-3-0.3c-0.9-0.1-1.8,0.2-2.7,0.6c-2.2,0.5-3.9,2.6-5.1,5.2c-0.1,0-0.3-0.1-0.6,0
				c0.3-0.8,0.6-1.5,0.9-2.3c0.3-0.7,0.7-1.4,1.1-2.1c0.1-0.1-0.1-0.2-0.1-0.1c-1.2,1.5-2.1,3.2-2.8,5c-0.1,0.1-0.1,0.1-0.1,0.1
				c-4.6,7.8-5.9,16.9-4.5,25.8c0.7,4.1,2.1,8.2,5.3,11c1.9,1.5,4.4,2.4,6.7,1.9c0.8,0.1,1.5,0.1,2.3,0c1.9-0.3,3.5-1.2,4.9-2.5
				c1-0.8,1.8-1.8,2.6-2.8c2.3-3.3,2.9-7.5,3.3-11.3C58.6-166.2,58.3-170.5,57.6-174.8z M48.9-154.6c-0.2,0.8-0.6,1.6-1,2.4
				c-0.4,0.8-1,1.4-1.9,1.7c-3,0.9-5.4-1.9-6.5-4.2c0.7,0.4,1.6,0.6,2.4,0.4c0.3-0.1,0.6-0.2,0.8-0.3c-1-4.5-1.6-9.2-1.4-13.9
				c0.1-1.6,0.3-3.2,0.6-4.8c0.1-0.1,0.1-0.1,0.1-0.3c0.6-2.8,1.5-5.7,2.8-8.2c0.3-0.5,0.6-1,1-1.3c-4,8.3-4.1,18.5-2.2,27.5
				c0.3-0.6,0.4-1.3,0.3-2.1c-0.8-5.1-0.9-10.5-0.3-15.6c0.3-2.6,1-5.2,1.7-7.7c0.2-0.7,0.5-1.6,0.9-2.4h0.3c0.1,0,0.2,0.1,0.3,0.1
				c0.3,0.5,0.5,1,0.7,1.5c0.5,1.2,0.9,2.4,1.3,3.7c0.2,1,0.3,2,0.6,3.1c0.6,3.4,0.8,6.9,1,10.4C50.5-161.4,50.1-157.9,48.9-154.6z"
				/>
		</g>
	</g>
</g>
<g>
	<g transform="translate(116.001031, 206.799978)">
		<g>
			<path class="st1" d="M68.8-144.9c1.3,0,2.4-0.8,3.2-1.9c-0.6-8.5-1.3-17.1-2.7-25.6c-0.6-4.2-1.3-8.4-2.4-12.4
				c-0.3-1.3-0.8-2.6-1-4c-0.1-0.1-0.3-0.3-0.5-0.3c-1.2-0.8-3.3-1-4.1,0.6c0,0.1-0.1,0.1-0.1,0.1c-0.5,0.3-0.9,0.8-1.2,1.2
				c-0.8,1.4-0.1,2.7,0.2,4c0.7,2.5,1.1,5,1.6,7.5c0.6,3.5,1.4,7.2,1.7,10.7l-1.1-2.2c0-0.2,0-0.4-0.1-0.7c-1.4-2.8-2.8-5.6-4.4-8.3
				c-1.9-3.4-3.8-6.7-6.2-9.8c-1.3-1.7-5.3-5.8-7.4-3c-0.3,0.5-0.6,1-0.6,1.6c-0.5,0.1-1,0.3-1.3,0.6c-0.2,3-0.1,6,0,9.1
				c0.1,4.7,0.2,9.5,0.4,14.2c0.2,5.8,0.4,11.6,0.8,17.5c0.5,0.6,1.1,1.1,1.9,1.3c1.5,0.5,3.1-0.1,3.9-1.5c2.8-0.4,2.1-4.4,2-6.6
				c-0.1-2.8-0.1-5.5-0.3-8.3c0-4.7,0.1-9.4,0-14.1c0.3,0.5,0.7,1,1.1,1.5L64.3-152l0.4,2.4c0.3,1.8,0.8,4,2.6,4.8
				C67.8-144.6,68.3-144.6,68.8-144.9z M72.6-147.4c0.1-1,0-2.5-0.1-3c0.1-12.3-1.5-24.5-3.9-36.6c-0.1-0.7-1-0.7-1.3-0.3
				c-0.3,0.3-0.3,0.6-0.2,0.8c2.8,12.9,4.4,26.1,5.3,39.3C72.4-147.4,72.5-147.4,72.6-147.4z M42.3-152.5c0.3,3,0.6,2.8,0.6,2.8
				l-0.6-15.6c-0.1-4.8-0.3-9.7-0.3-14.5c-0.1-2.2-0.1-4.4-0.1-6.7c-0.5,1.1-0.6,2.4-0.6,3.6c0.1,5,0.1,10,0.3,14.9
				C41.8-162.9,41.9-157.4,42.3-152.5z M50-155.9c0.1,0.8,0.1,1.6,0.1,2.4c0.1,1.4,0.2,2.8,0.3,4.1c0.1,0.6-0.1,1.7-0.6,2.4
				c0.4-1.7-0.3-3.3-0.3-4.4l0.1-4.2c0.1-0.1,0.1-0.1,0.1-0.1L50-155.9z"/>
		</g>
	</g>
</g>
<g>
	<g transform="translate(142.519016, 206.799978)">
		<g>
			<path class="st1" d="M87.1-185.9c1.7-0.7,1.7-3.3,0.1-4.2c-0.1-0.1-0.3-0.2-0.4-0.3c0.1-0.1,0.3-0.1,0.5-0.1
				c0.7-0.1,0.5-1.3-0.1-1.2c-1,0.1-2.1,0.2-3.1,0.3c-0.4-0.1-0.8,0-1.2,0c-0.7,0.1-1.4,0.1-2.2,0.3c-9.6,0.8-19.3,1-29,0.5
				c-0.2-0.1-0.3,0.3-0.1,0.3c3.7,0.6,7.5,1,11.2,1.2c0,0.1-0.1,0.1-0.1,0.2c-3.8,0-7.6-0.3-11.4-0.6c-1.5-0.1-2.9,1.2-3.3,2.6
				c-0.4,1.7,0.4,3.3,1.8,4.1c0.4,1.1,1.3,2.1,2.2,2.7c1.2,0.8,2.8,1,4.2,1.2c1.8,0.1,3.7,0.2,5.5,0.2c0.9,0,1.8,0,2.7,0v2.2
				l-0.1,3.1c-0.1,3.6-0.3,7.2-0.6,10.7c-0.1,3.5-0.2,7.1,0,10.7c0.1,2.7,0.8,5.9,3.7,6.8c1.5,0.4,3.2-0.4,3.7-1.9
				c0.5-1.4,0.6-3.3,0.8-4.6v2.6c-0.1,1-0.1,1.9-0.1,2.9v0.1c1.2-1,1.5-2.6,1.7-4.3c-0.1-2.4-0.2-4.8-0.3-7.3
				c0-4.2-0.1-8.5-0.1-12.7c0-3.1,0.1-6.1,0.1-9.2c3.5-0.5,7-1.1,10.5-1.8c0.2,0,0.3-0.1,0.5-0.3c0.3-0.1,0.8-0.2,1-0.4
				c1.1-0.8,1.4-2,1.5-3.3C87-185.4,87-185.6,87.1-185.9z M56.3-180.6c-1.7-0.1-3.5-0.6-4.6-1.6c2.7,0.8,5.5,1.3,8.2,1.6
				C58.7-180.5,57.5-180.5,56.3-180.6z"/>
		</g>
	</g>
</g>
<g>
	<g transform="translate(172.676725, 206.799978)">
		<g>
			<path class="st1" d="M83.8-174.8c-0.3-2.1-0.8-4.2-1.4-6.3c-0.7-2-1.7-4-2.6-5.8c-0.3-0.6-1-0.8-1.6-0.6
				c-0.5-0.9-1.2-2.1-2.1-2.6c-0.8-0.5-2-0.5-3-0.3c-0.9-0.1-1.8,0.2-2.7,0.6c-2.2,0.5-3.9,2.6-5.1,5.2c-0.1,0-0.3-0.1-0.6,0
				c0.3-0.8,0.6-1.5,0.9-2.3c0.3-0.7,0.7-1.4,1.1-2.1c0.1-0.1-0.1-0.2-0.1-0.1c-1.2,1.5-2.1,3.2-2.8,5c-0.1,0.1-0.1,0.1-0.1,0.1
				c-4.6,7.8-5.9,16.9-4.5,25.8c0.7,4.1,2.1,8.2,5.3,11c1.9,1.5,4.4,2.4,6.7,1.9c0.8,0.1,1.5,0.1,2.3,0c1.9-0.3,3.5-1.2,4.9-2.5
				c1-0.8,1.8-1.8,2.6-2.8c2.3-3.3,2.9-7.5,3.3-11.3C84.7-166.2,84.5-170.5,83.8-174.8z M75.1-154.6c-0.2,0.8-0.6,1.6-1,2.4
				c-0.4,0.8-1,1.4-1.9,1.7c-3,0.9-5.4-1.9-6.5-4.2c0.7,0.4,1.6,0.6,2.4,0.4c0.3-0.1,0.6-0.2,0.8-0.3c-1-4.5-1.6-9.2-1.4-13.9
				c0.1-1.6,0.3-3.2,0.6-4.8c0.1-0.1,0.1-0.1,0.1-0.3c0.6-2.8,1.5-5.7,2.8-8.2c0.3-0.5,0.6-1,1-1.3c-4,8.3-4.1,18.5-2.2,27.5
				c0.3-0.6,0.4-1.3,0.3-2.1c-0.8-5.1-0.9-10.5-0.3-15.6c0.3-2.6,1-5.2,1.7-7.7c0.2-0.7,0.5-1.6,0.9-2.4h0.3c0.1,0,0.2,0.1,0.3,0.1
				c0.3,0.5,0.5,1,0.7,1.5c0.5,1.2,0.9,2.4,1.3,3.7c0.2,1,0.3,2,0.6,3.1c0.6,3.4,0.8,6.9,1,10.4C76.7-161.4,76.3-157.9,75.1-154.6z"
				/>
		</g>
	</g>
</g>
<g>
	<g transform="translate(194.51506, 206.799978)">
	</g>
</g>
<g>
	<g transform="translate(204.91426, 206.799978)">
		<g>
			<path class="st1" d="M107.9-185.9c1.7-0.7,1.7-3.3,0.1-4.2c-0.1-0.1-0.3-0.2-0.4-0.3c0.1-0.1,0.3-0.1,0.5-0.1
				c0.7-0.1,0.5-1.3-0.1-1.2c-1,0.1-2.1,0.2-3.1,0.3c-0.4-0.1-0.8,0-1.2,0c-0.7,0.1-1.4,0.1-2.2,0.3c-9.6,0.8-19.3,1-29,0.5
				c-0.2-0.1-0.3,0.3-0.1,0.3c3.7,0.6,7.5,1,11.2,1.2c0,0.1-0.1,0.1-0.1,0.2c-3.8,0-7.6-0.3-11.4-0.6c-1.5-0.1-2.9,1.2-3.3,2.6
				c-0.4,1.7,0.4,3.3,1.8,4.1c0.4,1.1,1.3,2.1,2.2,2.7c1.2,0.8,2.8,1,4.2,1.2c1.8,0.1,3.7,0.2,5.5,0.2c0.9,0,1.8,0,2.7,0v2.2
				l-0.1,3.1c-0.1,3.6-0.3,7.2-0.6,10.7c-0.1,3.5-0.2,7.1,0,10.7c0.1,2.7,0.8,5.9,3.7,6.8c1.5,0.4,3.2-0.4,3.7-1.9
				c0.5-1.4,0.6-3.3,0.8-4.6v2.6c-0.1,1-0.1,1.9-0.1,2.9v0.1c1.2-1,1.5-2.6,1.7-4.3c-0.1-2.4-0.2-4.8-0.3-7.3
				c0-4.2-0.1-8.5-0.1-12.7c0-3.1,0.1-6.1,0.1-9.2c3.5-0.5,7-1.1,10.5-1.8c0.2,0,0.3-0.1,0.5-0.3c0.3-0.1,0.8-0.2,1-0.4
				c1.1-0.8,1.4-2,1.5-3.3C107.8-185.4,107.8-185.6,107.9-185.9z M77.1-180.6c-1.7-0.1-3.5-0.6-4.6-1.6c2.7,0.8,5.5,1.3,8.2,1.6
				C79.5-180.5,78.3-180.5,77.1-180.6z"/>
		</g>
	</g>
</g>
<g>
	<g transform="translate(235.071958, 206.799978)">
		<g>
			<path class="st1" d="M79.3-185.1c0.1,0.7,1.1,1.2,1.7,1.5c1,0.4,2.1,0.6,3.2,0.6c1.3,0,2.8-0.3,3.7-1.3c1.3-0.3,2.6-0.9,3.7-1.7
				c0.6-0.4,1-1.1,0.8-1.9c-0.7-1.8-2.1-2.8-4-3.3c-2.2-0.6-4.3,0.3-6.1,1.5c-0.1,0.1-0.3,0.2-0.4,0.3c-0.7,0.5-1.2,1-1.7,1.7
				C79.7-186.9,79.1-186,79.3-185.1z M84-183.4c-0.8-0.1-1.6-0.2-2.4-0.5c-0.5-0.1-0.9-0.4-1.3-0.8c-0.6-0.5-0.5-1-0.2-1.6
				c0.3-0.5,0.6-0.9,0.9-1.3c-0.7,1.6,0.1,3.2,2.1,3.6c1.6,0.3,2.5,0.1,3.3-0.1C86.5-184,86-183.4,84-183.4z M91.2-148.7
				c0.1,0.7,1.2,0.6,1.2-0.1c-1.3-9.8-1.9-19.7-1.6-29.6c0-0.1-0.5,0-0.5,0.1c-0.3,4.9-0.3,12.2-0.1,17.1c-0.1,0-0.3-2.4-0.5-2.4
				c-0.1-0.6-0.1-1.2-0.1-1.7c-0.1-2.6-0.2-5.1-0.2-7.6c0-2.6,0.1-5.1,0.1-7.6c-0.1-0.6-0.6-0.9-1.1-0.8c-1.1-2.8-4.6-0.2-6.1,0.8
				c-0.2,0.2-0.4,0.4-0.6,0.7c-0.8,0.8-1.2,2.1-1.5,3.5c-0.3,2.5-0.2,5.1-0.2,7.6c-0.1,5.2,0.3,10.3,0.9,15.5c0.3,1.9,0.3,4,1.8,5.4
				c0.3,0.3,0.7,0.5,1,0.6l0.1,0.2c1.3,1.3,3.4,1.7,5.1,0.9c0.6-0.3,0.8-0.8,0.7-1.3C90.3-147.8,90.8-148.2,91.2-148.7z M83.5-177
				c0-0.1,0.3-0.6,0.5-0.7H84c-0.8,2.2-0.9,4.8-0.9,7.1c-0.1,3.1,0,6.2,0,9.4h-0.2c-0.2-1.7-0.4-3.3-0.6-5c0-0.1,0-0.1,0-0.1v-0.7
				C82.5-170.2,82.4-173.9,83.5-177z"/>
		</g>
	</g>
</g>
<g>
	<g transform="translate(245.991131, 206.799978)">
		<g>
			<path class="st1" d="M120.5-173.1c0.4-1.1,0.6-2.4,0.3-3.6c-0.5-1.7-2.2-2.6-3.9-2.4c-3.3,0.4-6.4,1.3-9.6,2.1
				c-3.2,0.8-6.4,1.6-9.5,2.5c-0.1,0.1-0.3,0.1-0.3,0.1c-1.4,0.3-1.9,1.5-1.7,2.6l-0.4,0.2c-2.7,1.5-0.8,5.7,2.1,4.9
				c3.1-0.8,6.2-1.8,9.3-2.5c1.5-0.3,3.1-0.6,4.6-1h0.3c-0.6,1.1-1.2,2.2-1.9,3.3c-1.5,2.4-3.1,4.5-5.1,6.4
				c-1.7,1.7-3.9,3.1-6.1,4.1c-0.4,0.1-0.9,0.3-1.4,0.5c-1.7,0.4-3.3,0.6-5,0.3l-0.9-0.2c-1.7-1-2.3-3.3-2.2-5.3
				c0-2.5,0.8-5.1,1.9-7.3c2.1-4.4,5.6-8.2,9.9-10.5c2.5-1.3,5.3-2.2,8-2.6c1.4-0.2,2.8-0.3,4.2-0.3c1.6,0.1,3.1-0.1,4.6,0
				c0.5,0,0.8-0.5,0.6-0.9c0.8-0.1,1.5-0.3,1.7-1.1c0.8-2.5-2.4-3.3-4.1-3.6c-5.1-1-10.6-0.2-15.6,1.1c-0.6,0.1-0.8,0.5-0.9,0.9
				c-4.6,1.5-8.8,4.5-12,8.2c-3.5,4.1-6.2,9.4-5.3,15c0.3,2.7,1.5,5.1,3.3,7c0.9,1.7,2.2,3,3.7,3.9c1.2,0.8,2.6,1,4,1.1
				c0.1,0.6,1.1,0.8,1.7,0.9c1.9,0,3.7-0.2,5.5-0.6c3.7-0.9,7.1-2.8,10.1-5.1c3.3-2.6,6-5.9,8.3-9.5c0.1-0.3,0.3-0.6,0.4-0.8
				l0.2-0.6c0.3-1.1,0.6-2.2,0.8-3.3c-0.1-0.1-0.2-0.3-0.3-0.4c-4.6,10.1-13.6,16.1-16.4,17.4c-1.5,0.8-3,1.4-4.6,1.8
				c-0.6,0.1-4.6,1-5.3,0.3c1.5,0,3.2-0.3,4.6-0.7l0.8-0.2c2.9-0.8,5.7-2.2,8.2-4c1.5-1,2.9-2.4,4.2-3.7c2.4-2.2,4.5-4.8,6.2-7.6
				C118.6-168.4,119.6-170.7,120.5-173.1z"/>
		</g>
	</g>
</g>
<g>
	<g transform="translate(275.108927, 206.799978)">
		<g>
			<path class="st1" d="M93.3-181.7c-0.1,0.1-0.1,0.3,0,0.4c1.5-0.7,3.1-1.3,4.6-1.8c4.6-1.6,9.3-2.6,14-3.7c2.7-0.6,5.5-1.3,8.2-2
				c-0.6,0-1.2,0-1.9,0.1c-3,0.2-5.8,0.8-8.7,1.3l-1.6,0.4C103-185.6,97.9-184.1,93.3-181.7z M132.2-153.5c0.8-0.6,1.4-1.6,1.3-2.8
				c-0.3-4-1.6-10.1-6.9-8.9c-0.8,0.2-1.5,0.6-2.2,0.8l-2.7,0.8c-1.7,0.6-3.3,1.2-5,1.8c-1,0.3-2.1,0.8-3.1,1.2l-5.9,2.3
				c-1.5,0.6-3.1,1.2-4.6,1.9l-0.2,0.1c0-0.1,0-0.2,0-0.3l-0.4-4.5c1.9-1,3.8-1.9,5.8-2.8c3.3-1.4,6.5-2.4,9.8-3.3
				c1.7-0.4,3.4-0.8,5.1-1c1.6-0.3,3.1-0.3,4.6-1c1.2-0.6,2.1-2.2,1.8-3.5c-0.1-0.7-0.6-1.4-1.2-1.7c-0.1,0-0.1,0-0.1-0.1
				c-0.1-0.3-0.2-0.6-0.3-0.8c-0.1-0.1-0.1-0.3-0.3-0.6c-1-1.7-2.6-1.7-4.4-1.7c-0.8,0.1-1.6,0.1-2.4,0.3l-0.9,0.2
				c-2.2,0.6-4.5,1.2-6.7,1.8c-4,1.5-7.8,3.1-11.7,4.8c0-0.3-0.4-2.8-0.5-3.5l0.1-0.1c2.1-0.9,4.4-1.7,6.6-2.5
				c0.8-0.3,7.6-2.4,11.2-3.4c0.1,0,0.3-0.1,0.4-0.1c1.6-0.4,3.2-0.9,4.7-1.4l3.5-1c0.3-1.4,0.1-2.8-0.4-4.3
				c-0.3-0.3-0.8-0.6-1.1-0.9l-1.1-0.4c-0.4-0.1-0.9-0.2-1.4-0.3c-3.6,1-7.2,1.9-10.9,2.8c-4.7,1-9.4,2-14,3.6c-1.5,0.5-3,1-4.4,1.7
				c-0.1,0.2-0.2,0.4-0.3,0.6c-1,0.8-1.6,1.9-1.7,3.3c-0.1,1.2,0.3,2.5,1.1,3.4l0.8,7.9L95-157c0.2,2.4,0.3,4.9,0.8,7.3
				c-0.6,1.8,0.6,3.9,2.3,4.6c-0.1,0.3-0.1,0.6,0.1,1c0.6,1.2,1.8,1.2,2.9,1c0.3,0,0.7-0.1,0.7-0.1c-0.1,0.1,3.9-1.1,4.7-1.7
				l0.1-0.1c0.8-0.3,1.5-0.6,2.3-1c0.1-0.1,0.3-0.1,0.5-0.2h0.1c2.3-1,4.6-1.8,7-2.6c4.9-1.7,10.1-3,15.2-4
				C131.9-152.8,132.1-153.1,132.2-153.5z M115.4-168.2l0.1,0.2c-0.4,0.1-0.8,0.3-1.2,0.5c-3.5,1.4-7.1,2.7-10.5,4.4
				c0.6-0.5,1-1.2,1.1-1.9c1.3-0.3,2.6-0.8,4-1.2C111.1-166.8,113.3-167.5,115.4-168.2z M100.1-144.2c1.4-0.3,2.7-0.9,4-1.4
				c1.3-0.4,2.6-0.9,3.8-1.4v0.1c-1,0.6-2.1,1.1-3.2,1.7c-0.5,0.3-1,0.6-1.6,0.8c-0.1,0.1-0.1,0.1-0.2,0.1
				C102.7-144.2,101.1-144,100.1-144.2z"/>
		</g>
	</g>
</g>
<g>
	<g transform="translate(306.306572, 206.799978)">
		<g>
			<path class="st1" d="M141.6-171.5c0.2-1.5-0.2-2.8-1.3-3.6c-0.9-0.7-1.9-1.5-2.8-2.1c-0.1-0.6-0.4-1.1-1-1.5
				c-6.8-4.6-13.7-9.3-21.3-11.7c-0.1,0-0.1-0.1-0.2-0.1c-0.5-0.2-1-0.3-1.5-0.6c-0.1-0.1-0.3-0.3-0.6-0.3c-2.3-0.4-6.4-1.3-7.8,1.2
				c-0.8,1.6,0,3.5,1.3,4.6c-0.4,0.6-0.9,1.1-1.5,1.5c0.6,2.4,1,4.8,1.5,7.1c-0.4,0-0.8,0-1.2,0.1c-2.1,0-2.9,3.5-1,4.7
				c0.6,0.4,1.4,0.8,2.1,1.1l-1.6,0.2c0.8,0.3,1.5,0.6,2.3,0.8c0.3,0.1,0.4,0.3,0.4,0.5c0.1,0,0.3,0,0.4,0l0.4,2.4
				c0.6,3.3,1.1,6.5,1.7,9.8l0.6,4.6c0.1,1.5,0,3.2,0.3,4.6c0,0.8,0.7,1.2,1.2,1.1c0.1,0.4,0.2,0.8,0.4,1.1c0.8,1,2.2,0.9,3.1,0.1
				c0.7-0.6,1.2-1.2,1.6-2.1c0-0.3,0-0.8-0.1-1.2c0.2-3.4-0.1-6.9-0.3-10.3c-0.1-3.2-0.4-6.4-0.8-9.5c1.8,0.1,3.7,0.2,5.5,0.3
				c0.3,0.6,0.8,1.3,1.2,1.9v0.1c0.4,0.7,0.8,1.4,1.1,2.1c1.3,2.6,3.2,7.1,4,8.9c1.4,3.2,2.8,6.4,4,9.7c0.3,0.1,0.7,0,0.9-0.2
				c0,0.1,0.1,0.1,0.1,0.1c0.6,0.3,1.2,0.3,1.9,0.2c1.2,0.5,2.8,0.1,3-1.4c0.6-4.5-1.9-8.9-3.7-12.8c-1.5-3-3.1-5.8-5-8.6
				c3.3,0.3,6.5,0.6,9.8,0.8c1.1,0.1,2.4-1,2.6-2.4L141.6-171.5z M113.5-182.1l-0.2-1.1c6,1.4,11.5,4.4,16.8,8l-6.7-0.8
				c-1.6-1.3-3.9-3.2-6-1.9c-0.3,0.3-0.6,0.7-0.6,1c-0.3-0.1-0.8-0.1-1.1-0.1c-0.3-1.5-0.6-2.9-1-4.4c-0.1-0.6-0.8-0.6-1.1-0.3
				C113.5-181.7,113.5-182,113.5-182.1z M118.4-150.9c0.3-1.7,0.8-2.4,0.6-4.9c-0.3-4.2-0.7-8.3-1.4-12.3h-0.6
				C117.9-162.4,118.1-156.6,118.4-150.9z"/>
		</g>
	</g>
</g>
<g>
	<g transform="translate(336.984243, 206.799978)">
		<g>
			<path class="st1" d="M145.5-170.2c-0.1-1.7-0.1-3.3,0-5.1c0.3-3.3,1-6.7,0.6-9.9c-0.2-1.9-1.4-3.4-3.4-3.4
				c-1.8,0-3.4,1.5-3.4,3.4c0.1,1.2,0.1,2.4,0.1,3.5L139-182c-1.4-1.2-2.9-2.3-4.4-3.3c-3.3-2.1-6.7-3.7-10.4-4.8
				c-0.4-0.1-0.8-0.1-1-0.1c-1.5-0.5-3-0.9-4.5-1c-2.4-0.2-4.4,1.2-4.9,3.5c-0.6,2.3,0.7,4.3,1.9,6c2.6,3.3,5.5,6.2,8.8,8.9l1,0.8
				c1,1,1.9,1.9,2.8,3c2.4,2.4,4.6,4.9,6.7,7.5c0.7,0.8,1.4,1.7,2,2.5c0.1,0.4,0.3,0.8,0.5,1.1c0.3,0.6,0.9,1.9,0.6,2.6
				c0,0.2,0,0.4-0.2,0.6c-0.6,0.8-1.9,1-2.8,1c-1.5,0.1-3,0.1-4.4,0c-0.8-0.1-1.7-0.2-2.5-0.5c-0.8-0.6-1.6-1.4-2.3-2.1
				c-1.2-1.3-2.1-3-2.7-4.7c-1.6-4.6-1.8-9.5-3.3-14.1c-0.6-1.7-1.9-2.3-3.6-2.1c-1.4,0.2-2.4,1.5-2.7,2.8c-0.4,2,0,4.2,0.3,6.1
				c0.3,2.2,0.6,4.4,1.1,6.6c1,3.8,1.8,7.7,2.2,11.6c0.1,0.7,0.3,1.3,0.8,1.8c0.2,1.2,0.9,2.4,1.7,3.2c0.7,0.7,1.8,0.7,2.5,0
				c0.9-0.8,1.4-1.9,1.7-3.1c1.3,0.8,2.8,1.5,4.3,1.8c2.2,0.6,4.8,0.9,7.2,0.6h0.2c4.4-0.2,9.1-3.5,9.2-8c0.3-1.8-0.1-3.7-0.9-5.4
				c-0.4-1.9-1.4-3.6-2.6-5.2c-1.8-2.3-3.9-4.4-5.9-6.6c-2.1-2.3-4.3-4.5-6.5-6.7l-2.8-2.7c1.8,0.4,3.7,1,5.4,1.8
				c3.3,1.5,6.4,3.7,8.4,6.7c0.1,0,0.1,0.1,0.1,0.1c0.4,3.3,1.6,7.8,5,7c1-0.3,1.5-1.3,1.2-2.2C145.9-168,145.6-169.1,145.5-170.2z"
				/>
		</g>
	</g>
</g>
</svg>
