<?xml version="1.0" encoding="utf-8"?>
<!-- Generator: Adobe Illustrator 14.0.0, SVG Export Plug-In . SVG Version: 6.00 Build 43363)  -->
<!DOCTYPE svg PUBLIC "-//W3C//DTD SVG 1.1//EN" "http://www.w3.org/Graphics/SVG/1.1/DTD/svg11.dtd">
<svg version="1.1" xmlns="http://www.w3.org/2000/svg" xmlns:xlink="http://www.w3.org/1999/xlink" x="0px" y="0px" width="400px"
	 height="400px" viewBox="0 0 400 400" enable-background="new 0 0 400 400" xml:space="preserve">
<g>
	
		<radialGradient id="SVGID_1_" cx="207.4736" cy="358.5002" r="172.038" gradientTransform="matrix(1 0 0 0.1553 0 302.8398)" gradientUnits="userSpaceOnUse">
		<stop  offset="0.5" style="stop-color:#000000;stop-opacity:0.5"/>
		<stop  offset="1" style="stop-color:#000000;stop-opacity:0"/>
	</radialGradient>
	<ellipse fill="url(#SVGID_1_)" cx="207.474" cy="358.5" rx="178.974" ry="34"/>
	<path fill="#5E2B08" d="M389.053,260.9c-0.049,0.015-0.104,0.03-0.154,0.046c-0.229,0.067-0.476,0.14-0.746,0.22
		c0.302-0.255,0.514-0.504,0.645-0.747c-0.088-0.373-0.212-0.741-0.354-1.106c0,0-0.001,0-0.002,0h0.002
		c-0.065-0.169-0.131-0.336-0.208-0.503c-0.468-1.009-1.148-1.989-2.071-2.933c-42.733-43.703-124.731-67.357-201.438-64.083
		c-41.127,1.756-80.793,10.498-114.228,26.601c-12.96,6.242-52.939,25.417-58.804,40.458c-0.25,0.64-0.431,1.272-0.553,1.896
		l0.145,0.03c0.042-0.001,0.157,0.051,0.377,0.146c-0.259-0.094-0.377-0.146-0.377-0.146c-0.06,0.001-0.111,0.021-0.16,0.053
		l-0.107,0.758c-0.096,0.983-0.025,1.944,0.249,2.874c0.005,0.016,0.009,0.031,0.014,0.047c0.309,1.021,0.851,2.008,1.655,2.952
		c2.116,2.481,4.394,4.893,6.804,7.24c19.301,18.807,47.679,33.343,79.657,43.252c37.986,12.026,80.942,17.531,120.144,15.649
		c41.808-2.007,82.876-11.576,116.469-28.315c13.996-6.974,53.224-26.884,53.218-42.3
		C389.228,262.496,389.165,261.656,389.053,260.9z"/>
	<radialGradient id="SVGID_2_" cx="153.1665" cy="221.1672" r="228.9646" gradientUnits="userSpaceOnUse">
		<stop  offset="0" style="stop-color:#AD6913"/>
		<stop  offset="1" style="stop-color:#6B3300"/>
	</radialGradient>
	<path fill="url(#SVGID_2_)" d="M389.199,256.784c-0.471-1.53-1.154-3.017-2.082-4.447
		c-42.952-66.27-125.371-102.139-202.471-97.173c-41.338,2.662-81.208,15.919-114.813,40.338
		c-13.026,9.465-53.21,38.54-59.105,61.348c4.514,2.629,33.874,14.85,189.762,14.85
		C350.772,271.699,384.058,259.264,389.199,256.784z"/>
	<radialGradient id="SVGID_3_" cx="168.02" cy="243.1409" r="233.5078" gradientUnits="userSpaceOnUse">
		<stop  offset="0" style="stop-color:#945613"/>
		<stop  offset="0.8648" style="stop-color:#713803"/>
		<stop  offset="1" style="stop-color:#6B3300"/>
	</radialGradient>
	<path fill="url(#SVGID_3_)" d="M390.021,259.955c-0.049,0.021-0.104,0.046-0.155,0.068c-0.23,0.103-0.478,0.213-0.75,0.334
		c-10.588,4.713-52.869,21.232-188.627,21.232c-167.906,0-188.524-18.086-190.44-20.588c-0.097,1.491-0.025,2.947,0.25,4.357
		c0.005,0.023,0.009,0.047,0.014,0.07c0.31,1.55,0.855,3.046,1.664,4.477c2.127,3.763,4.417,7.419,6.839,10.98
		c19.4,28.518,47.923,50.56,80.065,65.585c38.181,18.236,81.357,26.584,120.76,23.73c42.022-3.043,83.301-17.553,117.066-42.937
		c14.067-10.575,53.496-40.766,53.49-64.143C390.197,262.375,390.135,261.1,390.021,259.955z"/>
	
		<radialGradient id="SVGID_4_" cx="197.1021" cy="218.3528" r="198.5718" gradientTransform="matrix(1 0 0 0.7125 0 62.7724)" gradientUnits="userSpaceOnUse">
		<stop  offset="0.6762" style="stop-color:#3F1C04;stop-opacity:0"/>
		<stop  offset="1" style="stop-color:#3F1C04;stop-opacity:0.69"/>
	</radialGradient>
	<path fill="url(#SVGID_4_)" d="M390.021,259.955c-0.049,0.021-0.104,0.046-0.155,0.068c-0.23,0.103-0.478,0.213-0.75,0.334
		c-10.588,4.713-52.869,21.232-188.627,21.232c-167.906,0-188.524-18.086-190.44-20.588c-0.097,1.491-0.025,2.947,0.25,4.357
		c0.005,0.023,0.009,0.047,0.014,0.07c0.31,1.55,0.855,3.046,1.664,4.477c2.127,3.763,4.417,7.419,6.839,10.98
		c19.4,28.518,47.923,50.56,80.065,65.585c38.181,18.236,81.357,26.584,120.76,23.73c42.022-3.043,83.301-17.553,117.066-42.937
		c14.067-10.575,53.496-40.766,53.49-64.143C390.197,262.375,390.135,261.1,390.021,259.955z"/>
	<path fill="#AA5E0B" d="M389.408,257.547c0,0-0.001-0.001-0.002,0c0,0-37.406,19.453-188.917,19.453
		c-153.547,0-186.136-15.01-189.793-17.007c-0.261-0.143-0.379-0.221-0.379-0.221c-0.06,0.002-0.112,0.033-0.16,0.079l-0.108,1.15
		c1.917,2.502,22.534,20.588,190.44,20.588c135.758,0,178.039-16.52,188.627-21.232c0.304-0.387,0.517-0.764,0.648-1.133
		C389.676,258.659,389.552,258.101,389.408,257.547z"/>
	<path fill="#3F1C04" d="M10.317,259.773c0.043-0.001,0.158,0.076,0.379,0.221C14.354,261.99,46.942,277,200.489,277
		c151.511,0,188.917-19.453,188.917-19.453l0.002-0.001c-0.065-0.255-0.132-0.51-0.209-0.762
		c-5.142,2.479-38.427,14.915-188.71,14.915c-155.888,0-185.248-12.221-189.762-14.85c-0.251,0.971-0.434,1.93-0.556,2.876
		L10.317,259.773z"/>
	<path fill="#FFFFFF" d="M110.389,268.965v8.31c0,0,41.884,2.411,90.101,2.726c46.511,0.304,90.101-3.495,90.101-3.495v-7.54
		c0,0-60.101,3.234-90.101,2.734S110.389,268.965,110.389,268.965z"/>
	<g>
		<g>
			<path opacity="0.59" d="M118.475,254.943c-0.073-1.264-1.846-2.275-4.037-2.275c-2.191,0-3.964,1.012-4.037,2.275h-0.013v37.54
				c0,1.299,1.813,2.352,4.05,2.352c2.236,0,4.05-1.053,4.05-2.352h0.017v-37.54H118.475z"/>
			<path fill="#FFFFFF" d="M117.119,254.288c-0.065-1.252-1.663-2.255-3.638-2.255c-1.975,0-3.572,1.003-3.638,2.255h-0.012v37.21
				c0,1.288,1.634,2.331,3.649,2.331c2.016,0,3.65-1.043,3.65-2.331h0.015v-37.21H117.119z"/>
		</g>
		<g>
			<path opacity="0.59" d="M142.223,257.195c-0.073-1.264-1.846-2.275-4.036-2.275c-2.191,0-3.965,1.012-4.037,2.275h-0.013v37.541
				c0,1.299,1.813,2.352,4.05,2.352c2.236,0,4.049-1.053,4.049-2.352h0.017v-37.541H142.223z"/>
			<path fill="#FFFFFF" d="M140.711,256.508c-0.065-1.252-1.663-2.255-3.638-2.255c-1.975,0-3.572,1.003-3.638,2.255h-0.012v37.21
				c0,1.288,1.634,2.331,3.649,2.331c2.016,0,3.65-1.043,3.65-2.331h0.015v-37.21H140.711z"/>
		</g>
		<g>
			<path opacity="0.59" d="M167.479,257.471c-0.073-1.264-1.846-2.275-4.037-2.275c-2.191,0-3.964,1.012-4.037,2.275h-0.013v37.54
				c0,1.299,1.813,2.352,4.05,2.352c2.236,0,4.05-1.053,4.05-2.352h0.017v-37.54H167.479z"/>
			<path fill="#FFFFFF" d="M165.812,256.751c-0.065-1.252-1.663-2.255-3.638-2.255c-1.975,0-3.572,1.003-3.637,2.255h-0.012v37.21
				c0,1.288,1.633,2.331,3.649,2.331c2.016,0,3.65-1.043,3.65-2.331h0.016v-37.21H165.812z"/>
		</g>
		<g>
			<path opacity="0.59" d="M192.734,257.745c-0.073-1.264-1.846-2.275-4.036-2.275c-2.191,0-3.965,1.012-4.037,2.275h-0.013v37.541
				c0,1.299,1.813,2.352,4.05,2.352c2.236,0,4.049-1.053,4.049-2.352h0.017v-37.541H192.734z"/>
			<path fill="#FFFFFF" d="M190.912,256.993c-0.065-1.252-1.663-2.255-3.638-2.255c-1.975,0-3.572,1.003-3.637,2.255h-0.012v37.21
				c0,1.288,1.633,2.331,3.649,2.331c2.016,0,3.65-1.043,3.65-2.331h0.016v-37.21H190.912z"/>
		</g>
		<g>
			<path opacity="0.59" d="M217.984,257.547c-0.072-1.264-1.846-2.275-4.036-2.275c-2.191,0-3.965,1.012-4.037,2.275h-0.013v37.54
				c0,1.299,1.813,2.352,4.05,2.352c2.236,0,4.05-1.053,4.05-2.352h0.017v-37.54H217.984z"/>
			<path fill="#FFFFFF" d="M216.007,256.763c-0.066-1.252-1.664-2.255-3.639-2.255s-3.572,1.003-3.637,2.255h-0.012v37.21
				c0,1.288,1.633,2.331,3.648,2.331s3.65-1.043,3.65-2.331h0.016v-37.21H216.007z"/>
		</g>
		<g>
			<path opacity="0.59" d="M243.229,256.739c-0.073-1.264-1.846-2.275-4.037-2.275s-3.964,1.012-4.037,2.275h-0.013v37.541
				c0,1.299,1.813,2.352,4.05,2.352s4.05-1.053,4.05-2.352h0.017v-37.541H243.229z"/>
			<path fill="#FFFFFF" d="M241.096,255.922c-0.066-1.252-1.664-2.255-3.639-2.255s-3.572,1.003-3.637,2.255h-0.012v37.21
				c0,1.288,1.633,2.331,3.648,2.331s3.65-1.043,3.65-2.331h0.016v-37.21H241.096z"/>
		</g>
		<g>
			<path opacity="0.59" d="M268.473,255.932c-0.073-1.264-1.846-2.275-4.036-2.275c-2.191,0-3.965,1.012-4.037,2.275h-0.014v37.54
				c0,1.299,1.813,2.352,4.051,2.352c2.236,0,4.049-1.053,4.049-2.352h0.018v-37.54H268.473z"/>
			<path fill="#FFFFFF" d="M266.184,255.082c-0.066-1.252-1.664-2.255-3.639-2.255s-3.572,1.003-3.637,2.255h-0.012v37.21
				c0,1.288,1.633,2.331,3.648,2.331s3.65-1.043,3.65-2.331h0.016v-37.21H266.184z"/>
		</g>
		<g>
			<path opacity="0.59" d="M293.716,255.123c-0.073-1.264-1.846-2.275-4.036-2.275c-2.191,0-3.965,1.012-4.037,2.275h-0.014v37.541
				c0,1.299,1.813,2.352,4.051,2.352c2.236,0,4.049-1.053,4.049-2.352h0.018v-37.541H293.716z"/>
			<path fill="#FFFFFF" d="M291.271,254.241c-0.066-1.252-1.664-2.255-3.639-2.255s-3.572,1.003-3.637,2.255h-0.012v37.21
				c0,1.288,1.633,2.331,3.648,2.331s3.65-1.043,3.65-2.331h0.016v-37.21H291.271z"/>
		</g>
	</g>
</g>
<g xmlns:inkscape="http://www.inkscape.org/namespaces/inkscape" sodipodi:version="0.32" inkscape:version="0.44.1" sodipodi:docbase="C:\" sodipodi:docname="AmFootball_current_event.svg" xmlns:dc="http://purl.org/dc/elements/1.1/" xmlns:cc="http://web.resource.org/cc/" xmlns:rdf="http://www.w3.org/1999/02/22-rdf-syntax-ns#" xmlns:svg="http://www.w3.org/2000/svg" xmlns:sodipodi="http://sodipodi.sourceforge.net/DTD/sodipodi-0.dtd">
	
		<linearGradient id="SVGID_5_" gradientUnits="userSpaceOnUse" x1="446.1865" y1="-62.8875" x2="446.1865" y2="169.9676" gradientTransform="matrix(0.8239 0 0 -0.8239 -76.4271 163.2108)">
		<stop  offset="0.0056" style="stop-color:#ED0000"/>
		<stop  offset="0.5449" style="stop-color:#8D0000"/>
		<stop  offset="1" style="stop-color:#BD0000"/>
	</linearGradient>
	<path fill="url(#SVGID_5_)" d="M189.832,119.098c0,55.888,45.469,101.358,101.358,101.358c55.887,0,101.355-45.471,101.355-101.358
		c0-55.889-45.469-101.358-101.355-101.358C235.301,17.74,189.832,63.209,189.832,119.098z	">
<midPointStop  style="stop-color:#428AFF" offset="0.005615" id="midPointStop147"></midPointStop>
		<midPointStop  style="stop-color:#428AFF" offset="0.5" id="midPointStop149"></midPointStop>
		<midPointStop  style="stop-color:#94CAFF" offset="0.573034" id="midPointStop151"></midPointStop>
		<midPointStop  style="stop-color:#94CAFF" offset="0.5" id="midPointStop153"></midPointStop>
		<midPointStop  style="stop-color:#DCF0FF" offset="1" id="midPointStop155"></midPointStop>
	</path>
	
		<linearGradient id="SVGID_6_" gradientUnits="userSpaceOnUse" x1="446.1855" y1="-62.8665" x2="446.1855" y2="169.994" gradientTransform="matrix(0.8239 0 0 -0.8239 -76.4271 163.2108)">
		<stop  offset="0.0056" style="stop-color:#FF4242"/>
		<stop  offset="0.573" style="stop-color:#FF9494"/>
		<stop  offset="1" style="stop-color:#FFDCDC"/>
	</linearGradient>
	<path fill="url(#SVGID_6_)" d="M195.928,119.098c0,52.527,42.734,95.261,95.261,95.261c52.525,0,95.258-42.733,95.258-95.261
		s-42.732-95.261-95.258-95.261C238.662,23.837,195.928,66.571,195.928,119.098z	">
<midPointStop  style="stop-color:#FFFFFF" offset="0" id="midPointStop168"></midPointStop>
		<midPointStop  style="stop-color:#FFFFFF" offset="0.5" id="midPointStop170"></midPointStop>
		<midPointStop  style="stop-color:#006DFF" offset="0.5" id="midPointStop172"></midPointStop>
		<midPointStop  style="stop-color:#006DFF" offset="0.5" id="midPointStop174"></midPointStop>
		<midPointStop  style="stop-color:#C9E6FF" offset="1" id="midPointStop176"></midPointStop>
	</path>
	
		<linearGradient id="SVGID_7_" gradientUnits="userSpaceOnUse" x1="446.1885" y1="-58.1702" x2="446.1884" y2="165.2571" gradientTransform="matrix(0.8239 0 0 -0.8239 -76.4271 163.2108)">
		<stop  offset="0" style="stop-color:#FFFFFF"/>
		<stop  offset="0.5" style="stop-color:#FF0000"/>
		<stop  offset="1" style="stop-color:#FFC9C9"/>
	</linearGradient>
	<path fill="url(#SVGID_7_)" d="M199.146,119.098c0,50.756,41.294,92.04,92.044,92.04c50.754,0,92.045-41.284,92.045-92.04
		c0-50.751-41.291-92.043-92.045-92.043C240.439,27.055,199.146,68.347,199.146,119.098z"/>
	<path opacity="0.8" fill="#FFFFFF" enable-background="new    " d="M291.189,38.554c-46.223,0-83.833,37.602-83.833,83.831
		c0,46.223,37.61,83.823,83.833,83.823c46.225,0,83.831-37.601,83.831-83.823C375.021,76.156,337.414,38.554,291.189,38.554z"/>
	<path fill="#8D0000" d="M207.356,119.098c0,46.227,37.61,83.824,83.833,83.824c46.225,0,83.831-37.598,83.831-83.824
		c0-46.224-37.606-83.83-83.831-83.83C244.967,35.268,207.356,72.874,207.356,119.098z	">
<midPointStop  style="stop-color:#FFFFFF" offset="0.601124" id="midPointStop199"></midPointStop>
		<midPointStop  style="stop-color:#FFFFFF" offset="0.5" id="midPointStop201"></midPointStop>
		<midPointStop  style="stop-color:#EAEAF0" offset="0.876404" id="midPointStop203"></midPointStop>
		<midPointStop  style="stop-color:#EAEAF0" offset="0.717949" id="midPointStop205"></midPointStop>
		<midPointStop  style="stop-color:#BDBDCF" offset="1" id="midPointStop207"></midPointStop>
	</path>
	
		<radialGradient id="SVGID_8_" cx="298.6523" cy="-17.5378" r="69.9639" gradientTransform="matrix(1.1689 0 0 -1.1689 -57.8977 98.5965)" gradientUnits="userSpaceOnUse">
		<stop  offset="0.6011" style="stop-color:#FFFFFF"/>
		<stop  offset="0.8764" style="stop-color:#EAEAF0"/>
		<stop  offset="0.9142" style="stop-color:#E6E6ED"/>
		<stop  offset="0.95" style="stop-color:#DBDBE5"/>
		<stop  offset="0.9849" style="stop-color:#C8C8D7"/>
		<stop  offset="1" style="stop-color:#BDBDCF"/>
	</radialGradient>
	<path fill="url(#SVGID_8_)" d="M209.41,119.098c0,45.092,36.686,81.775,81.779,81.775s81.781-36.684,81.781-81.775
		S336.283,37.32,291.189,37.32S209.41,74.006,209.41,119.098z"/>
	<path fill="#771111" d="M216.178,116.424c-0.91,0-1.648,0.738-1.648,1.647v2.05c0,0.909,0.738,1.647,1.648,1.647h14.369
		c0.91,0,1.648-0.738,1.648-1.647v-2.05c0-0.909-0.738-1.647-1.648-1.647H216.178z"/>
	<rect x="216.178" y="118.072" fill="#A00000" width="14.369" height="2.05"/>
	<path fill="#771111" d="M351.383,116.424c-0.909,0-1.646,0.738-1.646,1.647v2.05c0,0.909,0.737,1.647,1.646,1.647h14.377
		c0.91,0,1.647-0.738,1.647-1.647v-2.05c0-0.909-0.737-1.647-1.647-1.647H351.383z"/>
	<rect x="351.383" y="118.072" fill="#A00000" width="14.377" height="2.05"/>
	<path fill="#771111" d="M290.164,177.646c-0.91,0-1.648,0.737-1.648,1.647v14.37c0,0.91,0.738,1.647,1.648,1.647h2.053
		c0.91,0,1.648-0.737,1.648-1.647v-14.37c0-0.91-0.738-1.647-1.648-1.647H290.164z"/>
	<rect x="290.164" y="179.293" fill="#A00000" width="2.053" height="14.37"/>
	<path fill="#771111" d="M290.164,42.437c-0.91,0-1.648,0.738-1.648,1.648v14.37c0,0.91,0.738,1.647,1.648,1.647h2.053
		c0.91,0,1.648-0.737,1.648-1.647v-14.37c0-0.91-0.738-1.648-1.648-1.648H290.164L290.164,42.437z"/>
	<rect x="290.164" y="44.085" fill="#A00000" width="2.053" height="14.37">
	<midPointStop  style="stop-color:#FF6666" offset="0" id="midPointStop264"></midPointStop>
	<midPointStop  style="stop-color:#FF6666" offset="0.5" id="midPointStop266"></midPointStop>
	<midPointStop  style="stop-color:#FF0000" offset="1" id="midPointStop268"></midPointStop>
	<midPointStop  style="stop-color:#585868" offset="0" id="midPointStop303"></midPointStop>
	<midPointStop  style="stop-color:#585868" offset="0.30303" id="midPointStop305"></midPointStop>
	<midPointStop  style="stop-color:#CECEDB" offset="0.134831" id="midPointStop307"></midPointStop>
	<midPointStop  style="stop-color:#CECEDB" offset="0.5" id="midPointStop309"></midPointStop>
	<midPointStop  style="stop-color:#9A9AB1" offset="0.466292" id="midPointStop311"></midPointStop>
	<midPointStop  style="stop-color:#9A9AB1" offset="0.5" id="midPointStop313"></midPointStop>
	<midPointStop  style="stop-color:#7D7D99" offset="0.853932" id="midPointStop315"></midPointStop>
	<midPointStop  style="stop-color:#7D7D99" offset="0.5" id="midPointStop317"></midPointStop>
	<midPointStop  style="stop-color:#585868" offset="1" id="midPointStop319"></midPointStop>
	<midPointStop  style="stop-color:#585868" offset="0" id="midPointStop340"></midPointStop>
	<midPointStop  style="stop-color:#585868" offset="0.5" id="midPointStop342"></midPointStop>
	<midPointStop  style="stop-color:#CECEDB" offset="0.191011" id="midPointStop344"></midPointStop>
	<midPointStop  style="stop-color:#CECEDB" offset="0.5" id="midPointStop346"></midPointStop>
	<midPointStop  style="stop-color:#9A9AB1" offset="0.466292" id="midPointStop348"></midPointStop>
	<midPointStop  style="stop-color:#9A9AB1" offset="0.5" id="midPointStop350"></midPointStop>
	<midPointStop  style="stop-color:#7D7D99" offset="0.853932" id="midPointStop352"></midPointStop>
	<midPointStop  style="stop-color:#7D7D99" offset="0.5" id="midPointStop354"></midPointStop>
	<midPointStop  style="stop-color:#585868" offset="1" id="midPointStop356"></midPointStop>
	<midPointStop  style="stop-color:#9A9AB1" offset="0" id="midPointStop369"></midPointStop>
	<midPointStop  style="stop-color:#9A9AB1" offset="0.5" id="midPointStop371"></midPointStop>
	<midPointStop  style="stop-color:#585868" offset="1" id="midPointStop373"></midPointStop>
	<midPointStop  style="stop-color:#9A9AB1" offset="0" id="midPointStop386"></midPointStop>
	<midPointStop  style="stop-color:#9A9AB1" offset="0.5" id="midPointStop388"></midPointStop>
	<midPointStop  style="stop-color:#585868" offset="0.589888" id="midPointStop390"></midPointStop>
	<midPointStop  style="stop-color:#585868" offset="0.5" id="midPointStop392"></midPointStop>
	<midPointStop  style="stop-color:#FFFFFF" offset="1" id="midPointStop394"></midPointStop>
	<midPointStop  style="stop-color:#FFFFFF" offset="0" id="midPointStop405"></midPointStop>
	<midPointStop  style="stop-color:#FFFFFF" offset="0.5" id="midPointStop407"></midPointStop>
	<midPointStop  style="stop-color:#585868" offset="1" id="midPointStop409"></midPointStop>
	</rect>
	
		<linearGradient id="SVGID_9_" gradientUnits="userSpaceOnUse" x1="435.9297" y1="57.9563" x2="456.0604" y2="57.9563" gradientTransform="matrix(0.8239 0 0 -0.8239 -76.4271 163.2108)">
		<stop  offset="0" style="stop-color:#FFFFFF"/>
		<stop  offset="1" style="stop-color:#585868"/>
	</linearGradient>
	<path fill="url(#SVGID_9_)" d="M297.563,116.979c-0.891-2.671-3.408-4.605-6.376-4.605c-3.483,0-6.355,2.666-6.688,6.066
		C288.895,118.756,293.34,118.42,297.563,116.979z"/>
	<path fill="none" stroke="#E0E0E0" stroke-width="7.6101" stroke-linecap="round" stroke-linejoin="round" d="M243.662,66.446
		l46.979,54.997"/>
	<path fill="none" stroke="#BFBFBF" stroke-width="7.6101" stroke-linecap="round" stroke-linejoin="round" d="M277.453,50.324
		l13.187,71.118"/>
	<path fill="none" stroke="#808080" stroke-width="7.6101" stroke-linecap="round" stroke-linejoin="round" d="M314.779,53.26
		l-24.14,68.183"/>
	<path fill="none" stroke="#000000" stroke-width="7.6101" stroke-linecap="round" stroke-linejoin="round" d="M238.621,103.025
		l52.02,18.418l54.996-46.979"/>
</g>
</svg>
