<svg xmlns="http://www.w3.org/2000/svg" width="282" height="282" viewBox="0 0 282 282">
    <path fill="#00BDB6" fill-rule="evenodd" d="M25.32 60.41c3.838-5.498 12.508-2.716 12.508 3.99V141c0 56.978 46.193 103.171 103.171 103.171 56.982 0 103.172-46.193 103.172-103.17V64.41c0-6.734 8.693-9.472 12.545-3.949C272.646 83.294 282 111.05 282 141.001c0 81.267-68.757 146.478-151.273 140.635C61.124 276.704 4.961 220.27.322 150.647-1.92 117 7.668 85.684 25.32 60.411zM141 0c20.028 0 39.074 4.196 56.324 11.73 7.552 3.298 12.456 10.737 12.456 18.977V141c0 38.805-32.306 70.21-71.432 68.732-37.22-1.41-66.13-33.173-66.13-70.42V30.706c0-8.24 4.905-15.679 12.457-18.977C101.925 4.196 120.97 0 140.999 0z"/>
</svg>
