<?xml version="1.0" encoding="utf-8"?>
<svg xmlns="http://www.w3.org/2000/svg" width="146.49" height="200" viewBox="0 0 146.49 200">
	<path id="outline" style="fill:#1F2742" d="M0,0v126.17c0,13.43,6.52,26.1,17.44,33.92L73.26,200l55.8-39.92c10.92-7.81,17.43-20.49,17.43-33.91V0H0z"/>
	<path id="fill" style="fill:#FFFFFF" d="M3.61,3.61v122.56c0,12.27,5.96,23.85,15.93,30.98l53.72,38.42l53.7-38.42c9.97-7.13,15.92-18.71,15.92-30.98V3.61H3.61z"/>
	<g id="stripes" style="fill: #BB2533;">
		<path d="M22.12,147.24l3.57,2.62c-1.81-2.45-2.98-5.38-3.35-8.47c-0.09-0.72-0.13-1.44-0.13-2.17V72.69l-9.23-4.26l-0.02,59.75C12.96,135.81,16.1,142.82,22.12,147.24"/>
		<polygon points="31.51,153.68 40.76,160.36 40.76,81.23 31.51,76.97"/>
		<polygon points="59.32,89.78 50.07,85.52 50.07,167.07 59.32,173.75"/>
		<polygon points="68.62,94.07 68.62,180.47 73.33,183.87 77.87,180.59 77.87,94.07 73.23,96.19"/>
		<polygon points="87.17,173.87 96.42,167.19 96.42,85.56 87.17,89.8"/>
		<polygon points="105.73,160.47 114.97,153.79 114.97,77.06 105.73,81.3"/>
		<path d="M124.29,72.68v66.52c0,0.73-0.05,1.45-0.13,2.17c-0.37,3.1-1.54,6.02-3.35,8.48l3.57-2.62c6.02-4.43,9.16-11.43,9.16-19.07l-0.02-59.75L124.29,72.68z"/>
	</g>
	<g id="usa" style="fill:#1F2742">
		<path id="a" d="M111.63,66.58l-10.96,5V18.05c0-2.63,2.13-4.76,4.76-4.76h28.1v38.66c0,2.78-1.62,5.3-4.15,6.46l-6.8,3.12V49.43l-8.98,4.13c-1.2,0.55-1.97,1.75-1.97,3.07V66.58zM111.63,42.43l10.94-5.03V23.7h-10.94V42.43z"/>
		<path id="s" d="M60.93,78.43c-2.51-1.15-4.11-3.66-4.11-6.42V56l10.96,5.08v9.28l5.46,2.52l5.46-2.52V54.68l-17.62-8.11c-2.59-1.19-4.26-3.78-4.26-6.64V17.93c0-2.56,2.07-4.63,4.63-4.63h23.58c2.56,0,4.63,2.08,4.63,4.63v18.83l-10.96-5.08V23.7H67.77v13.65l17.62,8.09c2.6,1.19,4.26,3.78,4.26,6.64v19.93c0,2.76-1.61,5.27-4.12,6.43l-12.3,5.65L60.93,78.43"/>
		<path id="u" d="M17.22,58.36L45.8,71.51V13.29H34.85v41.17l-9.09-4.18c-1.12-0.51-1.83-1.63-1.83-2.86V13.29H12.97v38.42C12.97,54.57,14.63,57.16,17.22,58.36"/>
	</g>
</svg>
