<?xml version="1.0" standalone="no"?>
<!DOCTYPE svg PUBLIC "-//W3C//DTD SVG 20010904//EN"
 "http://www.w3.org/TR/2001/REC-SVG-20010904/DTD/svg10.dtd">
<svg version="1.0" xmlns="http://www.w3.org/2000/svg"
 width="2560.000000pt" height="1583.000000pt" viewBox="0 0 2560.000000 1583.000000"
 preserveAspectRatio="xMidYMid meet">

<g transform="translate(0.000000,1583.000000) scale(0.100000,-0.100000)"
fill="#000000" stroke="none">
<path d="M2479 15643 c-15 -4 -15 -9 2 -66 23 -75 23 -77 4 -77 -17 0 -17 -5
-6 -35 8 -19 9 -18 21 8 15 30 20 33 38 15 18 -18 16 -108 -3 -108 -10 0 -15
-10 -15 -30 0 -41 -12 -37 -32 10 -9 22 -21 40 -26 40 -5 0 -12 -23 -15 -50
-5 -38 -15 -61 -41 -92 -40 -47 -39 -71 2 -33 29 27 38 30 47 15 3 -5 11 -10
17 -10 7 0 6 5 -1 14 -7 8 -11 30 -9 48 3 28 5 30 12 13 5 -11 20 -32 34 -48
24 -25 25 -30 14 -60 -17 -47 -15 -112 3 -127 22 -18 20 -60 -3 -60 -27 0 -70
-50 -77 -92 -4 -20 -14 -39 -22 -42 -11 -4 -13 -14 -8 -36 4 -19 3 -30 -4 -30
-7 0 -11 -27 -11 -70 0 -63 -2 -70 -20 -70 -13 0 -20 -7 -20 -20 0 -25 -18
-26 -36 -2 -11 14 -14 14 -14 2 -1 -17 -88 -90 -108 -90 -7 0 -17 10 -22 23
-5 12 -9 15 -9 7 -1 -11 -4 -11 -13 -2 -9 9 -14 7 -24 -6 -12 -15 -13 -14 -14
12 0 25 -3 28 -25 24 -14 -3 -25 -2 -25 1 0 17 27 31 62 31 36 0 38 1 38 34 0
50 49 78 50 28 1 -16 1 -16 11 1 5 9 18 17 29 17 10 0 20 -8 22 -17 3 -14 9
-10 26 17 30 47 29 80 -1 80 -17 0 -22 5 -22 23 1 13 5 29 10 37 6 10 11 9 22
-6 14 -17 15 -15 11 24 -4 43 0 50 19 31 8 -8 13 -8 17 0 4 6 16 11 27 11 16
0 19 7 19 50 0 28 -4 50 -10 50 -5 0 -10 -8 -10 -19 0 -10 -17 -31 -37 -46
-21 -16 -48 -40 -60 -55 -14 -18 -36 -30 -60 -33 -28 -5 -51 -19 -83 -53 l-45
-46 53 7 c42 6 52 4 52 -8 0 -16 -41 -27 -101 -27 -50 0 -51 19 -4 71 19 22
35 42 35 47 0 4 23 23 50 42 37 26 51 43 56 68 5 26 11 32 31 32 22 0 24 -3
18 -27 -6 -28 -6 -28 24 7 33 39 37 58 19 107 -10 27 -10 38 0 53 10 16 10 20
-2 20 -15 0 -26 -21 -26 -51 0 -30 -16 -14 -24 23 l-7 33 -19 -22 c-25 -32
-30 -29 -30 17 l0 40 -45 0 c-29 0 -64 9 -95 25 -27 14 -84 39 -127 55 -70 28
-88 42 -183 136 -58 57 -109 104 -114 104 -4 0 -5 -12 -2 -26 5 -19 0 -35 -20
-62 -24 -30 -28 -47 -32 -117 -3 -65 -1 -87 12 -107 31 -47 35 -83 20 -175 -7
-48 -12 -95 -9 -103 8 -27 8 -205 0 -223 -5 -13 -3 -16 8 -12 9 4 23 -4 34
-19 11 -14 32 -31 47 -37 38 -18 32 -29 -15 -29 -33 0 -42 -4 -46 -21 -4 -14
-11 -19 -25 -16 -16 5 -19 1 -16 -26 3 -29 6 -32 34 -31 25 1 34 -4 43 -23 16
-35 14 -41 -12 -36 -21 4 -25 -1 -37 -50 -7 -30 -10 -67 -6 -81 3 -14 2 -26
-3 -26 -5 0 -12 11 -15 25 -4 14 -11 25 -16 25 -6 0 -10 -11 -10 -25 0 -42
-19 -28 -22 18 l-3 42 -17 -50 c-12 -35 -14 -51 -6 -54 7 -2 22 -15 35 -29 19
-20 29 -24 59 -19 24 4 44 1 60 -10 13 -8 33 -13 43 -10 29 7 54 -24 45 -58
-7 -27 -6 -27 45 -24 51 3 52 2 99 -51 l47 -54 0 -85 c0 -48 -4 -106 -8 -131
l-8 -45 78 -49 c78 -48 78 -48 143 -42 36 4 75 14 87 22 26 16 69 19 78 4 3
-5 28 -10 54 -10 31 0 53 -5 61 -15 7 -8 21 -15 31 -15 34 0 89 -33 89 -53 0
-15 5 -17 28 -13 16 4 35 1 46 -7 16 -12 27 -11 75 4 64 20 108 15 116 -12 8
-25 68 -35 114 -19 19 7 79 14 133 15 61 1 103 7 113 15 12 10 21 10 47 -1 17
-7 61 -18 97 -24 53 -9 74 -9 106 3 39 13 54 10 434 -82 216 -53 395 -96 396
-96 2 0 8 22 15 49 8 33 8 65 2 99 -8 48 4 109 159 794 93 409 169 745 169
748 0 3 -114 32 -252 64 -453 104 -1226 303 -1555 400 -178 53 -326 95 -330
95 -5 -1 -15 -3 -24 -6z"/>
<path d="M4670 15051 c-5 -20 -81 -356 -170 -747 -152 -674 -160 -714 -150
-762 9 -39 8 -62 -4 -106 -13 -53 -13 -60 4 -100 11 -23 42 -63 70 -89 27 -25
50 -55 50 -65 0 -11 3 -32 6 -48 4 -25 -3 -39 -54 -95 -32 -36 -80 -103 -105
-147 -26 -45 -56 -86 -68 -92 -14 -8 -18 -17 -14 -31 9 -26 -43 -97 -76 -104
-31 -7 -52 -29 -103 -105 -29 -43 -36 -64 -36 -102 0 -44 2 -47 35 -59 44 -16
71 -72 49 -104 -8 -11 -14 -27 -14 -35 0 -9 -19 -54 -41 -101 -37 -74 -55
-140 -154 -571 -109 -476 -111 -487 -90 -492 93 -23 755 -165 980 -210 268
-53 1505 -269 1511 -263 1 1 52 319 112 705 l109 703 -21 42 c-12 23 -29 61
-39 85 -10 23 -23 42 -29 42 -5 0 -31 -23 -57 -51 l-48 -52 -120 23 c-113 20
-123 21 -152 6 -29 -15 -36 -15 -110 4 -44 11 -83 20 -88 20 -4 0 -17 -14 -28
-30 -11 -16 -25 -30 -31 -30 -5 0 -24 15 -42 33 -26 27 -32 41 -32 77 0 25 -3
69 -6 98 -6 45 -11 55 -39 72 -18 11 -49 44 -68 73 -49 71 -96 259 -94 369 2
68 -1 80 -20 99 l-22 22 -33 -25 c-18 -14 -57 -37 -87 -52 -58 -30 -56 -30
-86 26 -8 15 -24 30 -36 33 -20 7 -21 12 -16 72 5 51 27 114 102 293 52 125
95 230 95 234 0 3 -18 6 -39 6 -34 0 -43 5 -58 30 -9 17 -23 30 -29 30 -22 0
-84 87 -84 119 0 16 -22 78 -49 136 -37 78 -56 107 -74 114 -21 8 -93 91 -121
139 -4 7 2 41 14 76 l21 64 -49 99 -50 98 64 294 c35 162 63 295 62 296 -2 1
-78 17 -171 37 l-167 34 -10 -35z"/>
<path d="M5055 14996 c-2 -6 -31 -135 -64 -286 l-60 -275 50 -105 50 -105 -20
-59 -21 -59 43 -58 c23 -32 54 -63 69 -68 21 -8 38 -32 78 -118 28 -59 54
-124 57 -143 7 -43 43 -100 63 -100 9 0 24 -13 33 -30 16 -27 23 -30 68 -30
47 0 49 -1 49 -27 0 -15 -43 -131 -97 -258 -100 -238 -123 -320 -93 -330 8 -3
24 -18 33 -35 l18 -30 42 21 c23 12 60 34 83 50 l41 28 32 -33 c37 -38 52 -93
42 -151 -5 -30 1 -71 26 -164 35 -135 74 -206 129 -236 37 -20 44 -44 44 -145
0 -57 3 -70 23 -88 l24 -22 13 25 c16 30 17 30 124 5 80 -19 87 -20 111 -4 23
15 33 15 145 -6 l121 -22 39 45 c47 53 93 70 115 40 8 -10 25 -44 38 -77 l24
-58 22 123 c12 68 25 131 29 140 6 14 94 4 782 -91 691 -96 967 -128 1898
-224 137 -14 212 -18 212 -11 0 5 11 129 25 275 40 403 164 2014 157 2021 -4
3 -322 38 -707 78 -553 58 -853 95 -1430 177 -661 94 -807 118 -1550 259 -451
85 -839 159 -863 164 -31 6 -45 6 -47 -3z"/>
<path d="M23701 14756 l-89 -88 -36 12 c-40 13 -51 28 -61 83 -7 34 -10 37
-41 37 -19 0 -34 -1 -34 -3 0 -2 -41 -118 -91 -258 l-90 -254 10 -85 c9 -81 8
-87 -13 -115 -33 -43 -42 -134 -19 -194 9 -25 23 -50 30 -54 7 -4 13 -16 13
-26 0 -37 -44 -147 -70 -176 -43 -46 -48 -64 -56 -174 -7 -98 -8 -102 -28 -96
-59 19 -68 18 -62 -1 213 -657 315 -979 320 -1017 7 -43 12 -51 51 -75 30 -18
46 -36 50 -54 6 -25 57 -68 82 -68 5 0 15 18 22 41 9 31 9 48 0 76 -11 33 -10
37 16 57 25 20 27 27 23 70 -5 45 -4 49 26 67 17 10 36 21 41 23 6 2 -3 17
-19 34 l-28 30 16 44 c9 24 25 54 35 67 l19 24 7 -41 7 -42 18 22 c16 19 22
21 38 11 24 -14 42 0 42 33 0 16 11 25 45 38 36 14 45 23 45 41 0 40 11 55 41
55 22 0 36 11 68 52 35 47 38 54 25 69 -14 16 -19 84 -8 113 8 20 24 21 24 1
0 -8 5 -15 11 -15 7 0 9 9 5 23 -3 12 -6 28 -6 36 0 11 -4 10 -13 -4 -13 -17
-15 -17 -30 5 -19 28 -6 56 32 65 27 7 41 -7 41 -41 0 -19 7 -22 63 -26 34 -3
64 -4 66 -2 2 2 -3 12 -12 22 -21 23 -22 33 -2 26 11 -5 15 2 15 26 0 23 4 31
14 27 7 -3 28 10 47 29 37 38 65 44 74 15 3 -10 14 -26 25 -36 19 -17 20 -17
20 3 0 13 11 29 28 39 15 9 28 18 30 19 2 1 -1 12 -8 24 -16 30 -4 63 21 55
30 -10 67 20 75 59 5 32 9 35 34 30 24 -5 28 -2 35 28 5 22 9 27 12 16 9 -37
41 -12 78 63 40 78 34 100 -54 192 -53 55 -74 59 -91 17 -7 -16 -16 -30 -21
-30 -4 0 -23 18 -41 41 -23 29 -32 49 -30 69 2 16 -6 55 -18 88 l-21 58 -84
-4 -83 -4 -7 58 c-4 33 -55 212 -114 399 l-106 340 -90 47 c-55 28 -107 48
-132 50 -42 3 -45 1 -132 -86z"/>
<path d="M13170 14283 l0 -106 -404 6 -404 7 31 -94 c28 -87 30 -97 18 -134
-8 -25 -10 -46 -4 -55 4 -9 5 -58 1 -109 -6 -86 -5 -101 24 -198 16 -58 38
-121 48 -141 15 -28 21 -77 29 -227 6 -105 16 -204 22 -219 6 -15 11 -68 10
-118 -1 -82 2 -98 35 -180 33 -83 36 -100 41 -222 5 -110 3 -140 -11 -177 -10
-25 -25 -48 -34 -51 -9 -3 -30 -15 -45 -27 l-28 -23 26 -37 c14 -20 25 -44 25
-52 0 -9 15 -19 35 -25 19 -5 45 -22 58 -37 l24 -28 -5 -523 -5 -523 404 0
c379 0 1306 21 1631 36 l145 7 -13 51 c-8 28 -14 66 -14 84 0 49 -45 110 -86
118 -31 6 -171 94 -185 116 -4 6 -9 27 -13 47 -5 34 -11 39 -91 79 -50 25 -85
48 -85 57 0 11 -11 15 -44 15 -39 0 -48 4 -74 38 -17 21 -42 44 -57 52 -27 14
-27 15 -20 91 4 51 2 83 -5 96 -14 22 0 160 21 211 12 28 12 37 -1 60 -9 15
-29 30 -48 36 -44 12 -42 41 7 148 38 82 42 86 116 134 l77 49 -4 183 c-4 181
-4 183 17 178 15 -4 23 1 30 17 6 12 20 23 33 25 12 2 22 7 22 12 0 5 28 29
63 54 34 25 78 66 97 91 19 25 43 48 53 51 9 3 47 42 83 87 78 97 211 223 274
260 25 14 95 48 155 75 61 27 148 72 195 101 72 45 79 52 50 47 -19 -4 -60 -9
-91 -13 -54 -5 -58 -4 -74 21 -28 43 -43 46 -156 31 -155 -21 -155 -21 -169
20 -17 52 -52 48 -131 -15 -59 -47 -65 -50 -121 -50 -68 0 -118 21 -118 50 0
19 -10 25 -72 35 -31 6 -39 13 -48 41 -9 25 -17 33 -28 30 -74 -21 -77 -20
-217 58 -112 63 -143 76 -179 76 -25 0 -48 4 -51 10 -7 12 -75 -19 -93 -42
-14 -19 -71 -38 -114 -38 -23 0 -27 5 -30 33 l-3 32 -87 3 c-82 3 -88 4 -88
24 0 19 -4 20 -52 15 -43 -4 -59 -1 -84 15 -26 18 -31 27 -31 62 0 23 -7 55
-16 73 -10 18 -17 47 -17 66 0 87 -50 157 -112 157 l-38 0 0 -107z"/>
<path d="M9626 13444 c-37 -481 -66 -877 -64 -878 1 -2 228 -20 503 -40 590
-44 1606 -91 2138 -101 l377 -6 0 90 c0 83 -4 100 -41 193 -39 98 -41 106 -35
179 4 54 2 88 -8 116 -9 25 -17 107 -21 214 -6 137 -11 183 -26 217 -10 24
-34 97 -54 161 -34 114 -35 120 -24 201 8 64 7 90 -2 107 -10 18 -10 31 1 63
12 38 11 48 -15 131 -16 50 -32 92 -36 94 -3 2 -327 14 -720 25 -619 18 -793
27 -1302 65 -324 25 -592 45 -596 45 -4 0 -37 -394 -75 -876z"/>
<path d="M1560 14175 c0 -33 -6 -55 -19 -69 -22 -25 -51 -108 -51 -147 0 -47
-93 -291 -288 -754 -193 -459 -243 -555 -289 -555 -19 0 -23 -5 -23 -31 0 -22
-19 -57 -70 -127 -60 -82 -70 -102 -70 -137 0 -22 4 -45 9 -51 18 -19 22 -81
6 -94 -8 -7 -24 -33 -35 -58 -37 -83 -20 -242 27 -256 10 -2 405 -114 878
-246 672 -189 997 -275 1484 -391 343 -82 625 -148 627 -146 1 1 53 223 114
492 93 407 118 502 147 559 41 81 65 154 58 177 -3 9 -23 23 -45 32 l-40 15 0
64 c0 62 2 67 58 148 43 64 65 86 90 95 40 13 71 50 72 86 0 14 11 36 25 49
13 13 43 55 66 94 23 39 67 99 97 134 49 57 54 66 48 97 -5 24 -20 46 -50 71
-24 20 -54 58 -67 85 -18 41 -29 51 -58 59 -20 5 -198 48 -396 95 -329 79
-363 86 -396 75 -41 -14 -129 -7 -194 16 -29 10 -42 10 -53 2 -8 -7 -55 -12
-116 -12 -69 -1 -108 -5 -118 -14 -12 -9 -34 -11 -83 -6 -57 6 -68 10 -77 30
-13 29 -8 28 -88 5 -57 -16 -68 -16 -86 -4 -16 10 -28 11 -48 3 -40 -15 -46
-13 -46 18 0 23 -7 32 -35 45 -20 9 -42 17 -49 17 -8 0 -19 6 -25 14 -8 10
-23 13 -47 9 -21 -3 -45 0 -60 8 -20 10 -29 11 -45 1 -11 -7 -56 -17 -100 -23
l-80 -11 -52 32 c-29 18 -71 45 -94 59 -48 29 -49 32 -29 128 19 97 10 152
-37 208 -36 43 -40 45 -91 45 -49 0 -54 2 -60 24 -3 14 -3 32 0 40 7 18 -21
23 -31 6 -10 -16 -65 -12 -72 6 -4 11 -13 14 -31 9 -16 -4 -31 0 -43 11 -18
17 -19 15 -19 -31z"/>
<path d="M15646 13728 c-69 -51 -124 -97 -122 -103 1 -5 13 -12 27 -16 29 -7
83 26 75 47 -7 17 47 56 68 48 9 -3 16 -2 16 3 0 5 18 19 40 32 23 13 40 30
40 40 0 9 5 22 12 29 9 9 7 12 -9 12 -12 0 -78 -42 -147 -92z"/>
<path d="M16055 13430 c-85 -8 -125 -27 -190 -90 -27 -27 -78 -74 -112 -105
-33 -31 -64 -66 -67 -79 -4 -15 -38 -43 -103 -83 -85 -52 -108 -62 -173 -71
-70 -10 -77 -14 -115 -55 -22 -25 -65 -56 -98 -71 l-57 -28 51 -59 c37 -42 63
-62 88 -68 20 -5 122 -28 226 -51 105 -24 197 -48 205 -55 21 -17 145 -45 205
-46 88 -2 156 -21 178 -51 16 -22 18 -30 8 -42 -10 -12 -5 -16 36 -21 31 -5
58 -16 76 -33 24 -23 27 -33 27 -90 0 -35 -5 -72 -11 -84 -14 -26 -6 -33 20
-16 18 11 24 10 41 -8 19 -19 20 -22 5 -63 -11 -33 -12 -47 -4 -57 6 -8 15
-14 19 -14 20 0 103 155 122 228 15 57 28 84 50 105 21 20 28 34 24 50 -3 12
-1 29 5 37 8 13 11 12 24 -4 8 -11 15 -33 15 -49 l0 -29 29 24 c17 13 32 37
36 56 6 31 9 33 35 27 23 -5 30 -2 35 15 4 12 12 19 18 17 24 -7 18 -43 -13
-75 -33 -35 -35 -44 -20 -73 14 -24 30 -25 30 0 0 25 46 80 77 92 18 7 23 16
23 43 0 57 39 77 162 83 l101 6 26 43 c25 40 29 42 81 46 67 5 137 -17 214
-66 30 -19 58 -31 61 -26 3 5 3 26 -1 46 -9 49 4 54 82 36 53 -13 75 -14 122
-4 31 6 77 9 101 5 38 -5 43 -4 40 12 -2 10 -17 22 -32 26 -40 11 -56 27 -50
49 5 17 0 20 -35 20 -28 0 -42 5 -46 16 -7 20 22 44 42 36 11 -4 13 2 7 29 -4
19 -12 40 -17 47 -6 7 -8 30 -5 52 4 33 2 40 -11 40 -10 0 -26 -7 -36 -15 -11
-8 -30 -15 -43 -15 -16 0 -24 -7 -29 -25 -5 -21 -12 -25 -40 -25 -24 0 -34 5
-34 15 0 22 -40 19 -66 -6 -18 -17 -24 -18 -34 -7 -8 8 -27 12 -47 10 l-33 -4
0 72 c0 39 5 80 10 91 13 23 3 24 -24 4 -11 -8 -34 -15 -50 -15 -19 0 -49 -13
-78 -34 -43 -30 -57 -34 -140 -41 -181 -13 -179 -13 -336 -145 -23 -19 -23
-19 -32 3 -8 21 -9 21 -9 -5 -1 -30 -4 -31 -36 -19 -14 6 -24 3 -32 -8 -10
-14 -15 -13 -40 12 -35 32 -44 33 -68 7 -23 -26 -115 -29 -115 -4 0 8 -22 39
-50 68 -27 29 -50 60 -50 68 0 33 -68 68 -133 68 -23 0 -51 7 -61 15 -32 24
-51 18 -100 -35 -55 -58 -82 -59 -72 -2 6 40 94 191 116 200 19 7 46 38 65 75
9 15 24 27 34 27 10 0 32 5 49 11 27 9 30 14 22 30 -6 10 -14 18 -18 18 -4 -1
-38 -5 -77 -9z"/>
<path d="M22941 13333 c-17 -14 -23 -33 -28 -85 -5 -58 -3 -72 17 -105 20 -35
21 -42 10 -89 -12 -50 -12 -53 13 -86 24 -30 25 -38 18 -90 -7 -57 -32 -108
-52 -108 -6 0 -23 -12 -38 -27 -15 -16 -35 -33 -46 -39 -19 -11 -19 -13 -4
-60 22 -65 12 -254 -16 -299 -19 -29 -26 -133 -13 -185 19 -78 28 -266 15
-305 -5 -14 1 -29 17 -49 l24 -29 239 49 238 49 15 42 c10 31 22 45 42 52 15
6 28 14 28 20 0 15 66 52 83 46 10 -4 16 3 21 26 10 54 7 64 -28 83 -23 12
-37 28 -41 47 -5 20 -20 37 -50 55 -46 26 -49 32 -59 99 -4 22 -75 253 -159
513 -138 432 -153 473 -171 468 -11 -3 -28 1 -37 10 -14 13 -19 13 -38 -3z"/>
<path d="M22539 13062 l-335 -87 0 -47 c1 -26 6 -50 13 -52 6 -3 11 -29 11
-66 0 -57 3 -65 33 -96 29 -30 33 -41 34 -91 1 -32 -3 -88 -7 -124 -9 -64 -8
-67 32 -150 34 -70 40 -91 35 -124 -3 -27 -2 -35 4 -25 8 12 14 11 38 -10 15
-14 31 -27 35 -30 14 -10 89 -385 84 -417 -6 -41 -5 -41 151 -8 155 33 147 30
127 60 -15 23 -16 36 -7 93 8 51 7 73 -2 92 -7 14 -11 37 -8 52 3 15 -3 68
-13 119 -14 72 -15 95 -6 110 7 11 10 30 6 44 -4 16 0 35 11 52 10 15 19 43
21 62 12 152 12 168 -3 212 -21 61 -12 95 32 116 19 9 37 25 41 35 3 10 12 18
19 18 20 0 42 38 48 85 5 34 2 46 -23 78 -28 38 -28 39 -13 83 12 37 13 50 3
74 -7 17 -15 30 -19 29 -3 0 -157 -40 -342 -87z"/>
<path d="M14895 13039 c-4 -5 -12 -8 -18 -6 -7 3 -24 -7 -39 -20 -14 -14 -38
-26 -52 -27 -14 0 -26 -4 -26 -8 0 -5 -8 -8 -19 -8 -10 0 -25 -8 -32 -19 -17
-23 -169 -81 -213 -81 -18 0 -37 -5 -43 -11 -9 -9 -18 -8 -37 5 -25 16 -26 16
-26 -3 0 -11 -9 -23 -20 -26 -19 -6 -20 -12 -14 -173 l6 -167 -81 -52 c-74
-48 -84 -59 -116 -123 -38 -75 -43 -100 -21 -100 7 0 25 -9 38 -20 31 -24 43
-101 23 -140 -21 -40 -29 -137 -16 -178 8 -25 9 -56 4 -92 l-8 -54 54 -53 c49
-47 60 -53 97 -53 33 0 43 -4 47 -20 3 -13 34 -33 91 -60 74 -34 86 -42 86
-64 0 -14 4 -35 9 -49 11 -27 123 -104 174 -118 56 -15 97 -75 108 -157 4 -37
13 -83 19 -102 5 -19 10 -51 10 -70 0 -28 6 -39 29 -55 49 -32 55 -58 26 -115
-31 -62 -31 -75 1 -165 24 -68 28 -73 72 -93 26 -12 62 -24 80 -28 26 -5 37
-14 48 -40 12 -29 19 -34 48 -34 18 0 287 16 597 35 310 19 567 35 570 35 4 0
7 40 7 89 0 66 -3 93 -14 102 -8 6 -14 28 -14 49 0 22 -7 43 -15 50 -9 7 -13
20 -10 28 5 14 -12 76 -26 97 -4 6 8 64 28 130 34 113 35 125 27 196 -6 52 -5
88 2 115 7 21 10 51 7 65 -4 20 2 32 25 51 l31 25 -6 94 c-5 91 -4 97 31 189
21 52 43 104 51 116 7 11 20 45 29 74 9 30 22 57 28 61 7 5 13 26 13 48 0 27
4 41 12 41 7 0 13 11 13 25 0 17 -5 25 -18 25 -24 0 -42 -19 -42 -45 0 -13
-10 -27 -25 -35 -15 -8 -25 -22 -25 -34 0 -12 -7 -31 -15 -43 -8 -11 -17 -39
-21 -61 -6 -37 -10 -42 -56 -59 -47 -17 -52 -22 -70 -72 -13 -35 -30 -59 -48
-69 -15 -9 -32 -29 -38 -45 -7 -20 -16 -28 -29 -25 -30 6 -19 92 18 146 18 27
29 55 29 77 0 31 3 35 40 45 35 9 40 14 40 40 0 19 -6 31 -19 35 -11 3 -27 17
-36 31 -13 21 -14 31 -6 56 15 44 15 44 -30 40 -22 -3 -45 0 -49 4 -5 5 0 28
10 53 23 50 27 143 7 159 -7 6 -32 14 -56 18 -56 9 -101 45 -83 67 10 11 10
16 0 24 -19 15 -127 31 -171 26 -20 -3 -43 -1 -50 5 -6 5 -32 13 -57 17 -25 4
-58 15 -75 25 -16 9 -131 39 -254 66 l-223 48 -42 53 c-22 29 -50 56 -61 59
-11 4 -22 10 -25 14 -4 6 -88 53 -122 68 -5 2 -8 -3 -8 -12 0 -8 -14 -23 -31
-32 -26 -13 -33 -14 -40 -2 -12 19 -11 23 10 42 11 10 16 26 14 39 -3 13 6 36
22 57 l26 35 -22 18 c-24 20 -35 21 -44 6z"/>
<path d="M21875 12894 c-137 -35 -267 -64 -288 -64 -35 0 -46 -8 -133 -97 -96
-99 -214 -273 -214 -316 0 -11 -39 -60 -89 -111 -83 -86 -88 -93 -84 -127 5
-38 41 -69 82 -69 30 0 30 -55 0 -70 -18 -10 -19 -13 -6 -28 32 -37 45 -77 40
-125 -5 -45 -7 -47 -47 -59 -22 -7 -50 -24 -61 -38 -48 -62 -112 -123 -145
-140 -20 -9 -69 -20 -113 -23 -63 -4 -85 -10 -112 -31 -41 -31 -54 -32 -105
-6 -86 44 -290 12 -462 -72 l-108 -52 0 -38 c0 -46 40 -115 75 -128 29 -11 68
-83 60 -110 -3 -10 -21 -30 -40 -44 -21 -17 -38 -41 -45 -64 -8 -29 -21 -43
-60 -67 -27 -16 -53 -38 -56 -50 -3 -11 -30 -42 -60 -70 l-54 -50 11 -73 c11
-67 13 -73 33 -68 11 3 424 84 916 181 492 97 905 179 916 181 16 4 32 -5 58
-30 19 -20 44 -36 56 -36 15 0 30 -20 60 -79 45 -90 89 -131 140 -131 18 0 41
-6 49 -14 9 -7 107 -44 219 -81 l204 -67 -7 -77 -7 -76 30 35 c17 19 37 51 45
72 14 35 14 37 -15 73 l-31 36 43 44 c40 41 42 46 28 62 -10 12 -29 96 -53
233 -20 118 -42 224 -47 234 -7 13 -8 87 -3 216 6 172 5 198 -9 209 -12 10
-14 23 -10 51 7 40 -59 375 -78 398 -15 17 -26 15 -33 -8 -3 -11 -10 -20 -16
-20 -17 0 -40 74 -34 110 5 28 -2 54 -32 120 -36 79 -38 90 -33 150 11 122 5
169 -25 200 -21 22 -28 40 -32 91 -3 40 -11 69 -20 76 -11 8 -13 20 -9 38 9
35 -1 65 -22 64 -9 0 -129 -29 -267 -65z"/>
<path d="M17870 12810 c12 -7 9 -13 -14 -35 -15 -14 -32 -23 -37 -20 -14 9
-11 -11 4 -23 6 -5 37 -12 67 -13 51 -4 55 -2 58 20 4 29 -43 81 -72 81 -17 0
-18 -2 -6 -10z"/>
<path d="M17436 12565 c5 -12 -2 -15 -31 -15 -31 0 -35 -2 -26 -14 10 -12 5
-20 -23 -43 -20 -15 -36 -36 -36 -46 0 -27 43 -87 63 -87 21 0 23 -26 1 -34
-9 -3 -30 -6 -47 -6 -22 0 -44 -11 -69 -33 l-37 -32 8 -110 9 -109 -30 -43
c-16 -24 -31 -43 -35 -43 -5 0 2 47 14 99 4 16 2 22 -5 17 -6 -3 -14 -31 -17
-61 -8 -64 -18 -76 -33 -37 -12 30 -11 196 1 208 11 11 8 26 -4 22 -7 -2 -19
-22 -28 -43 -28 -70 -71 -125 -97 -125 -15 0 -24 -6 -24 -15 0 -8 -8 -15 -19
-15 -16 0 -18 -6 -14 -45 5 -44 5 -44 -36 -61 -44 -18 -48 -26 -26 -64 34 -59
7 -246 -45 -320 -20 -28 -21 -33 -6 -48 8 -10 21 -40 27 -68 9 -41 9 -55 -5
-88 -9 -21 -16 -47 -16 -59 0 -11 34 -85 75 -166 103 -201 118 -269 106 -469
-9 -151 -17 -184 -52 -234 -12 -16 -28 -54 -36 -85 -8 -31 -25 -72 -38 -92
-14 -19 -23 -36 -22 -37 2 -2 687 68 789 81 40 5 47 3 52 -13 6 -18 20 -16
280 27 l275 46 55 85 c50 76 56 90 56 139 0 75 17 116 53 132 28 13 33 24 56
109 30 109 35 120 61 120 27 0 35 -18 16 -39 -34 -37 -10 -55 31 -23 20 16 22
27 24 143 2 118 1 127 -24 170 -29 50 -47 109 -47 155 0 17 -13 55 -30 85 -16
30 -30 66 -30 80 0 77 -70 190 -128 207 -34 11 -41 9 -100 -26 -57 -34 -66
-44 -102 -115 -21 -43 -56 -98 -76 -123 -32 -38 -41 -44 -63 -39 -14 4 -43 23
-63 43 -34 32 -38 41 -38 87 1 58 23 92 67 101 39 8 55 37 62 109 5 50 9 60
26 63 39 7 45 30 45 168 0 73 -4 144 -10 159 -5 14 -26 35 -45 47 -31 18 -36
25 -33 52 3 27 7 31 31 31 35 -1 34 14 -2 67 -15 24 -36 55 -45 71 -12 19 -24
27 -46 27 -16 0 -80 18 -144 41 -83 29 -119 47 -131 65 -13 21 -23 24 -76 24
-46 0 -73 7 -119 30 -67 34 -82 37 -74 15z"/>
<path d="M9536 12347 c-47 -500 -135 -1501 -132 -1505 10 -10 1373 -96 1834
-116 l533 -22 42 -42 c23 -22 54 -44 69 -47 14 -4 36 -18 49 -31 30 -32 47
-30 85 7 27 26 35 29 52 20 12 -6 23 -7 26 -3 3 5 50 8 103 7 92 -2 143 -14
143 -34 0 -5 35 -21 78 -36 86 -31 125 -61 138 -107 5 -18 19 -34 32 -39 20
-8 22 -6 16 19 -4 15 -16 37 -27 49 -19 21 -19 23 -2 95 10 40 26 97 37 127
20 60 17 87 -12 96 -28 9 -37 65 -14 82 17 12 17 14 -4 36 -34 36 -27 87 13
87 21 0 22 5 28 98 4 53 7 284 7 513 0 465 2 453 -69 468 -26 5 -37 14 -45 37
-6 16 -21 46 -34 66 -29 46 -19 74 36 107 39 24 62 56 62 86 0 22 -35 24 -475
29 -493 5 -1337 44 -1985 91 -261 19 -496 36 -521 39 l-45 5 -18 -182z"/>
<path d="M17126 12500 c-7 -39 2 -82 18 -77 14 5 13 84 -1 98 -7 7 -12 0 -17
-21z"/>
<path d="M6605 12308 c-12 -40 -59 -332 -175 -1077 -175 -1133 -183 -1191
-176 -1198 12 -12 792 -124 1411 -203 368 -47 832 -98 1115 -124 267 -24 485
-44 486 -43 0 1 19 232 42 512 23 281 68 799 99 1152 31 354 55 645 52 647 -2
3 -308 36 -680 75 -477 50 -888 100 -1401 171 -400 55 -736 100 -747 100 -12
0 -23 -6 -26 -12z"/>
<path d="M23461 11971 c-15 -16 -36 -31 -48 -35 -12 -4 -23 -18 -27 -34 -12
-55 -21 -58 -282 -112 -356 -74 -555 -118 -562 -124 -8 -9 -18 -377 -10 -382
10 -6 754 160 850 190 l48 15 10 -39 c6 -21 17 -41 25 -44 8 -3 15 -15 15 -26
0 -13 12 -27 31 -38 51 -28 86 -60 99 -92 22 -52 65 -36 65 25 0 21 5 31 20
33 23 5 44 30 45 55 0 9 3 17 8 17 19 -1 32 -19 38 -57 6 -39 4 -44 -41 -92
-65 -69 -43 -65 25 5 30 30 67 62 83 70 15 8 27 23 27 33 0 18 37 41 66 41 8
0 32 12 54 26 42 28 70 26 71 -3 0 -14 2 -13 9 4 24 61 -88 243 -150 243 -24
0 -36 -18 -21 -33 8 -8 11 -8 11 1 0 28 33 9 47 -28 9 -22 19 -37 24 -34 4 2
15 -9 24 -25 18 -36 19 -41 4 -41 -6 0 -28 -13 -49 -30 -31 -24 -47 -30 -88
-30 -56 0 -82 7 -82 22 0 6 -7 25 -16 43 -11 24 -24 35 -42 37 -23 3 -27 8
-30 39 -4 47 -53 94 -104 102 -21 3 -38 2 -38 -4 0 -11 -40 -12 -41 -1 -8 60
-7 82 6 82 8 0 12 6 9 14 -3 8 -1 17 5 21 6 3 11 14 11 23 0 9 18 30 40 46 41
31 46 41 31 65 -8 12 -12 12 -25 2 -22 -19 -43 -7 -62 33 -23 47 -50 52 -83
17z"/>
<path d="M730 11834 c-6 -14 -10 -76 -10 -137 l0 -112 -54 -123 c-30 -67 -52
-130 -50 -140 5 -19 -36 -73 -150 -197 l-79 -85 -4 -68 c-5 -67 -5 -68 68
-212 l72 -145 -2 -90 c-2 -81 -5 -95 -32 -139 -27 -44 -31 -61 -41 -187 l-11
-139 86 -168 c108 -211 122 -256 108 -354 l-10 -72 61 -71 c34 -38 67 -76 74
-84 18 -20 46 3 38 33 -7 29 29 112 55 125 17 10 24 6 50 -33 l31 -44 -36 -21
c-27 -16 -34 -26 -29 -39 4 -9 7 -29 6 -45 -1 -15 5 -41 14 -57 14 -28 22
-170 9 -170 -3 0 -28 19 -55 42 -42 36 -49 46 -49 78 0 21 7 43 15 50 24 20
18 40 -12 40 -26 0 -29 -5 -48 -73 -11 -41 -21 -115 -23 -172 -4 -114 10 -159
74 -247 32 -43 40 -48 75 -48 33 0 41 -4 49 -26 26 -69 -8 -165 -65 -181 -27
-8 -31 -14 -37 -58 -3 -28 -7 -71 -7 -96 -1 -42 3 -50 35 -78 44 -39 96 -158
88 -201 -5 -20 1 -38 20 -66 14 -21 26 -53 26 -70 0 -20 14 -50 39 -85 21 -30
62 -110 91 -179 29 -69 62 -135 73 -147 20 -22 20 -22 -6 -95 -26 -73 -47
-179 -47 -234 0 -51 50 -87 155 -112 61 -15 106 -33 140 -56 30 -21 71 -38
102 -44 70 -12 98 -38 192 -173 88 -126 122 -151 221 -164 25 -3 60 -14 77
-25 26 -15 32 -27 38 -68 4 -32 2 -58 -5 -72 -10 -18 -8 -26 11 -46 18 -19 33
-24 74 -24 l51 0 92 -114 c50 -63 95 -122 98 -132 4 -11 15 -28 25 -39 9 -11
29 -50 43 -88 22 -59 26 -88 30 -225 5 -177 10 -200 40 -207 57 -12 1098 -128
1144 -127 63 1 125 37 141 82 11 32 8 37 -36 55 -50 21 -59 50 -44 148 16 108
19 117 41 117 37 0 83 79 104 176 27 125 72 192 147 217 108 37 118 59 58 122
-21 22 -32 50 -44 105 -9 41 -23 86 -33 100 -37 55 -59 123 -49 156 9 30 -24
82 -925 1425 -635 947 -940 1411 -952 1446 l-17 52 216 832 c119 457 213 835
208 839 -7 7 -1712 490 -1728 490 -3 0 -10 -12 -15 -26z"/>
<path d="M23330 11420 c-30 -9 -56 -22 -57 -27 -2 -5 14 -77 35 -159 24 -92
37 -162 34 -182 l-4 -33 63 41 c57 37 65 45 70 81 3 25 1 43 -6 49 -7 6 -10
22 -7 36 3 16 -1 30 -9 36 -11 7 -11 11 -2 15 18 7 5 84 -18 106 -11 10 -19
27 -19 37 0 24 -8 24 -80 0z"/>
<path d="M23038 11356 c-102 -23 -178 -46 -178 -52 0 -16 -41 -25 -56 -14 -11
10 -230 -35 -248 -50 -4 -5 6 -94 24 -202 31 -180 35 -195 64 -226 l30 -32
-47 -48 c-44 -44 -46 -49 -31 -64 16 -16 23 -12 101 53 46 38 90 69 97 69 7 0
25 18 42 40 18 24 37 40 50 40 12 0 38 7 57 15 20 8 50 15 66 15 16 0 70 19
119 43 49 23 109 50 133 61 42 17 44 20 43 60 0 44 -73 337 -83 335 -3 -1 -86
-20 -183 -43z"/>
<path d="M2516 11343 c-3 -10 -101 -382 -217 -828 l-211 -810 19 -53 c12 -34
340 -533 943 -1430 l925 -1379 14 31 c10 21 14 62 13 131 -2 55 3 182 9 282
14 201 7 186 85 198 63 10 146 -25 167 -70 9 -19 23 -35 31 -35 28 0 74 70 84
129 6 31 151 782 322 1670 171 888 308 1617 303 1621 -4 4 -127 31 -273 59
-380 75 -896 191 -1591 356 -333 80 -609 145 -612 145 -3 0 -8 -8 -11 -17z"/>
<path d="M23516 11273 c10 -25 6 -86 -7 -94 -7 -4 -5 -8 4 -12 21 -8 33 10 40
57 5 30 2 42 -11 52 -24 19 -35 17 -26 -3z"/>
<path d="M23822 11243 c-14 -5 -56 -93 -48 -100 2 -3 13 4 24 15 11 11 39 23
63 27 24 4 47 9 51 11 15 10 -4 29 -29 31 -15 0 -29 6 -31 12 -4 12 -9 12 -30
4z"/>
<path d="M20782 10843 c-513 -102 -935 -183 -938 -180 -3 3 -10 35 -15 73 -5
37 -11 70 -14 72 -2 2 -24 -12 -48 -32 -24 -20 -48 -36 -53 -36 -6 0 -29 -20
-53 -44 -24 -25 -57 -50 -73 -57 -15 -6 -28 -19 -28 -28 1 -30 207 -1282 213
-1287 10 -11 375 55 1215 218 l832 162 19 31 c23 39 82 69 121 60 17 -4 31 -2
35 5 4 6 20 20 36 29 16 10 48 47 72 84 23 36 59 79 79 95 l37 29 -47 35 c-26
20 -61 43 -78 51 -20 10 -34 27 -39 44 -9 38 -21 51 -56 58 -30 7 -31 10 -44
88 -5 29 -1 43 14 64 26 32 26 38 2 71 l-19 27 45 79 c33 57 43 85 38 103 -4
16 1 32 15 50 28 36 25 43 -16 43 -59 0 -115 47 -160 135 -34 65 -43 75 -66
75 -19 0 -29 7 -34 22 -7 24 -32 48 -49 47 -5 -1 -430 -84 -943 -186z"/>
<path d="M14665 10988 c-461 -17 -1494 -39 -1763 -36 -305 3 -326 1 -287 -32
17 -14 20 -66 5 -75 -16 -10 -12 -23 9 -30 11 -3 25 -21 31 -39 8 -26 6 -43
-10 -92 -12 -32 -28 -88 -36 -123 -13 -56 -13 -65 0 -80 19 -21 56 -119 56
-148 0 -57 42 -198 81 -272 19 -35 29 -70 29 -97 0 -30 11 -64 40 -117 33 -63
40 -88 46 -156 5 -64 10 -82 24 -86 14 -5 18 -17 18 -63 0 -120 8 -208 22
-244 l14 -38 386 0 c355 0 732 13 1217 41 l191 11 31 -23 c17 -13 31 -29 31
-36 0 -8 12 -26 26 -40 24 -24 27 -25 36 -9 7 13 6 26 -3 43 -19 35 6 72 62
92 41 15 44 20 47 55 2 23 16 57 33 82 43 64 41 112 -10 163 l-39 39 16 66
c15 63 18 67 51 76 20 5 53 10 73 10 47 0 153 46 171 74 8 12 18 40 22 64 4
23 11 45 17 48 15 9 48 92 48 121 0 31 -58 112 -81 113 -23 0 -49 33 -49 62 0
29 -38 66 -89 87 -24 10 -29 17 -22 29 16 29 -13 69 -56 77 -42 8 -105 37
-119 57 -6 7 -21 42 -34 78 -28 77 -28 145 1 201 l19 38 -35 27 c-21 15 -35
35 -35 48 0 11 -4 26 -8 31 -4 6 -67 8 -177 3z"/>
<path d="M23218 10816 c-10 -7 -18 -19 -18 -26 0 -7 -6 -10 -13 -7 -8 3 -23
-12 -38 -39 -19 -36 -29 -44 -51 -44 -35 0 -36 19 -3 58 14 17 25 35 25 41 0
19 -40 -7 -52 -34 -13 -29 -55 -47 -165 -70 -67 -14 -83 -21 -83 -36 0 -13
-12 -21 -40 -29 -22 -6 -44 -9 -49 -6 -4 3 -18 -4 -30 -15 -12 -11 -27 -18
-34 -16 -18 6 -47 -11 -47 -28 0 -8 -7 -15 -16 -15 -8 0 -12 -4 -9 -10 3 -5 1
-10 -4 -10 -6 0 -11 -7 -11 -15 0 -8 -10 -17 -22 -20 -29 -7 -70 -69 -66 -98
2 -17 11 -23 41 -25 26 -2 39 1 43 12 4 9 18 16 33 16 15 0 48 7 73 16 36 12
45 19 41 33 -3 14 5 22 34 35 21 9 45 20 53 24 63 35 151 73 158 68 6 -3 17 5
26 19 9 14 26 25 37 25 25 0 95 47 176 119 53 47 60 57 50 73 -14 21 -16 22
-39 4z"/>
<path d="M9399 10798 c-3 -9 -97 -1134 -94 -1136 1 -2 199 -17 439 -35 l436
-31 0 -51 c0 -27 -7 -144 -15 -260 -8 -115 -15 -226 -15 -245 l0 -35 528 -28
c290 -15 761 -34 1047 -42 501 -14 1355 -20 1355 -10 0 3 -32 58 -71 122 -41
69 -68 125 -66 135 3 10 1 21 -5 24 -6 4 -22 32 -36 63 -25 54 -32 116 -32
260 0 22 -7 41 -20 53 -17 16 -20 32 -20 94 0 70 -3 81 -40 144 -30 51 -40 79
-40 112 0 29 -11 67 -33 113 -48 100 -87 231 -87 290 0 20 -5 25 -24 25 -44 0
-73 17 -80 47 -13 53 -33 70 -113 98 -43 15 -86 37 -96 48 -16 18 -31 20 -113
21 -53 1 -98 -2 -100 -6 -3 -4 -18 -5 -33 -2 -23 5 -32 2 -40 -14 -6 -11 -26
-23 -47 -27 -32 -6 -41 -3 -68 24 -18 17 -40 31 -50 31 -10 0 -41 20 -69 44
l-52 44 -500 21 c-275 12 -793 42 -1151 66 -643 44 -693 47 -695 43z"/>
<path d="M5046 10773 c-13 -45 -548 -2844 -544 -2848 21 -21 2240 -386 2255
-372 5 6 304 2309 300 2314 -2 2 -193 32 -423 66 -355 54 -419 66 -422 80 -2
9 15 139 38 288 23 150 38 275 33 279 -7 6 -1194 211 -1220 210 -6 0 -14 -8
-17 -17z"/>
<path d="M22088 10695 c-10 -13 -18 -38 -18 -56 0 -18 -15 -60 -36 -96 -33
-59 -35 -66 -20 -82 21 -23 20 -49 -4 -96 -27 -53 -19 -101 18 -110 37 -9 50
-22 57 -56 4 -16 16 -34 28 -40 12 -6 55 -36 96 -67 l74 -55 -29 -20 c-49 -35
-110 -103 -140 -156 -18 -32 -39 -54 -56 -60 -35 -12 -78 -87 -79 -137 -1 -79
9 -93 109 -147 51 -27 92 -55 92 -63 0 -18 9 -18 29 -1 10 9 31 12 59 9 l42
-4 0 -69 c0 -52 3 -69 14 -69 22 0 32 19 71 130 29 84 44 113 78 148 40 41 41
44 42 110 1 46 7 76 20 95 13 20 16 38 11 67 -4 27 -1 50 8 68 11 23 12 52 2
184 -8 105 -16 162 -25 170 -11 11 -12 9 -6 -9 7 -26 -12 -31 -46 -13 -13 8
-25 7 -39 0 -16 -8 -22 -6 -35 14 -14 20 -14 30 -3 65 7 23 21 44 30 47 27 8
33 31 33 123 l0 84 -175 59 c-96 32 -177 58 -180 58 -3 0 -13 -11 -22 -25z"/>
<path d="M19404 10538 c-133 -72 -191 -118 -274 -218 -66 -79 -83 -88 -172
-89 -35 -1 -99 -32 -170 -82 -31 -23 -77 -25 -104 -4 -27 21 -71 18 -105 -6
-30 -21 -79 -20 -79 1 0 13 54 40 82 40 24 0 56 16 48 23 -3 2 -20 7 -38 10
-24 5 -34 3 -38 -8 -7 -18 -45 -20 -61 -4 -18 18 -114 51 -153 53 -19 1 -39 4
-45 8 -8 5 -555 -79 -563 -86 -3 -4 167 -1478 173 -1493 5 -16 69 -17 96 -2
16 8 32 6 70 -7 40 -15 55 -27 78 -64 15 -25 30 -52 33 -61 7 -18 111 -36 145
-25 14 4 26 -3 41 -24 21 -27 62 -42 62 -22 0 11 46 32 70 32 11 0 40 -7 64
-15 51 -18 92 -12 99 14 2 10 30 32 60 48 64 35 70 32 90 -37 10 -37 18 -45
56 -60 24 -9 51 -27 60 -39 l17 -22 50 19 c47 19 49 22 52 60 2 30 8 43 22 47
19 6 19 8 5 42 -19 45 -19 67 0 83 8 7 15 23 15 35 0 13 9 44 19 68 l20 46 35
-11 c20 -6 37 -19 39 -30 5 -17 8 -18 26 -6 28 17 26 32 -5 57 -25 19 -25 20
-5 31 13 7 21 21 21 38 0 34 35 92 55 92 8 0 20 10 26 23 6 12 21 32 32 44 19
21 22 22 39 7 16 -16 20 -14 63 20 25 21 57 57 71 82 14 24 34 50 43 57 22 15
31 49 20 69 -5 10 -3 35 6 64 8 27 15 81 15 120 0 39 6 90 14 112 19 53 10
145 -17 191 -22 36 -23 33 26 66 13 9 7 58 -47 387 -34 208 -64 380 -67 382
-2 3 -54 -22 -115 -56z"/>
<path d="M15710 10454 c-283 -18 -518 -33 -523 -33 -4 -1 11 -17 33 -38 31
-27 40 -43 38 -62 -2 -20 2 -27 19 -29 34 -5 99 -90 107 -139 6 -44 -20 -130
-50 -164 -8 -8 -14 -28 -14 -44 0 -15 -12 -43 -26 -62 -29 -38 -119 -83 -166
-83 -16 0 -48 -5 -72 -11 -40 -10 -44 -14 -53 -54 -11 -47 -13 -42 47 -99 16
-16 20 -32 20 -80 -1 -53 -5 -66 -30 -96 -21 -24 -30 -45 -30 -70 0 -40 -27
-72 -70 -85 -42 -12 -48 -23 -43 -69 4 -34 -1 -57 -21 -99 -29 -63 -31 -80
-12 -157 17 -69 76 -210 88 -210 5 0 69 -57 141 -127 139 -135 162 -170 152
-233 -8 -53 4 -65 50 -50 48 16 118 5 173 -26 37 -22 42 -29 42 -60 0 -19 -6
-37 -13 -40 -8 -3 -12 -16 -9 -34 2 -17 -10 -66 -32 -124 -20 -53 -36 -106
-36 -117 0 -24 130 -163 189 -202 20 -14 59 -30 88 -37 46 -10 55 -17 87 -65
19 -29 42 -70 50 -90 9 -20 27 -50 41 -67 26 -31 27 -47 2 -96 -10 -20 -6 -33
23 -90 29 -55 40 -68 63 -70 22 -3 27 1 28 20 1 14 23 43 59 76 l57 53 93 -41
c52 -22 99 -40 106 -40 24 0 24 44 0 70 -31 34 -26 113 10 136 13 9 28 13 34
9 5 -3 17 1 26 9 8 9 30 16 48 16 44 0 49 8 26 40 -28 39 -25 66 10 111 30 37
30 39 15 68 -19 38 -19 51 0 51 12 0 15 16 15 86 l0 86 51 71 c28 38 60 97 71
131 12 34 29 70 39 81 26 30 33 69 17 101 -8 16 -13 37 -10 48 2 10 -10 37
-27 61 -35 49 -39 89 -18 190 11 53 7 134 -41 730 -29 369 -58 684 -64 700 -5
17 -20 60 -33 96 -12 36 -43 94 -69 128 -40 55 -46 70 -46 112 l0 49 -67 -1
c-38 -1 -300 -16 -583 -35z"/>
<path d="M17245 10164 c-327 -35 -415 -48 -435 -62 -14 -10 -53 -30 -87 -45
-61 -27 -64 -28 -114 -12 -29 8 -53 14 -54 12 -1 -1 23 -288 52 -637 33 -398
51 -659 48 -700 -4 -36 -9 -91 -12 -122 -5 -52 -3 -60 27 -101 19 -27 31 -54
29 -68 -2 -13 1 -35 6 -49 13 -39 5 -92 -19 -125 -13 -16 -31 -55 -41 -85 -10
-30 -40 -85 -67 -121 l-48 -67 0 -82 0 -83 46 7 c26 3 57 6 69 6 16 0 25 8 29
26 5 20 11 24 24 19 9 -4 41 -11 70 -16 30 -4 71 -19 94 -34 22 -15 41 -25 42
-23 1 2 10 16 20 31 9 15 42 44 74 64 l56 36 37 -41 c35 -40 37 -41 53 -23 9
9 16 34 16 53 0 33 5 38 61 72 69 41 79 43 79 17 0 -25 36 -51 71 -51 49 0 59
9 59 54 0 52 66 154 140 217 31 27 50 50 50 64 0 25 29 127 39 138 4 4 22 2
39 -4 31 -10 38 -8 112 41 84 55 85 58 47 113 -18 27 -19 32 -5 60 13 29 7 95
-73 782 -48 413 -88 758 -88 768 -1 10 -8 17 -18 16 -10 -1 -202 -21 -428 -45z"/>
<path d="M7095 9838 c-6 -32 -295 -2255 -295 -2277 0 -16 68 -26 703 -104 885
-109 2451 -256 2475 -232 6 5 117 1528 149 2047 l18 287 -60 6 c-33 3 -242 19
-465 35 -670 49 -1353 116 -1935 190 -302 38 -558 70 -567 70 -10 0 -20 -10
-23 -22z"/>
<path d="M21882 9724 l-30 -36 19 -67 c11 -36 54 -190 96 -341 42 -151 79
-279 84 -284 4 -4 65 4 136 19 l130 27 -26 90 c-19 67 -28 87 -39 83 -20 -8
-99 54 -111 87 -5 16 -21 33 -35 40 -23 10 -26 17 -26 64 0 52 -1 53 -59 104
-48 42 -60 58 -66 93 -10 57 -10 97 -1 130 7 24 6 27 -17 27 -17 0 -35 -12
-55 -36z"/>
<path d="M21302 9567 c-459 -91 -463 -92 -440 -111 17 -14 34 -17 70 -14 44 5
47 4 42 -16 -3 -15 5 -29 31 -50 21 -18 35 -38 35 -52 0 -19 7 -24 38 -29 20
-4 51 -13 69 -21 26 -12 32 -21 35 -52 3 -35 5 -37 41 -40 31 -3 45 3 73 27
41 36 71 45 126 38 81 -11 132 -76 125 -158 -6 -78 -68 -139 -139 -139 -48 0
-84 -148 -40 -165 9 -3 26 5 43 21 30 28 41 26 72 -13 31 -38 74 -56 121 -49
35 6 49 2 80 -19 20 -14 46 -25 58 -25 12 0 30 -7 40 -17 17 -15 18 -15 18 9
0 13 -11 39 -24 56 -13 18 -26 49 -30 70 -4 26 -18 50 -45 76 -28 28 -42 51
-47 80 -3 22 -12 50 -19 61 -10 15 -11 36 -5 79 5 33 7 63 5 67 -3 4 2 12 10
19 19 16 2 56 -38 92 l-30 27 26 10 c16 6 27 18 27 29 0 25 28 62 43 56 7 -2
26 15 43 39 25 35 29 47 21 65 -12 25 2 45 38 56 19 5 20 1 20 -55 -1 -54 -4
-62 -26 -72 -13 -7 -34 -31 -47 -54 -20 -37 -22 -47 -12 -83 9 -34 14 -40 31
-35 10 4 19 2 19 -4 0 -5 3 -16 6 -24 8 -22 -32 -42 -52 -27 -11 10 -15 9 -18
-1 -22 -70 -11 -104 19 -59 22 33 37 37 55 15 16 -19 8 -51 -12 -47 -21 3 -24
-3 -32 -58 -5 -35 -4 -41 4 -27 15 23 46 22 72 -3 l21 -19 -26 -10 c-36 -14
-44 -31 -21 -48 16 -12 17 -15 4 -23 -8 -5 -19 -10 -24 -10 -4 0 8 -18 28 -40
20 -22 36 -46 36 -53 0 -19 48 -39 67 -28 9 4 17 23 18 40 3 39 7 43 28 35 12
-4 15 -13 11 -30 -5 -20 -1 -26 27 -38 28 -12 31 -16 17 -21 -10 -4 -18 -17
-18 -28 0 -16 3 -18 12 -9 19 19 40 15 33 -7 -3 -11 -1 -22 5 -26 6 -4 9 -13
6 -20 -2 -7 -2 -25 2 -40 l7 -26 43 38 c24 22 70 48 106 61 67 24 74 32 94
112 6 23 14 35 25 34 14 -2 17 8 17 57 0 41 -4 59 -12 59 -7 0 -74 -13 -148
-29 -74 -16 -136 -28 -137 -27 0 0 -46 161 -100 356 l-100 355 -29 2 c-16 0
-237 -40 -492 -90z"/>
<path d="M19662 9561 c-7 -21 -12 -67 -12 -102 0 -35 -6 -86 -13 -114 -8 -27
-12 -69 -9 -92 3 -33 -1 -46 -19 -64 -12 -12 -41 -50 -63 -83 -23 -34 -51 -66
-64 -72 -12 -6 -34 -22 -47 -34 -20 -19 -27 -21 -39 -11 -18 16 -34 7 -46 -25
-6 -14 -18 -24 -29 -24 -31 0 -44 -48 -36 -134 5 -52 4 -76 -3 -76 -6 0 -28
-11 -48 -25 -20 -14 -40 -25 -44 -25 -4 0 -11 16 -14 35 -4 19 -11 35 -16 35
-13 0 -30 -34 -30 -60 0 -11 -7 -34 -15 -49 -13 -26 -13 -34 1 -75 16 -46 16
-47 -10 -71 -20 -18 -26 -34 -26 -65 0 -38 -2 -40 -30 -40 -44 0 -102 -30 -94
-49 7 -17 6 -66 -1 -91 -3 -10 15 -36 45 -65 27 -28 50 -56 50 -63 0 -21 102
-142 120 -142 9 0 29 -13 45 -30 20 -21 38 -30 61 -30 34 0 59 -21 51 -44 -3
-8 1 -17 9 -20 8 -3 14 -14 14 -25 0 -26 100 -81 133 -74 30 8 63 39 77 74
l12 29 48 -27 47 -26 66 28 c37 16 62 32 56 36 -7 4 -5 19 5 44 16 36 17 37
40 22 23 -15 26 -14 79 23 56 40 77 48 77 30 0 -6 8 -5 20 2 11 7 20 22 20 33
0 11 7 29 15 39 13 17 13 22 -1 37 -15 16 -15 22 1 71 10 29 39 88 64 132 32
56 44 88 43 110 -2 23 4 38 23 56 16 15 23 30 19 42 -3 10 4 30 15 47 16 22
21 44 21 95 0 43 4 66 11 66 34 0 88 -25 100 -47 15 -27 55 -41 78 -26 9 6 30
62 50 137 26 97 38 125 49 121 47 -18 59 -16 66 7 3 13 26 44 50 70 24 25 47
60 51 76 3 17 12 33 19 35 8 3 16 30 20 64 7 68 7 66 0 121 -4 27 -2 42 5 42
6 0 67 -29 135 -65 138 -73 141 -73 140 11 -1 45 -5 55 -42 92 -26 26 -50 42
-65 42 -13 0 -37 10 -52 22 l-28 22 -23 -27 c-13 -15 -30 -27 -38 -27 -8 0
-24 -15 -35 -34 -12 -18 -31 -36 -44 -40 -34 -9 -102 -7 -113 4 -6 6 -22 -9
-44 -41 -30 -45 -37 -50 -62 -45 -24 5 -33 -1 -70 -50 -66 -85 -126 -150 -133
-142 -4 3 -17 73 -29 155 -20 133 -24 148 -42 147 -10 0 -113 -16 -227 -34
-161 -27 -210 -32 -216 -22 -4 7 -18 80 -31 162 -13 83 -27 150 -30 150 -4 0
-12 -17 -18 -39z"/>
<path d="M20495 9408 c-137 -27 -251 -51 -252 -52 -6 -5 30 -231 38 -240 4 -4
13 2 20 15 6 13 34 52 61 86 44 55 52 62 77 57 24 -5 31 0 62 45 37 54 42 57
77 38 12 -7 38 -11 58 -9 28 3 40 12 60 43 14 23 32 39 43 39 10 0 21 7 25 15
7 19 22 21 -269 -37z"/>
<path d="M14545 9263 c-118 -13 -983 -43 -1240 -43 l-315 0 -6 -24 c-4 -18 12
-52 66 -142 118 -194 169 -246 209 -210 17 16 20 15 45 -18 37 -49 34 -80 -14
-132 -22 -24 -40 -52 -40 -62 0 -10 14 -31 30 -47 17 -16 44 -54 62 -85 36
-64 38 -66 88 -74 l37 -6 8 -781 c6 -629 10 -782 21 -786 27 -10 1098 19 1552
42 263 14 491 25 509 25 66 0 101 -131 47 -181 -14 -13 -37 -46 -50 -72 l-25
-48 48 5 c26 3 83 8 126 12 66 5 79 9 89 27 6 12 17 26 25 30 11 7 9 14 -12
38 -35 42 -33 57 8 51 l32 -5 -20 22 c-16 19 -17 24 -5 31 8 6 19 10 23 10 10
0 -2 71 -15 87 -5 7 -7 21 -3 33 8 25 50 27 76 4 16 -14 18 -13 29 20 11 35
32 47 45 26 12 -20 23 -9 34 35 8 33 8 49 0 63 -9 14 -8 25 4 49 20 37 15 43
-38 43 -32 0 -47 6 -67 28 -54 56 -87 179 -56 210 9 9 7 17 -9 34 -11 13 -30
44 -41 70 -11 26 -34 67 -51 92 -27 39 -38 46 -88 57 -53 12 -67 22 -163 112
-132 125 -135 134 -83 275 20 54 35 113 34 133 -1 22 4 41 14 49 23 19 19 26
-36 49 -62 27 -92 29 -143 7 -21 -9 -40 -16 -42 -16 -2 0 -11 15 -21 33 -11
20 -18 53 -18 89 l0 58 -100 101 c-55 55 -122 117 -148 137 -40 30 -55 51 -82
116 -19 43 -42 114 -51 157 -16 72 -16 82 -1 119 l16 42 -35 30 c-18 16 -34
36 -34 42 0 33 -35 46 -116 44 -43 0 -92 -3 -109 -5z"/>
<path d="M20773 9246 c4 -9 2 -29 -5 -44 -6 -15 -10 -48 -9 -74 2 -38 -2 -49
-19 -58 -11 -6 -20 -19 -20 -29 0 -10 -25 -49 -55 -86 -30 -37 -58 -78 -61
-91 -7 -26 -24 -30 -54 -14 -17 9 -21 5 -35 -45 -40 -141 -47 -161 -65 -183
-18 -21 -25 -23 -68 -17 -39 5 -52 12 -66 36 -28 47 -46 38 -46 -24 0 -41 -5
-58 -20 -72 -13 -12 -18 -25 -14 -40 4 -15 -3 -32 -20 -52 -14 -17 -26 -43
-26 -59 0 -15 -20 -62 -45 -103 -24 -42 -51 -95 -59 -118 -13 -38 -13 -42 6
-61 l21 -20 -22 -30 c-11 -17 -21 -39 -21 -50 0 -11 -16 -34 -35 -51 -39 -34
-46 -36 -61 -21 -7 7 -25 -1 -57 -25 -25 -19 -49 -35 -54 -35 -4 0 -16 -11
-28 -25 -11 -13 -54 -40 -96 -59 l-76 -34 -32 19 -32 19 -38 -40 c-33 -35 -43
-40 -82 -40 -55 1 -162 55 -168 85 -3 21 -19 35 -36 34 -5 0 -30 -29 -55 -64
-37 -53 -52 -66 -86 -75 -51 -15 -109 -73 -119 -119 -5 -22 -17 -39 -36 -50
-18 -10 -29 -24 -29 -38 0 -22 -52 -73 -75 -73 -7 0 -15 -13 -18 -30 -4 -16
-12 -30 -19 -30 -19 -1 -125 -70 -107 -70 8 0 150 16 315 35 164 19 307 35
317 35 9 0 17 6 17 14 0 10 17 16 58 21 31 3 69 8 84 10 15 2 28 0 30 -5 2 -5
162 10 375 35 299 36 476 64 910 144 757 141 1281 252 1275 270 -3 10 0 12 13
7 15 -6 17 -2 12 29 -6 36 0 44 21 23 20 -20 14 -1 -17 49 -16 27 -31 60 -35
75 -4 19 -11 26 -22 21 -11 -4 -14 -13 -9 -30 6 -23 4 -24 -27 -18 -18 4 -37
14 -41 21 -10 18 -57 18 -57 0 0 -7 7 -19 15 -26 8 -7 15 -19 15 -27 0 -13 -3
-13 -25 1 -34 22 -50 20 -73 -9 -11 -14 -22 -25 -24 -25 -3 0 -4 19 -4 42 1
41 0 43 -41 58 -28 9 -43 20 -43 31 0 30 -12 52 -20 39 -6 -9 -14 -8 -33 4
-16 11 -34 15 -52 10 -23 -6 -26 -4 -23 12 3 15 12 19 43 20 22 0 50 4 61 8
24 7 54 -15 54 -40 0 -8 6 -14 13 -14 7 0 30 -15 51 -34 l38 -33 24 24 c27 27
35 65 9 43 -15 -12 -35 -6 -35 11 0 5 8 9 18 9 13 0 14 2 3 9 -7 5 -22 6 -32
4 -14 -4 -19 0 -19 17 0 16 -5 21 -23 18 -12 -1 -36 3 -52 11 -30 13 -82 68
-72 77 3 3 27 -9 55 -25 48 -31 72 -37 85 -24 4 3 0 11 -7 17 -15 11 -19 27
-17 57 2 26 44 17 64 -15 22 -35 25 -32 20 20 -4 35 -9 42 -36 50 -21 6 -32
15 -31 27 2 16 -4 18 -61 22 -34 1 -65 16 -65 30 0 7 -21 27 -47 44 -56 37
-140 111 -126 111 22 0 79 -29 97 -49 11 -12 25 -21 32 -21 7 0 29 -13 47 -30
40 -35 47 -36 48 -12 0 13 3 12 11 -5 6 -13 17 -23 24 -23 7 0 19 -3 28 -6 13
-5 16 2 16 43 0 27 -5 54 -11 60 -9 9 -7 16 6 29 16 17 15 19 -26 40 -24 13
-59 23 -77 24 -24 0 -35 5 -38 18 -8 29 -84 57 -84 30 0 -6 -7 -4 -18 5 -11
10 -36 17 -61 17 -34 0 -44 4 -48 20 -3 10 -13 22 -23 25 -10 3 -21 18 -25 33
-6 23 -8 25 -18 12 -18 -23 -61 -42 -87 -38 -39 5 -45 28 -33 115 12 78 12 78
-16 113 -42 52 -51 75 -51 119 0 41 0 41 -39 41 -31 0 -44 6 -60 27 -12 14
-19 34 -16 43 7 22 -37 53 -68 48 -17 -2 -24 -14 -33 -56 -7 -30 -15 -56 -19
-60 -3 -4 -61 22 -127 57 -80 42 -119 58 -115 47z"/>
<path d="M21366 9209 c-38 -11 -63 -35 -76 -75 -25 -73 30 -144 110 -144 34 0
48 6 76 34 28 28 34 42 34 75 0 72 -74 129 -144 110z"/>
<path d="M10083 8099 c-35 -480 -61 -875 -58 -878 3 -2 144 -11 313 -18 169
-7 569 -24 890 -38 507 -22 688 -25 1397 -25 l815 0 0 303 c0 166 -3 447 -7
625 l-6 322 -38 6 c-34 6 -41 13 -70 67 -18 34 -50 80 -72 104 -35 39 -38 46
-32 81 4 27 18 51 45 77 47 46 42 66 -19 69 -34 2 -50 10 -84 43 l-42 41 -555
5 c-837 9 -1807 43 -2335 82 l-80 6 -62 -872z"/>
<path d="M22151 8683 c-34 -17 -49 -28 -41 -33 16 -10 5 -61 -13 -57 -6 1 -11
-6 -9 -15 1 -9 -9 -44 -23 -78 -24 -56 -25 -67 -19 -169 5 -81 11 -114 25
-132 25 -33 33 -18 35 62 1 38 4 73 8 76 3 4 6 19 6 35 0 15 5 28 11 28 5 0 8
4 5 8 -2 4 0 14 5 22 18 28 37 -14 31 -68 -2 -26 -1 -44 3 -40 4 4 11 70 15
146 5 105 10 144 23 162 20 29 23 80 5 80 -7 -1 -37 -12 -67 -27z"/>
<path d="M18000 8639 c-14 -6 -44 -9 -67 -6 -49 5 -58 -7 -33 -43 10 -14 21
-39 24 -56 7 -30 4 -32 -94 -97 -83 -56 -104 -66 -120 -57 -10 5 -21 10 -23
10 -9 0 -27 -63 -27 -94 0 -26 -13 -44 -65 -96 -91 -89 -125 -145 -125 -202 0
-51 -15 -63 -90 -72 -34 -3 -53 0 -77 15 -18 12 -33 25 -33 29 0 5 -16 0 -35
-11 -26 -16 -36 -30 -41 -57 -4 -20 -19 -54 -34 -74 l-27 -37 -43 44 -43 44
-39 -21 c-22 -12 -49 -41 -64 -65 -13 -24 -27 -43 -29 -43 -2 0 -30 16 -62 35
-60 36 -141 49 -140 23 1 -41 -4 -48 -33 -48 -18 0 -33 6 -36 15 -4 10 -20 15
-46 15 -35 0 -39 -2 -33 -20 8 -24 -20 -74 -35 -65 -12 7 -59 -44 -60 -63 0
-8 9 -27 21 -43 14 -19 19 -38 15 -53 -5 -19 -14 -25 -56 -30 -35 -5 -53 -13
-60 -26 -9 -16 -15 -18 -30 -10 -27 14 -27 14 -33 -27 -5 -31 -2 -42 17 -63
20 -21 23 -31 17 -65 -10 -63 -39 -67 -150 -20 -99 41 -92 42 -153 -14 -33
-30 -36 -54 -7 -73 20 -13 21 -15 5 -52 -12 -30 -13 -42 -5 -53 9 -10 8 -29
-6 -78 -14 -53 -22 -66 -41 -71 -12 -3 -28 -3 -33 1 -6 3 -11 1 -11 -6 0 -9
22 -10 88 -6 48 3 178 12 290 18 221 14 214 11 187 76 -8 19 -15 38 -15 40 0
3 37 3 83 0 91 -5 622 37 677 53 19 6 143 17 275 25 132 8 267 20 301 25 33 5
187 19 341 30 158 11 311 27 350 36 97 24 281 129 289 166 4 18 15 29 33 33
37 9 61 34 61 62 0 16 10 29 30 41 19 11 30 25 30 40 0 33 84 120 130 133 29
9 49 27 89 80 l52 69 -25 10 c-14 5 -31 18 -38 30 -7 11 -22 20 -34 20 -14 0
-40 25 -82 79 -34 44 -62 84 -62 89 0 5 -22 31 -49 58 l-50 49 10 49 c6 34 6
53 -2 62 -6 7 -9 19 -6 26 8 23 -31 65 -77 82 -39 15 -45 21 -55 61 l-11 45
-35 -17 c-19 -9 -38 -27 -43 -41 -11 -33 -78 -57 -107 -38 -47 31 -125 31
-125 0 0 -10 -12 -14 -38 -14 -30 0 -45 7 -67 30 -20 21 -37 30 -55 28 -14 -1
-53 1 -87 6 -47 6 -63 12 -63 24 0 32 -52 104 -86 118 -18 8 -35 14 -36 13 -2
0 -14 -5 -28 -10z"/>
<path d="M4486 7868 c-3 -7 -23 -109 -45 -226 -40 -206 -43 -215 -78 -258 -31
-37 -43 -44 -73 -44 -33 0 -38 4 -56 42 -16 34 -27 44 -62 56 -41 13 -111 10
-112 -6 -1 -4 -7 -81 -14 -172 -7 -91 -9 -194 -6 -230 9 -80 -1 -138 -35 -213
-32 -69 -29 -102 14 -168 18 -27 33 -70 41 -114 10 -56 19 -77 45 -105 47 -50
53 -89 18 -122 -15 -14 -52 -34 -82 -44 -77 -27 -113 -79 -142 -203 -16 -73
-30 -106 -57 -143 -20 -26 -44 -48 -54 -48 -12 0 -19 -10 -22 -32 -3 -18 -10
-56 -14 -84 -10 -58 2 -84 36 -84 11 0 30 -13 41 -29 19 -27 20 -31 6 -72 -21
-59 -76 -99 -138 -99 -52 0 -75 -20 -83 -72 l-6 -35 853 -499 854 -499 485
-71 c430 -63 486 -69 492 -55 10 22 460 3250 455 3264 -2 7 -217 43 -548 93
-299 45 -799 127 -1111 183 -312 56 -575 101 -583 101 -9 0 -17 -6 -19 -12z"/>
<path d="M21765 7724 c-192 -41 -602 -121 -910 -179 -457 -84 -625 -111 -910
-144 -192 -23 -365 -44 -382 -47 l-33 -5 0 -69 c0 -66 -1 -70 -23 -70 -36 0
-53 -19 -88 -97 -17 -40 -36 -73 -41 -73 -5 0 -22 7 -38 15 -28 14 -32 14 -69
-12 -23 -16 -45 -42 -51 -59 -6 -17 -24 -40 -40 -52 l-29 -22 -25 31 -26 30
-40 -33 c-22 -18 -42 -43 -45 -55 -3 -13 -7 -34 -10 -48 -4 -19 -21 -33 -70
-57 -36 -18 -65 -38 -65 -44 0 -7 -21 -30 -48 -52 -35 -30 -60 -42 -97 -48
-30 -4 -73 -22 -107 -43 -56 -34 -58 -38 -69 -93 -12 -62 -33 -84 -85 -90 -27
-3 -29 -6 -35 -58 -3 -30 -5 -56 -4 -58 2 -2 121 13 266 33 218 30 276 42 333
66 38 16 76 29 84 29 9 0 59 26 112 57 l95 57 319 30 c295 28 319 29 331 13 8
-12 15 -13 23 -5 18 18 121 -79 121 -114 1 -16 5 -28 10 -28 4 0 119 16 254
35 l247 36 57 -39 c32 -22 181 -125 331 -230 l273 -191 62 30 c74 34 150 47
172 29 19 -16 31 12 44 105 13 97 39 148 124 246 97 110 161 163 243 200 96
42 149 53 183 36 l28 -14 42 85 c23 46 40 86 37 89 -2 3 -12 -9 -21 -27 -13
-25 -19 -29 -30 -20 -12 10 -10 17 11 46 26 34 29 64 6 72 -7 2 -10 -2 -6 -12
9 -23 -35 -21 -52 2 -12 16 -14 16 -29 -5 -9 -13 -27 -23 -40 -23 l-25 0 24
63 c14 38 21 74 18 95 -4 28 -8 32 -33 32 -29 0 -38 13 -18 26 6 4 55 8 108 9
93 3 96 4 123 34 20 23 28 42 28 69 0 42 22 68 74 90 27 12 28 15 21 60 -4 26
-20 71 -37 100 -26 46 -33 52 -61 52 -22 0 -36 -7 -46 -21 -10 -18 -15 -19
-22 -8 -11 18 -73 12 -122 -12 -21 -11 -42 -17 -48 -14 -5 4 -21 0 -34 -9 -13
-9 -42 -20 -65 -25 l-41 -9 3 31 c3 30 5 32 39 29 29 -2 39 2 53 22 9 14 38
35 65 46 26 12 63 37 82 56 42 44 84 46 115 7 27 -33 35 -29 26 13 -7 31 -140
185 -158 183 -5 0 -166 -34 -359 -75z"/>
<path d="M6790 7505 c0 -2 -103 -741 -230 -1642 -126 -900 -227 -1639 -224
-1642 4 -4 388 -61 390 -58 1 1 9 60 18 132 9 71 19 131 21 134 4 3 660 -79
755 -96 l35 -6 -19 21 c-15 17 -18 32 -14 72 3 28 7 52 9 54 2 2 191 -16 419
-40 488 -52 1332 -125 1341 -115 3 3 52 599 110 1324 71 904 107 1317 115
1317 7 0 13 42 17 122 4 67 5 123 4 125 -2 2 -314 32 -694 68 -548 51 -1849
198 -2025 230 -16 2 -28 3 -28 0z"/>
<path d="M19412 7345 c-7 -13 -89 -25 -397 -61 -213 -24 -422 -53 -464 -63
-49 -13 -165 -25 -331 -35 -140 -9 -300 -23 -355 -31 -55 -8 -199 -19 -320
-26 -121 -6 -231 -16 -245 -21 -39 -15 -654 -68 -664 -57 -6 5 -25 9 -43 9
l-33 0 15 -36 c12 -29 13 -40 3 -53 -7 -9 -13 -17 -13 -18 -1 -2 -140 -12
-310 -23 -239 -16 -313 -24 -325 -35 -10 -9 -24 -13 -32 -10 -11 4 -13 -2 -10
-29 2 -19 -1 -37 -8 -41 -8 -5 -7 -12 5 -25 16 -17 15 -20 -10 -36 -18 -12
-23 -20 -16 -27 17 -17 13 -57 -4 -57 -9 0 -21 -12 -27 -26 -11 -24 -10 -29
10 -42 18 -12 20 -17 10 -36 -6 -11 -14 -34 -18 -51 -4 -21 -12 -31 -28 -33
-12 -2 -22 -7 -22 -11 0 -5 -15 -12 -32 -16 -28 -7 -30 -9 -11 -12 32 -6 39
-40 15 -66 -14 -15 -19 -30 -15 -48 4 -24 2 -26 -21 -22 -22 5 -26 2 -26 -20
0 -32 -10 -58 -20 -52 -14 8 -18 -44 -4 -56 7 -6 10 -17 7 -25 -3 -8 0 -21 7
-29 19 -23 -6 -65 -37 -65 -13 0 -23 -4 -23 -10 0 -14 -2 -14 494 20 649 45
1543 124 1934 172 l342 41 0 62 c0 51 4 65 23 83 13 12 35 22 49 22 34 0 45
15 53 73 6 37 14 53 39 72 53 40 127 75 159 75 33 0 113 54 123 83 3 10 35 32
70 50 62 30 64 33 70 77 6 40 13 51 66 94 47 38 64 47 83 42 19 -5 25 -13 25
-34 l1 -27 19 24 c11 13 20 29 20 37 0 7 25 32 56 55 52 38 58 40 85 29 16 -7
31 -11 33 -9 2 2 16 29 31 59 33 66 62 100 87 100 15 0 18 8 18 55 l0 55 -40
0 c-25 0 -42 -6 -48 -15z"/>
<path d="M9576 7177 c-3 -17 -7 -73 -9 -123 l-4 -91 71 -6 c39 -4 352 -23 696
-43 344 -20 628 -40 631 -43 3 -3 -2 -235 -12 -516 -24 -692 -26 -621 14 -641
17 -10 48 -35 68 -58 35 -39 38 -40 63 -27 23 13 30 13 58 -1 30 -14 33 -13
48 4 15 18 16 18 58 -12 30 -23 42 -39 42 -57 0 -46 17 -63 62 -63 26 0 57 -9
84 -25 38 -22 48 -24 86 -16 39 9 45 8 70 -16 l27 -26 23 28 24 27 56 -16 c46
-14 61 -24 82 -56 22 -34 32 -40 62 -40 34 0 35 -1 29 -34 -10 -49 14 -52 64
-9 l42 35 38 -25 c29 -19 42 -22 55 -15 20 11 36 -3 36 -34 0 -33 23 -31 51 3
27 33 29 34 56 18 24 -13 28 -20 25 -51 -5 -52 13 -55 44 -6 14 24 33 54 41
67 l15 23 37 -36 c37 -36 65 -43 106 -27 14 6 28 2 48 -15 16 -13 36 -24 44
-24 9 0 24 -7 34 -16 26 -24 95 -3 103 32 7 25 8 26 94 23 81 -3 91 -1 150 29
l62 32 10 -26 c8 -21 15 -25 33 -20 12 3 37 6 54 6 26 0 34 5 39 25 3 14 7 25
9 25 20 0 93 -43 143 -85 48 -40 79 -57 128 -70 36 -10 67 -16 69 -13 2 2 9
229 14 504 l11 499 -55 320 c-42 247 -55 344 -55 425 0 58 -3 122 -6 143 l-7
37 -785 0 c-432 0 -881 5 -997 10 -115 6 -527 24 -915 40 -698 29 -1036 46
-1117 55 -41 4 -42 4 -47 -28z"/>
<path d="M9535 6875 c-3 -27 -51 -624 -106 -1325 -56 -701 -102 -1276 -102
-1276 -11 -9 -1606 140 -1734 161 -32 6 -33 5 -33 -27 1 -37 41 -91 77 -102
12 -4 25 -15 28 -25 3 -10 21 -44 40 -76 19 -31 35 -63 35 -69 0 -19 41 -53
86 -71 28 -11 52 -31 74 -63 18 -26 54 -69 80 -97 27 -27 51 -60 54 -71 4 -12
24 -34 46 -48 22 -14 40 -32 40 -39 0 -18 42 -57 61 -57 9 0 35 -18 59 -40 24
-22 49 -40 57 -40 7 0 13 -8 13 -17 0 -9 9 -26 20 -38 11 -12 23 -42 26 -71 4
-30 22 -75 47 -116 33 -58 38 -73 33 -105 -13 -75 -6 -126 25 -180 16 -29 29
-64 29 -79 0 -28 82 -113 111 -114 17 0 49 -30 49 -46 0 -20 97 -102 135 -115
22 -7 52 -26 66 -42 19 -22 37 -30 72 -34 40 -5 50 -11 73 -44 15 -22 32 -39
39 -39 7 0 24 -9 38 -20 14 -12 40 -20 61 -20 31 0 36 3 36 24 0 15 7 27 18
31 11 3 24 17 30 30 6 14 20 25 30 25 28 0 48 29 62 90 7 30 36 91 64 137 46
75 56 84 97 98 25 9 58 13 75 9 25 -5 33 -1 48 20 l17 26 52 -27 c36 -19 75
-29 127 -34 41 -4 94 -13 118 -20 38 -12 47 -11 72 3 27 15 32 15 60 2 16 -9
30 -19 30 -22 0 -12 68 -82 79 -82 6 0 11 -11 11 -24 0 -18 11 -31 45 -50 25
-15 45 -33 45 -40 0 -8 30 -42 68 -77 70 -66 122 -139 122 -176 0 -11 16 -49
35 -83 20 -35 35 -76 35 -94 0 -22 8 -40 25 -56 14 -13 25 -31 25 -40 0 -9 9
-25 20 -35 14 -13 17 -22 10 -29 -15 -15 -12 -53 5 -60 9 -3 15 -18 15 -35 0
-24 12 -39 65 -82 40 -33 70 -65 77 -86 7 -18 17 -33 23 -33 16 0 35 -44 35
-79 0 -21 12 -38 49 -69 27 -23 55 -42 61 -42 7 0 25 -9 40 -20 35 -25 55 -98
41 -148 -9 -28 -7 -39 11 -62 18 -25 20 -38 15 -89 -6 -50 -4 -61 8 -61 9 0
15 -9 15 -21 0 -12 17 -40 38 -63 31 -33 41 -55 51 -106 7 -36 20 -76 29 -90
9 -14 19 -34 22 -44 4 -14 26 -26 77 -41 40 -13 88 -36 109 -54 23 -18 50 -31
67 -31 36 0 59 -13 122 -65 28 -23 59 -45 70 -50 11 -4 82 -11 159 -15 l138
-6 54 -57 c51 -54 94 -74 94 -44 0 8 11 24 24 36 18 17 32 22 50 17 33 -8 33
1 -2 44 -41 50 -52 74 -52 115 0 42 -25 95 -44 95 -23 0 -25 46 -3 65 29 25
17 119 -18 147 -20 15 -25 29 -25 63 0 27 6 47 16 56 11 9 15 25 12 51 -3 31
0 38 14 38 14 0 18 8 18 33 0 32 -1 32 -39 29 -48 -5 -63 14 -19 23 72 14 108
52 108 112 0 16 12 50 26 77 l26 49 -23 18 c-13 10 -27 19 -30 19 -4 0 -9 11
-11 25 -6 31 30 58 66 49 14 -3 33 -3 44 0 20 7 72 92 72 118 0 18 31 48 50
48 8 0 31 12 51 26 27 18 35 31 32 44 -3 11 -2 32 1 46 6 24 8 25 25 10 10 -9
27 -16 39 -16 28 0 132 46 132 59 0 12 -57 60 -87 74 -12 5 -27 23 -33 40 -13
39 -14 37 14 37 17 0 26 -7 30 -25 14 -54 83 -53 126 2 39 49 90 7 62 -51 -17
-35 -22 -56 -13 -56 4 0 10 3 14 6 3 3 47 25 99 48 51 24 140 71 198 104 58
34 111 62 119 62 7 0 45 31 85 68 76 72 160 143 215 182 30 21 32 24 15 33
-11 5 -40 30 -66 55 -55 53 -61 85 -26 133 23 31 80 69 102 69 23 0 40 -54 26
-81 -11 -19 -10 -24 6 -36 10 -7 31 -13 47 -13 34 0 32 -19 -4 -37 -28 -14
-87 -73 -73 -73 6 0 21 11 33 24 12 13 44 32 69 42 26 9 98 41 161 71 62 29
124 53 137 53 l24 0 -21 41 c-20 40 -20 41 -1 55 10 7 36 41 56 74 30 52 36
71 36 118 0 31 -5 75 -10 97 -7 31 -6 43 6 56 14 15 14 20 -1 49 -16 31 -16
32 29 115 45 81 46 85 46 174 0 51 -4 91 -9 91 -6 0 -15 26 -22 59 -9 46 -22
72 -64 124 -48 61 -53 72 -59 134 -6 59 -12 73 -41 103 -18 19 -38 53 -44 75
-6 23 -16 228 -22 470 -7 237 -13 432 -15 433 -8 10 -83 4 -111 -8 -31 -14
-34 -13 -66 18 -24 23 -57 39 -122 58 -73 22 -101 36 -145 74 -30 26 -65 53
-78 59 -21 11 -24 10 -29 -8 -5 -19 -13 -21 -88 -21 -65 0 -84 3 -89 15 -5 13
-16 10 -67 -16 -52 -26 -66 -29 -86 -20 -37 17 -103 3 -113 -24 -12 -31 -113
-54 -139 -31 -10 9 -26 16 -36 16 -10 0 -27 8 -38 18 -13 12 -36 17 -78 17
-46 1 -63 6 -82 23 l-23 21 -24 -45 c-23 -41 -57 -74 -78 -74 -14 0 -43 71
-37 91 9 27 -4 24 -40 -11 l-31 -30 -32 23 c-17 12 -32 28 -32 35 0 7 -5 10
-10 7 -6 -3 -23 3 -39 14 -37 27 -39 27 -77 -10 l-33 -32 -46 19 c-39 16 -45
22 -40 42 4 17 1 22 -15 22 -14 0 -30 15 -48 44 -20 33 -36 47 -62 54 -31 8
-38 6 -67 -21 l-33 -31 -30 29 c-26 25 -37 28 -79 26 -36 -2 -62 4 -100 23
-28 14 -64 26 -81 26 -46 0 -70 16 -70 48 0 54 -48 93 -68 55 -9 -15 -13 -14
-42 7 -23 17 -34 20 -43 11 -26 -26 -68 -12 -115 38 -26 26 -62 54 -80 61
l-33 13 6 141 c12 270 34 990 31 994 -3 2 -303 21 -1338 84 l-47 3 -6 -50z"/>
<path d="M14945 6855 c-242 -13 -666 -27 -942 -32 -276 -5 -505 -11 -507 -14
-3 -3 18 -140 45 -304 l51 -300 -7 -531 -7 -531 27 -21 c25 -20 29 -21 58 -6
26 14 38 14 89 4 l58 -13 0 -158 0 -159 203 6 c111 3 419 11 684 18 462 11
483 12 497 31 20 26 20 84 0 110 -23 31 -37 94 -24 110 9 11 7 17 -9 27 -25
15 -28 56 -5 65 12 4 13 8 3 14 -10 6 -9 23 5 84 35 146 32 142 82 161 l45 17
-20 21 -20 21 42 80 c37 69 47 80 72 83 48 6 55 18 55 97 0 70 2 77 42 134 23
34 50 64 61 67 16 5 18 13 14 45 -4 34 -2 41 24 60 16 11 32 31 35 45 3 13 12
24 19 24 19 0 25 48 7 55 -10 4 -12 14 -8 40 6 31 4 35 -14 35 -11 0 -20 4
-20 8 0 16 48 54 59 47 7 -4 11 7 11 29 0 27 4 36 16 36 9 0 22 8 29 17 10 14
9 22 -8 45 -20 27 -20 28 -2 48 10 11 28 20 40 20 30 0 50 26 47 61 -3 22 1
29 15 30 15 0 15 2 -4 11 -16 8 -64 7 -165 0 -78 -6 -144 -9 -146 -7 -8 8 90
176 109 188 23 14 24 38 4 77 l-16 30 -92 -1 c-50 -1 -290 -12 -532 -24z"/>
<path d="M1231 6800 c10 -27 15 -30 55 -30 l44 0 -15 24 c-13 20 -52 36 -86
36 -4 0 -3 -13 2 -30z"/>
<path d="M1380 6801 c0 -20 7 -31 25 -39 32 -15 131 -16 140 -2 3 6 -4 10 -17
10 -13 0 -51 13 -85 30 l-63 29 0 -28z"/>
<path d="M19580 6523 l-245 -24 -102 -60 c-56 -32 -109 -59 -117 -59 -9 0 -40
-11 -71 -24 -45 -20 -55 -29 -55 -49 0 -16 -9 -28 -26 -35 -24 -11 -54 -64
-54 -96 0 -8 34 -35 76 -61 61 -39 82 -46 111 -43 33 4 39 0 80 -51 24 -31 46
-67 50 -81 15 -57 154 -199 196 -200 26 0 86 -48 104 -84 19 -36 49 -63 83
-71 34 -9 110 -84 110 -110 0 -31 56 -80 132 -115 66 -31 67 -32 117 -126 29
-53 51 -108 51 -124 0 -26 8 -34 54 -60 46 -26 59 -41 89 -98 19 -37 38 -83
42 -104 7 -36 7 -36 61 -40 30 -1 54 0 54 3 0 4 16 17 35 30 22 15 38 35 42
52 4 18 21 38 48 57 49 34 67 77 39 97 -22 16 -2 43 26 36 14 -4 34 7 63 33
23 22 60 47 82 57 35 16 85 71 85 95 0 5 30 35 66 67 59 52 65 60 49 71 -16
12 -16 14 1 39 9 14 24 25 33 24 45 -4 71 2 71 17 0 8 15 29 34 47 34 32 35
33 38 127 3 94 4 96 56 186 48 84 108 154 143 166 8 3 12 7 9 10 -5 5 -505
353 -583 407 l-49 33 -251 -36 c-139 -20 -260 -36 -269 -36 -14 0 -18 8 -18
38 0 30 -7 45 -30 67 -27 26 -33 28 -51 17 -26 -17 -59 -6 -59 19 0 25 -28 24
-350 -8z"/>
<path d="M1932 6279 c16 -37 29 -54 52 -63 17 -8 35 -10 39 -6 19 17 -62 120
-94 120 -17 0 -16 -4 3 -51z"/>
<path d="M18694 6290 c-144 -20 -398 -54 -565 -75 -167 -21 -305 -39 -307 -41
-2 -1 72 -266 163 -590 167 -595 218 -745 271 -795 18 -17 24 -33 24 -66 0
-37 4 -45 25 -55 35 -16 33 -58 -5 -120 -21 -34 -30 -62 -31 -96 -1 -26 -4
-60 -8 -77 -5 -22 2 -50 25 -105 31 -73 32 -78 24 -158 -9 -89 -4 -116 28
-145 11 -10 23 -30 27 -44 3 -14 24 -59 46 -100 40 -71 42 -73 79 -73 21 0
310 18 641 40 332 22 618 40 635 40 31 0 33 -2 39 -45 9 -54 26 -72 49 -50 20
21 21 93 1 119 -8 11 -15 41 -15 67 0 44 3 49 36 70 35 21 37 21 72 4 22 -10
72 -20 120 -23 95 -6 90 -12 71 108 -11 67 -11 73 19 157 18 52 34 120 38 165
4 46 12 82 20 89 22 18 17 57 -7 64 l-21 7 21 15 c27 18 121 157 121 178 0 10
-9 15 -29 15 -15 0 -49 3 -74 6 -42 6 -46 9 -52 41 -3 20 -22 68 -42 108 -32
65 -41 75 -88 98 -48 23 -53 29 -59 69 -4 23 -27 80 -52 126 -45 81 -48 85
-111 113 -66 30 -142 98 -143 130 0 21 -57 74 -110 102 -25 13 -55 39 -67 58
-31 47 -65 79 -83 79 -49 0 -204 152 -225 220 -4 14 -24 46 -44 72 -33 43 -39
47 -68 41 -27 -4 -47 4 -123 52 -78 49 -90 60 -90 85 0 43 36 115 65 128 14 6
25 16 25 22 0 5 -1 10 -2 9 -2 -1 -121 -18 -264 -39z"/>
<path d="M17190 6120 c-294 -27 -545 -49 -558 -49 -18 -1 -21 -4 -13 -18 5
-11 2 -355 -9 -913 l-17 -895 57 -433 c32 -238 59 -434 61 -436 2 -2 20 -6 39
-10 35 -6 36 -5 63 49 15 31 27 68 27 84 0 35 22 55 52 47 39 -10 134 -215
101 -216 -5 0 -19 -10 -33 -21 l-25 -20 35 6 c62 12 135 37 157 54 18 15 21
30 23 102 3 112 4 109 -28 120 -16 5 -45 29 -65 54 -34 40 -36 47 -30 90 3 26
11 49 17 51 6 2 297 33 646 70 349 36 637 68 639 70 2 2 -5 15 -15 30 -48 66
-51 77 -42 165 9 80 8 85 -22 158 -32 75 -32 75 -21 168 8 68 19 107 39 144
l27 50 -22 19 c-18 14 -23 29 -23 63 0 32 -6 49 -21 63 -12 10 -40 55 -62 99
-32 63 -77 209 -213 690 l-172 610 -28 2 c-16 0 -270 -21 -564 -47z"/>
<path d="M16035 6029 c-214 -15 -406 -28 -425 -28 l-35 -1 3 -44 c3 -39 1 -44
-21 -50 -14 -3 -41 -28 -63 -58 -38 -52 -38 -55 -36 -129 3 -72 2 -77 -22 -92
-14 -10 -36 -17 -48 -17 -30 0 -99 -123 -80 -142 26 -26 14 -57 -33 -80 -25
-12 -47 -29 -49 -37 -3 -9 -12 -47 -21 -85 -15 -67 -15 -70 5 -91 l20 -22 -26
-12 -27 -12 21 -15 c22 -15 30 -58 13 -68 -12 -8 -2 -45 22 -79 16 -23 18 -38
13 -80 -5 -31 -16 -61 -28 -74 -11 -12 -20 -33 -20 -47 0 -47 34 -171 52 -187
12 -10 16 -24 13 -41 -3 -18 4 -35 26 -60 26 -30 31 -44 31 -87 0 -44 -3 -51
-20 -51 -18 0 -18 -1 -3 -29 l17 -28 -81 -114 c-123 -174 -147 -228 -168 -387
-10 -73 -15 -135 -12 -139 6 -5 703 29 875 43 l72 6 0 -34 c0 -18 -6 -42 -14
-53 -7 -11 -19 -44 -25 -73 l-11 -54 62 -85 c34 -47 62 -98 63 -112 1 -14 11
-41 22 -58 l19 -33 42 44 c23 24 42 52 42 61 0 14 6 16 28 12 16 -3 66 7 126
25 l98 31 43 -23 c36 -19 51 -22 100 -17 32 3 63 11 68 16 8 8 -6 143 -48 453
l-58 443 17 892 c12 645 14 898 6 913 -14 26 -40 25 -545 -11z"/>
<path d="M1860 6012 c0 -32 53 -91 65 -73 3 6 -1 18 -10 27 -8 9 -22 29 -30
45 -19 36 -25 37 -25 1z"/>
<path d="M14408 4772 l-596 -15 4 -246 c6 -282 13 -330 60 -385 33 -38 37 -51
49 -138 5 -37 17 -60 56 -107 38 -46 52 -72 61 -115 7 -35 16 -56 24 -56 11 0
14 -23 14 -105 0 -103 -1 -106 -42 -189 -41 -84 -42 -86 -26 -118 15 -31 14
-35 -2 -56 -15 -18 -17 -29 -9 -55 5 -17 9 -59 9 -93 0 -52 -5 -71 -34 -120
-19 -33 -42 -67 -50 -76 -20 -23 -20 -31 2 -51 16 -15 21 -15 62 0 29 10 93
17 175 20 l130 5 130 -50 c99 -39 153 -54 228 -63 86 -10 100 -10 115 4 10 9
36 21 58 26 21 5 34 9 27 10 -6 1 -21 14 -33 30 l-20 30 44 30 c53 37 96 41
96 10 0 -20 4 -21 68 -18 67 4 67 4 70 -24 2 -15 12 -31 22 -37 10 -5 20 -20
24 -33 4 -19 16 -25 68 -36 62 -12 108 -41 108 -68 0 -7 -6 -13 -13 -13 -8 0
-22 -9 -33 -21 -18 -20 -18 -21 0 -34 19 -14 101 -35 137 -35 11 0 39 -18 64
-41 24 -22 50 -39 57 -36 10 4 10 6 1 6 -28 2 -11 28 25 37 28 7 38 15 40 32
2 13 10 26 18 29 8 3 14 14 14 24 0 12 7 19 20 19 15 0 20 -7 20 -25 0 -21 5
-25 28 -25 21 0 32 7 41 26 15 34 34 26 45 -19 6 -21 16 -37 24 -37 12 0 12
-3 2 -15 -7 -9 -10 -18 -7 -21 8 -8 79 31 105 59 l23 24 -22 6 c-17 5 -20 10
-14 29 4 13 9 40 12 60 5 37 30 57 52 43 5 -3 12 -1 16 5 10 17 44 11 55 -9 7
-13 7 -28 0 -45 -9 -25 -8 -26 28 -26 51 0 162 -38 169 -59 9 -26 46 -51 75
-51 15 0 38 -4 52 -10 33 -12 70 4 85 37 16 35 14 53 -8 53 -10 0 -30 16 -45
35 -29 38 -74 55 -145 55 -30 0 -61 10 -102 32 -55 30 -59 35 -59 69 0 28 5
39 25 49 21 11 23 15 10 22 -8 5 -15 16 -15 23 0 11 13 15 53 15 50 0 53 2 81
42 l29 41 -33 27 c-28 23 -31 29 -21 48 9 18 8 22 -10 27 -31 10 -77 -38 -81
-84 -4 -43 -34 -54 -63 -21 -10 11 -29 20 -42 20 -17 0 -23 6 -23 23 0 30 15
51 29 42 18 -10 58 20 65 50 5 18 0 37 -14 60 -11 18 -18 39 -15 47 3 8 -23
55 -60 105 l-65 92 13 63 c8 35 19 74 26 86 7 13 11 26 8 28 -3 3 -217 -7
-477 -21 -259 -15 -473 -25 -474 -24 -2 2 7 80 21 173 20 138 30 181 55 230
24 48 121 195 179 272 5 6 -2 26 -16 47 -14 20 -25 38 -25 41 0 4 14 6 30 6
27 0 30 3 30 33 0 24 -9 41 -31 62 -22 22 -29 37 -27 58 2 15 -3 31 -9 35 -11
7 -51 157 -55 208 -2 23 -5 24 -78 22 -41 -1 -344 -8 -672 -16z m1425 -1498
c18 -9 36 -23 40 -30 4 -8 21 -14 37 -14 61 0 102 -40 81 -78 -7 -12 -11 -10
-23 7 l-16 22 -28 -34 c-46 -54 -110 -69 -199 -45 -41 11 -45 15 -45 43 0 21
9 40 29 59 16 16 35 41 41 57 14 33 36 37 83 13z m-162 -14 c10 -6 19 -18 19
-27 0 -23 -50 -73 -72 -73 -28 0 -25 66 5 91 26 22 24 21 48 9z"/>
<path d="M3000 4240 c-48 -35 -62 -40 -109 -40 -39 0 -57 5 -66 17 -12 16 -19
13 -85 -31 -64 -42 -78 -47 -114 -43 -22 2 -52 -2 -66 -9 -14 -7 -74 -61 -134
-120 l-110 -107 -68 6 c-37 3 -78 13 -90 21 -12 9 -26 16 -29 16 -4 0 -23 -22
-43 -49 -47 -64 -48 -101 -2 -136 51 -39 96 -147 96 -230 0 -64 1 -65 38 -89
20 -14 57 -28 82 -32 67 -10 74 -19 49 -64 -18 -32 -20 -43 -11 -69 7 -19 7
-31 1 -31 -5 0 -2 -11 7 -25 16 -24 15 -25 -5 -25 -12 0 -36 -7 -52 -16 -29
-14 -34 -14 -115 18 -82 32 -84 34 -84 67 0 19 7 42 16 52 9 10 14 25 11 34
-5 12 -26 15 -112 15 -66 0 -105 -4 -105 -10 0 -6 8 -23 17 -38 l18 -27 -37
28 -37 27 -103 -15 c-144 -22 -149 -31 -61 -111 62 -56 67 -63 57 -85 -15 -32
-35 -89 -41 -115 -4 -17 8 -33 57 -73 55 -46 66 -51 111 -51 30 0 74 -10 111
-25 55 -22 70 -24 147 -18 47 3 89 11 93 16 12 19 38 -14 38 -49 0 -31 -2 -34
-31 -34 l-32 0 7 -89 7 -89 -40 -31 c-42 -33 -74 -38 -127 -19 -29 10 -37 8
-81 -20 -67 -43 -95 -42 -116 3 -15 31 -21 35 -55 35 -43 0 -102 -45 -102 -78
0 -12 -17 -28 -49 -45 -27 -15 -81 -53 -120 -85 -68 -55 -71 -59 -71 -100 0
-65 23 -112 55 -112 14 0 28 -7 32 -16 5 -15 0 -21 -36 -43 -10 -6 -11 -13 -2
-29 10 -19 8 -23 -19 -37 -37 -19 -37 -31 -3 -81 14 -21 32 -63 39 -93 15 -62
15 -63 73 -85 46 -18 88 -11 138 21 21 14 22 13 32 -24 6 -21 11 -63 11 -94 0
-49 -3 -59 -25 -73 -22 -15 -25 -23 -25 -82 0 -57 -3 -67 -20 -71 -11 -3 -17
-9 -14 -14 8 -14 66 -10 78 5 6 8 38 17 72 20 l61 7 24 -35 c18 -27 27 -32 41
-25 20 11 22 8 38 -61 7 -30 17 -60 22 -67 16 -21 38 -3 38 32 0 19 8 39 20
50 19 17 20 17 29 -6 5 -13 12 -32 15 -41 7 -22 33 -23 106 -3 30 8 56 15 56
15 1 0 4 -9 7 -20 4 -14 -1 -24 -16 -31 -48 -25 -78 -66 -114 -157 l-38 -95
-58 -28 c-70 -33 -97 -55 -97 -81 0 -14 -6 -18 -22 -16 -13 2 -76 -15 -140
-37 l-118 -40 -24 -57 c-21 -48 -28 -56 -46 -51 -15 4 -20 11 -17 24 7 26 -22
46 -73 51 -41 4 -54 -2 -141 -54 -69 -41 -107 -58 -132 -58 -31 0 -35 -3 -39
-30 -4 -23 -1 -30 13 -30 12 0 16 6 12 20 -4 15 0 20 16 20 14 0 21 -6 21 -20
0 -35 37 -25 46 13 l7 32 9 -32 c13 -51 54 -46 107 12 41 45 79 61 67 29 -17
-46 59 -57 154 -24 69 24 87 25 93 2 4 -14 6 -14 12 5 7 21 13 23 89 23 60 0
88 4 105 17 22 15 23 17 7 29 -30 21 -11 54 30 54 24 0 34 5 34 15 0 13 7 15
34 10 25 -5 35 -3 39 9 4 9 18 16 31 16 14 0 50 11 80 24 40 18 55 30 58 47 2
17 19 29 73 52 39 16 87 45 108 63 37 34 65 42 82 25 20 -19 71 15 94 61 16
33 32 50 61 63 47 21 56 40 35 71 -11 16 -25 24 -45 24 -26 0 -30 4 -30 26 0
36 17 64 40 64 11 0 24 9 30 20 6 10 25 22 43 25 39 8 112 74 131 119 7 18 40
64 73 102 50 58 71 74 126 96 80 33 114 26 140 -28 10 -19 17 -37 17 -39 0
-12 -45 -3 -62 11 -17 16 -20 15 -58 -10 -22 -14 -49 -26 -60 -26 -16 0 -20
-7 -20 -37 0 -27 -12 -57 -40 -101 -22 -34 -40 -69 -40 -77 0 -30 13 -45 41
-45 21 0 27 -4 23 -15 -4 -8 -13 -15 -22 -15 -17 0 -92 -48 -92 -60 0 -4 12
-12 26 -19 40 -18 109 -4 129 25 10 15 25 24 42 24 41 0 93 38 100 73 l6 30
99 -7 c54 -3 104 -7 110 -9 15 -3 34 36 43 86 6 33 5 36 -10 30 -15 -5 -17 -2
-12 23 4 21 0 35 -15 51 -17 18 -18 24 -7 45 l14 23 3 -23 c3 -19 9 -22 48
-22 30 0 46 5 50 15 4 8 17 15 30 15 19 0 24 -5 24 -25 0 -21 5 -25 28 -25
l27 0 -24 -19 -23 -18 47 -13 c50 -14 45 -30 -11 -30 -38 0 -71 -31 -51 -48
10 -8 28 -6 70 10 l58 21 29 -21 c17 -13 31 -18 35 -12 10 16 23 12 30 -9 3
-11 31 -34 63 -52 56 -31 57 -32 142 -23 104 11 178 -4 232 -47 30 -24 46 -29
90 -29 31 1 61 7 72 15 28 21 31 19 43 -20 10 -33 10 -35 -13 -41 -13 -3 -21
-10 -18 -15 3 -5 54 -34 115 -65 87 -45 113 -63 127 -89 9 -19 48 -57 86 -86
l69 -52 42 22 c36 19 41 26 37 48 -3 15 -17 32 -35 42 -16 9 -39 24 -51 33
-20 17 -19 17 22 3 23 -8 49 -12 56 -9 18 7 36 -26 36 -66 0 -27 3 -30 24 -24
13 3 34 1 45 -6 26 -13 26 -16 -4 100 -14 52 -25 103 -25 114 0 41 37 -29 55
-104 11 -43 29 -89 44 -108 23 -29 30 -33 62 -29 35 5 37 3 60 -44 12 -27 28
-49 34 -49 12 0 25 -64 25 -120 0 -25 4 -28 50 -34 40 -5 52 -12 66 -35 9 -16
29 -36 44 -45 39 -23 46 -78 15 -127 l-23 -36 34 -16 34 -17 16 33 c22 41 29
21 15 -45 -8 -34 -8 -55 -2 -61 13 -13 33 36 24 59 -4 12 -1 15 12 12 23 -4
42 -65 26 -81 -14 -14 -14 -74 -1 -82 6 -3 10 0 10 7 0 9 13 14 34 15 45 1 56
9 56 39 0 16 4 23 11 18 7 -4 9 -21 5 -43 -8 -51 16 -125 41 -129 16 -2 28 10
52 51 36 64 38 84 11 162 -11 31 -19 71 -17 89 2 28 -1 31 -27 34 -16 2 -44
15 -61 28 -18 13 -43 24 -56 24 -13 0 -35 9 -49 20 -14 11 -35 20 -47 20 -14
0 -23 6 -23 15 0 9 -11 21 -25 27 -14 6 -25 20 -25 30 0 10 -7 21 -16 25 -10
4 -14 13 -10 26 6 23 -124 220 -161 245 -13 8 -23 23 -23 33 0 10 -25 38 -56
64 -31 25 -70 64 -86 86 -16 22 -40 44 -53 49 -19 7 -25 17 -25 38 0 28 -29
64 -60 74 -38 13 -104 -51 -116 -111 -4 -19 -14 -33 -28 -37 -11 -3 -37 -22
-58 -41 -41 -40 -58 -37 -58 12 0 29 -9 42 -64 90 -39 35 -66 67 -69 84 -4 18
-17 32 -40 43 -30 14 -33 20 -29 47 4 30 3 31 -31 31 -22 0 -37 -6 -41 -15 -6
-17 -88 -19 -123 -2 l-23 10 0 1147 0 1146 -92 54 c-119 71 -130 75 -167 56
-41 -22 -87 -20 -127 4 -18 12 -58 25 -89 30 -40 7 -80 24 -134 57 l-76 48
-102 0 c-95 0 -102 1 -105 20 -2 11 -13 24 -25 30 -25 11 -29 20 -13 30 38 24
-53 69 -127 63 -37 -3 -38 -2 -41 32 -5 64 -10 66 -50 27 -21 -20 -43 -37 -50
-37 -19 0 -14 28 8 40 11 6 20 15 20 21 0 18 -44 69 -59 69 -9 0 -41 -18 -71
-40z"/>
<path d="M19890 3953 c-26 -18 -26 -47 1 -84 18 -25 19 -37 13 -99 l-7 -70
-40 -11 c-35 -9 -42 -8 -59 9 -11 10 -22 37 -25 58 l-5 39 -631 -42 c-348 -23
-649 -42 -669 -42 -36 -1 -39 1 -78 72 -22 39 -41 75 -42 78 -2 3 -289 -24
-638 -60 l-635 -66 -10 -29 c-9 -25 -6 -31 32 -64 22 -21 53 -46 68 -56 l27
-19 -4 -107 c-4 -106 -4 -108 16 -99 81 33 265 70 388 77 124 7 140 6 243 -19
92 -22 127 -36 215 -89 58 -34 123 -69 145 -77 61 -21 95 -59 95 -105 0 -33 3
-38 23 -38 12 1 33 7 47 15 14 8 44 14 68 15 54 0 98 23 191 100 63 51 79 60
103 55 40 -9 52 2 34 31 -9 13 -16 29 -16 36 0 22 61 46 131 53 53 5 68 3 78
-9 8 -9 20 -16 28 -16 33 0 130 -58 173 -103 25 -27 62 -57 83 -68 32 -17 37
-24 37 -53 0 -28 7 -38 40 -60 22 -14 46 -26 53 -26 16 0 51 -37 60 -62 4 -10
13 -18 21 -18 8 0 20 -16 26 -35 12 -35 23 -44 35 -25 3 6 26 10 51 10 33 0
46 -4 51 -17 4 -10 12 -22 20 -26 7 -4 13 -18 13 -30 0 -14 14 -32 39 -49 l38
-27 6 -129 c6 -119 4 -136 -18 -208 -18 -59 -21 -81 -13 -92 14 -16 11 -107
-4 -135 -8 -16 -3 -26 31 -61 23 -23 41 -50 41 -59 0 -33 47 24 54 66 7 37 6
39 -33 54 -58 23 -55 35 10 47 35 6 36 5 48 -34 12 -42 31 -54 31 -20 0 24 32
27 50 5 11 -13 7 -24 -20 -68 -19 -28 -42 -69 -53 -89 -10 -20 -25 -42 -33
-49 -25 -20 -15 -46 39 -106 30 -32 82 -101 117 -153 34 -52 73 -106 86 -120
12 -14 24 -38 26 -55 l4 -30 12 27 c6 14 19 31 28 36 16 9 16 15 7 46 -9 28
-8 38 3 47 25 20 53 -27 54 -90 0 -52 -1 -53 -25 -47 -14 4 -25 2 -25 -3 0 -6
11 -27 25 -47 14 -20 25 -42 25 -49 0 -8 8 -11 19 -8 25 6 78 -22 110 -60 14
-16 36 -59 48 -94 12 -35 38 -91 59 -124 32 -54 38 -59 53 -46 9 8 33 17 53
20 45 7 121 -28 127 -58 2 -11 23 -43 47 -72 24 -28 44 -57 44 -63 0 -7 14
-30 31 -52 24 -29 29 -42 20 -51 -6 -6 -11 -24 -11 -39 0 -22 8 -32 40 -48 50
-26 58 -25 103 5 32 22 42 25 72 16 29 -8 39 -6 62 12 16 12 30 25 31 29 2 5
13 8 24 8 28 0 75 36 94 71 12 25 13 39 3 88 -9 49 -8 68 5 115 11 35 22 56
31 56 8 0 15 -5 15 -12 0 -9 3 -9 11 -1 9 9 9 39 1 120 -7 59 -14 169 -18 243
-7 156 -27 307 -45 341 -13 25 -201 346 -302 514 -33 55 -68 116 -78 136 -35
69 -51 183 -27 191 25 9 -6 64 -76 137 -120 126 -247 297 -325 440 -79 143
-188 401 -197 466 -3 22 -14 51 -24 65 -10 14 -21 44 -24 65 l-7 40 -82 1
c-47 0 -100 7 -124 16 -37 13 -45 14 -63 1z"/>
<path d="M1090 2993 c-31 -39 -23 -57 29 -63 42 -5 45 -8 80 -70 33 -58 40
-65 71 -68 19 -2 41 -9 48 -15 10 -8 16 -7 23 4 6 10 2 19 -13 32 -75 63 -87
77 -90 109 -3 30 -6 33 -40 36 -27 2 -44 12 -62 33 l-25 29 -21 -27z"/>
<path d="M618 2405 c-12 -19 4 -66 29 -82 33 -22 38 -11 9 18 -13 13 -26 35
-28 49 -1 14 -6 20 -10 15z"/>
<path d="M6393 2182 c-43 -30 -52 -42 -53 -67 0 -27 7 -33 63 -62 90 -47 108
-49 144 -19 21 18 33 38 36 64 3 20 9 49 12 65 12 44 -8 57 -84 57 -60 -1 -71
-5 -118 -38z"/>
<path d="M6153 2070 c-3 -11 -16 -23 -29 -26 -15 -4 -27 -16 -30 -31 -9 -35 2
-40 31 -13 13 12 30 20 38 17 7 -3 14 0 14 6 0 7 4 24 8 40 6 22 4 27 -10 27
-9 0 -19 -9 -22 -20z"/>
<path d="M1285 2031 c-11 -5 -35 -6 -52 -3 -24 3 -34 0 -39 -11 -8 -22 4 -40
59 -81 54 -41 89 -46 111 -14 23 32 20 65 -9 93 -25 26 -37 29 -70 16z"/>
<path d="M17336 1925 c4 -8 8 -15 10 -15 2 0 4 7 4 15 0 8 -4 15 -10 15 -5 0
-7 -7 -4 -15z"/>
<path d="M7277 1865 c-22 -25 -43 -37 -70 -42 -28 -4 -37 -10 -33 -20 4 -8 6
-18 6 -22 0 -5 16 -28 35 -52 19 -24 35 -48 35 -54 0 -6 22 -9 54 -7 38 3 62
-1 79 -12 18 -12 36 -15 66 -10 45 7 61 21 37 30 -9 3 -16 10 -16 14 0 5 -5
21 -11 37 -8 22 -12 24 -19 13 -15 -23 -44 1 -50 41 -5 37 -36 99 -54 111 -19
13 -27 9 -59 -27z"/>
<path d="M17160 1859 c0 -4 -20 -11 -46 -15 -63 -12 -56 -30 11 -26 45 3 55 0
64 -16 9 -18 58 -42 83 -42 5 0 6 9 3 20 -5 15 -2 20 14 20 13 0 21 -8 23 -22
2 -16 16 -27 53 -40 60 -22 55 -21 55 -2 0 13 7 15 35 11 33 -5 34 -5 22 16
-29 52 -140 105 -175 83 -7 -4 -19 -3 -27 4 -15 13 -115 20 -115 9z"/>
<path d="M17697 1850 c-3 -13 -14 -20 -29 -20 -13 0 -29 -5 -36 -12 -7 -7 -12
-9 -12 -5 0 4 -9 -2 -20 -13 -11 -11 -20 -23 -20 -28 0 -12 39 -32 44 -23 8
12 120 5 124 -8 6 -17 42 -13 49 4 3 9 -3 25 -13 36 -14 16 -15 22 -5 28 7 5
11 17 9 27 -3 15 -11 18 -36 16 -18 -1 -32 2 -32 8 0 18 -18 10 -23 -10z"/>
<path d="M17811 1834 c0 -11 3 -14 6 -6 3 7 2 16 -1 19 -3 4 -6 -2 -5 -13z"/>
<path d="M17830 1814 c0 -8 5 -12 10 -9 6 3 10 1 10 -4 0 -6 7 -11 15 -11 23
0 18 16 -10 28 -21 10 -25 9 -25 -4z"/>
<path d="M15267 1742 c-10 -10 -17 -30 -17 -44 0 -20 -8 -28 -40 -41 -54 -21
-53 -29 16 -86 14 -12 15 -25 9 -80 -4 -36 -8 -84 -10 -106 -2 -22 -5 -48 -7
-58 -2 -16 4 -19 40 -21 24 -1 45 1 48 6 9 13 63 9 96 -8 26 -14 37 -14 75 -3
25 6 51 19 59 27 13 12 22 13 53 3 47 -14 131 -14 166 -1 20 8 34 6 63 -9 26
-13 43 -16 54 -10 10 6 30 4 55 -5 27 -9 45 -11 57 -4 11 6 21 6 30 -1 10 -8
23 -7 49 4 20 8 42 12 50 9 8 -3 18 -1 21 4 3 6 23 8 44 5 34 -5 43 -1 85 38
25 24 57 64 70 89 18 34 32 47 58 54 47 14 55 28 51 90 -3 40 -7 53 -17 50 -7
-3 -56 11 -109 30 -82 31 -107 36 -183 36 -48 0 -115 5 -148 11 -33 5 -175 12
-315 14 -140 3 -271 9 -290 15 -53 15 -95 12 -113 -8z"/>
<path d="M16685 1610 c-3 -5 -5 -10 -3 -11 2 0 17 -2 33 -4 28 -4 29 -3 11 11
-23 17 -33 18 -41 4z"/>
<path d="M7710 1581 c-16 -30 -14 -31 48 -31 33 0 86 -9 122 -21 61 -21 64
-21 96 -4 18 9 35 26 38 37 4 19 1 20 -52 14 -35 -4 -90 0 -142 9 -105 19 -97
19 -110 -4z"/>
<path d="M8045 1480 c-27 -30 -18 -63 27 -98 23 -18 48 -32 56 -32 23 0 41
-32 42 -71 0 -35 1 -36 45 -43 40 -5 56 -1 115 29 63 32 70 38 70 65 0 20 -6
33 -17 37 -10 4 -38 21 -63 39 -60 42 -80 47 -123 29 -50 -21 -55 -20 -74 19
-19 40 -55 52 -78 26z"/>
<path d="M3507 1432 c-51 -51 -62 -84 -26 -75 11 3 26 18 32 32 6 14 24 41 41
59 49 52 7 39 -47 -16z"/>
<path d="M16585 1465 c-79 -23 -95 -29 -95 -37 0 -14 85 -9 124 7 19 8 39 15
43 14 5 -1 15 -1 23 1 11 1 9 4 -5 10 -20 8 -70 11 -90 5z"/>
<path d="M20152 1461 c5 -18 55 -33 64 -20 3 5 -5 9 -18 9 -13 0 -30 6 -37 13
-11 10 -13 9 -9 -2z"/>
<path d="M7867 1423 c-22 -4 -27 -8 -22 -21 4 -9 12 -30 17 -45 9 -25 14 -28
41 -23 16 3 33 6 37 6 4 0 10 10 13 22 7 24 -26 69 -47 67 -6 -1 -24 -4 -39
-6z"/>
<path d="M17557 1359 c-53 -27 -60 -28 -102 -18 -67 17 -78 4 -69 -83 4 -42 3
-73 -4 -80 -13 -17 110 -16 180 1 26 6 54 8 62 5 8 -3 32 0 52 6 20 7 60 14
88 15 28 1 69 11 91 22 22 11 57 23 77 27 21 4 51 18 67 31 16 14 41 25 55 25
14 0 26 4 26 9 0 10 -241 7 -286 -3 -26 -7 -35 -3 -65 25 -18 18 -41 32 -50
31 -9 -2 -27 1 -40 6 -19 8 -37 3 -82 -19z"/>
<path d="M8053 1229 c-36 -13 -27 -29 17 -29 40 0 47 6 32 25 -10 13 -23 15
-49 4z"/>
<path d="M2772 1089 c-49 -47 -51 -52 -35 -64 15 -12 19 -11 21 1 4 16 22 19
22 4 0 -5 23 -10 50 -10 43 0 52 3 59 23 11 29 3 47 -21 47 -16 0 -19 5 -16
25 8 40 -21 31 -80 -26z"/>
<path d="M8466 1028 c-11 -42 -6 -64 19 -88 39 -37 32 -59 -40 -123 -36 -32
-65 -63 -65 -68 0 -5 21 -54 47 -107 50 -103 53 -121 38 -242 l-7 -55 73 -37
c83 -42 84 -42 126 31 33 58 120 116 197 130 75 14 122 40 180 100 l49 50 -29
11 c-38 15 -74 49 -74 71 0 35 -12 49 -42 49 -29 0 -30 1 -25 36 5 32 2 39
-38 78 -49 46 -156 96 -207 96 -20 0 -45 11 -72 33 -76 63 -119 74 -130 35z"/>
<path d="M21267 997 c-15 -45 -40 -99 -104 -220 -26 -49 -7 -39 29 15 19 29
41 71 48 93 20 60 46 116 52 110 3 -3 4 6 2 21 -4 41 -9 37 -27 -19z"/>
<path d="M2648 994 c-12 -4 -18 -18 -20 -52 -3 -47 -3 -47 -17 -20 -25 50 -68
44 -91 -13 -11 -26 -11 -42 4 -105 15 -65 21 -74 40 -74 12 0 37 16 56 35 25
26 37 32 46 24 10 -8 33 1 90 38 82 51 93 65 74 88 -7 8 -10 26 -6 40 7 29 5
30 -34 10 -26 -14 -30 -14 -30 -1 0 8 -4 17 -8 20 -14 8 -85 15 -104 10z"/>
<path d="M4945 953 c-63 -11 -65 -13 -65 -44 0 -30 14 -54 78 -128 23 -28 32
-48 32 -75 0 -22 4 -35 10 -31 6 3 10 17 10 31 0 13 5 24 10 24 14 0 30 -44
30 -84 0 -21 8 -40 21 -52 11 -10 30 -40 41 -66 11 -26 24 -48 29 -48 16 0 -3
154 -27 207 -12 28 -20 54 -16 57 3 3 -3 6 -14 6 -10 0 -27 7 -37 15 -11 7
-24 12 -31 9 -10 -4 -36 33 -36 51 0 12 36 3 67 -16 37 -23 47 -22 37 5 -3 9
-16 16 -29 16 -12 0 -29 8 -38 18 -23 25 -21 35 2 22 32 -17 51 -12 51 13 0
18 -12 28 -52 48 -29 14 -62 24 -73 22z"/>
<path d="M5103 900 c3 -28 15 -62 27 -77 22 -28 26 -53 9 -70 -11 -11 -2 -63
11 -63 11 0 40 35 40 49 0 6 7 14 15 17 21 9 19 41 -7 81 -11 20 -22 47 -23
62 -1 14 -3 32 -3 39 -1 7 -17 12 -38 12 l-37 0 6 -50z"/>
<path d="M16667 866 c-25 -32 -137 -116 -156 -116 -5 0 -12 -21 -16 -47 -4
-27 -13 -61 -20 -78 -40 -93 -40 -96 -14 -116 13 -10 38 -19 56 -19 19 0 36
-7 41 -16 8 -14 10 -12 16 11 5 20 2 31 -10 40 -16 11 -16 17 -6 54 14 45 25
49 68 26 26 -13 29 -13 35 3 3 9 3 19 -1 22 -17 12 -30 51 -26 81 3 22 14 42
35 60 17 14 31 32 31 41 0 9 11 23 25 32 22 14 23 19 13 36 -19 29 -42 24 -71
-14z"/>
<path d="M15576 835 c-9 -13 -16 -39 -16 -56 0 -18 -13 -56 -30 -86 -16 -29
-30 -64 -30 -77 0 -28 -16 -42 -42 -38 -13 2 -18 -4 -18 -22 0 -24 -3 -26 -44
-26 -54 0 -136 -33 -136 -55 0 -8 -4 -15 -9 -15 -4 0 -6 -12 -3 -26 4 -20 1
-25 -9 -22 -8 3 -15 14 -17 26 -4 24 -7 25 -37 12 -11 -5 -14 -9 -7 -9 6 -1
12 -7 12 -14 0 -7 9 -18 21 -25 14 -9 18 -19 14 -30 -16 -40 -32 -113 -25
-117 4 -2 13 -33 20 -67 15 -68 21 -77 62 -95 37 -17 65 -5 110 45 35 39 37
44 38 116 2 111 1 110 17 127 7 9 13 22 11 30 -2 7 6 15 17 17 11 2 24 10 28
18 4 8 12 14 18 14 5 0 27 16 47 36 20 20 49 43 64 52 16 9 28 22 28 28 0 6
13 17 29 24 18 7 34 24 41 43 6 18 18 45 26 60 23 46 18 57 -23 57 -33 0 -44
7 -81 50 -24 28 -47 50 -51 50 -5 0 -16 -11 -25 -25z"/>
<path d="M2148 773 c7 -3 16 -2 19 1 4 3 -2 6 -13 5 -11 0 -14 -3 -6 -6z"/>
<path d="M2474 695 c-19 -14 -19 -14 2 -15 12 0 24 7 28 15 7 19 -5 19 -30 0z"/>
<path d="M21110 700 c0 -5 5 -10 11 -10 5 0 7 5 4 10 -3 6 -8 10 -11 10 -2 0
-4 -4 -4 -10z"/>
<path d="M2525 690 c3 -5 13 -10 21 -10 8 0 12 5 9 10 -3 6 -13 10 -21 10 -8
0 -12 -4 -9 -10z"/>
<path d="M5220 694 c0 -4 16 -26 35 -50 19 -23 35 -49 35 -58 0 -10 9 -16 25
-16 25 0 35 23 15 35 -13 8 -13 45 -1 45 6 0 18 -13 28 -30 18 -31 29 -36 50
-22 9 6 0 20 -30 49 -36 35 -50 41 -99 47 -32 3 -58 3 -58 0z"/>
<path d="M1105 675 c-83 -16 -115 -33 -115 -61 0 -30 30 -39 75 -23 30 11 45
10 99 -4 35 -9 67 -17 70 -17 14 0 4 26 -14 38 -12 7 -20 23 -20 41 0 36 -17
41 -95 26z"/>
<path d="M17616 675 c-8 -8 -20 -15 -26 -15 -6 0 -13 -7 -16 -15 -4 -8 -13
-15 -21 -15 -21 0 -52 -41 -53 -68 0 -19 -4 -21 -25 -16 -14 3 -25 2 -25 -4 0
-16 -54 -31 -74 -20 -11 6 -27 6 -47 -1 -18 -6 -29 -6 -29 0 0 18 -83 0 -98
-22 -8 -11 -19 -19 -26 -17 -6 2 -25 -11 -43 -30 l-32 -33 27 -10 c15 -5 32
-11 38 -14 6 -2 16 1 22 7 6 6 16 6 28 0 11 -5 31 -15 46 -22 15 -7 27 -20 26
-29 -4 -47 19 -69 65 -62 12 1 17 -5 17 -21 1 -22 1 -22 16 5 12 23 18 26 29
17 11 -9 21 -4 47 26 51 59 67 74 79 74 6 0 3 7 -5 16 -24 23 -19 43 12 50 39
10 105 56 92 64 -6 4 -8 14 -4 23 4 12 -4 21 -33 33 l-38 17 49 9 c62 11 76 6
76 -32 0 -27 3 -30 34 -30 18 0 39 7 46 15 7 8 17 15 22 15 5 0 22 10 38 21
32 24 57 20 68 -10 7 -19 8 -19 47 -1 22 11 47 19 56 20 35 0 35 64 0 73 -22
5 -41 -10 -41 -31 0 -10 -7 -12 -22 -7 -13 3 -34 8 -46 10 -13 2 -26 6 -29 9
-4 3 -12 1 -19 -5 -16 -13 -48 -4 -39 11 10 16 -23 12 -51 -6 -23 -16 -25 -15
-42 4 -13 15 -25 19 -42 15 -16 -4 -21 -3 -16 5 11 17 -20 15 -38 -3z"/>
<path d="M5180 628 c0 -21 9 -41 26 -59 24 -25 25 -29 12 -48 -9 -12 -13 -33
-10 -46 5 -26 22 -45 22 -24 0 6 8 18 18 25 14 11 15 16 5 33 -17 28 -16 46 3
66 15 15 14 19 -17 51 -42 43 -59 44 -59 2z"/>
<path d="M1580 606 c0 -23 16 -36 46 -36 19 0 18 46 -2 54 -30 12 -44 6 -44
-18z"/>
<path d="M618 555 c-25 -42 -29 -44 -87 -51 -52 -6 -59 -9 -49 -21 8 -10 23
-13 47 -9 44 7 48 7 91 0 26 -4 50 2 93 21 31 15 57 30 57 34 0 14 -39 43 -49
37 -5 -4 -13 0 -18 7 -4 8 -19 17 -33 20 -21 5 -29 -1 -52 -38z"/>
<path d="M787 593 c-11 -10 13 -33 34 -33 22 0 24 11 7 28 -13 13 -31 16 -41
5z"/>
<path d="M1697 555 c-4 -8 -16 -15 -27 -15 -13 0 -20 -7 -20 -19 0 -14 5 -18
19 -14 19 5 49 49 39 58 -3 3 -8 -1 -11 -10z"/>
<path d="M2292 561 c-10 -6 -10 -10 2 -20 17 -14 36 -7 36 15 0 15 -18 18 -38
5z"/>
<path d="M18050 556 c0 -9 7 -16 16 -16 9 0 14 5 12 12 -6 18 -28 21 -28 4z"/>
<path d="M411 546 c-7 -8 -27 -17 -46 -20 -21 -4 -35 -13 -35 -21 0 -8 -6 -15
-12 -16 -7 -1 -2 -4 12 -8 17 -5 37 -2 62 11 21 10 46 18 56 18 23 0 46 25 37
40 -9 15 -61 12 -74 -4z"/>
<path d="M20885 540 c-10 -11 -14 -20 -8 -20 5 0 18 9 28 20 10 11 14 20 8 20
-5 0 -18 -9 -28 -20z"/>
<path d="M872 534 c11 -10 78 -14 78 -4 0 5 -19 10 -42 10 -23 0 -39 -3 -36
-6z"/>
<path d="M20694 512 c-23 -9 -60 -34 -84 -55 -23 -22 -56 -45 -74 -53 l-31
-13 29 -1 c15 0 54 16 86 35 33 20 71 35 88 35 17 0 43 5 59 11 28 11 28 11 6
22 -13 5 -23 16 -23 24 0 16 -5 16 -56 -5z"/>
<path d="M5297 513 c-3 -5 -5 -27 -4 -49 0 -34 3 -41 17 -37 25 7 37 -17 17
-32 -14 -10 -12 -14 21 -31 27 -14 38 -27 40 -47 2 -15 -1 -27 -5 -27 -5 0
-18 -6 -28 -14 -18 -13 -16 -17 36 -74 51 -59 88 -81 75 -46 -3 9 -6 20 -6 25
0 5 -9 9 -21 9 -13 0 -25 11 -35 35 -17 42 -17 45 -2 45 22 0 88 -52 109 -86
34 -56 51 -45 44 28 -5 49 -12 68 -31 85 -13 12 -31 41 -40 65 -23 60 -120
158 -156 158 -15 0 -29 -3 -31 -7z"/>
<path d="M16282 417 c-29 -29 -52 -60 -52 -69 0 -8 -7 -21 -15 -28 -9 -8 -14
-26 -12 -53 3 -35 7 -42 27 -47 14 -3 27 -15 29 -25 2 -11 12 -26 22 -33 11
-8 19 -25 19 -42 0 -62 22 -79 39 -30 5 17 15 30 20 30 6 0 11 13 11 30 0 16
5 40 11 54 14 29 4 76 -15 76 -22 0 -38 48 -24 73 15 29 17 78 3 99 -10 15
-17 12 -63 -35z"/>
<path d="M5300 310 c0 -11 6 -20 13 -20 7 0 18 9 25 20 11 18 10 20 -13 20
-18 0 -25 -5 -25 -20z"/>
</g>
</svg>
