<?xml version="1.0" encoding="UTF-8" standalone="no"?>
<!-- Created with Inkscape (http://www.inkscape.org/) -->
<svg
   xmlns:dc="http://purl.org/dc/elements/1.1/"
   xmlns:cc="http://web.resource.org/cc/"
   xmlns:rdf="http://www.w3.org/1999/02/22-rdf-syntax-ns#"
   xmlns:svg="http://www.w3.org/2000/svg"
   xmlns="http://www.w3.org/2000/svg"
   xmlns:sodipodi="http://sodipodi.sourceforge.net/DTD/sodipodi-0.dtd"
   xmlns:inkscape="http://www.inkscape.org/namespaces/inkscape"
   width="1200"
   height="600"
   id="svg3156"
   sodipodi:version="0.32"
   inkscape:version="0.45.1"
   version="1.0"
   sodipodi:docbase="C:\Documents and Settings\Administrator\Desktop"
   sodipodi:docname="Football-Formation-QB.svg"
   inkscape:output_extension="org.inkscape.output.svg.inkscape"
   inkscape:export-filename="C:\Documents and Settings\Administrator\Desktop\Football-Formation-OT.png"
   inkscape:export-xdpi="90"
   inkscape:export-ydpi="90">
  <defs
     id="defs3158" />
  <sodipodi:namedview
     id="base"
     pagecolor="#ffffff"
     bordercolor="#666666"
     borderopacity="1.0"
     gridtolerance="10000"
     guidetolerance="10"
     objecttolerance="10"
     inkscape:pageopacity="0.0"
     inkscape:pageshadow="2"
     inkscape:zoom="0.90536102"
     inkscape:cx="601.04076"
     inkscape:cy="296.98485"
     inkscape:document-units="px"
     inkscape:current-layer="layer1"
     width="1200px"
     height="600px"
     showgrid="true"
     gridspacingx="50px"
     gridspacingy="50px"
     inkscape:grid-points="true"
     inkscape:grid-bbox="false"
     inkscape:window-width="1280"
     inkscape:window-height="744"
     inkscape:window-x="0"
     inkscape:window-y="22" />
  <metadata
     id="metadata3161">
    <rdf:RDF>
      <cc:Work
         rdf:about="">
        <dc:format>image/svg+xml</dc:format>
        <dc:type
           rdf:resource="http://purl.org/dc/dcmitype/StillImage" />
      </cc:Work>
    </rdf:RDF>
  </metadata>
  <g
     inkscape:label="Layer 1"
     inkscape:groupmode="layer"
     id="layer1">
    <path
       sodipodi:type="arc"
       style="fill:#000000;fill-opacity:0;stroke:#000000;stroke-linejoin:miter;stroke-opacity:1"
       id="path4153"
       sodipodi:cx="400"
       sodipodi:cy="100"
       sodipodi:rx="50"
       sodipodi:ry="50"
       d="M 450 100 A 50 50 0 1 1  350,100 A 50 50 0 1 1  450 100 z"
       transform="translate(200.5,-35.5)" />
    <path
       sodipodi:type="arc"
       style="fill:#000000;fill-opacity:0;stroke:#000000;stroke-linejoin:miter;stroke-opacity:1"
       id="path5124"
       sodipodi:cx="400"
       sodipodi:cy="100"
       sodipodi:rx="50"
       sodipodi:ry="50"
       d="M 450 100 A 50 50 0 1 1  350,100 A 50 50 0 1 1  450 100 z"
       transform="translate(90.5,-35.5)" />
    <path
       sodipodi:type="arc"
       style="fill:#0008a4;fill-opacity:0.44705883;stroke:#000000;stroke-linejoin:miter;stroke-opacity:1"
       id="path5126"
       sodipodi:cx="400"
       sodipodi:cy="100"
       sodipodi:rx="50"
       sodipodi:ry="50"
       d="M 450 100 A 50 50 0 1 1  350,100 A 50 50 0 1 1  450 100 z"
       transform="translate(200,100)" />
    <path
       sodipodi:type="arc"
       style="fill:#000000;fill-opacity:0;stroke:#000000;stroke-linejoin:miter;stroke-opacity:1"
       id="path5128"
       sodipodi:cx="400"
       sodipodi:cy="100"
       sodipodi:rx="50"
       sodipodi:ry="50"
       d="M 450 100 A 50 50 0 1 1  350,100 A 50 50 0 1 1  450 100 z"
       transform="translate(200,434.5)" />
    <path
       sodipodi:type="arc"
       style="fill:#000000;fill-opacity:0;stroke:#000000;stroke-linejoin:miter;stroke-opacity:1"
       id="path5130"
       sodipodi:cx="400"
       sodipodi:cy="100"
       sodipodi:rx="50"
       sodipodi:ry="50"
       d="M 450 100 A 50 50 0 1 1  350,100 A 50 50 0 1 1  450 100 z"
       transform="translate(200,299.5)" />
    <path
       sodipodi:type="arc"
       style="fill:#000000;fill-opacity:0;stroke:#000000;stroke-linejoin:miter;stroke-opacity:1"
       id="path5132"
       sodipodi:cx="400"
       sodipodi:cy="100"
       sodipodi:rx="50"
       sodipodi:ry="50"
       d="M 450 100 A 50 50 0 1 1  350,100 A 50 50 0 1 1  450 100 z"
       transform="translate(310.5,-35.5)" />
    <path
       sodipodi:type="arc"
       style="fill:#000000;fill-opacity:0;stroke:#000000;stroke-linejoin:miter;stroke-opacity:1"
       id="path5134"
       sodipodi:cx="400"
       sodipodi:cy="100"
       sodipodi:rx="50"
       sodipodi:ry="50"
       d="M 450 100 A 50 50 0 1 1  350,100 A 50 50 0 1 1  450 100 z"
       transform="translate(-19.5,-35.5)" />
    <path
       sodipodi:type="arc"
       style="fill:#000000;fill-opacity:0;stroke:#000000;stroke-linejoin:miter;stroke-opacity:1"
       id="path5136"
       sodipodi:cx="400"
       sodipodi:cy="100"
       sodipodi:rx="50"
       sodipodi:ry="50"
       d="M 450 100 A 50 50 0 1 1  350,100 A 50 50 0 1 1  450 100 z"
       transform="translate(420.5,-35.5)" />
    <path
       sodipodi:type="arc"
       style="fill:#000000;fill-opacity:0;stroke:#000000;stroke-linejoin:miter;stroke-opacity:1"
       id="path5138"
       sodipodi:cx="400"
       sodipodi:cy="100"
       sodipodi:rx="50"
       sodipodi:ry="50"
       d="M 450 100 A 50 50 0 1 1  350,100 A 50 50 0 1 1  450 100 z"
       transform="translate(535.5,-35.5)" />
    <path
       sodipodi:type="arc"
       style="fill:#000000;fill-opacity:0;stroke:#000000;stroke-linejoin:miter;stroke-opacity:1"
       id="path5140"
       sodipodi:cx="400"
       sodipodi:cy="100"
       sodipodi:rx="50"
       sodipodi:ry="50"
       d="M 450 100 A 50 50 0 1 1  350,100 A 50 50 0 1 1  450 100 z"
       transform="translate(735.5,64.5)" />
    <path
       sodipodi:type="arc"
       style="fill:#000000;fill-opacity:0;stroke:#000000;stroke-linejoin:miter;stroke-opacity:1"
       id="path5142"
       sodipodi:cx="400"
       sodipodi:cy="100"
       sodipodi:rx="50"
       sodipodi:ry="50"
       d="M 450 100 A 50 50 0 1 1  350,100 A 50 50 0 1 1  450 100 z"
       transform="translate(-334.5,-35.5)" />
    <path
       transform="matrix(1.1170909,0,0,1.047749,-1.0392724,2.039253)"
       style=""
       d="M 38.492188,74.407847 L 32.261719,45.775034 L 35.445313,45.775034 L 39.019531,64.544565 C 39.397128,66.471657 39.729159,68.42478 40.015625,70.40394 L 41.070313,65.110972 L 45.542969,45.775034 L 49.292969,45.775034 L 52.652344,60.267222 C 53.472635,63.795878 54.084613,67.174781 54.488281,70.40394 C 54.787737,68.541967 55.171852,66.465146 55.640625,64.173472 L 59.332031,45.775034 L 62.457031,45.775034 L 56.011719,74.407847 L 53.023438,74.407847 L 48.0625,52.59144 L 47.320313,49.232065 C 47.098943,50.482089 46.871079,51.60188 46.636719,52.59144 L 41.65625,74.407847 L 38.492188,74.407847 z M 65.269531,74.407847 L 65.269531,45.775034 L 75.679688,45.775034 C 77.854152,45.775063 79.458968,46.04199 80.494141,46.575815 C 81.529278,47.109697 82.378887,47.998368 83.042969,49.241831 C 83.70701,50.485345 84.039041,51.9274 84.039063,53.568003 C 84.039041,55.72948 83.475891,57.48078 82.349609,58.821909 C 81.223289,60.163069 79.585921,61.015933 77.4375,61.380503 C 78.30988,61.901349 78.973942,62.428692 79.429688,62.962534 C 80.354149,64.056295 81.16795,65.273741 81.871094,66.614878 L 85.972656,74.407847 L 82.066406,74.407847 L 78.941406,68.450815 C 77.730454,66.120095 76.815741,64.551086 76.197266,63.743784 C 75.578763,62.936504 74.979805,62.392885 74.400391,62.112925 C 73.820952,61.832989 73.010406,61.693016 71.96875,61.693003 L 68.375,61.693003 L 68.375,74.407847 L 65.269531,74.407847 z M 68.375,58.411753 L 75.054688,58.411753 C 76.513007,58.411769 77.619777,58.235988 78.375,57.884409 C 79.130192,57.532864 79.72915,56.979479 80.171875,56.224253 C 80.614565,55.469064 80.835919,54.590158 80.835938,53.587534 C 80.835919,52.142244 80.412743,51.006177 79.566406,50.179331 C 78.720036,49.352533 77.463527,48.939122 75.796875,48.939097 L 68.375,48.939097 L 68.375,58.411753 z "
       id="flowRoot5144" />
    <path
       transform="matrix(1.1170909,0,0,1.047749,1068.9607,102.03925)"
       style=""
       d="M 38.492188,74.407847 L 32.261719,45.775034 L 35.445313,45.775034 L 39.019531,64.544565 C 39.397128,66.471657 39.729159,68.42478 40.015625,70.40394 L 41.070313,65.110972 L 45.542969,45.775034 L 49.292969,45.775034 L 52.652344,60.267222 C 53.472635,63.795878 54.084613,67.174781 54.488281,70.40394 C 54.787737,68.541967 55.171852,66.465146 55.640625,64.173472 L 59.332031,45.775034 L 62.457031,45.775034 L 56.011719,74.407847 L 53.023438,74.407847 L 48.0625,52.59144 L 47.320313,49.232065 C 47.098943,50.482089 46.871079,51.60188 46.636719,52.59144 L 41.65625,74.407847 L 38.492188,74.407847 z M 65.269531,74.407847 L 65.269531,45.775034 L 75.679688,45.775034 C 77.854152,45.775063 79.458968,46.04199 80.494141,46.575815 C 81.529278,47.109697 82.378887,47.998368 83.042969,49.241831 C 83.70701,50.485345 84.039041,51.9274 84.039063,53.568003 C 84.039041,55.72948 83.475891,57.48078 82.349609,58.821909 C 81.223289,60.163069 79.585921,61.015933 77.4375,61.380503 C 78.30988,61.901349 78.973942,62.428692 79.429688,62.962534 C 80.354149,64.056295 81.16795,65.273741 81.871094,66.614878 L 85.972656,74.407847 L 82.066406,74.407847 L 78.941406,68.450815 C 77.730454,66.120095 76.815741,64.551086 76.197266,63.743784 C 75.578763,62.936504 74.979805,62.392885 74.400391,62.112925 C 73.820952,61.832989 73.010406,61.693016 71.96875,61.693003 L 68.375,61.693003 L 68.375,74.407847 L 65.269531,74.407847 z M 68.375,58.411753 L 75.054688,58.411753 C 76.513007,58.411769 77.619777,58.235988 78.375,57.884409 C 79.130192,57.532864 79.72915,56.979479 80.171875,56.224253 C 80.614565,55.469064 80.835919,54.590158 80.835938,53.587534 C 80.835919,52.142244 80.412743,51.006177 79.566406,50.179331 C 78.720036,49.352533 77.463527,48.939122 75.796875,48.939097 L 68.375,48.939097 L 68.375,58.411753 z "
       id="flowRoot5152" />
    <path
       transform="matrix(1.0357792,0,0,1.0330203,-20.791906,-15.131577)"
       style=""
       d="M 579.07313,417.35054 L 579.07313,386.37341 L 596.20986,386.37341 L 596.20986,390.02897 L 582.43286,390.02897 L 582.43286,399.62216 L 594.35039,399.62216 L 594.35039,403.27771 L 582.43286,403.27771 L 582.43286,417.35054 L 579.07313,417.35054 z M 600.43594,417.35054 L 600.43594,386.37341 L 609.96574,386.37341 C 611.89563,386.37344 613.42406,386.67279 614.55103,387.27145 C 615.67796,387.87018 616.60065,388.80343 617.31911,390.07123 C 618.03752,391.33908 618.39673,392.74072 618.39676,394.27617 C 618.39673,395.69897 618.08682,396.98088 617.46702,398.1219 C 616.84718,399.26296 615.97379,400.17861 614.84685,400.86885 C 616.32596,401.40417 617.49165,402.31629 618.34393,403.60523 C 619.19617,404.8942 619.62229,406.48249 619.62232,408.37013 C 619.62229,410.2437 619.23843,411.88834 618.47071,413.30407 C 617.70295,414.71981 616.67813,415.74815 615.39624,416.38911 C 614.11432,417.03006 612.35345,417.35054 610.11365,417.35054 L 600.43594,417.35054 z M 603.79567,399.38972 L 609.28956,399.38972 C 610.72642,399.38974 611.74772,399.29113 612.35347,399.0939 C 613.22684,398.79809 613.89949,398.30153 614.37142,397.6042 C 614.84331,396.90692 615.07927,395.95958 615.07929,394.76217 C 615.07927,393.64933 614.86444,392.72311 614.43481,391.98353 C 614.00514,391.24399 613.43462,390.73334 612.72325,390.45157 C 612.01185,390.16986 610.73346,390.02899 608.88809,390.02897 L 603.79567,390.02897 L 603.79567,399.38972 z M 603.79567,413.69498 L 610.11365,413.69498 C 611.50824,413.69499 612.53658,413.5682 613.19868,413.31464 C 614.15658,412.94838 614.88557,412.34617 615.38568,411.50799 C 615.88574,410.66982 616.13579,409.61683 616.13581,408.349 C 616.13579,407.1798 615.89631,406.19019 615.41737,405.38018 C 614.9384,404.5702 614.29392,403.97855 613.48394,403.60523 C 612.67393,403.23194 611.40259,403.04529 609.66991,403.04528 L 603.79567,403.04528 L 603.79567,413.69498 z "
       id="flowRoot5160" />
    <path
       transform="matrix(1.0069201,0,0,1.0007384,-1.3883156,6.5606142)"
       style=""
       d="M 574.41332,543.53804 L 574.41332,512.56091 L 585.67581,512.56091 C 588.0283,512.56094 589.76452,512.84972 590.88444,513.42726 C 592.00433,514.00485 592.9235,514.96628 593.64196,516.31155 C 594.36037,517.65688 594.71958,519.217 594.71961,520.99193 C 594.71958,523.33038 594.11032,525.22507 592.89183,526.676 C 591.67329,528.12697 589.90186,529.04966 587.57754,529.44408 C 588.52135,530.00757 589.23978,530.57809 589.73284,531.15564 C 590.73299,532.33895 591.61342,533.65608 592.37413,535.10702 L 596.81151,543.53804 L 592.58544,543.53804 L 589.20458,537.09327 C 587.89448,534.57173 586.90487,532.87425 586.23576,532.00085 C 585.56662,531.12748 584.91862,530.53935 584.29177,530.23647 C 583.66489,529.93361 582.78798,529.78218 581.66104,529.78217 L 577.77305,529.78217 L 577.77305,543.53804 L 574.41332,543.53804 z M 577.77305,526.23226 L 584.99963,526.23226 C 586.57735,526.23228 587.77474,526.04211 588.5918,525.66174 C 589.40882,525.28141 590.05682,524.68272 590.53579,523.86566 C 591.01473,523.04864 591.2542,522.09777 591.25422,521.01306 C 591.2542,519.44944 590.79638,518.22036 589.88075,517.32581 C 588.96508,516.43132 587.6057,515.98406 585.80259,515.98403 L 577.77305,515.98403 L 577.77305,526.23226 z M 599.91768,543.53804 L 599.91768,512.56091 L 609.44747,512.56091 C 611.37737,512.56094 612.9058,512.86029 614.03276,513.45895 C 615.1597,514.05768 616.08239,514.99093 616.80084,516.25873 C 617.51926,517.52658 617.87847,518.92822 617.87849,520.46367 C 617.87847,521.88647 617.56856,523.16838 616.94876,524.3094 C 616.32891,525.45046 615.45552,526.36611 614.32859,527.05635 C 615.8077,527.59167 616.97339,528.50379 617.82567,529.79273 C 618.6779,531.0817 619.10403,532.66999 619.10405,534.55763 C 619.10403,536.4312 618.72016,538.07584 617.95245,539.49157 C 617.18469,540.90731 616.15987,541.93565 614.87798,542.57661 C 613.59605,543.21756 611.83519,543.53804 609.59539,543.53804 L 599.91768,543.53804 z M 603.27741,525.57722 L 608.7713,525.57722 C 610.20815,525.57724 611.22945,525.47863 611.83521,525.2814 C 612.70858,524.98559 613.38123,524.48903 613.85316,523.7917 C 614.32505,523.09442 614.56101,522.14708 614.56102,520.94967 C 614.56101,519.83683 614.34618,518.91061 613.91655,518.17103 C 613.48688,517.43149 612.91636,516.92084 612.20499,516.63907 C 611.49358,516.35736 610.2152,516.21649 608.36982,516.21647 L 603.27741,516.21647 L 603.27741,525.57722 z M 603.27741,539.88248 L 609.59539,539.88248 C 610.98998,539.88249 612.01832,539.7557 612.68042,539.50214 C 613.63831,539.13588 614.36731,538.53367 614.86741,537.69549 C 615.36748,536.85732 615.61752,535.80433 615.61754,534.5365 C 615.61752,533.3673 615.37805,532.37769 614.89911,531.56768 C 614.42014,530.7577 613.77566,530.16605 612.96568,529.79273 C 612.15567,529.41944 610.88433,529.23279 609.15165,529.23278 L 603.27741,529.23278 L 603.27741,539.88248 z "
       id="flowRoot5176" />
    <path
       transform="matrix(1.003362,0,0,1.0019043,-0.8182479,1.4236582)"
       style=""
       d="M 594.86249,209.93932 C 596.42611,211.2494 597.86298,212.20731 599.17308,212.81305 L 598.17996,215.66565 C 596.32046,214.84861 594.50325,213.58079 592.72832,211.86218 C 590.85474,213.14409 588.78397,213.78505 586.51599,213.78505 C 582.79704,213.78505 579.78948,212.15801 577.49332,208.90393 C 575.42254,205.97386 574.38716,202.269 574.38716,197.78936 C 574.38716,194.43669 574.94359,191.53127 576.05646,189.07308 C 577.16932,186.61494 578.63084,184.7766 580.44101,183.55805 C 582.25117,182.33956 584.29025,181.7303 586.55825,181.73027 C 588.79806,181.7303 590.83713,182.36069 592.6755,183.62144 C 594.51382,184.88225 595.97533,186.72059 597.06005,189.13647 C 598.14471,191.5524 598.68706,194.40851 598.68709,197.70483 C 598.68706,200.28275 598.3525,202.61413 597.68339,204.69899 C 597.01424,206.78386 596.07394,208.53063 594.86249,209.93932 L 594.86249,209.93932 z M 587.44573,204.69899 C 589.37562,205.34699 590.97448,206.33308 592.24232,207.65724 C 594.21447,205.43151 595.20055,202.11405 595.20057,197.70483 C 595.20055,195.04243 594.82373,192.78148 594.0701,190.92198 C 593.31643,189.06254 592.274,187.65385 590.9428,186.69591 C 589.61157,185.73803 588.1571,185.25907 586.57938,185.25904 C 584.0719,185.25907 581.99056,186.31207 580.33536,188.41804 C 578.68014,190.52405 577.85253,193.64782 577.85254,197.78936 C 577.85253,201.87457 578.6907,204.97721 580.36705,207.09728 C 582.04339,209.21737 584.11416,210.27741 586.57938,210.2774 C 587.76267,210.27741 588.88962,210.00271 589.96024,209.45332 C 588.91779,208.6222 587.80493,208.03055 586.62164,207.67837 L 587.44573,204.69899 z M 603.03994,213.25679 L 603.03994,182.27966 L 612.56974,182.27966 C 614.49963,182.27969 616.02806,182.57904 617.15503,183.1777 C 618.28197,183.77643 619.20466,184.70968 619.92311,185.97748 C 620.64152,187.24533 621.00074,188.64697 621.00076,190.18242 C 621.00074,191.60522 620.69083,192.88713 620.07102,194.02815 C 619.45118,195.16921 618.57779,196.08486 617.45086,196.7751 C 618.92996,197.31042 620.09566,198.22254 620.94793,199.51148 C 621.80017,200.80045 622.2263,202.38874 622.22632,204.27638 C 622.2263,206.14995 621.84243,207.79459 621.07472,209.21032 C 620.30696,210.62606 619.28214,211.6544 618.00025,212.29536 C 616.71832,212.93631 614.95746,213.25679 612.71765,213.25679 L 603.03994,213.25679 z M 606.39967,195.29597 L 611.89357,195.29597 C 613.33042,195.29599 614.35172,195.19738 614.95747,195.00015 C 615.83085,194.70434 616.5035,194.20778 616.97542,193.51045 C 617.44732,192.81317 617.68327,191.86583 617.68329,190.66842 C 617.68327,189.55558 617.46845,188.62936 617.03881,187.88978 C 616.60915,187.15024 616.03863,186.63959 615.32725,186.35782 C 614.61585,186.07611 613.33746,185.93524 611.49209,185.93522 L 606.39967,185.93522 L 606.39967,195.29597 z M 606.39967,209.60123 L 612.71765,209.60123 C 614.11224,209.60124 615.14059,209.47445 615.80269,209.22089 C 616.76058,208.85463 617.48958,208.25242 617.98968,207.41424 C 618.48975,206.57607 618.73979,205.52308 618.73981,204.25525 C 618.73979,203.08605 618.50031,202.09644 618.02138,201.28643 C 617.5424,200.47645 616.89793,199.8848 616.08795,199.51148 C 615.27794,199.13819 614.00659,198.95154 612.27392,198.95153 L 606.39967,198.95153 L 606.39967,209.60123 z "
       id="flowRoot5184" />
    <path
       transform="matrix(1.0684909,0,0,0.9989497,-35.200448,8.1281653e-2)"
       style=""
       d="M 602.33366,69.614526 L 605.71452,70.649914 C 604.96789,74.129389 603.66133,76.7249 601.79483,78.436456 C 599.9283,80.148017 597.65678,81.003796 594.98029,81.003797 C 592.62776,81.003796 590.61686,80.429755 588.94756,79.281671 C 587.27826,78.13359 585.91183,76.291728 584.84827,73.756079 C 583.78471,71.220444 583.25293,68.226977 583.25293,64.775671 C 583.25293,61.366657 583.78471,58.482364 584.84827,56.122784 C 585.91183,53.763252 587.35222,51.981259 589.16943,50.7768 C 590.98664,49.572399 593.01515,48.970184 595.25498,48.970153 C 597.70609,48.970184 599.81208,49.734399 601.57296,51.262798 C 603.3338,52.791256 604.56641,55.034595 605.27078,57.992822 L 601.97444,58.943688 C 600.84747,54.633118 598.58652,52.477823 595.19159,52.477795 C 593.50115,52.477823 592.03611,52.910995 590.79647,53.777313 C 589.55682,54.643684 588.56721,55.992504 587.82766,57.823779 C 587.08809,59.655098 586.71831,61.972394 586.71831,64.775671 C 586.71831,69.015844 587.46491,72.195962 588.95813,74.316034 C 590.45133,76.436119 592.43759,77.496158 594.9169,77.496155 C 596.74818,77.496158 598.32943,76.844639 599.66066,75.541596 C 600.99186,74.238562 601.88285,72.262874 602.33366,69.614526 L 602.33366,69.614526 z "
       id="flowRoot5192" />
    <path
       transform="matrix(0.9745726,0,0,0.9982912,8.4494288,-6.4478599)"
       style=""
       d="M 694.20233,71.982202 C 694.20233,66.699629 695.3645,62.63908 697.68884,59.800542 C 700.01318,56.962059 702.90803,55.542804 706.37343,55.542773 C 708.61323,55.542804 710.65583,56.176715 712.50123,57.444506 C 714.3466,58.712357 715.80811,60.554219 716.88579,62.970098 C 717.96341,65.386026 718.50223,68.263275 718.50226,71.601855 C 718.50223,76.1942 717.4598,79.934272 715.37496,82.822083 C 713.07878,86.005726 710.07122,87.597546 706.3523,87.597547 C 702.60517,87.597546 699.59057,85.963466 697.3085,82.6953 C 695.23772,79.737056 694.20233,76.166026 694.20233,71.982202 L 694.20233,71.982202 z M 697.66771,72.045593 C 697.66771,75.863158 698.5094,78.824929 700.19279,80.930914 C 701.87617,83.036912 703.92229,84.089908 706.33117,84.089905 C 708.79636,84.089908 710.86361,83.026347 712.53293,80.899219 C 714.20221,78.772103 715.03686,75.644811 715.03688,71.517334 C 715.03686,68.854925 714.60721,66.474239 713.74793,64.375268 C 713.08582,62.769384 712.08917,61.483954 710.75798,60.518975 C 709.42675,59.554049 707.97228,59.071573 706.39456,59.071545 C 703.8589,59.071573 701.77052,60.12809 700.1294,62.2411 C 698.48827,64.35416 697.66771,67.622321 697.66771,72.045593 L 697.66771,72.045593 z M 734.75152,74.919324 L 734.75152,71.2849 L 745.50687,71.263769 L 745.50687,82.758691 C 743.85868,84.364602 742.15417,85.572554 740.39332,86.38255 C 738.63244,87.192548 736.82228,87.597546 734.96282,87.597547 C 732.48351,87.597546 730.27187,86.977722 728.32788,85.738074 C 726.38388,84.498428 724.84489,82.688261 723.7109,80.307568 C 722.5769,77.926889 722.0099,75.067248 722.0099,71.728637 C 722.0099,68.347797 722.58042,65.403634 723.72146,62.896142 C 724.8625,60.388698 726.35571,58.539792 728.2011,57.349419 C 730.04648,56.159106 732.22995,55.563934 734.75152,55.563903 C 736.61097,55.563934 738.23801,55.909063 739.63263,56.599291 C 741.02722,57.28958 742.1753,58.268619 743.07688,59.536413 C 743.97842,60.804261 744.65459,62.543994 745.1054,64.755615 L 742.08375,65.769873 C 741.67521,64.023118 741.16104,62.716558 740.54124,61.850189 C 739.92139,60.983869 739.10435,60.304176 738.09011,59.811108 C 737.07584,59.318093 735.9348,59.071573 734.66699,59.071545 C 732.8216,59.071573 731.2333,59.518832 729.9021,60.413323 C 728.57087,61.307868 727.50027,62.69895 726.69028,64.586572 C 725.88028,66.474239 725.47528,68.777447 725.47528,71.496203 C 725.47528,75.637768 726.34162,78.740407 728.07432,80.804132 C 729.807,82.867869 732.0609,83.899735 734.83604,83.899732 C 736.16019,83.899735 737.51606,83.582779 738.90363,82.948865 C 740.29117,82.314958 741.39347,81.561309 742.21054,80.687915 L 742.21054,74.919324 L 734.75152,74.919324 z "
       id="flowRoot5200" />
    <path
       transform="matrix(0.9814974,0,0,0.9982912,16.572323,-6.4478599)"
       style=""
       d="M 795.13983,71.982202 C 795.13983,66.699629 796.302,62.63908 798.62634,59.800542 C 800.95068,56.962059 803.84553,55.542804 807.31093,55.542773 C 809.55073,55.542804 811.59333,56.176715 813.43873,57.444506 C 815.2841,58.712357 816.74561,60.554219 817.82329,62.970098 C 818.90091,65.386026 819.43973,68.263275 819.43976,71.601855 C 819.43973,76.1942 818.3973,79.934272 816.31246,82.822083 C 814.01628,86.005726 811.00872,87.597546 807.2898,87.597547 C 803.54267,87.597546 800.52807,85.963466 798.246,82.6953 C 796.17522,79.737056 795.13983,76.166026 795.13983,71.982202 L 795.13983,71.982202 z M 798.60521,72.045593 C 798.60521,75.863158 799.4469,78.824929 801.13029,80.930914 C 802.81367,83.036912 804.85979,84.089908 807.26867,84.089905 C 809.73386,84.089908 811.80111,83.026347 813.47043,80.899219 C 815.13971,78.772103 815.97436,75.644811 815.97438,71.517334 C 815.97436,68.854925 815.54471,66.474239 814.68543,64.375268 C 814.02332,62.769384 813.02667,61.483954 811.69548,60.518975 C 810.36425,59.554049 808.90978,59.071573 807.33206,59.071545 C 804.7964,59.071573 802.70802,60.12809 801.0669,62.2411 C 799.42577,64.35416 798.60521,67.622321 798.60521,72.045593 L 798.60521,72.045593 z M 830.23738,87.069287 L 830.23738,59.747717 L 821.86975,59.747717 L 821.86975,56.092162 L 842.007,56.092162 L 842.007,59.747717 L 833.59711,59.747717 L 833.59711,87.069287 L 830.23738,87.069287 z "
       id="flowRoot5208" />
    <path
       transform="matrix(0.9859426,0,0,0.9684566,20.569651,2.0629347)"
       style=""
       d="M 914.53635,80.475537 L 914.53635,53.153967 L 906.16873,53.153967 L 906.16873,49.498412 L 926.30597,49.498412 L 926.30597,53.153967 L 917.89608,53.153967 L 917.89608,80.475537 L 914.53635,80.475537 z M 929.81361,80.475537 L 929.81361,49.498412 L 948.17591,49.498412 L 948.17591,53.153967 L 933.17334,53.153967 L 933.17334,62.641504 L 947.22504,62.641504 L 947.22504,66.275927 L 933.17334,66.275927 L 933.17334,76.819983 L 948.76756,76.819983 L 948.76756,80.475537 L 929.81361,80.475537 z "
       id="flowRoot5216" />
    <path
       transform="matrix(0.9745726,0,0,0.9982912,-211.55057,-6.4478599)"
       style=""
       d="M 694.20233,71.982202 C 694.20233,66.699629 695.3645,62.63908 697.68884,59.800542 C 700.01318,56.962059 702.90803,55.542804 706.37343,55.542773 C 708.61323,55.542804 710.65583,56.176715 712.50123,57.444506 C 714.3466,58.712357 715.80811,60.554219 716.88579,62.970098 C 717.96341,65.386026 718.50223,68.263275 718.50226,71.601855 C 718.50223,76.1942 717.4598,79.934272 715.37496,82.822083 C 713.07878,86.005726 710.07122,87.597546 706.3523,87.597547 C 702.60517,87.597546 699.59057,85.963466 697.3085,82.6953 C 695.23772,79.737056 694.20233,76.166026 694.20233,71.982202 L 694.20233,71.982202 z M 697.66771,72.045593 C 697.66771,75.863158 698.5094,78.824929 700.19279,80.930914 C 701.87617,83.036912 703.92229,84.089908 706.33117,84.089905 C 708.79636,84.089908 710.86361,83.026347 712.53293,80.899219 C 714.20221,78.772103 715.03686,75.644811 715.03688,71.517334 C 715.03686,68.854925 714.60721,66.474239 713.74793,64.375268 C 713.08582,62.769384 712.08917,61.483954 710.75798,60.518975 C 709.42675,59.554049 707.97228,59.071573 706.39456,59.071545 C 703.8589,59.071573 701.77052,60.12809 700.1294,62.2411 C 698.48827,64.35416 697.66771,67.622321 697.66771,72.045593 L 697.66771,72.045593 z M 734.75152,74.919324 L 734.75152,71.2849 L 745.50687,71.263769 L 745.50687,82.758691 C 743.85868,84.364602 742.15417,85.572554 740.39332,86.38255 C 738.63244,87.192548 736.82228,87.597546 734.96282,87.597547 C 732.48351,87.597546 730.27187,86.977722 728.32788,85.738074 C 726.38388,84.498428 724.84489,82.688261 723.7109,80.307568 C 722.5769,77.926889 722.0099,75.067248 722.0099,71.728637 C 722.0099,68.347797 722.58042,65.403634 723.72146,62.896142 C 724.8625,60.388698 726.35571,58.539792 728.2011,57.349419 C 730.04648,56.159106 732.22995,55.563934 734.75152,55.563903 C 736.61097,55.563934 738.23801,55.909063 739.63263,56.599291 C 741.02722,57.28958 742.1753,58.268619 743.07688,59.536413 C 743.97842,60.804261 744.65459,62.543994 745.1054,64.755615 L 742.08375,65.769873 C 741.67521,64.023118 741.16104,62.716558 740.54124,61.850189 C 739.92139,60.983869 739.10435,60.304176 738.09011,59.811108 C 737.07584,59.318093 735.9348,59.071573 734.66699,59.071545 C 732.8216,59.071573 731.2333,59.518832 729.9021,60.413323 C 728.57087,61.307868 727.50027,62.69895 726.69028,64.586572 C 725.88028,66.474239 725.47528,68.777447 725.47528,71.496203 C 725.47528,75.637768 726.34162,78.740407 728.07432,80.804132 C 729.807,82.867869 732.0609,83.899735 734.83604,83.899732 C 736.16019,83.899735 737.51606,83.582779 738.90363,82.948865 C 740.29117,82.314958 741.39347,81.561309 742.21054,80.687915 L 742.21054,74.919324 L 734.75152,74.919324 z "
       id="flowRoot5224" />
    <path
       transform="matrix(0.9814974,0,0,0.9982912,-423.42768,-6.4478599)"
       style=""
       d="M 795.13983,71.982202 C 795.13983,66.699629 796.302,62.63908 798.62634,59.800542 C 800.95068,56.962059 803.84553,55.542804 807.31093,55.542773 C 809.55073,55.542804 811.59333,56.176715 813.43873,57.444506 C 815.2841,58.712357 816.74561,60.554219 817.82329,62.970098 C 818.90091,65.386026 819.43973,68.263275 819.43976,71.601855 C 819.43973,76.1942 818.3973,79.934272 816.31246,82.822083 C 814.01628,86.005726 811.00872,87.597546 807.2898,87.597547 C 803.54267,87.597546 800.52807,85.963466 798.246,82.6953 C 796.17522,79.737056 795.13983,76.166026 795.13983,71.982202 L 795.13983,71.982202 z M 798.60521,72.045593 C 798.60521,75.863158 799.4469,78.824929 801.13029,80.930914 C 802.81367,83.036912 804.85979,84.089908 807.26867,84.089905 C 809.73386,84.089908 811.80111,83.026347 813.47043,80.899219 C 815.13971,78.772103 815.97436,75.644811 815.97438,71.517334 C 815.97436,68.854925 815.54471,66.474239 814.68543,64.375268 C 814.02332,62.769384 813.02667,61.483954 811.69548,60.518975 C 810.36425,59.554049 808.90978,59.071573 807.33206,59.071545 C 804.7964,59.071573 802.70802,60.12809 801.0669,62.2411 C 799.42577,64.35416 798.60521,67.622321 798.60521,72.045593 L 798.60521,72.045593 z M 830.23738,87.069287 L 830.23738,59.747717 L 821.86975,59.747717 L 821.86975,56.092162 L 842.007,56.092162 L 842.007,59.747717 L 833.59711,59.747717 L 833.59711,87.069287 L 830.23738,87.069287 z "
       id="flowRoot5232" />
  </g>
</svg>
