<svg xmlns="http://www.w3.org/2000/svg" xmlns:xlink="http://www.w3.org/1999/xlink" width="500" zoomAndPan="magnify" viewBox="0 0 375 374.999991" height="500" preserveAspectRatio="xMidYMid meet" version="1.0"><defs><clipPath id="id1"><path d="M 75 81.113281 L 299.976562 81.113281 L 299.976562 294.113281 L 75 294.113281 Z M 75 81.113281 " clip-rule="nonzero"/></clipPath></defs><path fill="#ffffff" d="M 187.320312 18.945312 C 94.328125 18.945312 18.945312 94.328125 18.945312 187.320312 C 18.945312 280.3125 94.328125 355.695312 187.320312 355.695312 C 280.3125 355.695312 355.695312 280.3125 355.695312 187.320312 C 355.695312 94.328125 280.3125 18.945312 187.320312 18.945312 " fill-opacity="1" fill-rule="nonzero"/><path fill="#ffffff" d="M 186.101562 17.566406 C 92.28125 17.566406 16.226562 93.621094 16.226562 187.441406 C 16.226562 281.257812 92.28125 357.316406 186.101562 357.316406 C 279.921875 357.316406 355.976562 281.257812 355.976562 187.441406 C 355.976562 93.621094 279.921875 17.566406 186.101562 17.566406 " fill-opacity="1" fill-rule="nonzero"/><path fill="#de2e1b" d="M 187.359375 364.972656 C 139.9375 364.972656 95.285156 346.515625 61.777344 312.9375 C 28.199219 279.429688 9.742188 234.777344 9.742188 187.359375 C 9.742188 139.9375 28.199219 95.285156 61.777344 61.777344 C 95.285156 28.199219 139.9375 9.742188 187.359375 9.742188 C 234.777344 9.742188 279.429688 28.199219 312.9375 61.777344 C 346.515625 95.355469 364.972656 139.9375 364.972656 187.359375 C 364.972656 234.777344 346.515625 279.429688 312.9375 312.9375 C 279.429688 346.515625 234.777344 364.972656 187.359375 364.972656 Z M 187.359375 20.390625 C 142.777344 20.390625 100.820312 37.785156 69.304688 69.304688 C 37.785156 100.820312 20.390625 142.777344 20.390625 187.359375 C 20.390625 231.9375 37.785156 273.894531 69.304688 305.414062 C 100.820312 336.933594 142.777344 354.324219 187.359375 354.324219 C 231.9375 354.324219 273.894531 336.933594 305.414062 305.414062 C 336.933594 273.894531 354.324219 231.9375 354.324219 187.359375 C 354.324219 142.777344 336.933594 100.820312 305.414062 69.304688 C 273.894531 37.785156 231.9375 20.390625 187.359375 20.390625 Z M 187.359375 20.390625 " fill-opacity="1" fill-rule="nonzero"/><g clip-path="url(#id1)"><path fill="#d44013" d="M 272.285156 81.683594 C 267.28125 82.636719 262.160156 86.253906 259.023438 91.144531 C 256.28125 95.359375 256.441406 97.585938 259.578125 99.8125 C 260.53125 100.488281 261.683594 101.761719 262.160156 102.636719 C 262.914062 104.144531 264.621094 105.457031 265.851562 105.457031 C 266.765625 105.457031 268.351562 103.429688 269.902344 100.289062 C 272.085938 95.835938 274.191406 93.929688 276.851562 93.929688 C 280.265625 93.929688 283.203125 97.707031 283.203125 102.039062 C 283.203125 110.269531 276.097656 119.054688 266.328125 122.992188 C 262.238281 124.621094 258.070312 125.101562 250.246094 124.820312 C 243.136719 124.542969 237.894531 123.867188 232.457031 122.476562 C 227.890625 121.324219 218.953125 121.164062 217.085938 122.238281 C 216.453125 122.59375 214.109375 124.621094 211.964844 126.691406 C 209.660156 128.957031 207.199219 130.90625 206.007812 131.5 C 203.230469 132.851562 199.179688 133.527344 189.488281 134.285156 C 179.957031 135.039062 176.703125 135.636719 171.816406 137.542969 C 166.65625 139.574219 164.628906 140.6875 162.644531 142.515625 C 161.097656 143.945312 160.898438 144.34375 160.898438 145.816406 C 160.898438 146.886719 161.175781 147.84375 161.691406 148.519531 C 162.726562 149.789062 162.644531 149.832031 155.972656 150.625 C 141.679688 152.296875 132.265625 154.679688 126.429688 158.019531 C 118.410156 162.59375 105.699219 174.523438 100.179688 182.59375 C 96.050781 188.636719 95.179688 190.902344 92.398438 202.871094 C 89.855469 213.804688 89.300781 215.355469 87.554688 216.429688 C 84.933594 218.058594 83.941406 221.039062 85.25 223.507812 C 86.640625 226.210938 89.855469 225.652344 92.953125 222.113281 C 95.457031 219.25 96.964844 215.910156 96.964844 213.207031 C 96.964844 211.9375 97.085938 210.34375 97.203125 209.667969 C 97.480469 208.238281 98.554688 208 98.554688 209.3125 C 98.554688 209.828125 99.1875 211.738281 99.984375 213.605469 C 104.191406 223.664062 104.3125 224.0625 102.960938 226.648438 C 102.523438 227.441406 97.957031 233.765625 92.796875 240.640625 C 81.398438 255.871094 80.644531 257.261719 79.292969 265.292969 C 78.738281 268.472656 77.824219 272.648438 77.269531 274.636719 C 75.242188 281.515625 75.203125 281.675781 76.554688 283.820312 C 79.054688 287.835938 83.941406 289.230469 95.574219 289.230469 C 108.242188 289.269531 113.40625 287.519531 114.277344 282.90625 C 114.714844 280.679688 113.800781 278.613281 111.179688 275.710938 C 109.832031 274.238281 108.402344 272.25 107.964844 271.296875 C 106.972656 268.992188 106.933594 265.929688 107.964844 264.539062 C 108.796875 263.386719 112.96875 260.484375 119.28125 256.625 C 121.546875 255.234375 124.800781 253.046875 126.550781 251.734375 C 130.558594 248.753906 131.511719 248.714844 133.378906 251.496094 C 134.769531 253.605469 136.714844 258.414062 137.984375 262.90625 C 138.699219 265.492188 138.820312 267.003906 138.859375 274.121094 C 138.859375 282.3125 138.859375 282.3125 139.851562 283.425781 C 141.519531 285.214844 143.625 285.890625 149.183594 286.367188 C 154.542969 286.882812 162.605469 286.644531 166.257812 285.890625 C 168.679688 285.414062 171.300781 283.941406 172.175781 282.628906 C 173.007812 281.355469 173.007812 279.128906 172.175781 277.5 C 171.816406 276.785156 170.308594 274.957031 168.839844 273.445312 C 165.820312 270.304688 165.503906 269.507812 165.066406 264.101562 C 164.710938 259.527344 163.003906 246.925781 162.289062 243.386719 C 161.335938 238.933594 161.375 238.894531 167.054688 238.457031 C 172.097656 238.058594 174.757812 237.5 178.371094 235.992188 C 181.707031 234.597656 181.707031 234.597656 182.382812 235.433594 C 184.605469 238.175781 182.9375 256.585938 179.285156 269.070312 C 177.179688 276.148438 175.988281 281.238281 175.988281 282.828125 C 175.988281 286.683594 178.292969 290.621094 181.386719 291.972656 C 184.367188 293.324219 190.363281 294.039062 198.425781 294.078125 C 206.921875 294.121094 210.058594 293.5625 212.480469 291.613281 C 214.984375 289.585938 215.5 288.59375 215.5 285.570312 C 215.5 283.066406 215.378906 282.75 213.910156 280.640625 C 208.707031 273.324219 208.945312 273.722656 208.945312 271.457031 C 208.945312 268.316406 211.371094 256.148438 212.5625 253.367188 C 212.800781 252.808594 213.15625 250.660156 213.355469 248.59375 C 213.59375 246.527344 213.910156 244.660156 214.070312 244.5 C 215.421875 243.148438 227.492188 251.933594 229.796875 255.910156 C 231.34375 258.613281 231.382812 260.003906 230.152344 264.777344 C 228.882812 269.785156 229 271.417969 230.789062 273.207031 C 233.25 275.632812 239.324219 277.660156 246.550781 278.414062 C 255.050781 279.328125 263.269531 277.378906 265.574219 273.84375 C 266.605469 272.292969 266.089844 269.867188 263.828125 265.214844 C 262.554688 262.589844 261.164062 258.773438 259.976562 254.558594 C 257.550781 245.890625 255.367188 241.320312 252.785156 239.210938 C 251.714844 238.375 248.65625 235.511719 245.996094 232.847656 C 240.875 227.761719 239.5625 225.734375 237.417969 219.769531 C 235.792969 215.195312 235.75 214.242188 236.984375 206.765625 L 238.09375 199.96875 L 237.417969 195.078125 C 237.023438 192.414062 236.386719 189.035156 235.910156 187.601562 C 235.355469 185.734375 235.234375 184.78125 235.511719 184.261719 C 236.070312 183.230469 238.371094 181.519531 240.4375 180.644531 C 242.699219 179.652344 246.710938 175.914062 250.445312 171.222656 C 254.929688 165.65625 254.496094 165.894531 264.066406 163.707031 C 273.4375 161.601562 276.96875 159.613281 276.773438 156.589844 C 276.730469 155.914062 276.8125 155.117188 276.96875 154.878906 C 277.128906 154.601562 278.996094 153.488281 281.140625 152.375 C 287.851562 148.875 292.734375 144.582031 292.734375 142.277344 C 292.734375 141.800781 292.457031 141.003906 292.101562 140.488281 C 291.226562 139.253906 289.996094 139.453125 283.246094 142.039062 C 277.050781 144.421875 275.582031 144.503906 279.035156 142.238281 C 286.777344 137.226562 296.269531 123.113281 298.730469 112.8125 C 299.765625 108.480469 299.683594 104.78125 298.492188 100.089844 C 295.914062 89.832031 290.589844 83.671875 282.769531 81.800781 C 279.949219 81.164062 275.34375 81.085938 272.285156 81.683594 Z M 240.476562 138.578125 C 241.152344 139.054688 241.074219 139.175781 239.761719 140.367188 C 238.96875 141.082031 238.015625 141.640625 237.699219 141.640625 C 236.1875 141.640625 233.25 139.292969 233.765625 138.5 C 234.125 137.863281 239.601562 137.941406 240.476562 138.578125 Z M 199.617188 163.03125 C 200.050781 163.070312 201.839844 163.269531 203.585938 163.429688 L 206.761719 163.707031 L 203.707031 165.773438 L 200.648438 167.882812 L 201.640625 170.265625 C 202.632812 172.730469 202.832031 173.84375 202.277344 173.84375 C 202.078125 173.84375 200.726562 173.089844 199.21875 172.214844 C 197.472656 171.140625 196.320312 170.664062 196.042969 170.902344 C 193.699219 172.652344 191.039062 174.324219 190.839844 174.125 C 190.679688 174.003906 190.878906 173.128906 191.277344 172.175781 C 192.585938 168.914062 192.667969 168.398438 191.832031 167.363281 C 191.433594 166.808594 190.164062 165.773438 189.011719 165.058594 L 186.949219 163.707031 L 188.496094 163.429688 C 189.371094 163.269531 190.71875 163.148438 191.515625 163.148438 C 193.660156 163.109375 194.851562 161.917969 195.882812 158.816406 L 196.796875 156.152344 L 197.828125 159.53125 C 198.621094 162.15625 199.019531 162.953125 199.617188 163.03125 Z M 165.703125 170.1875 C 166.417969 172.574219 167.488281 173.289062 170.824219 173.605469 C 172.375 173.765625 173.605469 174.042969 173.527344 174.242188 C 173.445312 174.441406 172.53125 175.15625 171.460938 175.914062 C 168.679688 177.78125 168.5625 178.101562 169.4375 180.960938 C 169.832031 182.316406 170.03125 183.507812 169.871094 183.667969 C 169.714844 183.824219 168.640625 183.46875 167.449219 182.832031 C 164.710938 181.320312 163.320312 181.398438 160.859375 183.1875 C 159.746094 183.984375 158.753906 184.542969 158.675781 184.460938 C 158.554688 184.34375 158.792969 183.109375 159.152344 181.679688 C 159.507812 180.207031 159.707031 178.617188 159.546875 178.140625 C 159.429688 177.582031 158.355469 176.589844 156.847656 175.636719 L 154.347656 174.042969 L 158 173.804688 C 159.984375 173.648438 161.8125 173.449219 162.011719 173.289062 C 162.207031 173.167969 162.804688 171.660156 163.320312 169.910156 C 164.351562 166.410156 164.589844 166.449219 165.703125 170.1875 Z M 136.832031 187.523438 C 136.992188 188.515625 137.507812 189.867188 137.984375 190.625 C 138.859375 191.855469 139.019531 191.9375 141.640625 192.054688 C 143.1875 192.136719 144.578125 192.335938 144.734375 192.492188 C 144.894531 192.652344 144.0625 193.449219 142.828125 194.28125 C 141.597656 195.078125 140.527344 195.992188 140.40625 196.269531 C 140.289062 196.589844 140.488281 197.820312 140.84375 199.054688 C 141.835938 202.394531 141.203125 202.832031 138.304688 200.882812 C 137.351562 200.207031 136.277344 199.691406 135.921875 199.691406 C 135.523438 199.691406 134.292969 200.324219 133.101562 201.082031 C 130.640625 202.632812 129.726562 202.832031 130.042969 201.757812 C 131.550781 197.265625 131.355469 196.308594 128.535156 194.125 C 127.582031 193.367188 126.789062 192.613281 126.746094 192.414062 C 126.746094 192.253906 128.058594 192.136719 129.644531 192.136719 C 132.980469 192.136719 133.457031 191.816406 134.292969 189.152344 C 135.007812 186.886719 135.839844 185.335938 136.238281 185.574219 C 136.4375 185.65625 136.714844 186.570312 136.832031 187.523438 Z M 198.226562 189.550781 C 198.703125 190.742188 199.296875 191.898438 199.574219 192.09375 C 199.855469 192.335938 201.71875 192.652344 203.746094 192.8125 L 207.476562 193.128906 L 205.292969 194.640625 C 204.101562 195.433594 202.710938 196.546875 202.234375 197.066406 L 201.363281 197.980469 L 202.117188 201.042969 C 202.554688 202.710938 202.792969 204.0625 202.632812 204.0625 C 202.515625 204.0625 201.324219 203.347656 200.011719 202.472656 C 198.703125 201.597656 197.351562 200.882812 197.035156 200.882812 C 196.714844 200.882812 195.445312 201.519531 194.253906 202.273438 C 192.46875 203.425781 191.078125 203.984375 191.078125 203.546875 C 191.078125 203.507812 191.355469 202.59375 191.671875 201.519531 C 192.585938 198.496094 192.46875 197.542969 190.878906 196.152344 C 190.125 195.476562 188.894531 194.601562 188.179688 194.242188 L 186.90625 193.527344 L 189.886719 193.207031 C 194.96875 192.652344 194.414062 193.050781 196.28125 188.238281 C 196.796875 186.886719 197.273438 187.164062 198.226562 189.550781 Z M 166.855469 203.1875 C 168.007812 206.171875 168.285156 206.328125 172.375 206.410156 L 174.875 206.449219 L 172.375 208.277344 C 170.984375 209.3125 169.753906 210.1875 169.675781 210.265625 C 169.59375 210.34375 169.914062 211.617188 170.390625 213.167969 C 170.824219 214.679688 171.222656 216.03125 171.222656 216.148438 C 171.222656 216.667969 170.191406 216.308594 168.363281 215.15625 C 165.902344 213.566406 164.867188 213.566406 162.367188 215.316406 C 159.785156 217.144531 159.308594 216.785156 160.261719 213.726562 C 160.660156 212.453125 161.015625 211.140625 161.136719 210.824219 C 161.214844 210.425781 160.421875 209.667969 158.714844 208.636719 C 157.324219 207.761719 156.171875 206.925781 156.132812 206.808594 C 156.132812 206.6875 157.285156 206.449219 158.714844 206.328125 C 160.144531 206.171875 161.613281 205.890625 162.011719 205.695312 C 162.40625 205.496094 163.160156 204.382812 163.679688 203.1875 C 164.789062 200.722656 165.304688 199.96875 165.625 200.324219 C 165.742188 200.445312 166.296875 201.71875 166.855469 203.1875 Z M 166.855469 203.1875 " fill-opacity="1" fill-rule="nonzero"/></g></svg>