<svg xmlns="http://www.w3.org/2000/svg" xmlns:xlink="http://www.w3.org/1999/xlink" width="500" zoomAndPan="magnify" viewBox="0 0 375 374.999991" height="500" preserveAspectRatio="xMidYMid meet" version="1.0"><defs><clipPath id="id1"><path d="M 140.375 92.5 L 344.652344 92.5 L 344.652344 282.222656 L 140.375 282.222656 Z M 140.375 92.5 " clip-rule="nonzero"/></clipPath></defs><path fill="#ffffff" d="M 187.320312 18.945312 C 94.328125 18.945312 18.945312 94.328125 18.945312 187.320312 C 18.945312 280.3125 94.328125 355.695312 187.320312 355.695312 C 280.3125 355.695312 355.695312 280.3125 355.695312 187.320312 C 355.695312 94.328125 280.3125 18.945312 187.320312 18.945312 " fill-opacity="1" fill-rule="nonzero"/><path fill="#ffffff" d="M 186.101562 17.566406 C 92.28125 17.566406 16.226562 93.621094 16.226562 187.441406 C 16.226562 281.257812 92.28125 357.316406 186.101562 357.316406 C 279.921875 357.316406 355.976562 281.257812 355.976562 187.441406 C 355.976562 93.621094 279.921875 17.566406 186.101562 17.566406 " fill-opacity="1" fill-rule="nonzero"/><path fill="#d44013" d="M 187.359375 364.972656 C 139.9375 364.972656 95.285156 346.515625 61.777344 312.9375 C 28.199219 279.429688 9.742188 234.777344 9.742188 187.359375 C 9.742188 139.9375 28.199219 95.285156 61.777344 61.777344 C 95.285156 28.199219 139.9375 9.742188 187.359375 9.742188 C 234.777344 9.742188 279.429688 28.199219 312.9375 61.777344 C 346.515625 95.355469 364.972656 139.9375 364.972656 187.359375 C 364.972656 234.777344 346.515625 279.429688 312.9375 312.9375 C 279.429688 346.515625 234.777344 364.972656 187.359375 364.972656 Z M 187.359375 20.390625 C 142.777344 20.390625 100.820312 37.785156 69.304688 69.304688 C 37.785156 100.820312 20.390625 142.777344 20.390625 187.359375 C 20.390625 231.9375 37.785156 273.894531 69.304688 305.414062 C 100.820312 336.933594 142.777344 354.324219 187.359375 354.324219 C 231.9375 354.324219 273.894531 336.933594 305.414062 305.414062 C 336.933594 273.894531 354.324219 231.9375 354.324219 187.359375 C 354.324219 142.777344 336.933594 100.820312 305.414062 69.304688 C 273.894531 37.785156 231.9375 20.390625 187.359375 20.390625 Z M 187.359375 20.390625 " fill-opacity="1" fill-rule="nonzero"/><path fill="#004aad" d="M 131.382812 221.320312 C 89.007812 202.542969 62.964844 227.011719 62.964844 227.011719 C 62.964844 227.011719 72.046875 238.394531 110.054688 237.128906 C 149.15625 235.832031 140.671875 270.84375 140.671875 270.84375 C 147.21875 261.574219 159.675781 233.859375 131.382812 221.320312 Z M 282.785156 157.6875 C 259.460938 153.613281 252.585938 160.847656 252.585938 160.847656 C 252.585938 160.847656 272.433594 167.800781 283.417969 174.125 C 283.417969 174.125 311.5 175.597656 315.511719 150.3125 C 315.511719 150.3125 308.761719 162.226562 282.785156 157.6875 Z M 212.464844 180.65625 C 195.363281 173.066406 176.78125 172.4375 176.78125 172.4375 C 176.78125 172.4375 178.046875 172.230469 193.253906 172.859375 C 208.453125 173.492188 212.464844 166.75 212.464844 166.75 C 212.464844 166.75 188.96875 163.15625 167.5625 163.730469 C 135.890625 164.566406 113.640625 174.753906 117.234375 185.71875 C 120.824219 196.667969 152.355469 196.039062 152.355469 196.039062 L 152.078125 187.824219 C 152.078125 187.824219 155.453125 197.515625 162.628906 195.195312 C 169.8125 192.878906 163.605469 184.90625 163.605469 184.90625 C 170.152344 181.953125 178.046875 184.65625 175.300781 193.933594 C 172.554688 203.203125 148.066406 201.097656 148.066406 201.097656 C 148.066406 201.097656 152.917969 204.046875 170.023438 203.410156 C 187.125 202.78125 194.730469 189.929688 194.730469 189.929688 C 205.289062 184.65625 237.804688 198.144531 237.804688 198.144531 C 237.804688 198.144531 229.574219 188.242188 212.464844 180.65625 Z M 276.234375 139.566406 L 278.980469 132.402344 C 278.980469 132.402344 251.742188 144.625 232.101562 144.625 C 232.101562 144.625 243.089844 139.777344 246.882812 128.398438 C 246.882812 128.398438 213.945312 140.199219 182.058594 139.984375 C 150.175781 139.777344 130.957031 146.097656 130.957031 146.097656 L 132.4375 134.507812 C 132.4375 134.507812 93.582031 148.628906 81.546875 169.273438 C 81.546875 169.273438 110.902344 148.203125 157.351562 150.945312 C 203.8125 153.683594 224.503906 156.84375 236.746094 157.6875 C 248.992188 158.53125 273.492188 146.730469 276.234375 139.566406 Z M 167.980469 223.433594 C 170.796875 239.445312 158.132812 243.941406 158.132812 243.941406 C 158.972656 230.179688 142.523438 221.765625 130.027344 215.679688 C 110.542969 206.183594 96.378906 207.710938 74.136719 213.613281 C 51.894531 219.511719 44.664062 251.253906 44.664062 251.253906 C 37.90625 242.539062 30.589844 216.414062 42.128906 192.53125 C 53.671875 168.648438 88.585938 177.636719 88.585938 177.636719 C 40.441406 175.390625 42.128906 206.578125 42.128906 206.578125 C 52.265625 177.921875 98.15625 183.816406 98.15625 183.816406 C 100.132812 200.394531 115.578125 202.292969 136.699219 205.105469 C 157.808594 207.914062 167.980469 223.433594 167.980469 223.433594 " fill-opacity="1" fill-rule="nonzero"/><g clip-path="url(#id1)"><path fill="#c8102e" d="M 225.699219 122.1875 L 235.363281 115.179688 L 245.027344 122.1875 L 241.335938 110.847656 L 251 103.839844 L 239.050781 103.839844 L 235.363281 92.5 L 231.671875 103.839844 L 219.722656 103.839844 L 229.386719 110.847656 Z M 186.238281 128.71875 L 195.90625 121.710938 L 205.570312 128.71875 L 201.875 117.378906 L 211.546875 110.371094 L 199.597656 110.371094 L 195.90625 99.03125 L 192.210938 110.371094 L 180.261719 110.371094 L 189.933594 117.378906 Z M 156.445312 128.242188 L 166.109375 135.25 L 162.421875 123.914062 L 172.085938 116.90625 L 160.136719 116.90625 L 156.445312 105.566406 L 152.75 116.90625 L 140.808594 116.90625 L 150.472656 123.914062 L 146.78125 135.25 Z M 173.617188 277.800781 C 173.617188 277.800781 234.003906 272.53125 293.554688 282.222656 L 312.226562 247.925781 C 312.226562 247.925781 248.71875 251.410156 221.125 258.414062 C 193.53125 265.417969 173.617188 277.800781 173.617188 277.800781 Z M 253.433594 227.011719 C 207.78125 234.480469 160.945312 270.84375 160.945312 270.84375 C 160.945312 270.84375 221.585938 251.382812 252.976562 245.96875 C 287.589844 240.003906 315.511719 241.976562 315.511719 241.976562 L 326.917969 221.328125 C 302.421875 221.328125 290.457031 220.957031 253.433594 227.011719 Z M 344.652344 187.609375 L 331.136719 213.609375 C 331.136719 213.609375 275.382812 213.488281 237.804688 221.746094 C 203.734375 229.242188 149.539062 266.421875 149.539062 266.421875 C 149.539062 266.421875 182.902344 217.53125 232.3125 206.152344 C 281.730469 194.777344 321.421875 197.726562 344.652344 187.609375 " fill-opacity="1" fill-rule="nonzero"/></g></svg>