<svg xmlns="http://www.w3.org/2000/svg" xmlns:xlink="http://www.w3.org/1999/xlink" width="500" zoomAndPan="magnify" viewBox="0 0 375 374.999991" height="500" preserveAspectRatio="xMidYMid meet" version="1.0"><defs><clipPath id="id1"><path d="M 74 64 L 301.144531 64 L 301.144531 308 L 74 308 Z M 74 64 " clip-rule="nonzero"/></clipPath></defs><path fill="#ffffff" d="M 187.320312 18.945312 C 94.328125 18.945312 18.945312 94.328125 18.945312 187.320312 C 18.945312 280.3125 94.328125 355.695312 187.320312 355.695312 C 280.3125 355.695312 355.695312 280.3125 355.695312 187.320312 C 355.695312 94.328125 280.3125 18.945312 187.320312 18.945312 " fill-opacity="1" fill-rule="nonzero"/><path fill="#ffffff" d="M 186.101562 17.566406 C 92.28125 17.566406 16.226562 93.621094 16.226562 187.441406 C 16.226562 281.257812 92.28125 357.316406 186.101562 357.316406 C 279.921875 357.316406 355.976562 281.257812 355.976562 187.441406 C 355.976562 93.621094 279.921875 17.566406 186.101562 17.566406 " fill-opacity="1" fill-rule="nonzero"/><path fill="#066913" d="M 187.359375 364.972656 C 139.9375 364.972656 95.285156 346.515625 61.777344 312.9375 C 28.199219 279.429688 9.742188 234.777344 9.742188 187.359375 C 9.742188 139.9375 28.199219 95.285156 61.777344 61.777344 C 95.285156 28.199219 139.9375 9.742188 187.359375 9.742188 C 234.777344 9.742188 279.429688 28.199219 312.9375 61.777344 C 346.515625 95.355469 364.972656 139.9375 364.972656 187.359375 C 364.972656 234.777344 346.515625 279.429688 312.9375 312.9375 C 279.429688 346.515625 234.777344 364.972656 187.359375 364.972656 Z M 187.359375 20.390625 C 142.777344 20.390625 100.820312 37.785156 69.304688 69.304688 C 37.785156 100.820312 20.390625 142.777344 20.390625 187.359375 C 20.390625 231.9375 37.785156 273.894531 69.304688 305.414062 C 100.820312 336.933594 142.777344 354.324219 187.359375 354.324219 C 231.9375 354.324219 273.894531 336.933594 305.414062 305.414062 C 336.933594 273.894531 354.324219 231.9375 354.324219 187.359375 C 354.324219 142.777344 336.933594 100.820312 305.414062 69.304688 C 273.894531 37.785156 231.9375 20.390625 187.359375 20.390625 Z M 187.359375 20.390625 " fill-opacity="1" fill-rule="nonzero"/><g clip-path="url(#id1)"><path fill="#066913" d="M 300.421875 216.652344 C 295.53125 209.496094 261.84375 134.664062 261.351562 130.234375 C 272.027344 128.625 278.832031 119.855469 278.875 110.753906 C 278.90625 103.511719 271.945312 101.234375 268.976562 104.445312 C 267 106.585938 268.246094 110.109375 270.25 110.257812 C 270.261719 113.613281 268.5625 114.570312 266.023438 117.050781 C 263.558594 119.457031 255.007812 116.421875 251.84375 115.089844 C 246.839844 112.96875 242.277344 110.082031 236.273438 106.441406 L 236.277344 106.453125 C 229.203125 102.269531 226.054688 101.023438 222.59375 99.835938 L 222.589844 99.824219 C 209.628906 96.089844 203.976562 99.90625 200.121094 102.078125 L 200.203125 102.117188 L 200.082031 102.132812 C 197.136719 103.972656 195.816406 105.113281 193.199219 105.738281 C 193.199219 105.738281 192.128906 105.292969 192.128906 105.292969 C 191.347656 104.96875 190.992188 99.738281 192.046875 97.4375 C 193.988281 93.203125 200.4375 92.546875 201.644531 85.050781 C 202.640625 79.105469 199.300781 74.84375 194.957031 70.820312 C 194.957031 70.820312 195.019531 70.789062 195.019531 70.789062 C 194.953125 70.820312 193.503906 69.363281 193.367188 69.230469 C 192.625 68.511719 192.109375 67.597656 191.53125 66.753906 C 189.386719 63.621094 187.167969 64.394531 187.523438 64.363281 C 183.644531 64.714844 183.046875 68.304688 181.597656 69.59375 L 180.097656 70.996094 L 180.152344 71.015625 C 178.203125 72.835938 174.949219 75.648438 173.851562 80.4375 C 172.566406 85.878906 174.800781 89.8125 179.078125 93.226562 C 182.023438 95.578125 184.617188 96.859375 183.765625 103.449219 C 183.402344 106.269531 182.609375 106.054688 180.953125 105.417969 C 172.726562 102.277344 167.503906 89.738281 137.316406 107.464844 L 137.34375 107.488281 C 136.222656 108.164062 136.167969 108.160156 134.851562 109.027344 L 134.824219 109.140625 C 129.707031 111.917969 124.59375 115.316406 117.765625 117.058594 C 115.777344 117.566406 113.617188 118.386719 111.550781 117.925781 C 107.902344 117.117188 104.808594 112.878906 105.089844 110.277344 C 105.082031 110.320312 106.253906 109.707031 106.363281 109.605469 C 108.789062 107.269531 106.679688 102.066406 101.71875 103.171875 C 91.023438 105.546875 97.183594 128.660156 113.996094 130.085938 C 113.722656 132.4375 91.519531 185.453125 75.152344 215.902344 C 74.636719 217.25 73.921875 217.734375 74.355469 219.039062 C 74.949219 220.8125 77.683594 222.410156 79.425781 223.054688 C 79.6875 223.0625 79.683594 223.0625 79.683594 223.0625 C 82.378906 233.523438 90.3125 243.035156 97.324219 247.699219 C 107.050781 254.171875 121.480469 254.167969 127.746094 253.070312 C 139.449219 251.082031 155.65625 240.945312 160.195312 227.382812 C 160.808594 225.550781 160.828125 225.535156 161.582031 223.507812 C 164.597656 223.527344 165.988281 220.085938 166.414062 219.492188 C 166.570312 217.464844 165.816406 216.117188 163.773438 215.484375 C 157.878906 202.332031 156.609375 205.382812 143.804688 173.128906 C 129.210938 136.21875 133.445312 140.1875 127.183594 128.320312 C 127.6875 128.035156 128.195312 127.746094 128.699219 127.460938 C 128.636719 127.507812 128.617188 127.652344 128.621094 127.722656 C 130.976562 126.441406 135.007812 121.917969 141.386719 118.347656 L 141.375 118.230469 C 144.746094 116.925781 145.199219 116.773438 146.09375 116.304688 C 150.5 115.667969 163.226562 112.597656 174.066406 130.054688 L 174.054688 130.203125 C 174.972656 132.039062 177.808594 139.199219 178.25 140.898438 C 173.601562 141.425781 173.421875 145.839844 173.148438 150.292969 L 173.273438 150.230469 C 173.28125 151.535156 173.472656 152.730469 173.757812 153.972656 L 173.613281 154 C 173.949219 154.664062 173.851562 154.390625 174.039062 155.207031 L 174.195312 155.15625 C 175.019531 156.789062 176.199219 158.40625 177.4375 159.851562 L 177.8125 161.125 C 178.59375 163.769531 175.347656 165.449219 174.929688 170.234375 C 174.496094 175.1875 176.804688 177.195312 176.609375 179.8125 C 176.347656 183.320312 174.878906 184.324219 176.300781 188.417969 L 176.269531 188.472656 C 176.667969 189.265625 176.949219 190.121094 177.273438 190.949219 C 177.667969 191.941406 178.332031 192.484375 178.339844 193.675781 C 178.34375 194.605469 177.949219 195.496094 177.683594 196.375 C 173.789062 209.304688 183.390625 213.714844 165.835938 246.195312 L 165.8125 246.167969 C 162.359375 252.71875 160.34375 255.183594 163.128906 264.183594 C 165.640625 272.316406 162.789062 272.25 154.742188 279.222656 L 154.824219 279.277344 C 154.316406 279.777344 141.453125 294.09375 141.050781 294.53125 C 140.542969 295.09375 143.300781 297.378906 143.699219 297.632812 C 146.128906 299.1875 147.574219 299.101562 155.011719 301.765625 C 181.113281 311.125 209.265625 308.410156 230.8125 298.28125 C 232.832031 297.285156 234.285156 296.027344 234.160156 293.824219 C 234.160156 293.808594 232.417969 292.402344 232.242188 292.214844 C 232.171875 292.144531 226.347656 285.589844 226.347656 285.503906 C 220.351562 278.578125 221.109375 279.75 218.4375 277.316406 L 218.398438 277.351562 C 209.078125 269.964844 210.574219 270.898438 213.394531 259.699219 L 213.257812 259.765625 C 214.015625 254.808594 212.6875 252.511719 210.816406 248.410156 L 210.742188 248.484375 C 209.609375 246.347656 209.210938 245.855469 207.992188 243.230469 L 207.964844 243.226562 C 201.980469 230.59375 200.472656 226.214844 198.828125 219.035156 C 198.828125 219.035156 198.636719 217.308594 198.558594 216.410156 L 198.53125 216.410156 C 198.355469 213.386719 198.40625 211.96875 198.566406 209.347656 L 198.527344 209.335938 C 198.722656 204.484375 198.816406 201.898438 198.0625 197.957031 L 198.070312 197.953125 C 198.019531 197.765625 198.058594 197.945312 197.863281 196.917969 L 197.796875 196.945312 C 197.371094 195.371094 196.898438 194.023438 197.183594 192.710938 C 197.386719 191.789062 197.917969 190.027344 198.734375 189.453125 C 199.800781 186.976562 199.871094 184.613281 199.175781 182.039062 C 197.648438 176.371094 203.304688 173.378906 198.5 164.859375 C 197.097656 162.375 197.324219 162.363281 197.6875 159.851562 C 198.019531 159.59375 198.238281 159.441406 198.480469 159.042969 L 198.480469 159.09375 L 200.585938 156.144531 C 202.382812 153.625 203.90625 142.070312 197.195312 140.890625 L 197.035156 141.058594 L 196.992188 141.023438 C 197.625 139.054688 200.296875 132.3125 200.5625 131.675781 L 200.527344 131.617188 C 206.019531 121.070312 214.152344 116.242188 221.511719 115.738281 C 223.363281 115.613281 223.5 115.554688 227.320312 115.996094 L 227.3125 115.890625 L 227.382812 116.03125 C 231.519531 117.03125 232.816406 117.730469 236.53125 119.785156 L 236.527344 119.882812 C 238.65625 121.277344 238.203125 120.960938 245.742188 127.0625 L 245.589844 126.753906 C 246.429688 127.332031 247.308594 127.84375 248.222656 128.289062 C 241.839844 139.097656 245.046875 141.242188 229.199219 178.808594 C 216.570312 208.902344 217.8125 201.644531 211.535156 215.492188 C 209.492188 216.132812 208.75 217.460938 208.90625 219.375 C 209.273438 219.992188 210.625 223.492188 213.746094 223.5 C 216.960938 232.183594 215.175781 229.488281 218.171875 233.878906 C 224.117188 242.578125 233.335938 249.085938 242.628906 251.890625 C 254.035156 255.332031 268.484375 253.261719 275.320312 249.253906 C 284.730469 243.738281 292.550781 234.558594 295.675781 223.050781 C 297.058594 222.863281 300.8125 220.6875 301.054688 218.625 C 301.109375 218.144531 301.042969 217.417969 300.421875 216.652344 Z M 134.199219 161.539062 C 140.328125 180.863281 155.074219 212.886719 156.785156 215.25 C 153.238281 215.496094 153.105469 215.601562 144.652344 215.324219 C 116.726562 214.40625 136.460938 216.652344 82.789062 214.875 C 84.785156 208.144531 88.964844 202.828125 91.996094 196.410156 C 95.792969 188.417969 99.105469 180.148438 102.746094 172.136719 C 109.339844 157.457031 114.972656 145.625 118.523438 130.484375 C 119.75 130.457031 120.925781 130.394531 122.476562 130.058594 C 124.976562 133.09375 132.976562 157.78125 134.199219 161.539062 Z M 147.320312 110.53125 C 147.460938 110.363281 147.570312 110.191406 147.644531 110.003906 C 147.652344 110.160156 147.53125 110.386719 147.320312 110.53125 Z M 169.371094 119.261719 C 169.351562 119.226562 169.335938 119.1875 169.324219 119.144531 C 169.351562 119.136719 169.394531 119.128906 169.445312 119.132812 C 169.433594 119.167969 169.40625 119.21875 169.371094 119.261719 Z M 182.496094 124.414062 C 182.46875 124.371094 182.453125 124.328125 182.445312 124.285156 C 182.496094 124.269531 182.511719 124.28125 182.523438 124.292969 C 182.523438 124.332031 182.511719 124.375 182.496094 124.414062 Z M 208.777344 116.75 C 208.773438 116.714844 208.777344 116.683594 208.78125 116.65625 C 208.84375 116.667969 208.902344 116.699219 208.941406 116.730469 Z M 271.023438 215.515625 C 260 216.125 248.914062 215.03125 241.789062 215.097656 C 231.859375 215.027344 226.824219 215.84375 218.558594 215.234375 C 218.914062 214.894531 218.671875 215.097656 219.117188 214.730469 C 219.8125 212.9375 219.632812 212.449219 221.777344 208.453125 C 225.011719 202.761719 235.601562 177.878906 239.820312 165.511719 C 251.40625 131.484375 250.226562 133.335938 252.898438 129.925781 C 254.171875 130.21875 255.476562 130.394531 256.792969 130.460938 C 260.730469 147.164062 265.960938 157.019531 279.464844 187.886719 C 287.75 206.570312 290.28125 207.140625 292.550781 214.964844 C 292.550781 214.964844 284.5 214.933594 271.023438 215.515625 Z M 271.023438 215.515625 " fill-opacity="1" fill-rule="nonzero"/></g></svg>