<svg xmlns="http://www.w3.org/2000/svg" xmlns:xlink="http://www.w3.org/1999/xlink" width="500" zoomAndPan="magnify" viewBox="0 0 375 374.999991" height="500" preserveAspectRatio="xMidYMid meet" version="1.0"><path fill="#fdb515" d="M 320.464844 80.0625 C 314.828125 53.085938 298.308594 40.515625 280.332031 39.570312 C 274.519531 28.109375 231.988281 0.28125 194.324219 21.207031 C 187.203125 17.328125 165.476562 16.738281 156.484375 17.050781 C 131.648438 17.90625 108.945312 24.644531 90.851562 36.539062 C 49.882812 63.460938 35.183594 117.800781 42.246094 131.617188 C 12.167969 158.773438 0.0273438 246.644531 56 273.109375 C 67.851562 315.269531 99.742188 331.351562 151.007812 304.203125 C 175.527344 340.523438 201.902344 347.597656 220.003906 346.972656 C 250.042969 345.9375 273.257812 324.140625 282.71875 313.683594 C 341.621094 300.242188 358.636719 247.519531 341.605469 199.832031 C 341.589844 199.796875 341.578125 199.761719 341.558594 199.722656 C 364.917969 176.523438 374.207031 103.96875 320.464844 80.0625 Z M 320.464844 80.0625 " fill-opacity="1" fill-rule="nonzero"/><path fill="#9d2235" d="M 104.25 120.351562 C 104.25 120.351562 86.066406 176.582031 140.464844 199.570312 C 194.863281 222.554688 226.347656 225.394531 243.742188 253.578125 C 243.742188 253.578125 231.957031 238.28125 203.6875 248.417969 C 175.425781 258.550781 82.5 352.03125 65.859375 258.402344 C 65.859375 258.402344 23.238281 250.710938 30.484375 192.894531 C 37.730469 135.074219 64.84375 125.632812 104.25 120.351562 Z M 104.25 120.351562 " fill-opacity="1" fill-rule="nonzero"/><path fill="#9d2235" d="M 139.660156 186.511719 C 139.660156 186.511719 129.09375 93.980469 218.070312 72.59375 C 218.070312 72.59375 124.007812 31.351562 113.332031 111.53125 C 113.332031 111.53125 102.402344 168.171875 139.660156 186.511719 Z M 139.660156 186.511719 " fill-opacity="1" fill-rule="nonzero"/><path fill="#9d2235" d="M 164.601562 122.851562 C 164.601562 122.851562 134.121094 174.925781 159.445312 194.992188 C 184.769531 215.050781 202.304688 206.597656 249.226562 186.660156 C 249.226562 186.660156 243.691406 175.074219 222.78125 167.949219 C 201.871094 160.816406 174.949219 153.898438 186.386719 124.714844 C 186.386719 124.710938 169.324219 121.378906 164.601562 122.851562 Z M 164.601562 122.851562 " fill-opacity="1" fill-rule="nonzero"/><path fill="#9d2235" d="M 171.078125 110.847656 C 171.078125 110.847656 219.769531 100.011719 232.945312 157.128906 C 232.945312 157.128906 253.667969 122.394531 225.046875 88.054688 C 225.046875 88.054688 203.503906 90.109375 171.078125 110.847656 Z M 171.078125 110.847656 " fill-opacity="1" fill-rule="nonzero"/><path fill="#9d2235" d="M 237.757812 79.441406 C 237.757812 79.441406 284.957031 83.371094 289.074219 130.335938 C 293.1875 177.296875 240.914062 207.882812 229.871094 223.964844 C 229.871094 223.964844 241.308594 233.707031 252.050781 251.65625 C 252.050781 251.65625 252.996094 230.527344 278.636719 214.429688 C 314.070312 192.191406 335.929688 191.847656 342.277344 163.171875 C 351.03125 123.632812 338.269531 98.542969 306.125 89.839844 C 306.125 89.839844 306.195312 41.402344 266.09375 55.890625 C 256.773438 59.261719 253.007812 68.183594 237.757812 79.441406 Z M 237.757812 79.441406 " fill-opacity="1" fill-rule="nonzero"/><path fill="#9d2235" d="M 243.71875 97.878906 C 243.71875 97.878906 265.449219 137.691406 241.839844 164.671875 C 241.839844 164.671875 251.617188 166.953125 254.828125 179.925781 C 254.828125 179.925781 282.523438 160.652344 276.898438 128.136719 C 271.269531 95.621094 243.71875 97.878906 243.71875 97.878906 Z M 243.71875 97.878906 " fill-opacity="1" fill-rule="nonzero"/><path fill="#9d2235" d="M 103.042969 107.46875 C 103.042969 107.46875 106.402344 53.1875 165.113281 53.488281 L 185.164062 32.1875 C 185.164062 32.1875 74.417969 8.203125 52.386719 118.867188 C 52.386719 118.867188 79.019531 108.296875 103.042969 107.46875 Z M 103.042969 107.46875 " fill-opacity="1" fill-rule="nonzero"/><path fill="#9d2235" d="M 178.492188 55.640625 C 178.492188 55.640625 207.546875 0.015625 265.238281 42.1875 C 265.238281 42.1875 244.820312 47.792969 229.9375 69.894531 C 229.9375 69.894531 190.34375 52.617188 178.492188 55.640625 Z M 178.492188 55.640625 " fill-opacity="1" fill-rule="nonzero"/><path fill="#9d2235" d="M 160.550781 290.464844 C 160.550781 290.464844 185.386719 266.554688 213.730469 259.84375 C 226.796875 256.753906 240.097656 261.007812 252.964844 266.339844 C 252.964844 266.339844 272.816406 222.480469 327.40625 204.894531 C 327.40625 204.894531 355.101562 282.445312 274.132812 297.015625 C 274.132812 297.015625 213.957031 374.980469 160.550781 290.464844 Z M 160.550781 290.464844 " fill-opacity="1" fill-rule="nonzero"/><path fill="#9d2235" d="M 196.40625 130.914062 C 196.40625 130.914062 193.855469 148.007812 220.6875 153.625 C 220.6875 153.625 233.175781 141.417969 196.40625 130.914062 Z M 196.40625 130.914062 " fill-opacity="1" fill-rule="nonzero"/></svg>