<?xml version="1.0" encoding="utf-8"?>
<!-- Generator: Adobe Illustrator 26.0.3, SVG Export Plug-In . SVG Version: 6.00 Build 0)  -->
<svg version="1.1" id="Layer_1" xmlns="http://www.w3.org/2000/svg" xmlns:xlink="http://www.w3.org/1999/xlink" x="0px" y="0px"
	 viewBox="0 0 200 200" style="enable-background:new 0 0 200 200;" xml:space="preserve">
<style type="text/css">
	.st0{fill:#E4000D;}
</style>
<g>
	<path class="st0" d="M96.5,184.5c-25.3-5.8-43-21.2-50.9-44.1c-3.5-10.1-3.2-10.7,2-5.5c5.1,4.9,12.1,8.8,19.3,10.8
		c2.8,0.8,7,2.4,9.4,3.6c7.3,3.7,15.3,5.2,24.8,4.8c6.6-0.3,9-0.1,12.7,1c15.7,4.5,33.5,2.6,47.9-5.1c2.9-1.5,5.3-2.8,5.4-2.8
		c0.5,0-4.7,8.7-7.1,12.1c-3.7,5-11.3,12.3-18.3,16.6c-7.2,4.4-15.4,7.4-23.7,8.8C110.8,185.9,100.2,185.3,96.5,184.5z"/>
	<path class="st0" d="M60.1,176.3c-19.6-5.6-35.8-19.4-44.8-38c-3-6.2-5.1-11.9-6.1-18.2c-1.4-8.7-1.4-17.7,0.1-26.4
		c1.5-8.8,4.2-17.4,8.9-25.1C21,64.1,28.4,54.6,28.9,55c0.1,0.1-0.2,2.3-0.8,4.8c-1.4,6-1.3,19.6,0.1,26.6c0.6,3,2.2,8.2,3.5,11.6
		c2.5,6.1,2.5,6.3,2.7,18.3c0.2,10.6,0.5,13,2.1,18.8c4.4,15.9,13.5,29.7,25.5,38.7c2.3,1.8,4.4,3.3,4.5,3.5
		C67.5,178.2,65.3,177.8,60.1,176.3z M120.1,148c-2-0.6-1.6-0.9,2.5-2.2c4.1-1.3,10.7-4.7,14.8-7.6c14.4-10.2,23.6-25.9,25.8-43.8
		c1-7.7,0.2-16.5-2.1-24.4c-0.8-2.7-2.2-7.6-3.1-10.9c-3.2-12-7.3-19.8-14.6-28.2l-4.1-4.8l4.4,1c26,5.9,44.8,26.8,47.8,53.2
		c2.5,22-6.6,43.4-23.9,56.6c-10.8,8.2-22.4,11.9-36.8,11.8C125.8,148.5,121.1,148.3,120.1,148z"/>
	<path class="st0" d="M91.2,145.3c0-0.4,1.3-1.1,3-1.7c8.8-2.9,19.8-13.1,24.5-22.7c3.9-7.8,5-12.8,5-21.5
		c0-13.9-4.2-24.3-13.8-33.9c-4.7-4.8-6.8-6.3-12.2-8.8c-3.5-1.7-6.4-3.3-6.5-3.6c0-1,12.7-0.6,17.9,0.6
		c11.5,2.6,22.3,10.2,28.7,20.5c6.4,10.2,8.8,24.4,5.8,35.9c-4.2,16.6-14.4,27.9-30.2,33.6C108.8,145.4,91.2,146.6,91.2,145.3z"/>
	<path class="st0" d="M72.1,138.7c-8.3-1.5-15.3-5.4-21.6-12.2c-16.9-18.3-11.9-48.6,10.1-60.3c5.7-3,11.4-4.4,18.2-4.4
		c10.4,0,18.7,3.5,26.1,10.9c5.6,5.6,9,11.4,10.6,18.1c1.6,7.1,1.6,7.3-1.8,4.9c-6.5-4.7-15.9-6.2-23.6-4
		c-4.7,1.5-10.5,5.5-13.4,9.5c-7.6,10.4-7.4,25.3,0.6,34.4c1.4,1.7,2.6,3.2,2.6,3.5C79.9,139.6,76.2,139.4,72.1,138.7z"/>
	<path class="st0" d="M88.1,129.5c-3-0.8-6.8-4.2-8.8-7.7l-1.7-3l1.7,0.5c4.1,1.3,6.3,1.3,9.4-0.3c7-3.4,8.9-12.3,3.8-18l-2.1-2.5
		h3.1c2,0,4.5,0.7,7,2c12.1,6.1,10.7,24.6-2.1,28.9C95.7,130.4,91.2,130.4,88.1,129.5z M152.5,88.6c-0.2-0.6-0.8-2.3-1.3-3.9
		c-2.9-9.6-11.3-21.5-19.8-28.2c-5.9-4.6-15.7-9.6-22.5-11.5c-7.2-1.9-24-1.8-31.3,0.4c-11.7,3.4-24.5,11.8-31.2,20.7
		c-5.5,7.1-7.5,10.9-11.3,21.8c-1.4,4.1-2.8-9.9-1.8-18.6C35.9,47,50.7,27.4,71.3,19c3.2-1.3,7.5-2.6,9.5-2.8
		c14.7-3.8,31.3-0.2,43.4,6.7c6.6,3.9,16.4,13.3,20.5,19.5c6.6,10.4,9.8,21.6,9.7,34.2C154.2,84.7,153.3,90.8,152.5,88.6z"/>
</g>
</svg>
