<?xml version="1.0" encoding="utf-8"?>
<!-- Generator: Adobe Illustrator 26.2.1, SVG Export Plug-In . SVG Version: 6.00 Build 0)  -->
<svg version="1.1" id="Layer_1" xmlns="http://www.w3.org/2000/svg" xmlns:xlink="http://www.w3.org/1999/xlink" x="0px" y="0px"
	 viewBox="0 0 375 375" style="enable-background:new 0 0 375 375;" xml:space="preserve">
<style type="text/css">
	.st0{fill:#FDB515;}
	.st1{fill:#9D2234;}
	.st2{clip-path:url(#SVGID_00000113328744174878508640000014900471009345811593_);}
	.st3{clip-path:url(#SVGID_00000075884207734063440820000009991132809645346987_);}
	.st4{clip-path:url(#SVGID_00000076582407776111541400000007893198705815793817_);}
	.st5{clip-path:url(#SVGID_00000158018547711426737950000008419198016273931682_);}
	.st6{clip-path:url(#SVGID_00000098211579964635683060000016805930964977278887_);}
	.st7{clip-path:url(#SVGID_00000097489133121544818190000009119658307129733014_);}
	.st8{clip-path:url(#SVGID_00000056406226867676949730000000031115915155971207_);}
	.st9{fill:#FFFFFF;fill-opacity:0.4;}
</style>
<path class="st0" d="M188.5,16C91.5,16,13,93.7,13,189.5C13,285.3,91.5,363,188.5,363c96.9,0,175.5-77.7,175.5-173.5
	C364,93.7,285.4,16,188.5,16"/>
<path class="st1" d="M240.3,162c0,0-0.1,0-0.1,0l-73.1,0.3c-0.2,0-0.3,0-0.4,0.1c-1.1,0.5-1.7,1.6-1.7,2.9l0.2,44.1
	c0,1.2,0.7,2.3,1.7,2.8c0.2,0.1,0.3,0.1,0.5,0.1l73.1-0.3c0,0,0,0,0,0c0.6,0,2.1-0.1,2.1-1.2l-0.2-47.7
	C242.3,162.1,240.9,162,240.3,162"/>
<g>
	<defs>
		<rect id="SVGID_1_" x="244.2" y="164.2" width="58.5" height="45.3"/>
	</defs>
	<clipPath id="SVGID_00000038397135120125577120000003977252645598703794_">
		<use xlink:href="#SVGID_1_"  style="overflow:visible;"/>
	</clipPath>
	<g style="clip-path:url(#SVGID_00000038397135120125577120000003977252645598703794_);">
		<path class="st1" d="M291.5,181.3c-0.3,0.3-0.7,0.5-1.1,0.5c-0.3,0-0.7-0.1-0.9-0.3c-3.8-3.2-11-6.1-19.8-7.9
			c-4.1-0.8-8.5-1.5-13.1-1.8c-0.8-0.1-1.4-0.8-1.3-1.6c0.1-0.8,0.8-1.4,1.6-1.3c4.7,0.4,9.2,1,13.4,1.9c9.3,1.9,17,5,21.1,8.5
			C291.9,179.8,292,180.7,291.5,181.3z M245.2,164.2l0.2,45.2c31.1-0.3,57.2-10.5,57.2-22.6C302.6,174.7,276.4,164.4,245.2,164.2"/>
	</g>
</g>
<path class="st1" d="M147.1,154h-24v2.9h24V154"/>
<path class="st1" d="M119,154h-5.1v2.9h5.1V154"/>
<path class="st1" d="M147.1,212.9h-24v2.9h24V212.9"/>
<path class="st1" d="M119,215.8v-2.9h-5.1v2.9H119"/>
<g>
	<defs>
		<rect id="SVGID_00000039819004505682278670000017449813592017631875_" x="176.2" y="139.6" width="29.3" height="3.2"/>
	</defs>
	<clipPath id="SVGID_00000124149785543786839690000002850081292064413621_">
		<use xlink:href="#SVGID_00000039819004505682278670000017449813592017631875_"  style="overflow:visible;"/>
	</clipPath>
	<g style="clip-path:url(#SVGID_00000124149785543786839690000002850081292064413621_);">
		<path class="st1" d="M176.2,142.5h29v-2.9h-29V142.5"/>
	</g>
</g>
<g>
	<defs>
		<rect id="SVGID_00000128460295534442286710000005012812442204854930_" x="166.8" y="139.6" width="5.3" height="3.2"/>
	</defs>
	<clipPath id="SVGID_00000116945941906298016890000013068391894369594256_">
		<use xlink:href="#SVGID_00000128460295534442286710000005012812442204854930_"  style="overflow:visible;"/>
	</clipPath>
	<g style="clip-path:url(#SVGID_00000116945941906298016890000013068391894369594256_);">
		<path class="st1" d="M172.2,142.5v-2.9H167v2.9H172.2"/>
	</g>
</g>
<g>
	<defs>
		<rect id="SVGID_00000066508331759876545160000011036262693469051549_" x="176.2" y="232.7" width="29" height="3"/>
	</defs>
	<clipPath id="SVGID_00000046329585056797526020000013170189406574611846_">
		<use xlink:href="#SVGID_00000066508331759876545160000011036262693469051549_"  style="overflow:visible;"/>
	</clipPath>
	<g style="clip-path:url(#SVGID_00000046329585056797526020000013170189406574611846_);">
		<path class="st1" d="M176.2,232.7v2.9h29v-2.9H176.2"/>
	</g>
</g>
<g>
	<defs>
		<rect id="SVGID_00000176015460742436079910000018066524033567395202_" x="167" y="232.7" width="5.2" height="3"/>
	</defs>
	<clipPath id="SVGID_00000170242675963776693690000004100203430813856175_">
		<use xlink:href="#SVGID_00000176015460742436079910000018066524033567395202_"  style="overflow:visible;"/>
	</clipPath>
	<g style="clip-path:url(#SVGID_00000170242675963776693690000004100203430813856175_);">
		<path class="st1" d="M167,232.7v2.9h5.1v-2.9H167"/>
	</g>
</g>
<path class="st1" d="M146.7,183.7H112v2.9h34.6V183.7"/>
<g>
	<defs>
		<rect id="SVGID_00000127742226319486358830000014797446107968228507_" x="102.7" y="182.8" width="5.5" height="4"/>
	</defs>
	<clipPath id="SVGID_00000163771996615849090260000015785080418792304311_">
		<use xlink:href="#SVGID_00000127742226319486358830000014797446107968228507_"  style="overflow:visible;"/>
	</clipPath>
	<g style="clip-path:url(#SVGID_00000163771996615849090260000015785080418792304311_);">
		<path class="st1" d="M102.8,186.6h5.1v-2.9h-5.1V186.6"/>
	</g>
</g>
<path d="M187.4,371.1c-49.1,0-95.3-19.1-129.9-53.8C22.7,282.6,3.6,236.4,3.6,187.4c0-49.1,19.1-95.3,53.8-129.9
	C92.1,22.7,138.3,3.6,187.4,3.6c49.1,0,95.3,19.1,129.9,53.8c34.7,34.7,53.8,80.9,53.8,129.9c0,49.1-19.1,95.3-53.8,129.9
	C282.6,352,236.4,371.1,187.4,371.1z M187.4,14.6c-46.1,0-89.5,18-122.2,50.6c-32.6,32.6-50.6,76-50.6,122.2
	c0,46.1,18,89.5,50.6,122.2c32.6,32.6,76,50.6,122.2,50.6c46.1,0,89.5-18,122.2-50.6s50.6-76,50.6-122.2c0-46.1-18-89.5-50.6-122.2
	C276.9,32.6,233.5,14.6,187.4,14.6z"/>
<g>
	<defs>
		<rect id="SVGID_00000152948465940861857530000011312109898015679147_" x="13" y="13" width="351" height="351"/>
	</defs>
	<clipPath id="SVGID_00000120522440028776259650000007821995118463830958_">
		<use xlink:href="#SVGID_00000152948465940861857530000011312109898015679147_"  style="overflow:visible;"/>
	</clipPath>
	<g style="clip-path:url(#SVGID_00000120522440028776259650000007821995118463830958_);">
		<path class="st1" d="M353.1,235.3c-4.5,15.2-11.2,29.5-19.7,42.8c-7,10.8-14.9,20.9-23.8,30.1c-1.2,1.3-2.4,2.4-3.7,3.6
			c-1.2,1.2-2.4,2.4-3.7,3.5l-3.9,3.3l-1.9,1.7l-2,1.6l-4,3.2c-1.4,1-2.8,2-4.1,3c-2.7,2.1-5.6,3.9-8.4,5.8
			c-0.4,0.3-0.8,0.6-1.3,0.9c-0.5,0.3-0.9,0.6-1.4,0.9c-1,0.6-2.1,1.2-3.2,1.9c-2.2,1.4-4.9,2.7-7.8,4.3c-0.7,0.4-1.4,0.8-2.2,1.2
			c-0.8,0.4-1.6,0.7-2.4,1.1c-1.6,0.7-3.3,1.5-5,2.3c-3.5,1.4-7.2,3-11.2,4.3c-15.7,5.7-35.4,9.2-55.1,9.3
			c-19.7-0.1-39.4-3.6-55.1-9.3c-4-1.3-7.6-2.9-11.2-4.3c-1.7-0.8-3.4-1.6-5-2.3c-0.8-0.4-1.6-0.7-2.4-1.1c-0.8-0.4-1.5-0.8-2.2-1.2
			c-2.9-1.5-5.5-2.9-7.8-4.3c-1.1-0.7-2.2-1.3-3.2-1.9c-0.5-0.3-1-0.6-1.4-0.9c-0.4-0.3-0.9-0.6-1.3-0.9c-10.7-7-20.8-15-29.9-23.9
			c-9.6-9.6-18.1-20.4-25.5-31.9c-8.4-13.2-15.2-27.6-19.7-42.8c-4.6-15.1-6.8-30.9-6.9-46.8c0.1-15.8,2.3-31.7,6.9-46.8
			c4.4-15.2,11.2-29.5,19.7-42.8c7-10.8,14.9-20.9,23.8-30.1c1.1-1.3,2.4-2.4,3.7-3.6c1.2-1.2,2.5-2.4,3.7-3.5l5.8-5l2-1.6l4-3.2
			c1.4-1,2.8-2,4.1-3c2.7-2.1,5.6-3.9,8.4-5.8c0.4-0.3,0.8-0.6,1.3-0.9c0.5-0.3,0.9-0.6,1.4-0.9c1-0.6,2.1-1.2,3.2-1.9
			c2.3-1.4,4.9-2.8,7.8-4.3c0.7-0.4,1.5-0.8,2.2-1.1c0.8-0.4,1.6-0.7,2.4-1.1c1.6-0.7,3.3-1.5,5-2.3c3.5-1.4,7.2-3,11.2-4.3
			c15.7-5.7,35.4-9.2,55.1-9.3c19.7,0.1,39.4,3.6,55.1,9.3c4,1.3,7.6,2.9,11.2,4.3c1.7,0.8,3.4,1.6,5,2.3c0.8,0.4,1.6,0.7,2.4,1.1
			c0.8,0.4,1.5,0.8,2.2,1.1c2.9,1.5,5.5,2.9,7.8,4.3c1.1,0.7,2.2,1.3,3.2,1.9c0.5,0.3,1,0.6,1.4,0.9c0.4,0.3,0.9,0.6,1.3,0.9
			c10.7,7,20.8,15,29.9,24c9.7,9.6,18.1,20.4,25.5,31.9c8.4,13.2,15.2,27.6,19.7,42.8c4.6,15.1,6.8,30.9,6.9,46.8
			C359.9,204.3,357.7,220.2,353.1,235.3z M364,188.3L364,188.3c-0.1-16.2-2.3-32.4-7-47.8c-4.5-15.5-11.5-30.2-20.1-43.7l-4.2-6.3
			c0,0-1.2-1.7-3-4.2c-1.7-2.6-4.4-5.8-6.9-9c-2.7-3.1-5.4-6.3-7.6-8.5c-2.1-2.2-3.6-3.7-3.6-3.7s-0.4-0.4-1-1
			c-0.7-0.6-1.6-1.5-2.7-2.6c-2.2-2.2-5.3-4.9-8.4-7.6c-1.6-1.3-3.2-2.6-4.7-3.8c-0.8-0.6-1.5-1.2-2.2-1.7c-0.7-0.5-1.4-1-2-1.5
			c-2.5-1.8-4.2-3-4.2-3s-0.4-0.3-1-0.7c-0.6-0.4-1.4-0.9-2.1-1.4c-1.6-1-3.1-2.1-3.1-2.1c-0.4-0.3-0.9-0.6-1.3-0.9
			c-0.5-0.3-1-0.6-1.5-0.9c-1-0.6-2.1-1.3-3.3-2c-2.3-1.5-5-2.8-8-4.4c-0.7-0.4-1.5-0.8-2.3-1.2c-0.8-0.4-1.6-0.7-2.4-1.1
			c-1.6-0.8-3.3-1.5-5.1-2.4c-3.6-1.4-7.3-3.1-11.4-4.4c-16.1-5.8-36.2-9.5-56.4-9.6c-20.2,0.1-40.3,3.7-56.4,9.6
			c-4.1,1.3-7.8,3-11.4,4.4c-1.8,0.8-3.4,1.6-5.1,2.4c-0.8,0.4-1.6,0.8-2.4,1.1c-0.8,0.4-1.5,0.8-2.3,1.2c-2.9,1.6-5.7,2.9-8,4.4
			c-1.2,0.7-2.3,1.4-3.3,2c-0.5,0.3-1,0.6-1.5,0.9c-0.5,0.3-0.9,0.6-1.3,0.9c0,0-1.6,1-3.1,2.1c-0.8,0.5-1.6,1-2.1,1.4
			c-0.6,0.4-1,0.7-1,0.7s-1.7,1.2-4.2,3c-0.6,0.5-1.3,0.9-2,1.5c-0.7,0.6-1.4,1.1-2.2,1.7c-1.5,1.2-3.1,2.5-4.7,3.8
			c-3.1,2.7-6.2,5.4-8.4,7.6c-1.1,1.1-2,2-2.7,2.6c-0.7,0.6-1,1-1,1s-1.4,1.5-3.6,3.7c-2.2,2.2-4.8,5.4-7.6,8.5
			c-2.5,3.3-5.2,6.4-6.9,9c-1.8,2.5-3,4.2-3,4.2l-4.2,6.3C31.5,110.3,24.5,125,20,140.5c-4.7,15.4-6.9,31.6-7,47.8v0l0,0.1l0,0.1v0
			c0.1,16.2,2.3,32.4,7,47.8c4.5,15.5,11.5,30.2,20.1,43.7l4.2,6.3c0,0,1.2,1.7,3,4.2c1.7,2.6,4.4,5.8,6.9,9
			c2.7,3.1,5.4,6.3,7.6,8.5c2.1,2.2,3.6,3.7,3.6,3.7s0.4,0.4,1,1c0.7,0.6,1.6,1.5,2.7,2.6c2.2,2.2,5.3,4.9,8.4,7.6
			c1.6,1.3,3.2,2.6,4.7,3.8c0.8,0.6,1.5,1.2,2.2,1.7c0.7,0.5,1.4,1,2,1.5c2.5,1.8,4.2,3,4.2,3s0.4,0.3,1,0.7
			c0.6,0.4,1.4,0.9,2.1,1.4c1.6,1,3.1,2.1,3.1,2.1c0.4,0.3,0.9,0.6,1.3,0.9c0.5,0.3,1,0.6,1.5,0.9c1,0.6,2.1,1.3,3.3,2
			c2.3,1.4,5,2.8,8,4.4c0.7,0.4,1.5,0.8,2.3,1.2c0.8,0.4,1.6,0.7,2.4,1.1c1.6,0.8,3.3,1.5,5.1,2.4c3.6,1.4,7.3,3.1,11.4,4.4
			c16.1,5.9,36.2,9.5,56.4,9.6c20.2-0.1,40.3-3.7,56.4-9.6c4.1-1.3,7.8-3,11.4-4.4c1.8-0.8,3.4-1.6,5.1-2.4c0.8-0.4,1.6-0.8,2.4-1.1
			c0.8-0.4,1.5-0.8,2.3-1.2c2.9-1.6,5.7-2.9,8-4.4c1.2-0.7,2.3-1.4,3.3-2c0.5-0.3,1-0.6,1.5-0.9c0.5-0.3,0.9-0.6,1.3-0.9
			c0,0,1.6-1,3.1-2.1c0.8-0.5,1.6-1,2.1-1.4c0.6-0.4,1-0.7,1-0.7s1.7-1.2,4.2-3c0.6-0.5,1.3-0.9,2-1.5c0.7-0.6,1.4-1.1,2.2-1.7
			c1.5-1.2,3.1-2.5,4.7-3.8c3.1-2.7,6.3-5.4,8.4-7.6c1.1-1.1,2-2,2.7-2.6c0.7-0.6,1-1,1-1s1.4-1.5,3.6-3.7c2.2-2.2,4.8-5.4,7.6-8.5
			c2.5-3.3,5.2-6.4,6.9-9c1.8-2.5,3-4.2,3-4.2l4.2-6.3c8.7-13.5,15.6-28.2,20.1-43.7c4.7-15.4,6.9-31.6,7-47.8l0,0V188.3"/>
	</g>
</g>
<g>
	<g transform="translate(128.263336, 287.079853)">
		<g>
			<path class="st9" d="M8.9,9.6c1.2-4.2-0.4-7.1-4.6-8.3L-6.5-1.8c-0.4-0.1-0.8,0-0.9,0.5l-9.9,34.4c-0.1,0.4,0.1,0.8,0.5,0.9
				L-6,37.1c4.2,1.2,7.1-0.4,8.4-4.6l2.4-8.2c0.5-1.7-0.4-3.3-1.9-4l0-0.1c1.7,0.2,3.3-0.7,3.7-2.4L8.9,9.6z M1,14.6
				c-0.3,1.1-1.1,1.6-2.3,1.2l-4.1-1.2l2.6-9.1l4.1,1.2C2.5,7.2,2.9,8,2.6,9.1L1,14.6z M-3.3,29.6c-0.3,1.2-1.1,1.6-2.3,1.3
				l-4.1-1.2l2.6-9.1l4.1,1.2c1.2,0.3,1.6,1.1,1.3,2.3L-3.3,29.6z"/>
		</g>
	</g>
</g>
<g>
	<g transform="translate(146.485398, 292.246687)">
		<g>
			<path class="st9" d="M7.8,5.6c-0.5-0.1-1,0.2-1.1,0.8L2.4,29.7c-0.2,1.2-1,1.7-2.2,1.5l-2.4-0.4c-1.2-0.2-1.7-0.9-1.5-2.2
				L0.6,5.3c0.1-0.5-0.2-1-0.8-1.1l-4.4-0.8c-0.5-0.1-1,0.2-1.1,0.8l-4.5,24.6c-0.8,4.3,1.1,7,5.4,7.8l5.1,0.9
				c4.3,0.8,7-1.1,7.8-5.4l4.5-24.6c0.1-0.5-0.2-1-0.8-1.1L7.8,5.6z"/>
		</g>
	</g>
</g>
<g>
	<g transform="translate(165.023678, 295.55292)">
		<g>
			<path class="st9" d="M1.7,30.7l9.2,0.8c0.5,0,0.7,0.3,0.7,0.8l-0.4,4.6c0,0.5-0.3,0.7-0.8,0.7l-14.8-1.3c-0.5,0-0.7-0.3-0.7-0.8
				l2.8-31C-2.3,4-2,3.7-1.5,3.8l4.8,0.4C3.8,4.2,4,4.5,4,5L1.7,30.7z"/>
		</g>
	</g>
</g>
<g>
	<g transform="translate(181.972912, 297.00823)">
		<g>
			<path class="st9" d="M6.8,30.4l9.2,0c0.5,0,0.7,0.3,0.7,0.8v4.7c0,0.5-0.2,0.8-0.8,0.8l-14.8,0c-0.5,0-0.7-0.2-0.7-0.7l0-31.2
				c0-0.5,0.3-0.8,0.7-0.8l4.9,0c0.5,0,0.7,0.3,0.7,0.8L6.8,30.4z"/>
		</g>
	</g>
</g>
<g>
	<g transform="translate(199.056191, 296.99985)">
		<g>
			<path class="st9" d="M21.8,2.8c0-0.5-0.2-0.7-0.8-0.7L3.9,3.7C3.4,3.7,3.2,4,3.2,4.5l2.9,31c0,0.5,0.3,0.7,0.8,0.7L24,34.6
				c0.6-0.1,0.7-0.3,0.7-0.8l-0.4-4.6c0-0.5-0.3-0.7-0.8-0.7l-11.5,1.1l-0.6-6.9l8.7-0.8c0.5,0,0.7-0.3,0.7-0.9l-0.4-4.6
				c0-0.5-0.4-0.8-0.8-0.7l-8.7,0.8l-0.7-7.2l11.5-1.1c0.6-0.1,0.7-0.4,0.7-0.9L21.8,2.8z"/>
		</g>
	</g>
</g>
<g>
	<g transform="translate(217.776403, 295.173929)">
		<g>
			<path class="st9" d="M23,0.2c0.5-0.1,0.8,0.1,0.9,0.6l0.9,4.6c0.1,0.5-0.1,0.8-0.6,0.9l-5.3,1l4.8,25.3c0.1,0.5-0.1,0.8-0.6,0.9
				l-4.8,0.9c-0.5,0.1-0.8-0.1-0.9-0.6L12.6,8.4l-5.3,1C6.8,9.5,6.5,9.3,6.4,8.9L5.6,4.3C5.5,3.8,5.7,3.5,6.2,3.4L23,0.2z"/>
		</g>
	</g>
</g>
<g>
	<g transform="translate(234.918046, 291.915283)">
		<g>
			<path class="st9" d="M15.5,0.9C11.3,2.1,9.7,5,10.9,9.2l2.2,7.8c0.2,0.8,0.8,1.3,1.7,1.3l11.8,0.4l1.3,4.5c0.3,1.2-0.1,2-1.3,2.3
				l-2.4,0.7c-1.1,0.3-2-0.1-2.3-1.3l-0.5-1.9c-0.1-0.5-0.4-0.7-0.9-0.5l-4.5,1.3c-0.4,0.1-0.7,0.4-0.5,0.9l0.8,2.9
				c1.2,4.2,4.1,5.8,8.3,4.6l5-1.4c4.2-1.2,5.8-4.1,4.6-8.3l-2.4-8.4c-0.2-0.8-0.8-1.3-1.6-1.3l-11.9-0.4l-1.1-3.8
				c-0.3-1.2,0.2-2,1.3-2.3l2.5-0.7c1.2-0.3,2,0.1,2.3,1.3l0.5,1.9c0.1,0.4,0.5,0.6,0.9,0.5L29.2,8c0.5-0.1,0.6-0.5,0.5-0.9l-0.9-3
				c-1.2-4.2-4.1-5.8-8.3-4.6L15.5,0.9z"/>
		</g>
	</g>
</g>
<g>
	<g transform="translate(126.716551, 285.533036)">
		<g>
			<path class="st1" d="M8.4,9.1C9.6,4.9,8,2,3.8,0.8L-7-2.3c-0.4-0.1-0.8,0-0.9,0.5l-9.9,34.4c-0.1,0.4,0.1,0.8,0.5,0.9l10.8,3.1
				c4.2,1.2,7.1-0.4,8.4-4.6l2.4-8.2c0.5-1.7-0.4-3.3-1.9-4l0-0.1C4,19.9,5.6,19,6.1,17.3L8.4,9.1z M0.5,14.1
				c-0.3,1.1-1.1,1.6-2.3,1.2l-4.1-1.2l2.6-9.1l4.1,1.2C2,6.7,2.4,7.4,2.1,8.6L0.5,14.1z M-3.8,29.1c-0.3,1.2-1.1,1.6-2.3,1.3
				l-4.1-1.2l2.6-9.1l4.1,1.2c1.2,0.3,1.6,1.1,1.3,2.3L-3.8,29.1z"/>
		</g>
	</g>
</g>
<g>
	<g transform="translate(144.938596, 290.699872)">
		<g>
			<path class="st1" d="M7.2,5.1C6.7,5,6.2,5.4,6.1,5.9L1.9,29.2c-0.2,1.2-1,1.7-2.2,1.5l-2.4-0.4c-1.2-0.2-1.7-0.9-1.5-2.2L0.1,4.8
				c0.1-0.5-0.2-1-0.8-1.1l-4.4-0.8c-0.5-0.1-1,0.2-1.1,0.8l-4.5,24.6c-0.8,4.3,1.1,7,5.4,7.8l5.1,0.9c4.3,0.8,7-1.1,7.8-5.4L12.2,7
				c0.1-0.5-0.2-1-0.8-1.1L7.2,5.1z"/>
		</g>
	</g>
</g>
<g>
	<g transform="translate(163.476876, 294.006103)">
		<g>
			<path class="st1" d="M1.2,30.1l9.2,0.8c0.5,0,0.7,0.3,0.7,0.8l-0.4,4.6c0,0.5-0.3,0.7-0.8,0.7l-14.8-1.3c-0.5,0-0.7-0.3-0.7-0.8
				l2.8-31c0-0.5,0.3-0.7,0.8-0.7l4.8,0.4c0.5,0,0.7,0.3,0.7,0.8L1.2,30.1z"/>
		</g>
	</g>
</g>
<g>
	<g transform="translate(180.42611, 295.461416)">
		<g>
			<path class="st1" d="M6.3,29.8l9.2,0c0.5,0,0.7,0.3,0.7,0.8v4.7c0,0.5-0.2,0.8-0.8,0.8L0.7,36C0.3,36,0,35.8,0,35.2L0,4.1
				c0-0.5,0.3-0.8,0.7-0.8l4.9,0c0.5,0,0.7,0.3,0.7,0.8L6.3,29.8z"/>
		</g>
	</g>
</g>
<g>
	<g transform="translate(197.509376, 295.453033)">
		<g>
			<path class="st1" d="M21.3,2.3c0-0.5-0.2-0.7-0.8-0.7L3.4,3.2C2.9,3.2,2.7,3.5,2.7,4l2.9,31c0,0.5,0.3,0.7,0.8,0.7l17.1-1.6
				c0.6-0.1,0.7-0.3,0.7-0.8l-0.4-4.6c0-0.5-0.3-0.7-0.8-0.7l-11.5,1.1l-0.6-6.9l8.7-0.8c0.5,0,0.7-0.3,0.7-0.9l-0.4-4.6
				c0-0.5-0.4-0.8-0.8-0.7L10.2,16L9.5,8.8L21,7.8c0.6-0.1,0.7-0.4,0.7-0.9L21.3,2.3z"/>
		</g>
	</g>
</g>
<g>
	<g transform="translate(216.229601, 293.627113)">
		<g>
			<path class="st1" d="M22.5-0.3c0.5-0.1,0.8,0.1,0.9,0.6l0.9,4.6c0.1,0.5-0.1,0.8-0.6,0.9l-5.3,1l4.8,25.3
				c0.1,0.5-0.1,0.8-0.6,0.9l-4.8,0.9c-0.5,0.1-0.8-0.1-0.9-0.6L12.1,7.9l-5.3,1C6.3,9,6,8.8,5.9,8.3L5,3.8C5,3.3,5.2,3,5.6,2.9
				L22.5-0.3z"/>
		</g>
	</g>
</g>
<g>
	<g transform="translate(233.371244, 290.368498)">
		<g>
			<path class="st1" d="M15,0.4c-4.2,1.2-5.8,4.1-4.6,8.3l2.2,7.8c0.2,0.8,0.8,1.3,1.7,1.3l11.8,0.4l1.3,4.5c0.3,1.2-0.1,2-1.3,2.3
				l-2.4,0.7c-1.1,0.3-2-0.1-2.3-1.3l-0.5-1.9c-0.1-0.5-0.4-0.7-0.9-0.5l-4.5,1.3c-0.4,0.1-0.7,0.4-0.5,0.9l0.8,2.9
				c1.2,4.2,4.1,5.8,8.3,4.6l5-1.4c4.2-1.2,5.8-4.1,4.6-8.3l-2.4-8.4c-0.2-0.8-0.8-1.3-1.6-1.3l-11.9-0.4l-1.1-3.8
				c-0.3-1.2,0.2-2,1.3-2.3l2.5-0.7c1.2-0.3,2,0.1,2.3,1.3l0.5,1.9c0.1,0.4,0.5,0.6,0.9,0.5l4.5-1.3c0.5-0.1,0.6-0.5,0.5-0.9l-0.9-3
				C27.1-0.7,24.2-2.3,20-1L15,0.4z"/>
		</g>
	</g>
</g>
<g>
	<g transform="translate(120.968583, 127.405303)">
		<g>
			<path class="st9" d="M-14-56.3c-1.6-4.1-4.7-5.4-8.8-3.7l-10.4,4.2c-0.4,0.2-0.6,0.5-0.4,1l13.3,33.3c0.2,0.4,0.5,0.6,1,0.4
				l10.4-4.2c4.1-1.6,5.4-4.7,3.8-8.7l-3.2-8c-0.6-1.6-2.3-2.3-4-2l0-0.1c1.5-0.9,2.1-2.6,1.5-4.2L-14-56.3z M-17.1-47.4
				c0.4,1.1,0.1,1.9-1.1,2.4l-3.9,1.6l-3.5-8.8l3.9-1.6c1.2-0.5,2-0.1,2.4,1L-17.1-47.4z M-11.4-33c0.5,1.2,0.1,2-1,2.4l-3.9,1.6
				l-3.5-8.8l3.9-1.6c1.2-0.5,2-0.1,2.4,1L-11.4-33z"/>
		</g>
	</g>
</g>
<g>
	<g transform="translate(135.833797, 121.318602)">
		<g>
			<path class="st9" d="M6.2-28.7c0.5-0.2,0.7-0.5,0.4-0.9L-9.3-57.6c-0.2-0.4-0.5-0.5-0.9-0.4l-6.2,1.8c-0.4,0.1-0.6,0.4-0.6,0.8
				l1,32.1c0,0.5,0.3,0.7,0.8,0.6l4.4-1.2c0.4-0.1,0.6-0.4,0.5-0.8l-0.2-6.1l8.4-2.4l3,5.3c0.2,0.4,0.5,0.5,0.9,0.4L6.2-28.7z
				 M-4.9-37.9l-5.7,1.6l-0.6-13L-4.9-37.9z"/>
		</g>
	</g>
</g>
<g>
	<g transform="translate(153.579382, 116.33238)">
		<g>
			<path class="st9" d="M-3.8-31.3l9.1-1.6C5.8-33,6-32.8,6.1-32.3l0.8,4.6C7-27.2,6.8-27,6.3-26.9l-14.6,2.6
				c-0.5,0.1-0.8-0.1-0.9-0.6l-5.5-30.7c-0.1-0.5,0.1-0.8,0.6-0.9l4.8-0.8c0.5-0.1,0.8,0.1,0.9,0.6L-3.8-31.3z"/>
		</g>
	</g>
</g>
<g>
	<g transform="translate(167.832903, 113.732756)">
		<g>
			<path class="st9" d="M9.9-58.8c0.5,0,0.8,0.2,0.8,0.7l0.4,4.7c0,0.5-0.2,0.8-0.7,0.8L5-52.2l2.2,25.7c0,0.5-0.2,0.8-0.7,0.8
				l-4.8,0.4c-0.5,0-0.8-0.2-0.8-0.7l-2.2-25.7l-5.4,0.5c-0.5,0-0.8-0.2-0.8-0.7l-0.4-4.7c0-0.5,0.2-0.8,0.7-0.8L9.9-58.8z"/>
		</g>
	</g>
</g>
<g>
	<g transform="translate(182.910177, 112.520449)">
		<g>
			<path class="st9" d="M1.5-25.1c-0.5,0-0.8-0.3-0.8-0.7L0.2-56.9c0-0.5,0.2-0.8,0.7-0.8l4.8-0.1c0.5,0,0.8,0.3,0.8,0.7l0.6,31.2
				c0,0.5-0.3,0.8-0.7,0.8L1.5-25.1z"/>
		</g>
	</g>
</g>
<g>
	<g transform="translate(189.921835, 111.99698)">
		<g>
			<path class="st9" d="M24.9-56.2c-0.6,0-0.9,0.2-1.1,0.7l-6.6,20.4l-3.7-21.1c-0.1-0.5-0.4-0.8-1-0.9l-6.1-0.4c-0.6,0-1,0.3-1,0.9
				L3.2-25.9c0,0.6,0.3,1,0.9,1l4.3,0.3c0.6,0,1-0.3,1-0.9l1.3-18.3l0.3,0L14-25c0.1,0.5,0.4,0.8,1,0.9l2.7,0.2
				c0.6,0,0.9-0.2,1.1-0.7l5.7-18.1l0.3,0l-1.3,18.3c0,0.6,0.3,1,0.9,1l4.3,0.3c0.6,0,1-0.3,1-0.9l2.2-30.7c0-0.6-0.3-1-0.9-1
				L24.9-56.2z"/>
		</g>
	</g>
</g>
<g>
	<g transform="translate(211.690326, 113.601924)">
		<g>
			<path class="st9" d="M11.6-30.8c-0.8,4.3,1.1,7,5.4,7.8l5.1,1c4.3,0.8,7-1.1,7.8-5.4l3.5-18.9c0.8-4.3-1.1-7-5.4-7.8l-5.1-1
				c-4.3-0.8-7,1.1-7.8,5.4L11.6-30.8z M19.3-28.7c-1.2-0.2-1.7-0.9-1.5-2.2l3.1-16.6c0.2-1.2,1-1.7,2.2-1.5l2.9,0.6
				c1.2,0.2,1.7,1,1.5,2.2l-3.1,16.6c-0.2,1.2-1,1.7-2.2,1.5L19.3-28.7z"/>
		</g>
	</g>
</g>
<g>
	<g transform="translate(227.545039, 116.493685)">
		<g>
			<path class="st9" d="M40.7-42.7c1.2-4.2-0.4-7.1-4.6-8.3l-10.8-3.1c-0.4-0.1-0.8,0.1-0.9,0.5l-8.7,29.9c-0.1,0.4,0.1,0.8,0.5,0.9
				l4.4,1.3c0.4,0.1,0.8-0.1,0.9-0.5l2.5-8.7l4,1.2l-0.4,9.4c0,0.4,0.1,0.7,0.6,0.8l4.4,1.3c0.5,0.1,0.8,0,0.9-0.6L34-29
				c2-0.5,3.3-2.1,4.1-4.7L40.7-42.7z M25.8-36.6l3-10.3l4.5,1.3c1.2,0.3,1.6,1.1,1.3,2.3l-2,6.8c-0.3,1.2-1.1,1.6-2.3,1.3
				L25.8-36.6z"/>
		</g>
	</g>
</g>
<g>
	<g transform="translate(243.042391, 120.920966)">
		<g>
			<path class="st9" d="M49.8-44c0.2-0.4,0.1-0.8-0.4-1l-15.9-6.4c-0.4-0.2-0.8,0-0.9,0.4L21-22c-0.2,0.4,0,0.8,0.4,1l15.9,6.4
				c0.5,0.2,0.8,0,1-0.4l1.7-4.3c0.2-0.5,0.1-0.8-0.4-1l-10.7-4.3l2.6-6.4l8.1,3.3c0.4,0.2,0.8,0,1-0.5l1.7-4.3c0.2-0.5,0-0.8-0.4-1
				l-8.1-3.3l2.7-6.7l10.7,4.3c0.5,0.2,0.8,0,1-0.5L49.8-44z"/>
		</g>
	</g>
</g>
<g>
	<g transform="translate(119.421788, 125.858508)">
		<g>
			<path class="st1" d="M-14.5-56.8c-1.6-4.1-4.7-5.4-8.8-3.7l-10.4,4.2c-0.4,0.2-0.6,0.5-0.4,1l13.3,33.3c0.2,0.4,0.5,0.6,1,0.4
				l10.4-4.2c4.1-1.6,5.4-4.7,3.8-8.8l-3.2-8c-0.6-1.6-2.3-2.3-4-2l0-0.1c1.5-0.9,2.1-2.6,1.5-4.2L-14.5-56.8z M-17.7-47.9
				c0.4,1.1,0.1,1.9-1.1,2.4l-3.9,1.6l-3.5-8.8l3.9-1.6c1.2-0.5,2-0.1,2.4,1L-17.7-47.9z M-11.9-33.5c0.5,1.2,0.1,2-1,2.4l-3.9,1.6
				l-3.5-8.8l3.9-1.6c1.2-0.5,2-0.1,2.4,1L-11.9-33.5z"/>
		</g>
	</g>
</g>
<g>
	<g transform="translate(134.286995, 119.771807)">
		<g>
			<path class="st1" d="M5.7-29.2c0.5-0.2,0.7-0.5,0.4-0.9L-9.8-58.1c-0.2-0.4-0.5-0.5-0.9-0.4l-6.2,1.8c-0.4,0.1-0.6,0.4-0.6,0.8
				l1,32.1c0,0.5,0.3,0.7,0.8,0.6l4.4-1.2c0.4-0.1,0.6-0.4,0.5-0.8l-0.2-6.1l8.4-2.4l3,5.3C0.7-28,0.9-27.9,1.3-28L5.7-29.2z
				 M-5.5-38.5l-5.7,1.6l-0.6-13L-5.5-38.5z"/>
		</g>
	</g>
</g>
<g>
	<g transform="translate(152.03258, 114.785585)">
		<g>
			<path class="st1" d="M-4.4-31.8l9.1-1.6c0.5-0.1,0.8,0.1,0.9,0.6l0.8,4.6c0.1,0.5-0.1,0.8-0.6,0.9l-14.6,2.6
				c-0.5,0.1-0.8-0.1-0.9-0.6l-5.5-30.7c-0.1-0.5,0.1-0.8,0.6-0.9l4.8-0.8c0.5-0.1,0.8,0.1,0.9,0.6L-4.4-31.8z"/>
		</g>
	</g>
</g>
<g>
	<g transform="translate(166.286115, 112.185961)">
		<g>
			<path class="st1" d="M9.3-59.3c0.5,0,0.8,0.2,0.8,0.7l0.4,4.7c0,0.5-0.2,0.8-0.7,0.8l-5.4,0.5l2.2,25.7c0,0.5-0.2,0.8-0.7,0.8
				l-4.8,0.4c-0.5,0-0.8-0.2-0.8-0.7l-2.2-25.7l-5.4,0.5c-0.5,0-0.8-0.2-0.8-0.7L-8.4-57c0-0.5,0.2-0.8,0.7-0.8L9.3-59.3z"/>
		</g>
	</g>
</g>
<g>
	<g transform="translate(181.363375, 110.973654)">
		<g>
			<path class="st1" d="M1-25.6c-0.5,0-0.8-0.3-0.8-0.7l-0.6-31.2c0-0.5,0.2-0.8,0.7-0.8l4.8-0.1C5.7-58.3,6-58,6-57.6l0.6,31.2
				c0,0.5-0.3,0.8-0.7,0.8L1-25.6z"/>
		</g>
	</g>
</g>
<g>
	<g transform="translate(188.375062, 110.450185)">
		<g>
			<path class="st1" d="M24.4-56.7c-0.6,0-0.9,0.2-1.1,0.7l-6.6,20.4l-3.7-21.1c-0.1-0.5-0.4-0.8-1-0.9L5.8-58c-0.6,0-1,0.3-1,0.9
				L2.7-26.4c0,0.6,0.3,1,0.9,1l4.3,0.3c0.6,0,1-0.3,1-0.9l1.3-18.3l0.3,0l3.1,18.7c0.1,0.5,0.4,0.8,1,0.9l2.7,0.2
				c0.6,0,0.9-0.2,1.1-0.7L24-43.3l0.3,0L23-25c0,0.6,0.3,1,0.9,1l4.3,0.3c0.6,0,1-0.3,1-0.9l2.2-30.7c0-0.6-0.3-1-0.9-1L24.4-56.7z
				"/>
		</g>
	</g>
</g>
<g>
	<g transform="translate(210.143524, 112.055131)">
		<g>
			<path class="st1" d="M11.1-31.3c-0.8,4.3,1.1,7,5.4,7.8l5.1,1c4.3,0.8,7-1.1,7.8-5.4l3.5-18.9c0.8-4.3-1.1-7-5.4-7.8l-5.1-1
				c-4.3-0.8-7,1.1-7.8,5.4L11.1-31.3z M18.7-29.2c-1.2-0.2-1.7-0.9-1.5-2.2L20.3-48c0.2-1.2,1-1.7,2.2-1.5l2.9,0.6
				c1.2,0.2,1.7,1,1.5,2.2l-3.1,16.6c-0.2,1.2-1,1.7-2.2,1.5L18.7-29.2z"/>
		</g>
	</g>
</g>
<g>
	<g transform="translate(225.998224, 114.94689)">
		<g>
			<path class="st1" d="M40.2-43.2c1.2-4.2-0.4-7.1-4.6-8.3l-10.8-3.1c-0.4-0.1-0.8,0.1-0.9,0.5l-8.7,29.9c-0.1,0.4,0.1,0.8,0.5,0.9
				l4.4,1.3c0.4,0.1,0.8-0.1,0.9-0.5l2.5-8.7l4,1.2l-0.4,9.4c0,0.4,0.1,0.7,0.6,0.8l4.4,1.3c0.5,0.1,0.8,0,0.9-0.6l0.5-10.3
				c2-0.5,3.3-2.1,4.1-4.7L40.2-43.2z M25.3-37.1l3-10.3l4.5,1.3c1.2,0.3,1.6,1.1,1.3,2.3l-2,6.8c-0.3,1.2-1.1,1.6-2.3,1.3
				L25.3-37.1z"/>
		</g>
	</g>
</g>
<g>
	<g transform="translate(241.495635, 119.374173)">
		<g>
			<path class="st1" d="M49.3-44.6c0.2-0.4,0.1-0.8-0.4-1l-15.9-6.4c-0.4-0.2-0.8,0-0.9,0.4L20.4-22.5c-0.2,0.4,0,0.8,0.4,1
				l15.9,6.4c0.5,0.2,0.8,0,1-0.4l1.7-4.3c0.2-0.5,0.1-0.8-0.4-1l-10.7-4.3l2.6-6.4l8.1,3.3c0.4,0.2,0.8,0,1-0.5l1.7-4.3
				c0.2-0.5,0-0.8-0.4-1l-8.1-3.3l2.7-6.7l10.7,4.3c0.5,0.2,0.8,0,1-0.5L49.3-44.6z"/>
		</g>
	</g>
</g>
<g>
	<g transform="translate(74.202451, 203.296789)">
		<g>
			<path class="st9" d="M-16.7-25.3c0-4.4-2.4-6.7-6.8-6.7h-11.2c-0.5,0-0.7,0.2-0.7,0.7V4.5c0,0.5,0.3,0.7,0.7,0.7h11.2
				c4.4,0,6.8-2.3,6.8-6.7V-10c0-1.7-1.3-3-2.9-3.3v-0.1c1.7-0.3,2.9-1.6,2.9-3.3V-25.3z M-22.9-18.3c0,1.2-0.7,1.8-1.9,1.8H-29
				v-9.4h4.2c1.3,0,1.9,0.7,1.9,1.9V-18.3z M-22.9-2.8c0,1.3-0.7,1.9-1.9,1.9H-29v-9.4h4.2c1.3,0,1.9,0.7,1.9,1.9V-2.8z"/>
		</g>
	</g>
</g>
<g>
	<g transform="translate(91.733495, 203.296789)">
		<g>
			<path class="st9" d="M-29.6,4.3c0,0.6,0.3,0.9,0.9,0.9h4.2c0.6,0,0.9-0.3,0.9-0.9V0c0-0.6-0.3-0.9-0.9-0.9h-4.2
				c-0.6,0-0.9,0.3-0.9,0.9V4.3z"/>
		</g>
	</g>
</g>
<g>
	<g transform="translate(99.81667, 203.296789)">
		<g>
			<path class="st9" d="M-8.2-25.3c0-4.4-2.4-6.7-6.7-6.7h-5.2c-4.4,0-6.8,2.3-6.8,6.7v23.9c0,4.4,2.4,6.7,6.8,6.7h5.2
				c4.3,0,6.7-2.3,6.7-6.7v-5c0-0.5-0.3-0.7-0.7-0.7h-4.7c-0.5,0-0.7,0.3-0.7,0.7v3.7c0,1.3-0.7,1.9-1.9,1.9h-2.4
				c-1.2,0-1.9-0.6-1.9-1.9V-24c0-1.2,0.6-1.9,1.9-1.9h2.4c1.2,0,1.9,0.7,1.9,1.9v3.7c0,0.5,0.2,0.7,0.7,0.7h4.7
				c0.5,0,0.7-0.3,0.7-0.7V-25.3z"/>
		</g>
	</g>
</g>
<g>
	<g transform="translate(117.347714, 203.296789)">
		<g>
			<path class="st9" d="M-21.1,4.3c0,0.6,0.3,0.9,0.9,0.9h4.2c0.6,0,0.9-0.3,0.9-0.9V0c0-0.6-0.3-0.9-0.9-0.9h-4.2
				c-0.6,0-0.9,0.3-0.9,0.9V4.3z"/>
		</g>
	</g>
</g>
<g>
	<g transform="translate(72.655663, 201.749987)">
		<g>
			<path class="st1" d="M-17.2-25.9c0-4.4-2.4-6.7-6.8-6.7h-11.2c-0.5,0-0.7,0.2-0.7,0.7V4c0,0.5,0.3,0.7,0.7,0.7H-24
				c4.4,0,6.8-2.3,6.8-6.7v-8.6c0-1.7-1.3-3-2.9-3.3V-14c1.7-0.3,2.9-1.6,2.9-3.3V-25.9z M-23.4-18.8c0,1.2-0.7,1.8-1.9,1.8h-4.2
				v-9.4h4.2c1.3,0,1.9,0.7,1.9,1.9V-18.8z M-23.4-3.3c0,1.3-0.7,1.9-1.9,1.9h-4.2v-9.4h4.2c1.3,0,1.9,0.7,1.9,1.9V-3.3z"/>
		</g>
	</g>
</g>
<g>
	<g transform="translate(90.186707, 201.749987)">
		<g>
			<path class="st1" d="M-30.1,3.8c0,0.6,0.3,0.9,0.9,0.9h4.2c0.6,0,0.9-0.3,0.9-0.9v-4.3c0-0.6-0.3-0.9-0.9-0.9h-4.2
				c-0.6,0-0.9,0.3-0.9,0.9V3.8z"/>
		</g>
	</g>
</g>
<g>
	<g transform="translate(98.26989, 201.749987)">
		<g>
			<path class="st1" d="M-8.7-25.9c0-4.4-2.4-6.7-6.7-6.7h-5.2c-4.4,0-6.8,2.3-6.8,6.7V-2c0,4.4,2.4,6.7,6.8,6.7h5.2
				c4.3,0,6.7-2.3,6.7-6.7v-5c0-0.5-0.3-0.7-0.7-0.7h-4.7c-0.5,0-0.7,0.3-0.7,0.7v3.7c0,1.3-0.7,1.9-1.9,1.9h-2.4
				C-20.4-1.4-21-2-21-3.3v-21.3c0-1.2,0.6-1.9,1.9-1.9h2.4c1.2,0,1.9,0.7,1.9,1.9v3.7c0,0.5,0.2,0.7,0.7,0.7h4.7
				c0.5,0,0.7-0.3,0.7-0.7V-25.9z"/>
		</g>
	</g>
</g>
<g>
	<g transform="translate(115.800936, 201.749987)">
		<g>
			<path class="st1" d="M-21.6,3.8c0,0.6,0.3,0.9,0.9,0.9h4.2c0.6,0,0.9-0.3,0.9-0.9v-4.3c0-0.6-0.3-0.9-0.9-0.9h-4.2
				c-0.6,0-0.9,0.3-0.9,0.9V3.8z"/>
		</g>
	</g>
</g>
</svg>
