<?xml version="1.0" standalone="no"?>
<!DOCTYPE svg PUBLIC "-//W3C//DTD SVG 20010904//EN"
 "http://www.w3.org/TR/2001/REC-SVG-20010904/DTD/svg10.dtd">
<svg version="1.0" xmlns="http://www.w3.org/2000/svg"
 width="3929.000000pt" height="2492.000000pt" viewBox="0 0 3929.000000 2492.000000"
 preserveAspectRatio="xMidYMid meet">

<g transform="translate(0.000000,2492.000000) scale(0.100000,-0.100000)"
fill="#000000" stroke="none">
<path d="M31568 21933 c-12 -3 -18 -14 -18 -34 0 -19 -6 -32 -17 -35 -39 -12
-63 -28 -63 -40 0 -8 -12 -20 -27 -28 -16 -8 -41 -28 -58 -45 -26 -28 -33 -31
-69 -25 -51 7 -52 10 -81 119 -1 6 -23 9 -49 7 -43 -4 -46 -6 -55 -40 -5 -21
-42 -163 -82 -316 l-72 -279 19 -97 20 -97 -22 -35 c-13 -20 -25 -59 -28 -92
-6 -52 -4 -59 16 -76 20 -17 22 -21 10 -41 -10 -16 -11 -24 -3 -29 7 -3 9 -14
6 -22 -4 -9 -1 -19 4 -23 6 -3 8 -11 5 -17 -5 -8 -1 -9 10 -5 24 9 41 -36 23
-63 -6 -11 -15 -20 -18 -20 -16 0 -19 -53 -5 -69 15 -16 13 -20 -14 -51 -36
-41 -65 -94 -73 -138 -6 -30 -3 -35 28 -53 49 -29 47 -54 -4 -45 -41 6 -61
-10 -39 -32 12 -12 15 -89 4 -100 -4 -4 -16 3 -26 16 -22 26 -60 38 -60 17 0
-7 -7 -15 -15 -19 -8 -3 -15 -14 -15 -24 0 -33 -27 -48 -62 -34 -27 10 -33 9
-44 -6 -7 -9 -14 -23 -14 -29 0 -7 -8 -13 -17 -13 -15 0 -15 -1 1 -13 15 -11
17 -22 12 -58 -3 -24 -7 -55 -9 -68 -1 -19 -13 -29 -47 -42 -116 -46 -309
-111 -440 -149 -131 -38 -349 -111 -655 -220 -111 -39 -345 -108 -400 -117
-16 -3 -37 -11 -45 -18 -8 -7 -20 -14 -25 -16 -16 -6 -155 -157 -155 -168 0
-5 -6 -16 -13 -23 -26 -25 -147 -255 -147 -278 0 -25 -39 -100 -52 -100 -17 0
-88 -78 -83 -91 6 -18 -3 -30 -38 -52 -25 -16 -28 -23 -25 -60 2 -24 8 -42 15
-42 6 0 20 -10 31 -22 13 -16 30 -23 55 -23 27 0 37 -5 42 -20 7 -22 -14 -50
-39 -50 -20 0 -21 -26 -1 -34 17 -6 61 -100 71 -150 5 -27 1 -38 -18 -55 -13
-13 -31 -20 -41 -17 -21 5 -97 -69 -118 -114 -6 -14 -15 -32 -19 -40 -4 -8
-27 -30 -51 -48 -24 -18 -50 -37 -57 -43 -8 -6 -26 -11 -40 -11 -42 1 -183
-46 -223 -74 -32 -22 -39 -23 -70 -13 -19 7 -40 16 -46 22 -20 15 -199 0 -263
-22 -14 -5 -56 -17 -95 -26 -68 -17 -158 -60 -240 -115 -22 -15 -48 -30 -58
-33 -13 -5 -15 -11 -8 -24 18 -33 24 -58 22 -85 -2 -22 2 -28 18 -28 14 0 21
-8 23 -27 2 -19 10 -29 27 -33 13 -3 29 -14 35 -25 6 -10 18 -26 28 -35 35
-32 32 -58 -9 -100 -24 -23 -47 -60 -58 -92 -13 -39 -29 -61 -58 -83 -23 -16
-57 -53 -76 -81 -62 -90 -291 -309 -390 -374 -49 -32 -99 -68 -109 -78 -11
-11 -42 -33 -68 -48 -27 -15 -62 -38 -77 -51 -16 -13 -35 -23 -42 -23 -11 0
-105 -70 -170 -127 -12 -10 -43 -49 -70 -88 -27 -38 -61 -82 -75 -96 -28 -28
-108 -54 -141 -46 -28 8 -55 -4 -112 -47 -25 -19 -57 -38 -71 -42 -13 -3 -34
-16 -46 -29 -34 -37 -87 -23 -154 39 -15 15 -34 25 -41 22 -8 -3 -19 2 -25 10
-15 17 -33 19 -27 2 8 -22 -13 -48 -38 -48 -13 0 -36 11 -52 24 -15 13 -48 26
-73 30 -25 4 -57 13 -72 20 -17 9 -30 10 -36 4 -14 -14 -47 -6 -48 12 0 8 -4
25 -8 37 -7 23 9 61 32 76 6 4 12 17 12 28 0 11 7 22 15 25 8 4 13 10 10 14
-2 4 4 15 15 25 13 12 18 25 14 40 -3 13 -1 26 5 30 8 4 9 28 5 69 -7 72 3 99
45 120 37 20 56 66 43 103 -10 30 0 73 18 73 5 0 10 7 10 15 0 8 -4 15 -10 15
-19 0 -10 29 16 49 30 24 33 24 54 11 12 -8 11 -12 -9 -31 -12 -12 -19 -24
-14 -28 6 -3 15 -15 21 -26 6 -11 12 -14 12 -7 0 6 6 12 14 12 27 0 45 45 44
111 -1 215 -2 223 -28 259 -34 47 -57 100 -76 173 -8 33 -28 86 -43 116 -16
31 -38 90 -51 131 -25 84 -90 183 -130 199 -56 22 -85 22 -108 1 -12 -11 -22
-24 -22 -28 0 -4 -22 -17 -50 -30 -27 -13 -50 -30 -50 -38 0 -8 -7 -17 -16
-21 -8 -3 -13 -12 -10 -19 3 -7 -4 -30 -14 -51 -11 -21 -22 -50 -25 -65 -3
-16 -11 -28 -18 -28 -8 0 -24 -22 -37 -50 -22 -48 -42 -62 -55 -40 -3 6 -24
10 -46 10 -66 0 -85 28 -84 126 0 92 9 109 60 118 25 5 35 12 35 26 0 10 9 25
20 33 15 11 20 27 22 88 3 72 4 74 31 77 15 2 27 9 27 17 0 7 7 21 16 30 15
14 15 24 3 93 -7 42 -13 100 -13 127 -1 52 -19 118 -39 146 -7 9 -27 23 -44
33 -18 9 -34 23 -34 31 -3 28 -4 33 -11 40 -4 4 -4 14 -1 22 4 11 15 13 45 8
l40 -7 -18 33 c-9 19 -30 47 -45 63 -16 17 -27 37 -25 45 7 22 -59 63 -88 55
-13 -3 -40 2 -61 10 -21 9 -50 16 -65 16 -15 0 -33 7 -41 16 -9 12 -27 15 -68
12 -49 -3 -57 0 -66 19 -26 51 -88 77 -151 63 -26 -6 -48 -2 -96 17 -35 14
-68 29 -73 34 -12 9 -38 -4 -33 -17 1 -5 -22 -12 -52 -15 -30 -3 -47 -6 -38
-7 9 -1 20 -6 23 -12 8 -12 -13 -51 -36 -68 -59 -41 -10 -154 63 -143 9 1 19
-2 22 -8 9 -14 -34 -41 -64 -41 -28 0 -90 -34 -90 -50 0 -5 -6 -10 -13 -10 -8
0 -20 -11 -27 -25 -12 -22 -12 -33 1 -73 21 -68 19 -211 -3 -245 -10 -14 -18
-33 -18 -42 0 -8 -4 -15 -10 -15 -13 0 -13 47 0 55 12 8 8 106 -5 102 -5 -2
-10 -13 -11 -24 -1 -11 -4 -25 -8 -31 -3 -6 -2 -12 3 -14 12 -4 -9 -88 -21
-88 -17 0 -30 55 -21 85 5 17 6 41 3 55 -4 14 -3 33 2 43 7 13 5 24 -6 36 -20
22 -20 35 -1 51 8 7 15 19 15 26 0 12 -4 12 -24 -1 -15 -10 -28 -33 -35 -60
-6 -25 -15 -45 -21 -45 -5 0 -13 -19 -17 -42 -8 -40 -11 -43 -42 -43 -26 0
-36 -5 -42 -23 -5 -14 -15 -22 -26 -20 -16 3 -18 -4 -15 -59 l4 -61 -37 -18
c-45 -21 -52 -37 -32 -68 25 -38 24 -196 -2 -271 -11 -33 -21 -67 -21 -76 0
-9 -7 -22 -16 -29 -32 -28 -34 -46 -8 -81 21 -29 38 -74 49 -130 2 -9 -5 -35
-16 -58 -25 -56 -24 -73 4 -119 13 -20 33 -58 44 -83 12 -26 44 -81 72 -123
65 -95 82 -137 110 -255 41 -172 27 -394 -29 -486 -10 -17 -30 -70 -44 -119
-15 -49 -35 -104 -46 -122 -25 -39 -146 -144 -198 -170 -20 -11 -40 -23 -43
-27 -3 -5 -34 -11 -67 -14 -51 -5 -63 -3 -68 11 -3 9 -14 16 -24 16 -18 0
-100 112 -100 136 0 20 -53 117 -78 144 -53 57 -71 101 -71 175 0 39 -5 91
-11 115 -6 25 -9 74 -7 110 4 58 2 66 -19 83 -15 11 -25 33 -29 62 -4 24 -13
46 -21 49 -8 3 -14 19 -13 38 0 41 -11 100 -22 114 -13 16 -8 116 7 146 8 15
14 48 14 73 0 25 7 62 15 82 16 37 12 96 -8 121 -10 13 -11 74 -1 132 3 19 7
45 7 57 1 12 14 35 30 50 28 30 37 85 16 99 -19 11 0 198 27 273 13 36 24 73
24 82 0 21 29 79 39 79 5 0 7 17 7 38 -2 36 16 83 43 111 9 10 11 28 7 57 -4
33 -2 45 10 52 18 10 16 53 -3 59 -16 5 -53 -36 -53 -60 0 -20 -22 -47 -39
-47 -6 0 -11 -14 -11 -32 0 -17 -6 -39 -14 -47 -16 -18 -48 -121 -38 -121 4 0
-16 -12 -44 -27 -40 -20 -56 -36 -73 -70 -11 -24 -21 -53 -21 -64 0 -11 -18
-37 -40 -56 -22 -20 -40 -44 -40 -54 0 -20 -17 -28 -42 -21 -15 4 -17 13 -13
69 3 35 9 72 14 81 4 9 16 34 27 55 10 22 17 52 16 67 -2 26 2 30 48 45 48 16
51 19 45 45 -3 15 -2 31 4 34 6 4 8 20 5 36 -5 20 0 36 14 54 22 29 70 146
103 255 13 43 35 89 52 108 23 26 28 40 25 69 -2 24 2 39 10 42 14 4 42 -55
35 -74 -7 -19 13 -25 27 -9 7 8 18 15 25 15 15 0 40 83 30 99 -4 8 5 10 33 5
36 -6 40 -4 46 20 7 27 31 35 39 14 5 -16 -12 -68 -23 -68 -8 0 -23 -39 -21
-54 1 -5 -4 -13 -11 -17 -17 -11 1 -42 27 -47 13 -3 15 1 10 17 -4 12 -2 21 4
21 6 0 11 6 11 14 0 8 7 17 16 20 8 3 13 10 10 14 -3 5 6 15 19 22 14 7 25 17
25 22 0 4 7 8 15 8 11 0 15 12 15 46 0 35 5 50 24 67 31 27 85 37 143 24 23
-4 32 -3 30 5 -3 17 44 39 73 33 33 -7 42 1 70 58 13 26 26 47 29 48 42 7 101
6 166 -2 79 -11 101 -18 127 -41 30 -28 78 -58 104 -64 24 -6 26 -5 20 12 -5
10 -9 24 -10 29 -1 6 -5 16 -10 24 -5 8 -4 16 4 21 6 4 10 18 8 31 -3 22 1 24
36 25 30 1 40 -3 43 -17 3 -10 9 -17 13 -14 4 3 22 0 39 -6 20 -7 36 -8 44 -2
47 36 188 58 354 54 37 -1 42 2 51 29 9 25 8 30 -8 35 -10 3 -26 17 -35 31
-15 23 -22 25 -53 20 -21 -4 -47 -7 -59 -7 -19 -1 -21 -4 -12 -20 5 -10 14
-19 19 -19 6 0 10 -7 10 -16 0 -11 -6 -15 -20 -11 -10 3 -20 1 -22 -4 -5 -14
-71 1 -97 22 -19 16 -21 22 -11 34 10 12 9 15 -4 15 -9 0 -26 6 -37 13 -17 10
-23 10 -26 0 -8 -23 -33 -14 -33 11 0 19 6 25 28 28 23 3 27 7 24 32 -2 16
-10 42 -18 57 -8 16 -14 48 -14 74 0 41 -2 45 -25 45 -14 0 -29 -8 -35 -21 -8
-15 -18 -19 -34 -15 -29 7 -66 -19 -66 -46 0 -12 -3 -18 -7 -15 -3 4 -12 2
-20 -5 -10 -8 -19 -6 -36 9 -23 22 -34 20 -79 -10 -16 -11 -32 -15 -40 -11 -7
5 -33 9 -58 9 -43 0 -45 1 -46 30 0 17 -3 50 -7 75 -5 32 -3 53 8 74 14 26 14
28 -3 21 -9 -4 -36 -11 -60 -16 -49 -10 -49 -10 -119 -56 -43 -30 -65 -37
-135 -45 -80 -9 -125 -19 -178 -41 -14 -6 -31 -9 -38 -8 -7 1 -38 -21 -68 -48
-31 -28 -60 -51 -65 -51 -6 0 -22 -13 -36 -30 -26 -31 -70 -43 -60 -16 6 16
-16 40 -27 29 -3 -4 -3 -23 0 -42 6 -32 5 -35 -9 -23 -13 12 -19 10 -38 -12
-18 -21 -24 -23 -42 -13 -12 7 -29 21 -39 32 -17 20 -17 20 -55 -1 -50 -28
-119 -40 -138 -24 -8 7 -15 23 -15 36 0 17 -6 24 -19 24 -10 0 -36 21 -57 46
-63 74 -95 104 -105 98 -5 -3 -16 1 -24 10 -18 18 -112 31 -166 22 -39 -6 -40
-5 -34 16 9 30 -90 -64 -112 -106 -10 -20 -18 -25 -26 -17 -15 15 -11 110 6
130 8 9 18 31 22 49 3 17 11 32 16 32 5 0 9 9 9 20 0 11 6 20 14 20 9 0 12 8
8 25 -3 18 0 25 11 25 8 0 25 15 36 34 12 19 33 41 47 51 17 11 23 22 19 35
-7 21 18 40 44 33 9 -2 29 2 44 10 26 14 27 16 11 32 -14 14 -29 16 -79 11
-109 -10 -229 -78 -261 -147 -9 -22 -31 -50 -48 -61 -47 -33 -123 -115 -143
-156 -14 -29 -27 -39 -58 -48 -25 -7 -45 -21 -56 -38 -24 -39 -107 -96 -140
-96 -15 0 -31 -5 -35 -11 -3 -6 -16 -8 -27 -5 -32 8 -103 -28 -120 -61 -23
-42 -54 -67 -139 -107 -43 -21 -80 -41 -83 -47 -13 -20 -95 -1 -136 32 -39 31
-40 31 -46 10 -5 -18 -58 -61 -77 -61 -12 0 -6 44 10 61 11 13 13 22 6 35 -7
12 -3 30 16 66 27 52 25 70 -11 92 -18 11 -60 -6 -88 -36 -9 -10 -21 -18 -28
-18 -6 0 -11 -5 -11 -11 0 -5 -4 -7 -10 -4 -5 3 -10 1 -10 -6 0 -6 -8 -9 -20
-6 -11 3 -23 0 -28 -6 -9 -15 -34 -31 -102 -64 -30 -14 -80 -39 -111 -54 -31
-16 -58 -26 -61 -24 -3 3 -17 1 -32 -5 -23 -9 -31 -6 -64 25 l-37 35 65 60
c80 74 64 58 166 165 72 76 174 205 174 220 0 8 34 48 105 123 92 97 175 155
310 214 61 27 119 57 130 67 11 10 29 21 40 25 11 3 39 24 63 46 24 22 47 38
51 36 4 -3 14 3 23 13 14 17 11 17 -56 13 -42 -2 -78 -10 -87 -18 -19 -17 -48
-5 -88 35 -25 25 -43 26 -196 1 -34 -5 -61 -5 -63 0 -2 5 -19 2 -39 -6 -42
-18 -63 -12 -63 16 0 11 -5 20 -10 20 -6 0 -15 11 -20 25 -5 14 -14 25 -20 25
-19 0 -130 -81 -151 -111 -13 -18 -29 -29 -44 -29 -13 0 -26 -4 -30 -10 -3 -5
-18 -9 -33 -8 -15 1 -36 -2 -46 -7 -16 -7 -18 -5 -14 13 5 18 1 20 -24 20 -31
-1 -48 14 -48 45 0 13 -9 17 -39 17 -22 0 -43 5 -46 11 -4 5 -12 8 -18 6 -14
-4 -38 19 -55 54 -13 25 -14 26 -90 16 -31 -4 -42 -25 -31 -53 7 -19 4 -26
-12 -35 -11 -6 -22 -9 -23 -7 -1 2 -14 23 -30 46 -15 24 -25 51 -22 59 9 23
-23 42 -61 36 -18 -3 -39 -3 -47 0 -19 7 -10 37 10 37 8 0 14 7 14 15 0 10
-10 14 -32 14 -18 -1 -55 9 -83 21 -74 32 -235 32 -235 -1 0 -5 -5 -8 -12 -7
-7 2 -17 -7 -22 -19 -13 -29 -49 -44 -118 -50 -52 -5 -57 -4 -54 13 2 11 0 29
-5 42 -8 21 -14 22 -101 22 -82 0 -95 2 -106 20 -11 18 -19 19 -73 14 -54 -5
-64 -3 -100 20 -38 26 -43 35 -39 87 0 14 -6 45 -15 70 -9 24 -21 60 -26 79
-5 19 -16 65 -26 102 -13 53 -22 69 -42 79 -31 15 -130 18 -125 4 1 -5 5 -65
9 -132 5 -114 4 -123 -12 -124 -10 0 -25 -2 -33 -3 -8 -2 -94 -6 -190 -10 -96
-4 -206 -9 -245 -11 -80 -5 -273 -12 -550 -20 -104 -3 -253 -8 -330 -11 -174
-6 -1661 -6 -1845 0 -74 3 -218 8 -320 11 -361 10 -505 17 -675 30 -33 2 -125
7 -205 10 -80 3 -163 8 -185 10 -22 2 -87 7 -145 10 -58 3 -132 7 -165 10 -33
2 -103 7 -155 10 -52 3 -113 8 -135 10 -22 2 -78 7 -125 10 -235 17 -1090 95
-1210 110 -19 3 -177 21 -350 40 -534 61 -726 86 -1390 184 -291 43 -1030 167
-1140 190 -25 6 -119 24 -210 41 -91 17 -235 45 -320 62 -85 16 -166 32 -180
34 -41 8 -444 91 -595 123 -385 83 -752 168 -1180 274 -264 66 -370 93 -695
179 -108 28 -106 28 -127 13 -17 -13 -17 -14 2 -29 18 -13 19 -15 3 -21 -16
-6 -16 -9 -2 -30 8 -12 12 -29 9 -37 -4 -9 1 -18 11 -22 13 -5 14 -9 4 -22 -7
-8 -19 -13 -27 -10 -16 7 -16 3 1 -39 16 -38 32 -48 21 -14 -5 16 -4 19 5 14
9 -5 10 -2 6 12 -9 29 36 49 52 22 8 -13 8 -20 1 -25 -6 -3 -9 -20 -6 -38 3
-17 7 -40 9 -51 2 -15 -2 -19 -19 -18 -16 2 -21 -2 -17 -12 4 -8 3 -27 0 -41
-6 -21 -9 -24 -21 -14 -8 7 -15 25 -15 39 0 17 -10 36 -25 49 -31 27 -35 27
-35 2 0 -11 7 -20 15 -20 23 0 18 -27 -7 -35 -13 -3 -18 -9 -11 -11 19 -8 -6
-76 -43 -114 -19 -20 -34 -41 -34 -47 0 -6 12 -24 28 -40 23 -26 30 -45 22
-63 -8 -17 -8 -66 0 -75 6 -7 6 -15 2 -20 -4 -4 3 -5 14 -1 24 7 38 -13 28
-39 -8 -20 25 -32 37 -14 14 22 10 75 -6 89 -8 7 -15 18 -15 25 0 20 -28 26
-33 7 -2 -9 -3 11 -3 46 1 45 -3 65 -14 72 -13 8 -12 11 5 24 12 9 24 11 30 5
5 -5 15 -9 22 -9 15 0 18 36 3 45 -6 4 -9 17 -7 30 4 32 12 39 14 13 1 -11 13
-33 27 -47 26 -27 33 -55 17 -65 -4 -3 -11 -2 -15 1 -18 18 -47 12 -56 -13
-15 -39 -12 -59 13 -86 12 -14 28 -34 35 -44 12 -18 13 -18 8 1 -2 11 -10 34
-17 52 -10 26 -10 34 0 47 20 24 34 8 27 -29 -5 -24 0 -46 15 -78 24 -49 20
-77 -9 -77 -12 0 -24 -11 -32 -29 -6 -16 -20 -37 -31 -47 -10 -9 -19 -28 -19
-42 0 -14 -10 -36 -22 -49 -17 -18 -19 -26 -10 -35 16 -16 15 -39 0 -35 -9 1
-13 -16 -15 -60 0 -35 2 -63 6 -63 9 0 41 93 41 119 0 11 3 12 8 4 8 -13 29
-13 49 0 7 4 22 3 32 -3 16 -8 19 -15 12 -33 -4 -12 -6 -28 -3 -36 3 -10 0
-12 -12 -8 -12 5 -19 -1 -26 -18 -5 -14 -14 -25 -20 -25 -5 0 -10 -5 -10 -11
0 -19 -30 -41 -48 -35 -13 4 -21 -2 -29 -24 -8 -23 -18 -30 -37 -30 -19 0 -24
4 -20 15 4 10 2 13 -8 10 -9 -4 -22 4 -32 20 -17 25 -17 26 7 19 14 -3 28 -1
31 5 4 6 17 11 29 11 20 1 21 2 4 14 -13 10 -15 21 -11 45 5 26 3 35 -14 47
-22 15 -20 44 4 44 15 0 15 2 18 65 0 24 7 42 15 46 10 4 15 23 17 60 1 42 -2
58 -17 72 -19 18 -20 18 -13 -7 5 -22 1 -28 -30 -43 -20 -9 -36 -20 -36 -24 0
-4 -7 -9 -15 -13 -8 -3 -15 -3 -15 -1 0 9 46 47 69 56 21 9 22 11 9 32 -16 25
-22 77 -9 77 5 0 11 14 13 30 5 32 -9 39 -30 18 -9 -9 -12 -8 -12 5 0 9 5 17
10 17 6 0 10 7 10 15 0 29 -60 7 -61 -23 0 -14 -3 -13 -16 6 -8 12 -24 22 -35
22 -12 0 -25 13 -36 39 -17 36 -19 38 -37 24 -28 -20 -133 -4 -119 18 3 5 -4
9 -15 9 -11 0 -23 5 -26 10 -3 6 -14 10 -24 10 -10 0 -24 6 -30 14 -6 7 -30
16 -52 20 -46 7 -129 44 -129 57 0 14 -61 79 -70 74 -4 -2 -41 29 -82 70 -42
41 -83 75 -92 75 -19 0 -21 -11 -4 -28 10 -10 10 -17 -1 -34 -39 -63 -50 -92
-57 -154 -11 -91 -7 -119 22 -165 13 -21 21 -45 18 -53 -3 -7 -1 -17 5 -21 15
-9 13 -147 -4 -225 -10 -49 -11 -68 -2 -78 19 -24 18 -154 -3 -229 -10 -37
-17 -69 -15 -71 9 -10 25 12 25 33 0 13 4 26 9 29 17 11 41 -6 41 -28 0 -15
10 -25 32 -34 38 -14 34 -21 -17 -27 -21 -3 -44 -10 -52 -16 -10 -9 -13 -7
-13 10 0 11 -4 21 -9 21 -4 0 -11 -28 -14 -62 -5 -55 -3 -66 16 -86 11 -12 23
-18 27 -13 7 12 37 8 51 -6 8 -8 1 -16 -25 -28 -36 -17 -37 -19 -30 -60 6 -46
-3 -59 -44 -60 -19 -1 -22 3 -17 20 14 48 18 98 7 91 -7 -4 -12 -17 -12 -28 0
-30 -38 -158 -57 -193 l-17 -30 27 18 27 17 15 -36 c12 -30 18 -34 37 -28 35
11 93 9 93 -3 0 -6 3 -15 7 -19 24 -23 -12 -35 -71 -24 -23 4 -41 3 -41 -1 0
-19 -19 -7 -40 24 l-21 32 6 -42 c10 -67 -3 -133 -30 -143 -17 -6 -21 -15 -18
-37 2 -15 -5 -44 -15 -65 -12 -23 -16 -42 -11 -51 9 -15 -32 -141 -52 -162 -5
-5 -9 -20 -9 -32 0 -13 -7 -37 -15 -52 -8 -16 -12 -31 -10 -33 7 -7 -41 -137
-58 -157 -7 -9 -19 -34 -25 -57 -7 -23 -24 -59 -39 -80 -14 -21 -30 -55 -34
-74 -4 -19 -10 -44 -13 -55 -9 -36 -77 -218 -90 -244 -7 -14 -22 -53 -32 -86
-25 -84 -122 -306 -169 -390 -21 -38 -60 -91 -87 -117 -26 -26 -48 -52 -48
-59 0 -22 -91 -183 -130 -230 -29 -34 -38 -54 -38 -82 0 -20 4 -37 8 -37 10 0
21 -54 20 -97 0 -18 -10 -49 -21 -68 -28 -48 -38 -92 -44 -204 -5 -90 -4 -96
21 -132 24 -35 25 -41 14 -76 -7 -21 -22 -55 -33 -75 -20 -37 -20 -38 -2 -58
17 -18 19 -36 17 -120 -1 -92 -4 -103 -40 -177 -21 -44 -49 -93 -62 -111 -17
-23 -21 -38 -17 -62 10 -45 -20 -96 -115 -198 -108 -117 -139 -162 -136 -204
1 -18 -1 -51 -5 -73 -7 -35 -4 -46 25 -91 18 -28 41 -58 51 -68 9 -10 17 -28
17 -41 0 -13 9 -39 19 -57 10 -18 22 -49 26 -68 4 -19 13 -43 20 -53 8 -12 11
-49 9 -113 -3 -87 -6 -99 -33 -141 -40 -59 -45 -92 -37 -220 7 -100 6 -106
-15 -129 l-22 -24 19 -42 c10 -24 37 -77 60 -118 22 -41 47 -94 54 -117 7 -24
33 -66 56 -93 43 -51 61 -101 50 -138 -5 -14 -1 -21 13 -25 17 -4 19 -13 17
-65 -1 -51 -7 -68 -35 -106 -34 -48 -34 -54 -1 -34 16 10 24 9 46 -8 15 -11
31 -27 35 -35 3 -7 12 -26 20 -42 7 -15 18 -27 26 -27 7 0 23 -12 36 -27 54
-64 59 -68 73 -49 9 13 13 14 17 4 2 -7 7 -10 11 -6 4 3 3 15 -3 26 -16 30
-14 62 4 62 17 0 19 12 5 26 -17 17 8 61 39 69 20 5 31 1 49 -20 28 -33 25
-58 -8 -66 -46 -11 -70 -21 -70 -29 0 -20 13 -40 26 -40 9 0 14 -11 14 -30 0
-16 -4 -30 -10 -30 -16 0 -12 -37 5 -44 8 -3 15 -13 15 -22 0 -10 8 -26 17
-36 21 -23 27 -138 7 -138 -7 0 -20 13 -29 28 -10 16 -29 37 -44 47 -22 14
-28 25 -26 52 0 19 6 38 12 41 19 12 1 77 -22 80 -33 4 -45 -12 -55 -72 -5
-32 -13 -63 -18 -70 -18 -23 -21 -46 -7 -59 19 -19 20 -111 2 -167 -13 -40
-12 -49 1 -80 9 -19 21 -42 28 -50 6 -8 14 -26 17 -40 4 -14 21 -43 39 -63 28
-32 39 -38 78 -39 25 0 50 -5 57 -10 19 -15 37 -117 25 -142 -6 -11 -13 -30
-17 -42 -3 -11 -17 -32 -31 -45 -24 -22 -26 -23 -36 -6 -9 18 -11 18 -29 1
-14 -12 -16 -20 -8 -30 6 -8 7 -19 1 -31 -5 -10 -10 -50 -11 -90 -2 -76 7
-104 47 -136 27 -22 57 -79 67 -127 4 -19 16 -41 26 -48 14 -9 19 -25 19 -56
0 -30 9 -56 30 -89 19 -31 29 -58 28 -81 -1 -38 13 -62 42 -71 10 -3 23 -20
30 -38 27 -75 53 -117 82 -129 40 -18 46 -52 20 -102 -12 -23 -22 -44 -22 -47
0 -16 57 -75 68 -71 20 6 52 -28 52 -57 0 -14 -11 -49 -24 -78 -21 -44 -23
-57 -14 -82 9 -23 9 -34 -4 -53 -9 -14 -14 -35 -11 -51 3 -17 -2 -36 -16 -56
-24 -33 -27 -61 -8 -61 21 0 57 -44 57 -68 0 -23 10 -27 95 -36 70 -7 172 -42
211 -71 18 -14 44 -25 57 -25 14 0 30 -7 37 -15 7 -9 25 -15 39 -14 52 4 67
-2 106 -39 77 -73 103 -109 110 -148 4 -21 15 -47 23 -57 20 -22 146 -107 159
-107 6 0 18 -9 28 -20 12 -13 23 -17 34 -11 9 4 45 3 80 -3 59 -10 66 -14 83
-46 28 -56 35 -126 13 -150 -16 -18 -14 -40 6 -40 5 0 18 -9 29 -20 23 -23 92
-29 87 -7 -5 28 29 9 61 -33 18 -25 62 -75 98 -111 35 -37 64 -74 64 -82 0 -8
11 -22 25 -31 14 -10 30 -28 35 -42 5 -13 14 -24 19 -24 13 0 49 -64 83 -150
24 -60 30 -92 32 -158 0 -45 -3 -86 -9 -90 -5 -4 -11 -33 -12 -64 -2 -51 1
-58 17 -58 22 0 34 -31 31 -82 -2 -34 1 -38 21 -37 20 2 428 -35 518 -46 59
-7 131 -14 215 -20 44 -4 91 -8 105 -10 14 -2 84 -9 155 -15 72 -6 146 -12
165 -15 19 -2 71 -7 115 -11 44 -4 87 -8 95 -10 8 -1 18 -3 23 -3 16 -2 6 -31
-18 -49 -13 -11 -27 -34 -30 -53 -3 -18 -8 -35 -10 -38 -3 -2 9 -13 27 -24
123 -74 958 -536 1363 -752 757 -405 708 -381 795 -389 41 -4 100 -11 130 -16
30 -5 159 -21 285 -35 127 -14 248 -27 270 -30 293 -34 958 -104 963 -100 3 2
16 124 26 239 4 39 8 71 10 73 2 2 99 -5 217 -16 118 -11 252 -23 299 -27 353
-27 492 -42 502 -52 7 -7 22 -12 34 -12 27 0 58 -37 75 -88 33 -99 89 -163
164 -188 16 -5 35 -20 41 -32 6 -13 21 -30 32 -38 11 -7 33 -34 48 -58 15 -24
42 -52 58 -62 41 -23 76 -61 76 -82 0 -9 25 -39 55 -66 29 -27 52 -53 49 -58
-3 -4 12 -16 33 -25 21 -10 41 -22 45 -28 4 -5 8 -6 8 -2 0 12 87 -50 103 -73
8 -11 17 -17 20 -14 10 10 37 -16 37 -37 0 -10 9 -20 20 -24 20 -6 36 -49 43
-116 2 -20 14 -51 28 -70 62 -87 67 -103 65 -204 -2 -74 1 -98 18 -135 12 -25
27 -51 33 -58 7 -7 16 -31 19 -52 5 -29 20 -51 64 -94 31 -31 62 -56 68 -56
26 0 60 -24 76 -54 34 -64 145 -136 207 -136 11 0 37 -18 59 -39 28 -27 57
-43 92 -52 38 -10 58 -23 81 -51 28 -35 61 -55 81 -50 5 2 17 -5 28 -15 10 -9
27 -18 36 -20 57 -8 75 -7 82 7 4 8 13 27 21 43 7 15 19 27 27 27 7 0 19 14
25 30 6 17 16 28 22 26 12 -4 65 25 65 36 0 4 -4 9 -9 12 -13 9 -1 47 25 78
12 15 20 35 18 45 -2 10 14 52 36 93 22 41 44 87 50 101 10 23 19 28 66 34 30
3 54 11 54 17 0 9 27 6 63 -8 11 -4 17 3 22 25 9 41 31 58 56 43 10 -7 26 -12
36 -12 9 0 26 -9 38 -20 20 -19 38 -22 105 -19 41 1 141 -11 159 -20 9 -5 21
-6 28 -4 6 2 14 0 17 -6 4 -6 18 -3 37 6 25 12 33 13 39 3 4 -7 15 -10 25 -7
22 9 61 -18 75 -53 7 -17 19 -30 26 -30 8 0 14 -10 14 -24 0 -20 4 -23 21 -19
19 5 21 3 15 -20 -5 -23 -3 -27 21 -33 16 -4 33 -13 38 -20 6 -7 19 -14 30
-16 10 -2 29 -18 41 -35 22 -33 92 -94 131 -114 20 -11 40 -44 35 -60 0 -4 14
-20 33 -37 28 -26 35 -41 40 -87 4 -31 13 -61 19 -68 6 -7 17 -24 25 -39 8
-16 18 -28 23 -28 4 0 8 -9 8 -19 0 -11 4 -22 9 -26 5 -3 9 -18 9 -33 -1 -18
10 -40 31 -62 17 -19 31 -42 31 -52 0 -9 7 -21 17 -26 9 -6 18 -26 20 -48 2
-22 10 -52 17 -69 8 -16 19 -42 25 -57 6 -16 18 -28 27 -28 9 0 14 -6 11 -13
-3 -8 11 -19 37 -30 39 -16 96 -85 96 -116 0 -6 7 -11 15 -11 9 0 20 -11 25
-24 5 -13 13 -27 19 -30 6 -4 8 -13 5 -20 -3 -8 -1 -17 5 -21 6 -3 11 -13 11
-21 0 -20 106 -124 126 -124 9 0 12 -5 8 -11 -5 -8 1 -10 18 -6 19 5 28 2 32
-9 3 -8 10 -13 15 -9 15 9 32 -32 25 -60 -5 -19 -2 -25 10 -25 13 0 15 -9 12
-44 -3 -25 -9 -54 -15 -64 -8 -16 -7 -21 5 -26 8 -3 13 -10 10 -15 -3 -5 2
-11 13 -14 18 -4 34 -54 27 -79 -15 -49 -14 -77 4 -99 11 -12 20 -30 20 -39 0
-11 10 -20 26 -24 17 -5 24 -12 20 -21 -3 -8 3 -19 13 -24 10 -6 24 -25 31
-43 6 -18 16 -42 20 -53 5 -11 16 -48 26 -83 10 -34 23 -62 28 -62 17 0 35
-36 29 -58 -6 -24 10 -35 52 -37 16 -1 44 -7 60 -14 17 -7 42 -10 58 -7 20 4
27 2 27 -9 0 -8 5 -15 11 -15 7 0 26 -15 44 -33 26 -27 37 -32 55 -25 13 5 28
4 34 -1 6 -5 27 -12 46 -16 19 -4 47 -16 62 -26 14 -11 31 -19 36 -19 5 0 13
-7 16 -16 4 -10 13 -13 26 -9 11 4 20 3 19 -2 -4 -23 2 -35 16 -30 8 4 17 3
19 -2 3 -4 20 -7 38 -6 18 1 43 -1 56 -6 12 -5 22 -5 22 0 0 11 151 6 209 -7
29 -7 54 -21 72 -41 14 -17 31 -31 37 -31 5 0 12 -7 16 -15 3 -8 14 -15 25
-15 11 0 24 -7 29 -16 5 -9 18 -14 33 -12 19 2 23 8 21 28 -3 23 3 28 52 44
30 10 62 16 70 13 12 -5 16 0 16 21 0 68 -43 256 -89 390 -69 202 -81 259 -81
387 0 155 48 318 138 473 20 35 48 83 62 107 62 106 200 241 317 309 84 48 79
44 65 58 -9 9 -12 9 -12 0 0 -6 -18 -16 -40 -22 -22 -6 -64 -32 -96 -60 -31
-27 -68 -50 -82 -52 -22 -2 -26 -8 -24 -27 2 -20 -1 -22 -23 -17 -20 5 -25 3
-25 -12 0 -10 -13 -33 -30 -52 -16 -19 -29 -40 -30 -47 0 -6 -9 -32 -20 -57
-14 -34 -25 -46 -40 -46 -17 0 -20 -4 -15 -20 4 -14 -2 -30 -19 -51 -26 -31
-36 -49 -81 -159 -15 -36 -31 -74 -36 -85 -26 -63 -32 -374 -7 -438 6 -15 8
-30 5 -34 -4 -3 0 -18 7 -32 8 -14 20 -46 27 -71 7 -25 18 -52 24 -60 18 -24
63 -168 75 -240 13 -87 13 -97 -2 -82 -7 7 -22 12 -34 12 -19 0 -23 9 -34 65
-7 36 -17 65 -22 65 -6 0 -8 13 -4 31 5 28 4 31 -14 26 -17 -4 -19 -1 -14 19
5 18 2 24 -10 24 -9 0 -16 7 -16 15 0 8 -4 15 -9 15 -6 0 -5 14 0 36 7 22 7
40 1 47 -5 7 -15 39 -22 72 -9 39 -23 70 -41 90 -23 26 -27 38 -26 85 2 49 5
55 25 58 25 4 26 10 13 45 -8 21 -6 26 9 30 14 3 19 17 22 58 2 30 3 56 1 58
-2 3 -19 -1 -39 -8 -33 -12 -94 -7 -94 7 1 11 90 73 90 63 0 -6 -9 -19 -21
-30 -25 -23 -7 -41 19 -18 9 7 25 17 35 20 19 7 32 36 52 112 7 28 22 75 34
105 12 30 21 57 21 60 0 3 -15 11 -33 18 -19 7 -39 23 -45 38 -10 22 -9 28 13
49 29 30 61 32 75 5 6 -11 15 -20 19 -20 18 0 111 169 111 200 0 29 2 31 28
26 23 -6 34 0 72 39 42 43 44 48 45 103 0 51 2 57 23 60 16 3 22 -2 22 -16 0
-39 40 -33 138 23 46 26 68 55 43 55 -5 0 -26 16 -47 36 -22 20 -49 40 -62 45
-13 5 -20 14 -17 19 3 6 -1 17 -10 26 -20 20 -15 39 11 39 12 0 20 -8 22 -24
2 -13 12 -26 23 -28 11 -3 22 -16 25 -29 3 -13 8 -24 10 -24 1 0 23 14 47 30
25 17 50 30 56 30 6 0 11 7 11 15 0 8 6 15 14 15 8 0 22 3 32 7 12 4 15 3 10
-6 -12 -19 -16 -71 -5 -71 5 0 17 4 27 10 19 10 78 35 105 44 10 3 17 0 17 -7
0 -7 -32 -30 -70 -51 -38 -20 -70 -42 -70 -48 0 -5 15 -1 33 10 17 11 66 37
107 58 41 20 131 74 200 119 69 46 134 85 145 89 11 3 63 49 115 102 52 52
139 129 192 169 102 79 118 95 94 95 -8 0 -21 3 -30 6 -12 4 -16 0 -16 -15 0
-14 -6 -21 -20 -21 -17 0 -20 7 -20 44 0 25 -4 48 -10 51 -5 3 -10 15 -10 26
0 11 -7 19 -16 19 -8 0 -24 5 -34 10 -16 9 -18 14 -8 35 8 18 8 28 0 38 -17
20 11 57 29 39 21 -20 39 -14 56 22 21 45 62 65 80 40 20 -28 15 -78 -12 -117
-27 -42 -19 -53 28 -38 90 28 93 29 113 14 19 -14 19 -15 -1 -13 -35 4 -45 0
-45 -15 0 -8 -8 -15 -19 -15 -19 0 -91 -71 -91 -90 0 -15 18 -12 32 6 36 44
71 66 239 153 159 81 191 94 243 97 33 3 67 11 76 19 35 31 158 59 311 70 108
8 159 -2 308 -60 80 -31 113 -38 218 -46 122 -9 124 -9 167 16 55 32 76 32
164 -6 73 -30 112 -32 112 -3 0 8 7 17 15 20 19 8 20 24 2 24 -8 0 -29 8 -48
17 -42 22 -66 26 -74 13 -3 -6 -32 -10 -64 -10 -52 0 -59 2 -69 25 -17 36 1
59 68 93 30 15 57 30 58 34 2 5 10 8 18 8 14 0 18 -14 14 -62 -2 -33 2 -34 36
-12 14 9 47 19 75 21 l50 4 -5 -41 c-5 -41 -5 -41 23 -35 25 5 29 2 38 -27 7
-26 14 -32 32 -30 13 1 30 -3 37 -9 8 -6 20 -9 27 -6 7 3 21 -1 32 -9 10 -8
27 -14 37 -14 10 0 18 -4 18 -10 0 -5 7 -10 15 -10 8 0 15 -4 15 -9 0 -5 3
-16 6 -25 4 -11 1 -16 -10 -16 -9 0 -21 -11 -26 -25 -5 -14 -17 -25 -27 -25
-15 -1 -13 -5 10 -25 20 -18 40 -25 71 -25 23 0 47 -5 52 -10 6 -6 34 -12 63
-13 48 -2 57 -6 92 -45 22 -23 45 -42 52 -42 19 0 109 32 104 36 -2 3 -26 -3
-52 -11 -26 -9 -50 -14 -53 -10 -12 12 16 40 49 49 39 11 51 24 43 48 -4 12 2
17 22 20 29 3 46 28 20 28 -27 0 -18 27 11 33 39 7 54 -2 51 -31 -2 -18 2 -27
12 -27 22 -2 40 15 40 37 0 10 7 21 15 24 19 8 59 -38 42 -48 -14 -8 9 -38 29
-38 24 0 15 -20 -18 -40 -40 -24 -31 -26 19 -3 35 16 190 153 173 153 -4 0
-15 -9 -25 -20 -10 -11 -24 -20 -32 -20 -17 0 -17 25 1 43 11 10 12 24 5 60
-7 42 -4 77 7 77 2 0 13 -5 23 -11 15 -10 22 -8 40 10 26 26 41 27 41 3 0 -10
6 -24 12 -30 10 -10 10 -17 0 -33 -17 -27 -7 -39 28 -33 26 6 86 -8 180 -40
22 -7 44 -26 59 -49 13 -20 30 -37 36 -37 25 0 37 -27 24 -52 -7 -13 -16 -26
-22 -29 -5 -4 -8 -12 -5 -20 2 -7 16 8 30 32 14 24 35 52 46 62 19 17 20 17
36 -8 20 -31 28 -31 41 -3 6 13 20 24 33 26 13 2 23 11 24 23 0 10 1 25 2 32
1 6 5 15 10 18 5 4 6 14 3 23 -5 12 -14 15 -32 10 -14 -3 -25 -2 -25 4 0 5
-16 26 -35 45 -29 29 -37 32 -46 21 -10 -12 -14 -12 -28 0 -10 10 -26 13 -40
9 -17 -4 -22 -3 -17 5 5 9 -7 12 -41 13 -26 1 -53 1 -60 0 -6 -1 -14 8 -18 19
-4 14 -12 19 -22 16 -8 -3 -24 0 -36 6 -21 12 -26 14 -44 17 -14 2 -9 91 4 91
7 0 10 7 7 15 -6 15 5 15 79 0 15 -3 16 -1 6 11 -6 8 -22 14 -35 14 -13 0 -24
4 -24 9 0 5 -9 11 -20 14 -11 3 -20 10 -20 16 0 14 106 15 115 1 3 -6 13 -10
21 -10 8 0 12 5 9 10 -3 6 -3 20 0 31 6 18 12 20 46 15 32 -5 37 -4 32 10 -3
8 -11 13 -18 11 -6 -3 -17 3 -23 13 -10 16 -7 20 23 30 37 12 49 32 15 23 -28
-7 -25 9 6 36 14 12 22 26 18 29 -5 4 -12 11 -16 16 -3 6 -14 -7 -24 -27 -18
-37 -54 -52 -54 -22 0 8 -6 15 -14 15 -26 0 -30 23 -6 42 l22 18 -25 0 c-14 0
-32 3 -41 6 -10 4 -16 1 -16 -9 0 -9 -10 -24 -22 -34 -15 -12 -24 -32 -27 -58
-4 -51 -7 -55 -40 -55 -36 0 -66 31 -48 49 7 8 1 7 -17 -3 -34 -17 -52 -12
-60 17 -3 14 1 29 14 42 18 17 23 18 42 6 18 -11 20 -11 15 3 -4 10 -1 19 8
22 8 4 15 11 15 16 0 15 36 58 43 51 3 -3 13 2 22 11 16 15 35 20 63 17 6 -1
12 7 12 18 0 11 16 37 35 58 30 32 33 40 20 49 -16 12 -10 24 12 24 7 0 13 -9
13 -20 0 -28 12 -26 103 21 51 26 96 42 122 43 22 0 43 5 46 10 4 4 18 0 33
-9 22 -14 35 -16 74 -8 26 5 63 6 82 2 41 -9 87 7 93 33 4 12 14 17 38 16 57
-1 79 -8 79 -22 0 -17 40 -9 41 8 1 10 8 156 9 200 2 31 27 49 56 39 30 -10
55 -67 44 -99 -9 -24 13 -70 41 -84 11 -7 29 -20 40 -31 10 -10 24 -19 29 -19
23 0 7 -31 -22 -44 -24 -11 -28 -15 -13 -15 20 -1 87 21 185 59 30 12 78 28
105 37 28 8 104 33 170 55 66 22 143 46 170 54 77 23 238 34 335 23 103 -12
262 -59 311 -93 19 -13 54 -29 76 -35 22 -6 46 -18 54 -27 16 -19 69 -47 76
-40 9 9 56 -20 82 -50 13 -15 28 -48 33 -73 4 -24 10 -47 13 -49 2 -3 31 7 64
22 32 14 72 26 89 26 23 0 37 8 54 30 23 31 44 41 34 15 -3 -8 -3 -15 0 -15 9
0 88 63 97 77 4 7 13 13 18 13 6 0 22 14 36 30 35 43 61 54 118 55 47 0 50 1
47 24 -1 14 -10 33 -19 44 -13 14 -15 22 -6 35 6 9 17 16 26 14 8 -1 17 6 19
16 4 15 12 18 35 15 18 -3 46 3 69 14 47 23 43 24 124 -14 36 -16 86 -36 112
-43 47 -12 79 -38 133 -107 18 -22 39 -35 67 -40 43 -9 47 -14 62 -85 4 -19
17 -32 40 -42 18 -8 36 -18 40 -24 3 -6 14 -8 25 -5 18 5 49 -29 64 -69 3 -9
19 -19 36 -23 17 -4 31 -12 31 -19 0 -21 31 -76 42 -76 5 0 12 9 15 19 4 15
16 20 56 23 68 5 80 1 73 -28 -5 -18 -1 -23 16 -26 13 -2 24 -11 26 -22 4 -18
68 -81 83 -81 14 0 17 -10 23 -65 3 -30 13 -98 20 -150 8 -52 13 -97 10 -101
-2 -4 -6 -37 -10 -75 -3 -38 -11 -85 -18 -106 -11 -31 -11 -39 2 -52 18 -17
19 -120 3 -140 -17 -20 0 -59 45 -103 28 -27 45 -54 50 -77 3 -20 10 -36 15
-36 12 0 11 7 -2 31 -9 17 -6 21 21 31 25 8 31 15 26 32 -3 11 0 36 7 54 11
31 15 33 44 29 32 -6 44 5 23 18 -5 3 -10 15 -10 26 0 30 48 26 60 -5 10 -27
3 -66 -14 -81 -21 -19 -46 -73 -46 -99 0 -15 -6 -29 -14 -32 -8 -3 -17 -17
-21 -32 -3 -14 -15 -32 -26 -40 -24 -16 -13 -42 35 -81 57 -48 91 -85 153
-171 34 -47 85 -110 113 -140 29 -30 58 -68 66 -85 11 -25 13 -26 14 -9 0 16
8 23 30 27 34 7 37 19 15 61 -19 35 -19 44 -1 62 19 19 37 18 29 -1 -3 -9 2
-22 13 -29 13 -10 19 -31 22 -80 4 -63 -2 -78 -24 -56 -5 5 -15 6 -24 0 -12
-8 -11 -12 7 -32 24 -26 59 -106 50 -115 -10 -9 -37 5 -44 24 -12 32 -70 113
-76 107 -4 -4 4 -19 16 -33 12 -15 33 -47 46 -72 30 -56 70 -78 108 -58 22 12
23 14 6 20 -10 3 -24 4 -31 1 -12 -4 -12 -1 -1 17 17 26 31 26 72 3 84 -46
112 -81 146 -185 13 -37 33 -80 45 -95 12 -15 28 -39 35 -54 8 -15 25 -37 38
-49 23 -22 23 -22 23 -2 0 15 8 22 33 27 59 12 88 13 93 4 3 -4 10 -5 16 -2
10 7 58 -14 70 -30 3 -5 4 -15 1 -22 -2 -7 14 -26 37 -43 36 -26 100 -101 100
-117 0 -3 14 -19 30 -36 17 -17 29 -33 26 -36 -3 -3 1 -10 9 -16 13 -9 14 -17
5 -42 -21 -61 42 -149 89 -125 9 5 18 9 21 9 20 1 66 26 77 42 11 15 23 18 68
15 30 -2 55 0 55 4 0 4 14 15 30 24 17 10 30 27 30 38 0 22 8 23 44 9 20 -7
26 -6 26 4 0 7 7 20 17 27 9 8 22 28 30 44 7 17 18 37 25 46 9 13 7 25 -7 55
-10 22 -18 44 -17 49 1 6 3 33 6 60 8 93 24 135 52 135 8 0 14 -10 14 -25 0
-14 3 -25 8 -25 9 0 -2 146 -16 215 -14 68 -20 112 -32 235 -16 168 -19 190
-37 280 -18 92 -65 197 -119 269 -19 24 -34 48 -34 52 0 4 -21 37 -47 73 -55
75 -139 205 -165 256 -10 19 -57 85 -104 145 -95 120 -142 210 -151 286 -4 38
-2 54 11 68 15 17 15 21 -9 62 -14 24 -41 58 -61 74 -89 74 -315 329 -399 450
-128 185 -145 213 -171 279 -13 33 -30 66 -37 75 -18 21 -120 252 -142 319 -9
28 -20 52 -24 52 -9 0 -31 82 -31 117 0 14 -7 31 -16 37 -10 8 -15 25 -14 47
6 120 3 144 -13 131 -8 -7 -18 -8 -27 -1 -13 8 -13 11 3 23 11 9 17 27 17 54
0 22 5 44 10 47 6 3 10 15 10 26 0 11 7 22 15 25 18 7 21 75 4 102 -8 13 -6
31 10 76 23 66 21 77 -12 69 -22 -5 -22 -5 -2 10 11 8 23 13 26 11 10 -6 20
55 13 83 -4 15 -12 22 -20 19 -7 -3 -16 -1 -19 4 -4 6 2 10 12 10 27 0 54 51
47 89 -6 27 -4 31 14 31 12 0 26 9 32 20 7 14 7 20 0 20 -5 0 -10 7 -10 16 0
10 6 14 14 11 17 -7 46 23 46 46 0 9 -6 17 -14 17 -32 0 -25 22 24 69 28 27
53 61 56 77 4 20 23 41 60 68 45 33 54 44 54 70 0 20 -7 36 -20 44 -22 13 -26
37 -9 48 6 3 15 2 21 -4 13 -13 55 8 92 47 16 17 33 28 37 25 4 -2 11 5 14 16
4 12 23 29 43 38 48 22 91 71 92 102 0 18 13 36 40 59 22 18 40 39 40 46 0 7
16 27 35 44 39 34 42 41 20 41 -21 0 -19 33 4 61 15 18 22 21 31 13 9 -9 20
-9 43 0 39 14 47 23 47 59 0 15 4 27 10 27 5 0 21 17 35 38 20 30 24 44 17 63
-16 43 -5 150 21 209 13 30 32 74 42 98 25 58 85 137 132 172 21 16 41 30 45
30 5 0 29 15 55 34 80 56 239 97 258 66 3 -5 12 -10 19 -10 9 0 15 27 19 93
12 186 74 307 244 483 73 76 103 98 176 134 66 33 103 45 149 48 55 4 63 2 78
-18 l18 -23 7 32 c13 60 54 152 94 212 23 34 41 66 41 71 0 5 11 24 25 42 22
30 24 46 5 46 -4 0 -13 -15 -21 -32 -7 -18 -30 -62 -51 -97 -21 -34 -38 -67
-38 -71 0 -4 -7 -13 -15 -20 -23 -19 -18 4 10 46 14 20 25 42 25 48 -1 19 -24
42 -47 48 -23 6 -32 -6 -13 -17 14 -9 12 -25 -3 -25 -8 0 -27 15 -43 33 l-29
32 -3 -28 c-4 -31 -43 -62 -67 -53 -15 6 -21 36 -7 36 12 0 33 65 26 83 -3 8
-1 18 5 22 16 9 13 71 -4 85 -9 7 -27 10 -45 7 -32 -7 -51 10 -29 24 8 5 41 9
74 8 33 0 76 4 95 10 19 6 45 11 58 11 24 0 61 35 62 58 0 6 4 12 9 12 5 0 13
15 16 33 13 58 39 107 57 107 31 0 57 39 53 79 -10 81 -69 181 -116 196 -34
11 -70 -13 -63 -42 8 -30 -21 -32 -37 -2 -10 19 -17 21 -57 15 -30 -4 -60 -17
-86 -38 -32 -25 -42 -29 -57 -20 -14 9 -22 7 -41 -7 -30 -24 -115 -61 -122
-53 -3 3 -6 19 -6 35 0 28 2 29 33 23 37 -7 80 18 92 52 3 9 24 25 48 35 23
10 49 23 57 28 8 5 30 19 48 30 17 12 32 27 32 34 0 7 18 14 47 18 38 4 50 2
60 -13 13 -18 53 -34 53 -20 0 4 -16 27 -35 51 -19 24 -35 49 -35 55 0 5 -13
23 -29 38 -16 16 -32 39 -35 53 -4 13 -11 21 -15 18 -13 -7 -61 12 -61 25 0
17 63 11 85 -8 22 -20 45 -56 45 -71 0 -6 15 -26 34 -47 18 -20 46 -63 62 -95
17 -36 34 -59 44 -59 17 0 64 -39 57 -47 -3 -2 -14 0 -26 6 -30 17 -35 -4 -6
-27 14 -11 25 -25 25 -31 0 -6 9 -11 20 -11 14 0 18 5 13 18 -10 29 45 -27 83
-83 25 -39 37 -72 49 -139 23 -136 24 -133 -58 -198 -112 -90 -147 -123 -147
-142 0 -13 15 -2 47 34 48 53 152 130 176 130 33 0 -6 248 -49 314 -15 23 -68
88 -118 145 -50 57 -109 127 -130 155 -41 53 -136 219 -136 238 0 6 -19 38
-43 72 -24 33 -56 82 -71 109 -26 46 -49 59 -59 34 -3 -9 -26 -12 -76 -10 -41
2 -71 -2 -71 -7 0 -15 -35 -47 -59 -55 -15 -4 -21 -2 -21 9 0 19 -69 56 -105
56 -20 0 -25 5 -25 24 0 32 -17 76 -29 76 -5 0 -11 -9 -14 -21 -5 -18 -9 -19
-27 -9 -21 11 -21 12 15 31 40 22 65 13 65 -22 0 -12 17 -24 57 -39 31 -12 63
-31 71 -42 15 -21 15 -21 29 6 7 14 20 26 28 26 10 0 15 11 15 34 0 37 -12 51
-52 61 -15 4 -29 14 -32 22 -4 10 -14 13 -31 9 -33 -8 -32 -2 6 22 l30 19 -31
26 c-47 40 -24 62 34 32 15 -8 30 -15 31 -15 2 0 2 20 1 45 -3 52 -30 88 -58
79 -19 -6 -25 10 -8 21 19 12 10 22 -15 17 -13 -2 -33 -1 -42 3 -10 4 -32 7
-49 6 -26 -2 -37 4 -59 33 -15 20 -33 36 -40 36 -18 0 -71 28 -85 45 -13 16 0
21 15 6 6 -4 30 -16 55 -25 27 -10 54 -29 65 -46 19 -28 45 -40 45 -21 0 5 14
5 34 -1 23 -7 42 -7 62 0 29 10 29 11 6 18 -15 4 -21 12 -17 21 3 8 0 33 -7
56 -10 32 -10 41 0 45 7 2 12 16 12 32 0 24 -5 29 -47 39 -101 26 -128 36
-141 53 -7 10 -19 18 -27 18 -8 0 -19 9 -25 21 -10 17 -14 18 -27 7 -9 -7 -18
-12 -20 -10 -1 1 -4 2 -5 1 -2 -1 -23 -2 -48 -4 -64 -4 -110 5 -110 21 0 8
-11 20 -25 26 -18 8 -25 19 -25 39 0 43 -17 44 -65 5 -24 -20 -50 -36 -58 -36
-24 0 -57 49 -56 84 0 31 0 31 22 -14 30 -61 54 -63 97 -10 l34 41 32 -33 c43
-44 55 -53 82 -60 16 -4 22 -2 22 9 0 11 5 9 18 -7 15 -19 22 -21 40 -11 34
18 100 14 111 -8 12 -22 48 -34 54 -17 3 8 8 8 19 -1 8 -7 17 -11 20 -8 3 3
11 -1 18 -10 19 -23 31 -18 20 9 -5 13 -6 26 -3 29 3 3 -11 20 -32 38 -24 22
-35 38 -32 51 3 10 1 18 -4 18 -5 0 -9 11 -9 25 0 19 -12 34 -43 56 -36 25
-49 43 -72 102 -15 40 -34 79 -42 89 -8 9 -10 18 -5 22 13 8 22 56 11 56 -10
0 -7 29 5 48 4 7 3 19 -4 27 -9 11 -9 18 4 30 20 20 20 31 1 39 -8 3 -14 9
-13 13 6 23 -15 52 -39 55 -32 4 -44 28 -14 28 24 0 42 29 36 59 -2 13 2 24
10 27 7 3 11 12 8 20 -6 17 9 18 25 2 9 -9 12 -8 12 8 0 10 9 25 20 32 11 7
20 18 20 25 0 7 10 24 22 37 20 21 20 24 5 35 -24 17 -21 44 6 54 34 13 41 9
38 -26 -1 -19 2 -33 9 -33 8 0 8 -6 0 -20 -6 -11 -8 -24 -6 -29 3 -5 -5 -12
-19 -15 -14 -4 -25 -13 -25 -21 0 -8 -4 -15 -8 -15 -5 0 -15 -31 -22 -69 -12
-65 -12 -69 9 -90 11 -11 21 -30 21 -41 0 -31 20 -24 21 8 l1 27 8 -25 c16
-49 12 -60 -20 -60 -20 0 -33 6 -38 18 -9 21 -19 -48 -13 -95 3 -36 21 -46 21
-13 0 11 4 20 10 20 5 0 7 7 4 15 -4 8 -2 15 4 15 6 0 18 3 26 6 12 5 19 -3
28 -27 14 -41 13 -44 -14 -44 -27 0 -42 -47 -29 -90 8 -26 9 -27 10 -7 1 13 5
21 10 18 5 -4 11 0 14 6 3 10 9 8 24 -4 11 -10 27 -18 37 -18 26 0 15 -33 -13
-40 -28 -6 -36 -36 -15 -57 18 -19 18 -33 -1 -33 -22 0 -18 -27 5 -40 11 -6
20 -17 20 -26 0 -8 7 -17 15 -20 8 -4 12 -10 9 -15 -3 -5 5 -13 18 -18 13 -5
30 -16 37 -25 7 -9 18 -16 24 -16 6 0 2 7 -9 15 -22 17 -7 19 31 5 19 -7 25
-15 21 -26 -10 -25 4 -63 20 -57 8 3 14 -1 14 -11 0 -9 4 -16 9 -16 6 0 9 9 8
20 -1 11 -4 20 -7 20 -10 0 -29 55 -31 90 -3 52 0 70 11 70 14 0 12 -28 -2
-33 -9 -3 -4 -11 12 -25 14 -11 26 -16 28 -11 2 5 11 5 21 -1 10 -5 21 -6 25
-3 3 3 6 2 6 -3 0 -5 -9 -15 -20 -22 -19 -12 -27 -42 -14 -55 4 -3 16 0 28 8
30 22 36 19 29 -15 -5 -26 -3 -29 12 -24 15 6 15 4 5 -13 -9 -13 -10 -33 -6
-59 l8 -39 26 32 c15 17 37 33 50 36 26 6 27 4 6 -29 -15 -22 -15 -24 -1 -18
9 3 20 3 26 0 15 -9 -7 -64 -27 -68 -12 -2 -18 -15 -19 -38 -1 -19 -7 -57 -13
-85 -6 -27 -9 -103 -7 -167 4 -118 6 -125 51 -181 34 -43 94 24 81 90 -3 19
-2 40 3 46 19 25 32 124 35 272 3 111 18 158 55 163 15 2 24 12 27 30 3 15 14
54 24 87 22 68 37 304 22 332 -5 10 -27 62 -48 116 -33 85 -41 97 -58 93 -29
-8 -122 52 -134 85 -5 15 -23 35 -40 43 -22 12 -33 27 -41 59 -17 64 -42 110
-68 123 -12 6 -38 25 -57 43 -27 24 -35 39 -35 66 0 24 -6 37 -20 45 -24 13
-25 28 -4 55 15 19 15 19 9 -7 -5 -19 -2 -29 10 -35 11 -6 17 -23 18 -46 1
-27 5 -37 18 -37 9 0 27 -8 40 -18 27 -21 60 -36 73 -33 4 1 15 -4 23 -11 9
-7 21 -13 27 -13 20 -2 62 -23 75 -38 11 -14 14 -14 31 3 14 14 28 17 62 13
73 -8 71 -4 63 -93 -6 -66 -5 -80 7 -80 32 0 70 53 83 115 5 22 7 44 6 49 -6
28 66 185 90 194 16 6 47 87 65 167 30 138 32 167 19 240 -8 39 -18 129 -24
201 -10 126 -28 195 -53 210 -10 6 -11 4 0 -7 21 -23 14 -30 -30 -29 -24 0
-57 -2 -74 -6 -45 -8 -49 9 -11 43 17 15 38 41 45 57 11 24 10 31 -3 46 -8 9
-13 24 -9 33 8 23 24 11 24 -17 0 -13 6 -28 13 -34 21 -17 64 -18 84 0 10 9
52 28 93 42 41 14 95 40 119 57 25 17 54 32 65 33 31 4 103 51 167 110 30 28
84 73 120 99 67 49 332 293 343 315 9 20 -23 14 -42 -9 -64 -77 -61 -75 -82
-62 -14 9 -27 10 -46 2 -15 -5 -30 -6 -33 -1 -3 5 -14 11 -23 15 -10 3 -18 11
-18 17 0 6 4 9 9 5 6 -3 15 4 21 16 12 21 12 21 -17 4 -15 -10 -48 -48 -73
-86 -25 -38 -56 -73 -70 -78 -14 -6 -36 -16 -50 -24 -36 -21 -67 -33 -135 -54
-34 -11 -59 -24 -58 -31 5 -21 -44 -44 -87 -40 -26 2 -40 -1 -40 -8 0 -7 -8
-10 -19 -7 -13 3 -23 -2 -30 -16 -7 -12 -18 -21 -26 -21 -7 0 -22 -11 -33 -25
-11 -14 -25 -25 -31 -25 -6 0 -11 -12 -11 -26 0 -19 -4 -25 -17 -22 -13 2 -17
11 -15 33 4 31 61 139 70 131 2 -3 32 24 65 59 33 36 66 65 73 65 7 0 16 9 19
20 4 13 15 20 31 20 17 0 24 6 24 19 0 11 8 26 18 33 11 7 24 23 31 36 8 15
18 21 28 18 8 -3 28 3 44 15 17 12 39 19 49 16 11 -3 20 -2 20 2 0 11 50 32
60 26 4 -2 19 4 33 15 14 11 32 20 40 20 19 0 77 32 77 43 0 5 5 5 10 2 6 -3
10 1 10 10 0 10 7 15 18 13 9 -1 24 2 32 7 51 33 106 53 117 43 8 -6 13 -6 13
-1 0 5 12 16 28 24 15 8 46 29 70 47 24 17 50 32 58 32 9 0 14 11 14 34 0 35
13 46 51 46 10 0 19 7 19 15 0 8 5 15 11 15 11 0 9 25 -5 75 -4 11 1 5 9 -14
27 -56 40 -65 59 -36 9 14 22 25 29 25 19 0 60 47 52 59 -3 6 -3 20 0 32 6 17
9 18 23 7 13 -11 15 -10 9 5 -4 11 -1 17 9 17 8 0 12 5 9 10 -3 6 -1 10 5 10
6 0 10 6 9 13 -3 25 14 57 30 57 11 0 23 -17 35 -53 l18 -53 -31 -46 c-17 -26
-45 -58 -62 -72 -17 -14 -27 -26 -22 -26 12 0 83 63 83 74 0 16 53 71 84 86
17 8 32 23 34 33 6 28 41 59 68 61 13 0 24 4 24 7 0 11 96 69 113 69 11 0 17
-8 17 -22 0 -12 3 -19 6 -16 15 15 4 89 -20 136 -59 116 -147 178 -199 140
-16 -12 -16 -14 2 -25 14 -9 18 -9 17 0 -1 13 6 17 33 17 12 0 25 -15 39 -47
12 -27 21 -43 22 -36 0 22 28 2 41 -29 12 -29 11 -32 -22 -59 -19 -16 -44 -37
-56 -48 -50 -44 -183 -35 -183 13 0 34 -34 64 -64 59 -37 -7 -57 12 -45 44 8
22 4 30 -43 74 -40 38 -59 49 -84 49 -18 0 -36 5 -39 10 -3 6 -12 10 -18 10
-8 0 -7 -3 2 -9 19 -12 5 -31 -24 -31 -27 0 -43 33 -26 54 8 10 7 17 -4 26
-16 14 -8 37 27 74 17 18 17 22 4 32 -14 10 -14 13 2 26 9 8 31 23 49 33 37
22 50 59 29 81 -13 13 -16 12 -26 -6 -8 -16 -17 -19 -33 -14 -27 9 -40 25 -72
92 -25 50 -25 57 -14 110 6 31 15 62 19 67 11 15 18 125 8 131 -19 12 -8 64
17 80 14 9 25 25 25 35 0 10 4 20 9 23 11 7 9 24 -7 54 -12 20 -10 26 15 51
16 15 35 30 43 34 10 3 11 8 5 14 -23 18 -44 62 -40 83 8 44 18 65 37 87 25
27 50 20 42 -12 -4 -15 0 -24 10 -28 11 -5 16 -1 16 13 0 11 9 24 21 31 17 9
23 7 36 -11 l15 -22 19 29 c10 15 19 38 19 51 0 19 4 22 20 17 16 -5 19 -3 13
11 -5 13 -3 16 10 11 12 -5 19 1 23 19 5 18 9 22 19 14 10 -8 12 -1 11 35 -2
52 0 55 31 72 14 8 24 9 28 3 4 -6 10 -8 15 -5 5 3 12 0 16 -6 8 -14 24 8 24
34 0 11 9 32 21 48 11 16 17 29 13 29 -3 0 -1 7 6 15 10 12 10 15 -3 15 -18 0
-23 17 -26 88 -1 31 3 60 10 68 10 12 8 20 -8 42 -16 22 -18 31 -9 43 6 9 16
14 22 12 6 -2 15 6 18 19 4 13 9 19 10 13 2 -5 9 -29 16 -52 7 -24 19 -43 27
-43 7 0 13 5 13 11 0 11 76 3 118 -12 29 -11 31 15 2 33 -27 17 -26 38 2 30
15 -3 19 -2 14 7 -4 6 -9 28 -11 49 -3 29 -1 33 7 19 7 -14 13 -16 23 -7 12
10 13 5 8 -24 -6 -40 7 -63 44 -77 15 -5 21 -14 17 -24 -3 -8 -1 -15 5 -15 6
0 11 11 11 25 0 14 7 28 15 31 8 4 15 11 15 16 0 6 -8 7 -17 4 -13 -5 -12 -1
6 18 30 31 21 60 -24 82 -30 14 -33 18 -22 35 7 11 17 17 24 15 6 -3 14 0 17
7 3 8 8 6 16 -6 13 -21 56 -67 62 -67 2 0 4 9 5 20 2 19 25 50 38 50 14 0 33
28 25 36 -4 5 -11 23 -15 41 -6 29 -4 32 17 29 13 -1 29 -5 35 -9 14 -9 23 2
16 19 -8 22 28 17 54 -8 22 -21 34 -13 13 8 -6 6 -12 31 -13 55 -2 38 1 44 18
45 11 1 25 2 31 3 18 2 26 32 13 48 -9 10 -9 17 -1 25 15 15 42 -7 42 -35 0
-11 3 -17 8 -13 4 4 7 11 7 15 0 3 10 17 21 29 12 13 27 43 34 68 7 24 17 44
21 44 5 0 9 9 9 19 0 11 6 22 13 24 7 3 5 6 -5 6 -10 1 -20 12 -24 26 -3 14
-10 25 -15 25 -15 0 -89 71 -89 85 0 21 -43 43 -84 43 -32 0 -37 -3 -34 -21 5
-34 -27 -32 -72 5 -35 29 -40 38 -38 71 2 31 -3 42 -31 65 -23 19 -30 32 -26
44 4 10 11 16 16 13 4 -3 3 8 -3 26 -9 27 -14 30 -37 24 -62 -16 -98 -17 -113
-2 -8 8 -25 13 -39 10 -21 -4 -26 1 -37 37 -7 23 -10 45 -7 50 3 4 -2 11 -11
14 -11 4 -14 13 -10 30 3 14 2 26 -2 28 -4 2 -75 171 -156 376 -127 315 -152
372 -169 372 -11 0 -34 11 -51 23 -17 13 -53 32 -81 42 -27 10 -54 22 -59 27
-10 8 -68 9 -98 1z m655 -1988 c-3 -9 -8 -14 -10 -11 -3 3 -2 9 2 15 9 16 15
13 8 -4z m-12100 -2217 c22 -92 33 -149 29 -153 -12 -12 -46 -3 -63 16 -10 12
-24 19 -31 16 -10 -3 -12 7 -9 41 3 47 13 63 44 75 10 4 15 11 12 17 -3 5 -2
10 3 10 5 0 12 -10 15 -22z m11397 -44 c6 -14 14 -22 20 -19 5 3 10 -2 10 -11
0 -16 -2 -15 -22 2 -30 25 -38 36 -32 46 8 13 14 9 24 -18z m47 -6 c-3 -7 -5
-2 -5 12 0 14 2 19 5 13 2 -7 2 -19 0 -25z m-39 -47 c-2 -18 3 -24 11 -12 6 9
10 0 13 -29 4 -49 -7 -64 -17 -20 -8 36 -25 50 -25 20 0 -12 -4 -18 -10 -15
-6 4 -8 14 -6 23 3 10 -1 30 -9 45 l-14 28 29 -17 c16 -10 29 -20 28 -23z
m-2330 -2671 c34 -21 34 -28 -2 -75 -14 -18 -15 -18 -16 -3 0 10 -12 25 -27
35 -16 9 -29 18 -31 19 -8 5 20 44 31 44 7 0 27 -9 45 -20z m-45 -248 c-7 -4
-19 -23 -27 -42 l-15 -35 -1 42 c0 32 3 41 14 37 8 -3 17 0 21 6 4 6 10 9 13
5 4 -3 1 -9 -5 -13z m-1359 -8058 c9 -24 7 -62 -2 -46 -5 7 -16 10 -24 7 -9
-4 -19 -2 -23 4 -3 6 -16 11 -29 11 -37 0 -39 14 -4 26 47 17 75 17 82 -2z
m-9179 -2465 c-4 -5 -13 -9 -22 -9 -13 0 -13 3 -3 15 13 15 35 11 25 -6z"/>
<path d="M6176 21761 c-3 -5 1 -11 9 -15 9 -3 15 0 15 9 0 16 -16 20 -24 6z"/>
<path d="M6158 21529 c-16 -11 -28 -30 -28 -41 0 -17 -3 -18 -15 -8 -8 7 -15
19 -15 26 0 8 -10 14 -24 14 -21 0 -23 -4 -20 -41 2 -32 10 -49 34 -70 17 -16
35 -29 41 -29 5 0 18 -9 29 -20 11 -11 25 -20 30 -20 6 0 10 9 10 20 0 11 9
29 20 40 15 15 18 27 13 50 -5 26 -2 32 16 37 22 6 22 6 -5 34 -33 34 -49 36
-86 8z"/>
<path d="M22171 20125 c-19 -5 -62 -34 -95 -63 -77 -67 -84 -72 -91 -72 -14 0
-115 -82 -126 -102 -10 -18 -8 -24 7 -35 24 -18 27 -17 91 19 42 24 52 33 39
38 -16 5 -16 7 1 21 10 9 42 29 71 45 46 24 75 53 77 76 0 3 15 23 33 43 19
20 32 37 30 39 -1 1 -18 -3 -37 -9z"/>
<path d="M32046 19882 c-8 -14 6 -112 16 -112 4 0 7 25 6 56 -2 53 -11 74 -22
56z"/>
<path d="M32280 19850 c0 -5 4 -11 10 -15 5 -3 7 -12 4 -19 -3 -8 3 -16 15
-19 42 -11 43 26 1 47 -16 8 -30 11 -30 6z"/>
<path d="M32178 19833 c-3 -34 3 -57 14 -64 20 -12 28 0 28 42 0 32 -3 39 -20
39 -12 0 -21 -7 -22 -17z"/>
<path d="M32360 19799 c0 -5 5 -7 10 -4 6 3 10 8 10 11 0 2 -4 4 -10 4 -5 0
-10 -5 -10 -11z"/>
<path d="M32118 19788 c9 -9 15 -9 24 0 9 9 7 12 -12 12 -19 0 -21 -3 -12 -12z"/>
<path d="M32107 19739 c-19 -26 -23 -54 -7 -44 6 3 10 3 10 -2 0 -4 7 -16 14
-26 12 -15 18 -16 35 -7 28 14 26 28 -8 69 l-28 34 -16 -24z"/>
<path d="M32245 19730 c-9 -14 4 -52 16 -45 12 8 12 55 0 55 -6 0 -13 -5 -16
-10z"/>
<path d="M21357 19238 c-15 -39 -16 -48 -6 -48 13 0 22 24 16 47 -4 17 -4 17
-10 1z"/>
<path d="M21283 19150 c-13 -5 -23 -14 -23 -20 0 -16 26 -12 51 10 26 21 12
26 -28 10z"/>
<path d="M21248 19059 c-39 -39 -55 -77 -20 -46 10 10 24 17 30 17 6 0 9 6 6
14 -3 9 3 17 15 21 21 6 27 20 14 28 -5 3 -25 -13 -45 -34z"/>
<path d="M24251 18813 c1 -15 99 -83 119 -83 25 0 38 29 19 41 -8 5 -33 9 -56
9 -32 0 -46 5 -55 20 -13 20 -29 27 -27 13z"/>
<path d="M23819 18638 c-1 -13 -3 -42 -4 -65 -3 -39 -1 -43 21 -43 30 0 49 32
34 59 -5 11 -11 31 -12 45 -3 34 -37 36 -39 4z"/>
<path d="M23240 18321 c0 -6 -3 -10 -7 -10 -5 1 -16 1 -25 0 -26 -2 -23 -44 4
-67 12 -10 18 -14 15 -7 -7 12 11 63 26 74 5 4 4 10 -2 13 -6 4 -11 2 -11 -3z"/>
<path d="M23650 18187 c0 -14 30 -47 44 -47 4 0 5 12 3 28 -2 19 -10 28 -25
30 -14 2 -22 -2 -22 -11z"/>
<path d="M23627 18113 c-12 -11 -8 -23 8 -23 8 0 15 7 15 15 0 16 -12 20 -23
8z"/>
<path d="M32196 17835 c-3 -8 -1 -15 4 -15 6 0 10 7 10 15 0 8 -2 15 -4 15 -2
0 -6 -7 -10 -15z"/>
<path d="M32225 17700 c21 -34 -27 -77 -91 -81 -11 -1 -6 -4 11 -8 32 -7 125
5 138 19 12 11 -7 44 -39 65 -14 9 -23 12 -19 5z"/>
<path d="M31895 17647 c-8 -13 -18 -37 -21 -55 -4 -20 -14 -34 -28 -38 l-21
-7 22 -10 c18 -8 26 -6 40 12 10 13 43 31 73 41 55 19 73 41 51 63 -8 8 -11 8
-11 -1 0 -17 -40 -15 -46 3 -9 23 -42 18 -59 -8z"/>
<path d="M31492 17309 c-1 -16 2 -29 7 -29 15 0 23 18 11 25 -6 4 -8 10 -5 15
3 5 2 11 -3 14 -4 2 -9 -9 -10 -25z"/>
<path d="M25710 16111 c0 -5 -3 -17 -7 -27 -4 -11 -3 -15 4 -11 14 9 24 47 12
47 -5 0 -9 -4 -9 -9z"/>
<path d="M25767 16074 c-8 -8 1 -24 14 -24 5 0 9 7 9 15 0 15 -12 20 -23 9z"/>
<path d="M34803 15976 c-52 -23 -69 -71 -29 -78 18 -4 27 1 35 19 12 26 58 32
79 11 27 -27 12 -59 -63 -138 -41 -43 -75 -83 -75 -89 0 -5 -3 -16 -6 -25 -5
-14 7 -16 100 -16 l106 0 0 30 0 30 -67 0 -68 0 57 53 c64 59 78 82 78 130 0
64 -79 104 -147 73z"/>
<path d="M35070 15978 c-39 -21 -60 -73 -60 -153 0 -115 50 -179 123 -159 49
15 71 54 75 139 4 79 -8 133 -37 159 -25 22 -72 29 -101 14z m71 -55 c9 -11
14 -43 14 -98 0 -86 -11 -115 -45 -115 -34 0 -45 29 -45 115 0 86 11 115 45
115 10 0 24 -7 31 -17z"/>
<path d="M35351 15959 c-13 -17 -35 -36 -48 -42 -24 -11 -32 -47 -10 -47 7 0
22 7 33 15 10 8 22 15 27 15 4 0 7 -54 7 -120 l0 -120 30 0 30 0 0 165 c0 165
0 165 -22 164 -13 0 -34 -13 -47 -30z"/>
<path d="M35574 15975 c-34 -18 -54 -51 -54 -91 0 -65 65 -119 116 -95 33 15
34 15 34 -12 0 -54 -74 -96 -87 -49 -5 22 -53 18 -53 -4 0 -20 35 -52 63 -59
32 -9 92 18 112 49 22 33 30 130 16 182 -20 75 -86 110 -147 79z m83 -65 c16
-35 6 -69 -23 -76 -33 -8 -54 12 -54 50 0 59 53 76 77 26z"/>
<path d="M35920 15825 l0 -165 30 0 30 0 0 75 0 75 70 0 70 0 0 -75 0 -75 30
0 30 0 0 165 0 165 -30 0 -30 0 0 -65 0 -65 -70 0 -70 0 0 65 0 65 -30 0 -30
0 0 -165z"/>
<path d="M37790 15977 c-17 -9 -26 -22 -28 -45 -2 -20 -9 -32 -18 -32 -8 0
-14 -10 -14 -25 0 -16 6 -25 15 -25 12 0 15 -17 15 -95 0 -95 0 -95 25 -95 25
0 25 0 25 95 0 95 0 95 25 95 20 0 25 5 25 25 0 20 -5 25 -26 25 -36 0 -29 34
9 38 45 5 31 52 -16 52 -7 0 -23 -6 -37 -13z"/>
<path d="M36314 15896 c-46 -20 -64 -52 -64 -111 0 -60 19 -91 67 -111 46 -20
94 -9 130 28 24 25 28 38 28 83 0 47 -4 59 -30 84 -36 36 -88 46 -131 27z m88
-53 c23 -21 24 -89 1 -115 -19 -22 -52 -23 -79 -4 -14 11 -19 26 -19 61 0 35
5 50 19 61 26 19 55 18 78 -3z"/>
<path d="M36853 15895 c-67 -29 -49 -105 29 -125 76 -20 79 -21 76 -38 -4 -22
-71 -29 -89 -9 -14 14 -59 11 -59 -4 0 -20 40 -47 78 -54 79 -13 145 40 122
99 -7 20 -24 29 -80 46 -93 28 -89 46 9 42 68 -2 71 -1 62 17 -11 20 -60 41
-95 41 -12 -1 -35 -7 -53 -15z"/>
<path d="M37124 15894 c-38 -19 -54 -51 -54 -110 0 -61 22 -100 65 -114 46
-15 90 -5 116 28 l21 27 -27 3 c-15 2 -32 -1 -38 -7 -18 -18 -65 -13 -77 8
-19 37 -12 41 65 41 l75 0 0 30 c0 46 -25 86 -61 99 -41 14 -48 14 -85 -5z
m80 -50 c26 -26 18 -34 -34 -34 -27 0 -50 4 -50 9 0 16 31 41 50 41 10 0 26
-7 34 -16z"/>
<path d="M37524 15896 c-46 -20 -64 -52 -64 -111 0 -60 19 -91 67 -111 46 -20
94 -9 130 28 24 25 28 38 28 83 0 47 -4 59 -30 84 -36 36 -88 46 -131 27z m88
-53 c23 -21 24 -89 1 -115 -19 -22 -52 -23 -79 -4 -14 11 -19 26 -19 61 0 35
5 50 19 61 26 19 55 18 78 -3z"/>
<path d="M36540 15807 c0 -66 4 -99 15 -114 21 -30 68 -38 106 -19 39 20 39
20 39 1 0 -9 9 -15 25 -15 l25 0 0 120 0 120 -25 0 c-24 0 -25 -2 -25 -67 0
-84 -15 -117 -55 -121 -43 -5 -55 18 -55 110 0 77 0 78 -25 78 -25 0 -25 0
-25 -93z"/>
<path d="M34760 15256 l0 -166 30 0 30 0 0 70 c0 70 0 70 28 70 36 0 42 -5 91
-77 38 -57 45 -63 76 -63 l35 0 -26 43 c-15 23 -40 56 -56 73 l-29 31 31 13
c55 23 68 88 26 137 -23 26 -28 28 -130 31 l-106 4 0 -166z m188 102 c7 -7 12
-21 12 -33 0 -34 -20 -45 -82 -45 l-58 0 0 45 0 45 58 0 c32 0 63 -5 70 -12z"/>
<path d="M37440 15395 c0 -21 5 -25 30 -25 25 0 30 4 30 25 0 21 -5 25 -30 25
-25 0 -30 -4 -30 -25z"/>
<path d="M36903 15393 c-13 -9 -23 -26 -23 -39 0 -15 -6 -24 -15 -24 -9 0 -15
-9 -15 -25 0 -16 6 -25 15 -25 12 0 15 -15 15 -75 0 -62 4 -79 20 -95 21 -21
37 -24 64 -14 23 9 20 44 -3 44 -24 0 -31 19 -31 86 0 51 1 54 25 54 20 0 25
5 25 25 0 20 -5 25 -24 25 -22 0 -25 5 -28 39 -3 38 -4 38 -25 24z"/>
<path d="M37318 15394 c-19 -10 -28 -23 -28 -39 0 -16 -6 -25 -15 -25 -9 0
-15 -9 -15 -25 0 -16 6 -25 15 -25 12 0 15 -14 15 -64 0 -77 11 -112 39 -121
31 -9 61 3 61 26 0 12 -7 19 -20 19 -18 0 -20 7 -20 70 0 63 2 70 20 70 15 0
20 7 20 25 0 18 -5 25 -19 25 -16 0 -20 8 -23 39 l-3 39 -27 -14z"/>
<path d="M35143 15330 c-40 -17 -65 -68 -60 -128 4 -61 31 -97 81 -106 52 -10
116 22 116 57 0 12 -50 13 -54 1 -9 -23 -63 -17 -80 8 -9 12 -16 26 -16 30 0
5 36 8 80 8 79 0 80 0 80 25 0 29 -21 75 -42 92 -19 16 -80 24 -105 13z m75
-52 c25 -25 13 -38 -33 -38 -30 0 -45 4 -45 13 0 19 21 37 45 37 12 0 26 -5
33 -12z"/>
<path d="M35454 15330 c-12 -5 -25 -13 -29 -19 -9 -16 -25 -13 -25 4 0 9 -9
15 -25 15 l-25 0 0 -165 0 -165 30 0 30 0 0 60 c0 33 2 60 3 60 2 0 18 -7 35
-15 59 -30 114 7 127 85 16 92 -51 169 -121 140z m50 -62 c21 -29 20 -87 -1
-110 -38 -42 -93 -6 -93 61 0 64 62 96 94 49z"/>
<path d="M35715 15320 c-22 -24 -35 -26 -35 -5 0 8 -9 15 -20 15 -19 0 -20 -7
-20 -120 l0 -120 25 0 c24 0 25 2 25 76 0 87 11 114 46 114 16 0 27 7 33 23
14 38 -24 50 -54 17z"/>
<path d="M35865 15327 c-39 -18 -60 -59 -59 -118 1 -60 24 -95 72 -110 45 -13
103 6 122 40 10 19 8 21 -19 21 -16 0 -33 -4 -36 -10 -9 -14 -58 -13 -73 2 -7
7 -12 20 -12 30 0 16 9 18 75 18 l75 0 0 35 c0 71 -80 121 -145 92z m79 -53
c26 -26 18 -34 -34 -34 -54 0 -55 1 -40 31 13 23 53 25 74 3z"/>
<path d="M36113 15330 c-12 -5 -29 -20 -38 -34 -26 -39 -3 -77 55 -94 83 -24
93 -31 80 -47 -16 -19 -74 -20 -89 -1 -11 13 -61 11 -61 -3 0 -4 11 -18 25
-31 21 -20 37 -24 82 -24 48 0 58 3 79 27 47 55 27 89 -67 117 -43 13 -69 26
-66 33 4 15 76 22 89 9 5 -5 20 -7 33 -4 20 3 23 8 15 22 -17 33 -91 49 -137
30z"/>
<path d="M36385 15331 c-40 -17 -59 -50 -63 -110 -4 -54 -2 -61 26 -92 26 -29
37 -34 75 -34 34 0 52 6 71 24 14 14 26 28 26 32 0 14 -50 16 -61 3 -17 -21
-56 -17 -73 8 -9 12 -16 26 -16 30 0 5 36 8 80 8 74 0 80 2 80 20 0 44 -29 90
-64 105 -39 17 -52 17 -81 6z m73 -53 c25 -25 13 -38 -33 -38 -30 0 -45 4 -45
13 0 19 21 37 45 37 12 0 26 -5 33 -12z"/>
<path d="M36694 15330 c-12 -5 -25 -13 -29 -19 -9 -16 -25 -13 -25 4 0 9 -9
15 -25 15 l-25 0 0 -120 0 -120 30 0 30 0 0 88 c0 96 7 112 52 112 38 0 48
-24 48 -119 0 -80 0 -81 25 -81 25 0 25 0 25 99 0 80 -3 103 -17 119 -21 25
-60 35 -89 22z"/>
<path d="M37074 15330 c-12 -5 -29 -19 -38 -32 -16 -22 -15 -23 6 -29 14 -3
27 0 33 9 7 8 24 12 45 10 27 -2 35 -8 35 -22 0 -15 -13 -23 -60 -35 -45 -12
-63 -23 -74 -43 -19 -34 -3 -74 36 -89 25 -9 39 -7 96 16 12 5 17 2 17 -9 0
-11 9 -16 30 -16 27 0 30 2 20 19 -5 11 -10 57 -10 103 0 46 -4 88 -8 95 -17
28 -86 40 -128 23z m86 -139 c0 -49 -81 -71 -88 -24 -3 18 4 24 30 32 50 14
58 13 58 -8z"/>
<path d="M37873 15330 c-40 -17 -65 -68 -60 -128 4 -61 31 -97 81 -106 52 -10
116 22 116 57 0 12 -50 13 -54 1 -9 -23 -63 -17 -80 8 -9 12 -16 26 -16 30 0
5 36 8 80 8 79 0 80 0 80 25 0 29 -21 75 -42 92 -19 16 -80 24 -105 13z m75
-52 c25 -25 13 -38 -33 -38 -30 0 -45 4 -45 13 0 19 21 37 45 37 12 0 26 -5
33 -12z"/>
<path d="M38113 15325 c-67 -29 -49 -105 29 -125 76 -20 79 -21 76 -38 -4 -22
-71 -29 -89 -9 -14 14 -59 11 -59 -4 0 -20 40 -47 78 -54 79 -13 145 40 122
99 -7 20 -24 29 -80 46 -93 28 -89 46 9 42 68 -2 71 -1 62 17 -11 20 -60 41
-95 41 -12 -1 -35 -7 -53 -15z"/>
<path d="M37440 15210 l0 -120 30 0 30 0 0 120 0 120 -30 0 -30 0 0 -120z"/>
<path d="M37589 15213 c41 -102 51 -118 72 -121 22 -3 27 6 70 118 l47 120
-27 0 c-24 0 -29 -7 -52 -72 -14 -40 -30 -73 -36 -75 -6 -2 -23 30 -38 72 -25
69 -30 75 -56 75 l-27 0 47 -117z"/>
<path d="M29856 14492 c-2 -4 4 -26 14 -47 18 -40 19 -40 24 20 2 27 -26 47
-38 27z"/>
<path d="M34720 14125 l0 -255 255 0 255 0 0 255 0 255 -255 0 -255 0 0 -255z"/>
<path d="M29916 14355 c4 -8 8 -15 10 -15 2 0 4 7 4 15 0 8 -4 15 -10 15 -5 0
-7 -7 -4 -15z"/>
<path d="M35620 14175 l0 -155 63 1 c128 1 177 44 177 154 0 110 -49 153 -177
154 l-63 1 0 -155z m155 110 c40 -16 55 -46 55 -111 0 -88 -50 -131 -140 -122
l-35 3 -3 109 c-1 61 0 116 2 123 7 18 78 17 121 -2z"/>
<path d="M37470 14310 c0 -11 7 -20 15 -20 8 0 15 9 15 20 0 11 -7 20 -15 20
-8 0 -15 -9 -15 -20z"/>
<path d="M37360 14280 c0 -20 -5 -30 -15 -30 -8 0 -15 -7 -15 -15 0 -8 7 -15
15 -15 12 0 15 -16 15 -82 0 -94 4 -104 43 -113 22 -6 26 -4 21 9 -3 9 -12 16
-20 16 -11 0 -14 19 -14 85 0 69 3 85 15 85 8 0 15 7 15 15 0 8 -7 15 -15 15
-10 0 -15 10 -15 30 0 20 -5 30 -15 30 -10 0 -15 -10 -15 -30z"/>
<path d="M35972 14235 c-86 -37 -73 -190 17 -208 38 -8 88 9 102 34 12 24 -12
27 -31 4 -31 -37 -120 -4 -120 45 0 18 7 20 80 20 79 0 80 0 80 26 0 38 -18
64 -55 80 -40 16 -32 17 -73 -1z m80 -32 c35 -32 23 -43 -48 -43 -68 0 -70 3
-36 43 19 22 60 22 84 0z"/>
<path d="M36165 14239 c-11 -29 -1 -212 13 -217 9 -3 12 18 12 81 0 93 13 117
63 117 37 0 47 -25 47 -119 0 -47 4 -81 10 -81 6 0 10 33 10 78 0 90 15 122
59 122 44 0 51 -16 51 -112 0 -54 4 -88 10 -88 7 0 10 37 8 102 -3 101 -3 103
-31 116 -25 12 -32 11 -65 -8 -24 -15 -38 -18 -40 -10 -8 23 -53 31 -85 15
-27 -14 -31 -13 -43 3 -11 15 -13 15 -19 1z"/>
<path d="M36563 14236 c-40 -18 -53 -43 -53 -103 0 -58 18 -88 65 -103 28 -9
40 -8 68 5 63 30 79 121 30 174 -34 37 -68 45 -110 27z m87 -36 c14 -14 20
-33 20 -65 0 -75 -57 -110 -111 -67 -18 15 -22 29 -22 67 0 38 4 52 22 67 30
24 66 23 91 -2z"/>
<path d="M36802 14235 c-36 -16 -52 -48 -52 -106 0 -53 14 -78 55 -95 52 -21
115 9 115 55 0 19 -18 12 -25 -9 -7 -23 -44 -35 -78 -26 -54 13 -63 125 -13
158 22 15 66 8 86 -14 23 -25 37 -19 21 10 -8 15 -64 46 -75 42 -1 -1 -16 -7
-34 -15z"/>
<path d="M36970 14135 c0 -96 3 -115 15 -115 12 0 15 16 15 81 0 92 10 119 45
119 29 0 41 16 19 24 -9 4 -27 0 -40 -9 -29 -19 -34 -19 -34 0 0 8 -4 15 -10
15 -6 0 -10 -45 -10 -115z"/>
<path d="M37163 14239 c-18 -5 -37 -18 -43 -29 -13 -25 4 -28 26 -5 20 19 88
19 104 0 22 -26 4 -44 -52 -51 -34 -5 -60 -15 -75 -30 -28 -28 -29 -45 -5 -75
22 -26 68 -30 108 -9 23 13 27 12 35 -3 19 -33 24 -16 21 66 -4 114 -7 123
-43 136 -36 12 -33 12 -76 0z m87 -128 c0 -51 -79 -83 -111 -45 -19 24 0 47
52 61 61 16 59 16 59 -16z"/>
<path d="M37470 14135 c0 -96 3 -115 15 -115 12 0 15 19 15 115 0 96 -3 115
-15 115 -12 0 -15 -19 -15 -115z"/>
<path d="M37612 14235 c-36 -16 -52 -48 -52 -106 0 -53 14 -78 55 -95 52 -21
115 9 115 55 0 19 -18 12 -25 -9 -7 -23 -44 -35 -78 -26 -54 13 -63 125 -13
158 22 15 66 8 86 -14 23 -25 37 -19 21 10 -8 15 -64 46 -75 42 -1 -1 -16 -7
-34 -15z"/>
<path d="M34720 13415 l0 -255 255 0 255 0 0 255 0 255 -255 0 -255 0 0 -255z"/>
<path d="M35620 13466 c0 -132 2 -156 15 -156 12 0 15 14 15 70 l0 70 41 0
c56 0 70 -10 115 -80 23 -36 46 -60 57 -60 15 0 14 5 -9 43 -15 23 -38 54 -52
69 -14 15 -24 29 -21 31 2 2 16 8 32 15 49 21 58 90 16 128 -16 14 -42 19
-115 22 l-94 4 0 -156z m191 107 c18 -18 14 -65 -7 -80 -11 -8 -45 -13 -86
-13 l-68 0 0 48 c0 27 3 52 8 56 11 12 140 2 153 -11z"/>
<path d="M36640 13466 c0 -97 4 -156 10 -156 6 0 10 7 10 15 0 18 1 18 36 0
75 -39 144 50 115 147 -10 31 -20 43 -47 54 -30 13 -38 13 -64 -1 l-29 -15 -3
52 c-2 30 -8 53 -15 56 -10 3 -13 -32 -13 -152z m130 24 c14 -14 20 -33 20
-65 0 -32 -6 -51 -20 -65 -46 -46 -105 -9 -105 65 0 74 59 111 105 65z"/>
<path d="M36880 13465 c0 -97 4 -155 10 -155 6 0 10 58 10 155 0 97 -4 155
-10 155 -6 0 -10 -58 -10 -155z"/>
<path d="M36970 13600 c0 -11 7 -20 15 -20 8 0 15 9 15 20 0 11 -7 20 -15 20
-8 0 -15 -9 -15 -20z"/>
<path d="M35981 13531 c-64 -17 -90 -134 -42 -185 28 -29 70 -39 111 -25 33
12 61 49 37 49 -8 0 -20 -7 -27 -15 -19 -23 -76 -19 -100 7 -11 12 -20 30 -20
40 0 16 9 18 80 18 79 0 80 0 80 26 0 38 -18 64 -55 80 -19 8 -36 14 -37 13
-2 -1 -14 -4 -27 -8z m73 -37 c33 -32 20 -44 -49 -44 -69 0 -78 7 -45 40 24
24 72 26 94 4z"/>
<path d="M36164 13527 c-2 -7 -3 -78 -2 -157 2 -104 6 -145 16 -148 9 -3 12
13 12 57 0 34 2 61 5 61 3 0 17 -7 30 -16 21 -14 30 -14 56 -4 42 18 61 50 61
105 0 83 -55 130 -115 100 -37 -18 -37 -18 -37 0 0 18 -19 20 -26 2z m132 -38
c43 -47 14 -149 -43 -149 -37 0 -63 34 -63 82 0 74 63 114 106 67z"/>
<path d="M36400 13461 c0 -44 4 -91 10 -106 14 -36 54 -49 93 -30 38 19 47 19
47 0 0 -8 5 -15 10 -15 6 0 10 45 10 116 0 88 -3 115 -12 112 -9 -3 -15 -35
-18 -92 -5 -93 -13 -106 -60 -106 -42 0 -50 17 -50 112 0 72 -3 88 -15 88 -12
0 -15 -15 -15 -79z"/>
<path d="M36970 13425 c0 -96 3 -115 15 -115 12 0 15 19 15 115 0 96 -3 115
-15 115 -12 0 -15 -19 -15 -115z"/>
<path d="M37112 13525 c-36 -16 -52 -48 -52 -106 0 -53 14 -78 55 -95 52 -21
115 9 115 55 0 19 -18 12 -25 -9 -7 -23 -44 -35 -78 -26 -47 11 -62 94 -26
140 25 32 64 34 96 4 25 -23 37 -21 27 6 -6 16 -54 46 -71 46 -4 -1 -23 -7
-41 -15z"/>
<path d="M37335 13533 c-23 -6 -55 -32 -55 -45 0 -13 20 -9 36 7 31 31 123 7
111 -29 -2 -6 -29 -16 -61 -22 -63 -13 -96 -36 -96 -68 0 -29 11 -43 43 -55
27 -11 43 -8 85 12 20 9 25 8 33 -6 19 -33 24 -16 21 66 -4 114 -7 123 -43
136 -33 11 -41 12 -74 4z m85 -133 c0 -53 -86 -82 -114 -38 -19 31 17 53 107
67 4 0 7 -12 7 -29z"/>
<path d="M37520 13424 c0 -88 3 -115 13 -112 8 3 13 32 15 89 3 92 13 109 62
109 43 0 50 -17 50 -112 0 -72 3 -88 15 -88 12 0 15 16 15 86 0 47 -5 94 -11
105 -17 32 -54 41 -96 24 -44 -18 -43 -18 -43 0 0 8 -4 15 -10 15 -6 0 -10
-45 -10 -116z"/>
<path d="M4900 11273 c0 -4 32 -16 70 -28 24 -7 24 -7 7 11 -14 16 -77 29 -77
17z"/>
<path d="M5220 11215 c7 -8 10 -24 7 -36 -9 -33 60 -58 137 -50 33 3 61 11 63
17 6 17 -25 25 -46 12 -16 -10 -24 -7 -51 15 -17 15 -39 27 -48 27 -9 0 -26 7
-36 15 -26 19 -42 19 -26 0z"/>
<path d="M5028 11206 c3 -6 7 -17 8 -24 5 -28 34 -49 62 -45 15 3 35 5 45 6
21 2 22 20 2 37 -9 7 -14 18 -12 24 3 8 -15 12 -54 12 -38 0 -56 -3 -51 -10z"/>
<path d="M5280 10629 c0 -17 40 -49 61 -49 23 0 17 16 -15 40 -25 17 -46 22
-46 9z"/>
<path d="M5886 10626 c3 -7 15 -18 28 -24 18 -8 22 -16 18 -46 -3 -30 -1 -36
15 -36 10 0 29 -7 41 -16 34 -24 45 -8 23 34 -26 50 -142 132 -125 88z"/>
<path d="M5810 10333 c1 -24 37 -131 50 -149 12 -16 60 -29 60 -16 0 2 -18 28
-39 59 -22 30 -43 68 -46 84 -6 25 -26 43 -25 22z"/>
<path d="M6020 9314 c-69 -70 -94 -85 -147 -86 -68 -2 -120 3 -105 9 6 2 12 9
12 15 0 20 -55 -4 -112 -48 -60 -47 -130 -83 -162 -84 -11 0 -27 7 -35 14 -15
13 -25 7 -96 -55 -43 -38 -80 -77 -81 -86 -2 -9 -7 -19 -12 -22 -5 -3 -12 -19
-16 -35 -8 -32 -50 -76 -110 -114 -37 -23 -46 -24 -122 -19 -46 3 -96 13 -113
21 -42 22 -48 20 -55 -15 -3 -18 -15 -47 -27 -65 -16 -26 -27 -34 -51 -34
l-30 0 30 -25 c16 -14 32 -35 36 -48 3 -13 24 -38 46 -56 22 -17 40 -37 40
-43 0 -6 21 -42 47 -82 45 -67 48 -75 50 -145 2 -72 3 -74 37 -97 19 -13 44
-24 55 -24 12 0 21 -5 21 -11 0 -5 5 -7 10 -4 6 3 10 1 10 -4 0 -6 18 -11 40
-11 46 0 48 -7 18 -59 l-22 -39 28 -42 c23 -35 24 -41 10 -38 -10 2 -27 18
-38 37 -15 27 -17 37 -8 52 7 11 8 20 2 24 -6 3 -10 14 -10 25 0 21 -21 32
-39 21 -16 -10 -11 -43 10 -58 25 -19 43 -91 28 -110 -11 -13 -10 -14 6 -12
32 6 85 -21 85 -42 0 -22 -20 -25 -38 -7 -10 10 -18 7 -38 -15 -24 -26 -44
-34 -57 -21 -4 4 -21 8 -39 9 -18 2 -34 8 -36 14 -2 6 -13 11 -25 11 -43 0
-101 27 -109 51 -6 15 -5 25 1 27 6 2 11 12 11 22 0 9 7 23 15 30 19 16 19 27
-1 47 -31 32 -235 11 -249 -25 -3 -9 -1 -18 4 -20 6 -2 11 -8 11 -13 0 -15
-26 -10 -53 11 l-25 20 -103 -35 c-57 -19 -116 -37 -131 -40 -19 -4 -28 -12
-28 -25 0 -11 5 -20 10 -20 6 0 19 -14 29 -30 17 -28 82 -77 124 -93 15 -5 15
-10 5 -26 -15 -24 -49 -35 -60 -18 -16 23 5 -48 21 -72 12 -18 12 -26 3 -29
-20 -6 -14 -59 10 -82 12 -11 26 -20 30 -20 5 0 27 -12 51 -27 37 -25 52 -28
123 -28 87 -1 132 -18 141 -56 6 -21 18 -25 28 -9 13 20 25 9 25 -22 l1 -33
27 31 c35 42 59 53 121 58 28 2 58 9 66 16 20 16 43 6 55 -25 13 -33 5 -51
-31 -65 -22 -10 -32 -10 -43 -1 -25 21 -28 -7 -5 -39 18 -24 23 -45 25 -109
l3 -78 -39 -38 c-37 -36 -41 -38 -85 -31 -47 6 -94 38 -95 64 0 6 -11 12 -25
12 -14 0 -25 -4 -25 -10 0 -5 6 -10 13 -10 6 0 19 -4 27 -10 12 -7 12 -12 -4
-29 -28 -31 -110 -81 -132 -81 -12 0 -33 18 -52 45 -27 39 -36 45 -66 45 -26
0 -44 -8 -66 -30 -16 -16 -30 -33 -30 -38 0 -5 -7 -15 -15 -22 -8 -7 -15 -21
-15 -31 0 -11 -5 -19 -11 -19 -5 0 -7 -4 -4 -10 3 -5 -9 -16 -27 -23 -18 -8
-56 -36 -85 -63 -44 -42 -51 -53 -46 -77 5 -28 5 -28 -30 -22 -33 7 -35 6 -30
-16 5 -17 3 -21 -9 -16 -11 4 -17 -2 -21 -19 -3 -20 0 -24 19 -24 28 0 31 -15
9 -37 -14 -14 -14 -17 0 -33 10 -11 15 -30 13 -47 -3 -25 0 -28 23 -25 32 3
46 -23 24 -44 -17 -18 -20 -34 -4 -34 5 0 9 -10 7 -22 -3 -23 -37 -48 -64 -48
-26 0 -14 -21 16 -27 27 -5 28 -7 13 -18 -15 -11 -14 -15 10 -39 32 -32 77
-124 70 -142 -8 -22 15 -43 59 -55 53 -14 177 8 187 33 12 34 29 2 45 -90 l17
-94 -32 -29 c-27 -24 -30 -32 -24 -56 20 -77 -4 -147 -47 -135 -14 3 -19 1
-14 -6 4 -7 16 -12 27 -12 10 0 19 -5 19 -11 0 -14 59 -1 78 17 16 16 60 29
69 21 3 -4 17 3 31 13 29 23 67 27 59 6 -3 -7 7 -27 22 -44 l28 -30 23 21 c14
14 21 17 18 7 -3 -8 1 -20 9 -25 7 -6 20 -34 28 -64 17 -64 37 -90 58 -73 8 7
12 23 10 39 -6 36 12 83 32 83 8 0 15 -7 15 -15 0 -8 5 -15 10 -15 6 0 10 -8
10 -19 0 -37 22 -42 98 -21 40 11 79 20 87 20 28 0 15 -25 -31 -64 -50 -42
-66 -72 -53 -98 6 -11 4 -18 -5 -21 -21 -8 -59 -122 -52 -154 5 -20 4 -24 -3
-14 -8 12 -16 11 -48 -11 -21 -14 -48 -29 -60 -32 -31 -10 -83 -72 -83 -101 0
-25 -18 -33 -36 -15 -6 6 -23 3 -49 -9 -22 -11 -56 -22 -76 -25 -21 -4 -42
-13 -49 -21 -7 -8 -20 -15 -29 -15 -23 -1 -47 -21 -76 -65 -24 -35 -25 -39
-10 -61 8 -13 11 -24 5 -24 -5 0 -10 4 -10 9 0 16 -44 17 -57 1 -11 -13 -12
-12 -13 8 0 12 5 22 11 22 24 0 1 24 -27 27 -101 14 -159 -3 -252 -76 -28 -23
-56 -41 -62 -41 -5 0 -10 -7 -10 -15 0 -12 -8 -14 -40 -9 -38 6 -40 5 -40 -20
0 -31 -13 -33 -40 -6 -22 22 -37 24 -92 11 -24 -6 -40 -5 -48 3 -9 8 -18 3
-38 -20 -15 -17 -37 -35 -50 -39 -18 -5 -22 -13 -20 -33 3 -23 8 -27 39 -30
23 -2 40 2 49 12 15 19 61 21 107 4 28 -10 36 -10 43 2 7 11 12 11 34 -4 32
-20 35 -5 4 17 l-23 15 33 12 c28 11 33 16 28 36 -4 14 -2 24 4 24 5 0 10 -8
10 -19 0 -45 64 -49 73 -5 2 14 0 27 -5 30 -4 3 -6 10 -2 15 11 18 26 -4 20
-31 -4 -23 -1 -29 17 -34 12 -3 24 0 28 5 4 8 9 8 14 0 3 -7 15 -9 26 -6 10 4
19 2 19 -3 0 -5 9 -12 21 -15 20 -5 20 -5 3 14 -9 10 -24 19 -33 19 -10 0 -6
7 13 22 15 13 34 38 41 56 9 21 21 32 34 32 25 0 26 -4 4 -36 -14 -22 -14 -27
-2 -35 21 -13 43 -11 65 6 25 19 34 19 34 0 0 -20 17 -19 29 3 10 16 10 15 11
-3 1 -19 2 -19 17 2 8 13 26 23 39 23 13 0 27 6 31 14 4 8 22 16 38 18 28 3
30 1 27 -27 -2 -16 -9 -33 -15 -37 -8 -5 -8 -8 -1 -8 6 0 24 16 40 35 23 28
36 35 66 35 20 0 40 5 43 10 4 6 12 7 18 3 27 -16 55 -11 66 13 6 15 19 24 33
24 19 0 20 2 8 10 -8 5 -10 10 -5 10 6 0 -1 9 -14 19 -34 26 -19 41 39 37 51
-4 59 1 38 22 -9 9 -7 13 6 18 10 4 21 3 25 -3 3 -5 14 -13 25 -16 14 -6 17
-4 12 9 -3 8 1 22 9 31 13 12 18 13 30 3 12 -10 19 -10 33 3 9 8 32 18 51 22
28 6 96 55 76 55 -3 0 -1 10 6 22 10 19 9 20 -7 14 -18 -7 -18 -6 -2 10 9 9
28 16 42 17 14 0 26 3 26 8 0 5 11 9 24 9 17 0 28 9 38 30 13 31 23 37 33 20
9 -15 25 -12 25 5 0 8 8 15 19 15 10 0 21 9 24 20 4 15 13 19 39 18 60 -2 96
12 110 43 7 16 16 29 21 29 4 0 7 6 5 13 -4 17 33 57 52 57 9 0 30 12 47 28
25 22 29 31 22 50 -5 12 -15 22 -23 22 -7 0 -16 6 -19 13 -2 7 -17 13 -33 15
-15 1 -31 7 -35 13 -7 12 12 59 24 59 5 0 6 4 3 9 -4 5 7 12 24 16 16 4 30 13
30 21 0 8 7 14 15 14 8 0 15 5 15 11 0 7 11 8 29 4 23 -5 32 -2 44 16 9 12 13
28 10 37 -5 12 -1 14 15 10 30 -8 66 36 52 62 -13 24 -13 30 0 30 21 0 68 43
63 57 -3 8 4 23 16 34 11 11 21 24 21 29 0 6 11 10 25 10 18 0 25 5 25 18 0
23 30 51 60 57 13 2 33 13 44 23 36 33 64 44 85 32 11 -5 27 -7 35 -4 10 4 18
-1 22 -12 4 -11 16 -29 27 -42 22 -24 17 -35 -20 -46 -15 -5 -27 0 -42 15
l-20 22 -33 -22 c-18 -12 -50 -29 -71 -38 -36 -15 -38 -19 -33 -49 7 -36 -20
-109 -51 -137 -11 -10 -28 -36 -38 -58 -18 -39 -18 -40 2 -60 19 -19 22 -20
57 -5 l37 15 -21 -29 c-14 -20 -36 -34 -64 -41 -23 -6 -48 -20 -55 -31 -11
-17 -9 -23 10 -41 16 -15 26 -18 38 -10 9 5 33 8 54 7 30 -2 44 4 67 27 16 16
42 32 59 35 35 7 71 38 71 61 0 14 2 14 15 -3 9 -11 14 -14 15 -6 0 7 8 12 18
10 12 -2 16 3 14 18 -1 11 7 29 18 39 20 18 20 18 21 -6 1 -18 3 -19 6 -6 3
13 10 16 25 11 11 -3 27 -7 34 -8 7 -1 16 -5 20 -8 3 -4 18 -2 32 3 16 6 27 6
31 0 4 -5 15 -8 26 -6 11 2 23 4 27 4 9 1 6 41 -3 41 -15 0 -18 33 -5 58 14
28 13 65 -2 70 -12 4 -2 62 12 63 12 1 19 2 81 19 22 6 49 12 61 14 11 2 26 6
32 10 16 10 15 -26 0 -43 -11 -11 -10 -13 4 -8 10 3 20 2 23 -3 4 -6 1 -10 -4
-10 -6 0 -11 -7 -11 -16 0 -13 7 -15 31 -10 26 5 30 3 25 -10 -4 -12 -2 -15 9
-11 20 8 28 -8 10 -23 -8 -7 -15 -9 -15 -5 0 4 -7 2 -15 -5 -8 -6 -20 -8 -26
-4 -16 9 -38 -22 -32 -45 5 -18 7 -18 43 -2 22 9 41 24 44 34 2 9 9 17 16 17
6 0 8 -5 4 -12 -5 -7 0 -9 14 -6 14 4 31 -3 53 -23 38 -34 49 -36 42 -9 -4 16
0 20 17 20 17 0 21 -4 17 -20 -3 -13 0 -20 9 -20 8 0 17 -6 20 -14 3 -8 19
-18 35 -21 16 -4 37 -17 47 -30 19 -24 20 -24 114 -14 80 9 104 8 154 -6 32
-10 70 -18 84 -19 14 -2 26 -10 28 -18 4 -20 88 -58 132 -60 38 -1 98 25 117
51 9 13 12 10 18 -22 6 -31 4 -40 -15 -55 l-22 -18 38 -26 c53 -35 121 -73
172 -98 43 -19 81 -55 82 -75 2 -24 81 -93 141 -124 24 -12 69 -86 69 -114 0
-7 9 -19 20 -27 11 -8 20 -19 20 -25 0 -5 22 -34 49 -62 26 -29 44 -53 39 -53
-4 0 -8 -11 -8 -25 0 -14 5 -25 10 -25 6 0 5 -8 -2 -20 -15 -23 -8 -33 17 -24
13 5 16 15 12 38 -4 26 -1 32 13 33 14 1 19 -9 24 -48 4 -27 4 -54 1 -60 -4
-5 7 -25 23 -43 17 -19 43 -57 58 -85 16 -28 32 -51 36 -51 12 0 7 141 -7 179
-21 61 2 85 30 31 8 -16 15 -37 15 -47 0 -10 14 -35 31 -56 20 -25 25 -35 13
-30 -11 4 -15 3 -10 -5 3 -6 2 -13 -3 -16 -5 -4 -4 -22 3 -45 14 -49 26 -62
27 -30 0 15 3 19 6 9 4 -10 10 -4 18 19 14 44 28 49 43 16 10 -21 9 -30 -3
-48 -21 -30 -19 -40 7 -34 22 6 48 -7 48 -25 0 -5 -10 -8 -22 -6 -15 2 -23 -2
-23 -12 0 -8 10 -16 23 -18 12 -2 20 -8 17 -13 -4 -5 5 -14 19 -21 15 -6 26
-20 26 -30 0 -20 -26 -36 -38 -23 -4 4 -1 10 6 12 17 6 15 33 -2 33 -8 0 -17
-4 -20 -9 -3 -5 -15 -7 -26 -4 -24 6 -27 -12 -3 -25 9 -6 14 -16 10 -25 -3 -9
-2 -19 4 -22 5 -4 8 -1 7 6 -2 6 3 14 10 16 6 3 12 -2 12 -11 0 -9 8 -16 20
-16 14 0 20 -7 20 -23 0 -25 19 -56 59 -100 23 -25 26 -26 33 -10 3 10 7 28 7
41 1 18 -4 23 -21 20 -11 -2 -23 3 -26 11 -3 9 0 11 7 7 7 -4 18 -2 26 4 12
10 15 9 15 -4 0 -8 11 -18 25 -22 15 -4 25 -13 25 -24 0 -23 39 -37 51 -19 5
8 7 19 5 25 -2 6 -7 37 -11 69 -6 45 -14 64 -34 81 -14 13 -20 24 -13 24 6 0
12 6 12 14 0 16 31 16 42 1 4 -5 5 -17 3 -26 -3 -9 0 -29 6 -45 l11 -29 13 29
12 28 6 -31 c4 -17 4 -38 1 -46 -4 -11 -2 -13 9 -10 9 4 16 -1 20 -14 6 -24
37 -29 37 -6 0 8 -6 15 -14 15 -7 0 -14 10 -14 23 0 12 -1 29 -3 37 -3 10 2
14 16 12 30 -6 39 -16 53 -65 10 -31 20 -47 35 -51 30 -8 51 15 83 90 l28 65
-22 65 c-17 52 -19 69 -10 89 14 32 -4 80 -27 71 -9 -3 -24 3 -35 14 -11 11
-24 20 -29 20 -5 0 -14 7 -21 15 -7 8 -22 15 -34 15 -11 0 -41 11 -65 25 -23
14 -53 25 -66 25 -18 0 -25 7 -30 30 -4 16 -13 30 -21 30 -9 0 -14 11 -14 30
0 23 -4 30 -20 30 -14 0 -19 6 -18 23 1 13 -25 60 -63 115 -35 51 -73 108 -84
126 -11 18 -28 45 -39 60 -10 15 -17 29 -14 31 8 8 -76 91 -109 108 -17 9 -35
27 -38 39 -8 26 -72 88 -91 88 -12 0 -24 30 -24 63 0 16 -16 36 -53 65 -14 12
-20 11 -44 -5 -15 -10 -40 -24 -55 -31 -19 -8 -26 -16 -22 -27 5 -11 0 -18
-15 -22 -18 -5 -21 -11 -17 -30 8 -29 -9 -63 -31 -63 -9 0 -35 -16 -59 -35
-23 -19 -45 -35 -47 -35 -3 0 -8 18 -12 39 -5 33 -22 55 -91 122 -46 46 -84
88 -84 95 0 7 -16 22 -36 33 -35 21 -36 23 -29 66 l6 45 -37 0 c-27 0 -46 -7
-65 -26 -26 -25 -28 -25 -59 -9 -21 11 -36 13 -42 7 -7 -7 -20 -7 -41 0 l-30
11 4 1401 c4 1377 4 1401 -15 1399 -11 -1 -28 10 -38 23 -11 13 -24 24 -31 24
-6 0 -33 19 -60 42 -73 61 -151 85 -177 53 -7 -8 -21 -15 -31 -15 -10 0 -21
-4 -24 -10 -13 -21 -85 1 -120 37 -20 19 -40 24 -109 27 -27 1 -51 7 -53 13
-2 6 -13 9 -23 6 -13 -4 -29 5 -49 26 -18 19 -35 29 -44 25 -10 -3 -18 2 -22
15 -3 12 -10 19 -15 16 -5 -3 -26 4 -47 15 -43 23 -83 26 -102 8 -10 -11 -15
-9 -26 5 -11 15 -20 17 -47 11 -18 -4 -36 -7 -40 -6 -5 1 -8 -3 -8 -8 0 -7 -6
-7 -17 -1 -10 5 -27 12 -38 16 -16 5 -17 8 -5 15 17 10 15 12 -27 34 -37 18
-40 31 -17 57 21 24 12 36 -39 50 -60 17 -120 18 -132 2 -8 -11 -15 -11 -38
-1 -24 11 -27 17 -22 44 4 22 0 38 -13 54 l-18 22 -32 -28 c-18 -16 -32 -34
-32 -41 0 -7 -11 -13 -25 -13 -35 0 -32 25 5 47 17 9 30 21 30 24 0 12 -44 50
-78 68 -13 7 -20 16 -17 22 16 25 -16 4 -55 -37z m645 -3244 c-9 -18 -19 -30
-21 -27 -3 3 2 19 11 37 9 18 19 30 21 27 3 -3 -2 -19 -11 -37z m2285 -1601
c0 -6 -4 -7 -10 -4 -5 3 -10 11 -10 16 0 6 5 7 10 4 6 -3 10 -11 10 -16z"/>
<path d="M24150 7693 l-25 -15 25 6 c14 3 35 6 48 6 13 0 20 4 17 10 -8 14
-35 11 -65 -7z"/>
<path d="M10319 7424 c-8 -7 -34 -24 -59 -37 -25 -13 -50 -33 -56 -45 -6 -12
-18 -30 -27 -40 -20 -22 -22 -60 -4 -83 7 -9 30 -22 51 -27 21 -6 50 -23 65
-38 17 -16 41 -28 62 -30 19 -2 54 -6 79 -9 42 -4 48 -2 88 35 37 35 43 45 41
77 -1 21 5 56 15 77 20 48 13 97 -17 116 -31 20 -220 23 -238 4z"/>
<path d="M9878 7204 c-16 -20 -33 -35 -82 -77 -31 -26 -39 -41 -39 -66 0 -18
6 -39 14 -47 13 -13 17 -9 33 26 13 31 27 45 57 57 34 13 39 19 39 47 0 18 5
37 11 43 12 12 4 33 -11 33 -5 0 -15 -7 -22 -16z"/>
<path d="M11727 6958 c-17 -18 -44 -48 -60 -66 -25 -29 -32 -32 -87 -32 -63 0
-73 -7 -40 -28 12 -7 20 -23 20 -40 0 -17 10 -38 25 -52 14 -13 25 -29 25 -36
0 -6 7 -18 16 -25 9 -7 20 -23 25 -36 12 -32 34 -29 74 10 30 29 33 37 28 74
l-5 41 47 7 c25 4 50 4 54 -1 4 -5 32 -38 61 -74 59 -73 68 -79 125 -79 39 0
40 0 18 16 -13 8 -23 24 -23 34 0 9 -7 25 -15 33 -9 9 -15 23 -13 33 2 10 -4
19 -14 21 -13 2 -18 -3 -18 -17 0 -27 -8 -26 -44 3 -23 19 -27 29 -22 49 7 29
-1 57 -16 57 -14 0 -46 43 -72 94 -27 53 -48 56 -89 14z"/>
<path d="M11845 6620 c-3 -6 1 -7 9 -4 18 7 21 14 7 14 -6 0 -13 -4 -16 -10z"/>
<path d="M12027 6589 c7 -7 15 -10 18 -7 3 3 -2 9 -12 12 -14 6 -15 5 -6 -5z"/>
<path d="M12445 6539 c4 -13 -2 -30 -19 -50 -47 -55 -38 -62 62 -55 131 11
141 10 222 -11 75 -20 75 -20 123 0 44 18 97 66 97 88 0 14 -48 22 -88 15 -87
-17 -104 -15 -126 9 -22 23 -22 23 -34 4 -7 -11 -16 -18 -20 -16 -4 3 -38 8
-77 11 -38 4 -87 11 -108 15 -35 8 -37 7 -32 -10z"/>
<path d="M3960 6407 c0 -23 77 -117 96 -117 6 0 17 -11 24 -25 16 -29 25 -32
34 -9 5 13 15 15 40 11 38 -6 51 0 36 18 -6 7 -6 25 1 49 11 41 -1 69 -27 59
-9 -3 -14 2 -14 14 0 17 -6 19 -46 17 -25 -2 -52 -8 -59 -14 -9 -7 -20 -6 -41
5 -39 20 -44 19 -44 -8z"/>
<path d="M12986 6369 c-29 -34 -32 -64 -12 -112 17 -40 39 -59 95 -81 32 -12
46 -14 51 -6 4 7 18 10 31 8 20 -2 26 -12 36 -53 6 -27 12 -67 12 -87 1 -27 7
-40 21 -48 29 -15 106 -3 155 25 22 12 55 23 73 23 19 0 44 8 57 16 14 9 29
16 35 16 6 0 24 14 40 30 37 38 40 83 8 104 -25 15 -77 30 -94 27 -7 -1 -14 5
-18 14 -3 8 -11 15 -19 15 -7 0 -31 16 -52 36 -33 30 -47 36 -86 37 -28 0 -54
-5 -64 -13 -16 -13 -80 -39 -96 -40 -4 0 -21 23 -39 50 -51 79 -91 91 -134 39z"/>
<path d="M12662 6278 c-39 -10 -41 -32 -4 -55 36 -23 42 -32 42 -69 0 -42 20
-58 62 -49 80 18 116 61 86 104 -40 57 -118 86 -186 69z"/>
<path d="M13055 5980 c-4 -6 -25 -22 -47 -36 -33 -21 -37 -28 -27 -40 7 -8 19
-12 28 -8 9 3 36 7 59 9 24 2 45 5 47 7 2 2 0 19 -4 38 -5 25 -13 36 -28 38
-12 2 -24 -2 -28 -8z"/>
<path d="M19091 5954 c-23 -20 -40 -38 -37 -41 2 -3 17 7 34 21 16 15 37 33
48 41 10 8 14 15 8 15 -6 0 -29 -16 -53 -36z"/>
<path d="M13720 5684 c-6 -14 -10 -31 -10 -37 0 -34 25 -92 53 -123 40 -47 42
-65 11 -100 -28 -33 -54 -81 -54 -101 0 -7 -9 -13 -20 -13 -11 0 -28 -10 -38
-22 -9 -11 -24 -29 -33 -38 -39 -41 -29 -96 30 -160 23 -26 51 -91 51 -122 0
-10 7 -18 15 -18 9 0 15 -9 15 -23 0 -13 3 -27 8 -31 4 -4 7 -11 8 -14 0 -4 6
-19 13 -33 10 -20 11 -52 3 -140 -8 -106 -8 -116 11 -149 26 -43 35 -50 68
-50 15 0 32 -7 39 -14 6 -8 27 -20 46 -26 19 -6 40 -20 48 -31 23 -33 51 -10
98 81 10 19 18 41 18 50 0 22 53 80 73 80 9 0 24 11 33 25 9 13 25 27 36 31
12 3 36 23 54 43 32 34 37 36 99 37 43 0 71 6 82 16 10 9 40 27 67 42 64 36
193 153 205 187 9 27 7 29 -55 58 -35 17 -67 37 -70 46 -3 8 -12 15 -19 15 -7
0 -16 15 -20 33 -4 17 -9 40 -11 50 -6 19 -35 22 -64 7 -25 -13 -30 -3 -31 65
-2 64 -20 89 -119 155 -91 62 -331 152 -345 129 -3 -4 -27 5 -54 21 -27 17
-52 30 -57 30 -4 0 -19 11 -33 24 -28 25 -80 46 -118 46 -16 0 -27 -8 -33 -26z"/>
<path d="M5950 5498 c0 -4 0 -10 0 -13 -1 -13 -57 -60 -67 -57 -7 2 -13 -3
-13 -13 0 -9 -3 -14 -7 -12 -5 2 -19 -6 -33 -19 -19 -18 -21 -24 -9 -24 9 0
23 -8 30 -17 11 -15 11 -16 -1 -5 -17 15 -34 16 -24 1 4 -7 -1 -7 -16 1 -21
11 -22 10 -17 -9 6 -23 -3 -27 -20 -10 -8 8 -17 8 -32 0 -21 -12 -29 -41 -12
-41 5 0 7 -9 4 -20 -6 -23 -23 -27 -23 -5 0 39 -95 4 -117 -42 -11 -22 -10
-28 4 -38 11 -8 14 -22 11 -44 -3 -19 1 -36 9 -42 7 -6 13 -18 13 -27 0 -13 3
-12 20 3 27 24 36 13 15 -19 -17 -25 -17 -26 4 -26 11 0 21 5 21 10 0 6 4 10
10 10 15 0 50 33 50 47 0 7 7 13 15 13 8 0 15 -7 15 -15 0 -8 4 -15 9 -15 5 0
11 7 15 15 3 8 17 15 32 15 20 0 24 3 16 13 -15 17 -2 32 28 32 18 0 25 5 23
18 -1 15 4 17 21 13 15 -4 28 1 39 14 21 24 21 30 3 30 -13 0 -26 20 -26 41 0
5 7 9 16 9 14 0 14 3 4 15 -10 12 -10 15 1 15 9 0 10 3 2 11 -8 8 -17 8 -31 0
-28 -15 -32 -14 -26 4 4 9 -4 23 -17 35 -13 10 -19 19 -12 20 6 0 15 -5 19
-11 3 -6 16 -8 28 -4 11 3 36 8 54 10 36 4 62 20 62 40 0 14 -49 40 -69 36
-12 -2 -11 2 2 23 22 33 21 42 -3 42 -11 0 -20 -4 -20 -8z"/>
<path d="M29651 5243 c0 -23 -5 -44 -10 -47 -5 -3 -12 -21 -15 -41 -4 -19 -15
-40 -24 -47 -15 -11 -16 -17 -7 -35 10 -19 14 -12 39 67 15 49 26 101 23 117
-3 21 -4 17 -6 -14z"/>
<path d="M5165 5050 c-4 -6 3 -10 14 -10 25 0 27 6 6 13 -8 4 -17 2 -20 -3z"/>
<path d="M29582 5031 c-7 -4 -10 -15 -6 -24 4 -11 0 -19 -10 -23 -9 -3 -15
-14 -14 -23 2 -11 -3 -15 -17 -13 -12 2 -16 0 -10 -5 5 -4 12 -12 16 -16 9
-13 61 69 57 92 -2 14 -7 18 -16 12z"/>
<path d="M5550 4965 c-27 -29 -24 -31 19 -9 19 10 36 12 44 7 7 -5 26 -10 42
-12 28 -2 29 -2 10 12 -11 8 -36 17 -56 21 -30 5 -39 2 -59 -19z"/>
<path d="M29516 4885 c-9 -13 -16 -29 -16 -34 0 -6 -9 -15 -20 -21 -11 -6 -20
-18 -20 -26 0 -18 35 23 63 74 21 38 17 43 -7 7z"/>
<path d="M4546 4834 c-9 -24 -7 -56 3 -49 5 3 12 1 16 -5 11 -17 25 -11 25 11
0 14 5 19 14 16 27 -11 26 7 -1 25 -34 22 -49 23 -57 2z"/>
<path d="M4630 4841 c0 -5 7 -11 15 -15 9 -3 15 0 15 9 0 8 -7 15 -15 15 -8 0
-15 -4 -15 -9z"/>
<path d="M4281 4790 c-14 -8 -7 -30 9 -30 11 0 21 28 12 34 -5 3 -14 1 -21 -4z"/>
<path d="M4657 4764 c-18 -10 -27 -21 -23 -30 3 -8 -1 -17 -9 -20 -8 -4 -15
-10 -15 -15 0 -17 79 46 80 64 0 20 2 20 -33 1z"/>
<path d="M29409 4743 c-13 -16 -12 -17 4 -4 16 13 21 21 13 21 -2 0 -10 -8
-17 -17z"/>
<path d="M3650 4735 c-7 -9 -10 -18 -7 -22 11 -10 86 -12 93 -2 3 5 11 6 17 2
8 -5 8 -2 0 9 -7 8 -10 18 -6 21 3 4 -1 7 -10 7 -9 0 -17 -7 -17 -16 0 -11 -5
-14 -16 -10 -9 3 -18 6 -20 6 -3 0 -2 5 1 10 10 16 -21 11 -35 -5z"/>
<path d="M4727 4743 c-8 -12 7 -45 32 -72 12 -13 13 -12 6 9 -4 14 -11 27 -15
30 -4 3 -9 14 -12 25 -2 14 -6 16 -11 8z"/>
<path d="M2180 4719 c0 -4 6 -9 13 -12 28 -10 -82 -18 -123 -8 -57 13 -72 13
-40 -1 14 -6 29 -10 34 -9 4 1 19 -5 32 -14 13 -8 41 -14 64 -13 28 1 47 -5
63 -19 31 -28 64 -45 117 -59 59 -16 62 -11 5 10 -25 10 -45 22 -45 27 0 5 -9
9 -20 9 -23 0 -70 28 -70 41 0 5 6 9 14 9 19 0 28 14 20 34 -6 16 -64 20 -64
5z"/>
<path d="M3471 4721 c-8 -5 -11 -17 -7 -29 4 -12 1 -26 -9 -35 -8 -9 -15 -20
-15 -26 0 -6 -3 -11 -7 -12 -5 -1 -33 -3 -62 -5 -61 -5 -66 -7 -56 -24 5 -8
23 -10 54 -5 25 3 70 6 99 7 29 0 55 5 60 12 4 7 25 16 46 21 45 11 60 34 24
36 -17 1 -18 3 -5 6 9 2 17 11 17 18 0 18 -23 32 -28 17 -6 -19 -33 -14 -30 6
2 13 -5 18 -32 20 -19 1 -41 -2 -49 -7z"/>
<path d="M29354 4699 c-19 -22 -19 -22 4 -10 12 6 22 16 22 21 0 15 -5 12 -26
-11z"/>
<path d="M3748 4683 c7 -3 16 -2 19 1 4 3 -2 6 -13 5 -11 0 -14 -3 -6 -6z"/>
<path d="M3785 4680 c3 -5 16 -10 28 -9 21 0 21 1 2 9 -28 12 -37 12 -30 0z"/>
<path d="M3236 4664 c-9 -8 -16 -22 -16 -31 0 -11 -6 -14 -21 -10 -30 8 -49
-2 -60 -30 -5 -13 -24 -30 -41 -38 -18 -8 -28 -14 -22 -15 19 0 127 40 143 54
9 7 31 16 50 20 44 8 66 35 42 53 -22 17 -57 16 -75 -3z"/>
<path d="M4177 4674 c-11 -11 3 -24 25 -24 17 0 18 2 8 15 -13 16 -23 19 -33
9z"/>
<path d="M8771 4664 c0 -11 3 -14 6 -6 3 7 2 16 -1 19 -3 4 -6 -2 -5 -13z"/>
<path d="M8700 4661 c0 -18 18 -21 30 -6 10 13 9 15 -9 15 -11 0 -21 -4 -21
-9z"/>
<path d="M29295 4650 c-3 -5 -1 -10 4 -10 6 0 11 5 11 10 0 6 -2 10 -4 10 -3
0 -8 -4 -11 -10z"/>
<path d="M29260 4625 c-7 -8 -17 -15 -22 -15 -15 0 -58 -37 -51 -44 3 -3 13 1
22 9 9 8 30 26 46 40 17 13 27 25 24 25 -4 0 -12 -7 -19 -15z"/>
<path d="M2473 4613 c-24 -9 -13 -24 15 -21 15 2 26 8 25 13 -2 12 -23 16 -40
8z"/>
<path d="M2917 4601 c6 -22 43 -35 57 -21 7 7 2 10 -12 10 -13 0 -25 7 -28 15
-9 22 -23 18 -17 -4z"/>
<path d="M2777 4583 c-14 -13 -6 -20 18 -15 14 2 25 8 25 13 0 10 -34 12 -43
2z"/>
<path d="M2890 4580 c0 -5 5 -10 11 -10 5 0 7 5 4 10 -3 6 -8 10 -11 10 -2 0
-4 -4 -4 -10z"/>
<path d="M29024 4572 c9 -15 48 -23 43 -9 -2 7 -14 14 -26 15 -13 2 -21 -1
-17 -6z"/>
<path d="M28973 4553 c-7 -2 -13 -10 -13 -17 0 -7 -16 -18 -35 -26 -19 -8 -35
-17 -35 -22 0 -19 -58 -72 -97 -89 -45 -19 -61 -46 -20 -33 44 13 114 53 145
82 32 30 92 50 92 31 0 -9 13 -4 48 19 19 13 3 42 -23 42 -13 0 -27 5 -30 10
-7 11 -13 11 -32 3z"/>
<path d="M28533 4344 c-7 -19 2 -28 22 -21 19 8 19 23 0 31 -9 3 -18 -1 -22
-10z"/>
</g>
</svg>
