<?xml version="1.0" encoding="UTF-8" standalone="no"?>
<svg xmlns:svg="http://www.w3.org/2000/svg"
     xmlns="http://www.w3.org/2000/svg" version="1.1"
     width="360" height="185">
    <!-- Created with the Wikimedia parliament diagram creator (http://parliamentdiagram.toolforge.org/parliamentinputform.html) -->
    <g>
        <text x="175" y="175" 
              style="font-size:36px;font-weight:bold;text-align:center;text-anchor:middle;font-family:sans-serif">
            108
        </text>
        <g style="fill:#9D2235; stroke-width:0.00; stroke:#000000" 
           id="0_Labour"> 
            <title>Labour</title>            <circle cx="13.47" cy="173.34" r="6.67"/> 
            <circle cx="30.15" cy="173.34" r="6.67"/> 
            <circle cx="46.83" cy="173.34" r="6.67"/> 
            <circle cx="63.52" cy="173.34" r="6.67"/> 
            <circle cx="80.22" cy="173.34" r="6.67"/> 
            <circle cx="96.93" cy="173.35" r="6.67"/> 
            <circle cx="15.82" cy="151.29" r="6.67"/> 
            <circle cx="32.69" cy="151.70" r="6.67"/> 
            <circle cx="49.85" cy="151.04" r="6.67"/> 
            <circle cx="66.85" cy="151.55" r="6.67"/> 
            <circle cx="84.41" cy="150.64" r="6.67"/> 
            <circle cx="21.09" cy="129.76" r="6.67"/> 
            <circle cx="38.35" cy="130.66" r="6.67"/> 
            <circle cx="101.75" cy="151.35" r="6.67"/> 
            <circle cx="56.57" cy="129.56" r="6.67"/> 
            <circle cx="74.22" cy="130.78" r="6.67"/> 
            <circle cx="29.16" cy="109.11" r="6.67"/> 
            <circle cx="46.99" cy="110.66" r="6.67"/> 
            <circle cx="93.69" cy="129.49" r="6.67"/> 
            <circle cx="66.81" cy="109.52" r="6.67"/> 
            <circle cx="39.90" cy="89.72" r="6.67"/> 
            <circle cx="112.28" cy="131.44" r="6.67"/> 
            <circle cx="85.37" cy="111.76" r="6.67"/> 
            <circle cx="58.43" cy="92.13" r="6.67"/> 
            <circle cx="53.12" cy="71.92" r="6.67"/> 
            <circle cx="80.28" cy="91.49" r="6.67"/> 
        </g>
        <g style="fill:#066913; stroke-width:0.00; stroke:#000000" 
           id="1_Justice"> 
            <title>Justice</title>            <circle cx="107.58" cy="111.05" r="6.67"/> 
            <circle cx="72.45" cy="75.44" r="6.67"/> 
            <circle cx="99.89" cy="95.18" r="6.67"/> 
            <circle cx="68.59" cy="56.04" r="6.67"/> 
            <circle cx="127.75" cy="115.08" r="6.67"/> 
            <circle cx="96.58" cy="75.98" r="6.67"/> 
            <circle cx="88.73" cy="60.97" r="6.67"/> 
        </g>
        <g style="fill:#3333FF; stroke-width:0.00; stroke:#000000" 
           id="2_Democratic"> 
            <title>Democratic</title>            <circle cx="86.03" cy="42.35" r="6.67"/> 
            <circle cx="125.32" cy="96.27" r="6.67"/> 
            <circle cx="117.28" cy="81.63" r="6.67"/> 
            <circle cx="106.93" cy="49.00" r="6.67"/> 
            <circle cx="115.27" cy="63.44" r="6.67"/> 
            <circle cx="105.13" cy="31.10" r="6.67"/> 
            <circle cx="147.04" cy="103.46" r="6.67"/> 
            <circle cx="136.90" cy="71.59" r="6.67"/> 
            <circle cx="126.68" cy="39.80" r="6.67"/> 
            <circle cx="145.98" cy="85.96" r="6.67"/> 
        </g>
        <g style="fill:#3C87FF; stroke-width:0.00; stroke:#000000" 
           id="3_Alliance"> 
            <title>Alliance</title>            <circle cx="135.79" cy="54.21" r="6.67"/> 
            <circle cx="125.55" cy="22.48" r="6.67"/> 
            <circle cx="147.55" cy="33.55" r="6.67"/> 
            <circle cx="146.94" cy="16.64" r="6.67"/> 
            <circle cx="158.06" cy="65.42" r="6.67"/> 
        </g>
        <g style="fill:#F0FF2A; stroke-width:0.00; stroke:#000000" 
           id="4_Liberal"> 
            <title>Liberal</title>            <circle cx="157.58" cy="48.57" r="6.67"/> 
            <circle cx="168.74" cy="97.43" r="6.67"/> 
            <circle cx="168.46" cy="80.67" r="6.67"/> 
            <circle cx="169.11" cy="30.40" r="6.67"/> 
            <circle cx="168.92" cy="13.70" r="6.67"/> 
            <circle cx="180.00" cy="46.67" r="6.67"/> 
            <circle cx="180.00" cy="63.33" r="6.67"/> 
        </g>
        <g style="fill:#E81B23; stroke-width:0.00; stroke:#000000" 
           id="5_Republican"> 
            <title>Republican</title>            <circle cx="191.08" cy="13.70" r="6.67"/> 
            <circle cx="190.89" cy="30.40" r="6.67"/> 
            <circle cx="191.54" cy="80.67" r="6.67"/> 
            <circle cx="191.26" cy="97.43" r="6.67"/> 
            <circle cx="202.42" cy="48.57" r="6.67"/> 
            <circle cx="201.94" cy="65.42" r="6.67"/> 
            <circle cx="213.06" cy="16.64" r="6.67"/> 
            <circle cx="212.45" cy="33.55" r="6.67"/> 
            <circle cx="234.45" cy="22.48" r="6.67"/> 
            <circle cx="224.21" cy="54.21" r="6.67"/> 
            <circle cx="214.02" cy="85.96" r="6.67"/> 
            <circle cx="233.32" cy="39.80" r="6.67"/> 
            <circle cx="223.10" cy="71.59" r="6.67"/> 
            <circle cx="212.96" cy="103.46" r="6.67"/> 
            <circle cx="254.87" cy="31.10" r="6.67"/> 
        </g>
        <g style="fill:#DD4013; stroke-width:0.00; stroke:#000000" 
           id="6_Conservative"> 
            <title>Conservative</title>            <circle cx="244.73" cy="63.44" r="6.67"/> 
            <circle cx="253.07" cy="49.00" r="6.67"/> 
            <circle cx="242.72" cy="81.63" r="6.67"/> 
            <circle cx="234.68" cy="96.27" r="6.67"/> 
            <circle cx="273.97" cy="42.35" r="6.67"/> 
            <circle cx="271.27" cy="60.97" r="6.67"/> 
            <circle cx="263.42" cy="75.98" r="6.67"/> 
            <circle cx="232.25" cy="115.08" r="6.67"/> 
            <circle cx="291.41" cy="56.04" r="6.67"/> 
            <circle cx="260.11" cy="95.18" r="6.67"/> 
            <circle cx="287.55" cy="75.44" r="6.67"/> 
            <circle cx="252.42" cy="111.05" r="6.67"/> 
            <circle cx="279.72" cy="91.49" r="6.67"/> 
            <circle cx="306.88" cy="71.92" r="6.67"/> 
            <circle cx="301.57" cy="92.13" r="6.67"/> 
            <circle cx="274.63" cy="111.76" r="6.67"/> 
            <circle cx="247.72" cy="131.44" r="6.67"/> 
            <circle cx="320.10" cy="89.72" r="6.67"/> 
            <circle cx="293.19" cy="109.52" r="6.67"/> 
            <circle cx="266.31" cy="129.49" r="6.67"/> 
            <circle cx="313.01" cy="110.66" r="6.67"/> 
            <circle cx="330.84" cy="109.11" r="6.67"/> 
            <circle cx="285.78" cy="130.78" r="6.67"/> 
            <circle cx="303.43" cy="129.56" r="6.67"/> 
            <circle cx="258.25" cy="151.35" r="6.67"/> 
            <circle cx="321.65" cy="130.66" r="6.67"/> 
            <circle cx="338.91" cy="129.76" r="6.67"/> 
            <circle cx="275.59" cy="150.64" r="6.67"/> 
            <circle cx="293.15" cy="151.55" r="6.67"/> 
            <circle cx="310.15" cy="151.04" r="6.67"/> 
            <circle cx="327.31" cy="151.70" r="6.67"/> 
            <circle cx="344.18" cy="151.29" r="6.67"/> 
            <circle cx="263.07" cy="173.35" r="6.67"/> 
            <circle cx="279.78" cy="173.34" r="6.67"/> 
            <circle cx="296.48" cy="173.34" r="6.67"/> 
            <circle cx="313.17" cy="173.34" r="6.67"/> 
            <circle cx="329.85" cy="173.34" r="6.67"/> 
            <circle cx="346.53" cy="173.34" r="6.67"/> 
        </g>
    </g>
</svg>
